<?xml version="1.0" encoding="UTF-8" standalone="no"?>
<svg width="811px" height="453px" viewBox="0 0 811 453" version="1.1" xmlns="http://www.w3.org/2000/svg" xmlns:xlink="http://www.w3.org/1999/xlink" xmlns:sketch="http://www.bohemiancoding.com/sketch/ns">
    <!-- Generator: Sketch 3.2.2 (9983) - http://www.bohemiancoding.com/sketch -->
    <title>Rectangle 1</title>
    <desc>Created with Sketch.</desc>
    <defs>
        <path id="path-1" d="M24.3698,0.09655 L0.31389,20.34912 L22.94407,24.35267 L47,4.10011 L24.3698,0.09655 L24.3698,0.09655 Z"></path>
        <path id="path-3" d="M0.31298,43.30189 L24.3687,23.04932 L24.3687,-0.0066 L0.31298,20.24601 L0.31298,43.30189 L0.31298,43.30189 Z"></path>
        <path id="path-5" d="M0,23.91433 C0,29.48135 4.26273,30.09167 6.94585,29.972 C6.94585,29.972 17.44283,29.58855 19.77116,29.271 L19.77116,24.53914 L8.3022,24.53914 C7.11032,24.53914 5.77245,24.58027 5.75397,22.39469 L5.75397,17.68542 L17.90111,17.29573 L17.90111,12.54938 L5.75397,12.11435 L5.75397,7.40508 C5.75397,6.29164 5.75397,5.09578 7.89113,5.09578 L19.77116,5.09578 L19.77116,0.32263 C17.12634,-0.04026 6.53495,-0.33707 6.53495,-0.33707 C3.69761,-0.39286 0,0.69277 0,5.93095 L0,23.91433 L0,23.91433 Z"></path>
        <path d="M0,24.00224 C0,29.56926 4.26273,30.17958 6.94585,30.05991 C6.94585,30.05991 17.44283,29.67646 19.77116,29.35891 L19.77116,24.62706 L8.3022,24.62706 C7.11032,24.62706 5.77245,24.66818 5.75397,22.4826 L5.75397,17.77333 L17.90111,17.38364 L17.90111,12.63729 L5.75397,12.20227 L5.75397,7.49299 C5.75397,6.37956 5.75397,5.1837 7.89113,5.1837 L19.77116,5.1837 L19.77116,0.41055 C17.12634,0.04766 6.53495,-0.24916 6.53495,-0.24916 C3.69761,-0.30495 0,0.78068 0,6.01886 L0,24.00224 L0,24.00224 Z M47.11831,29.9362 L53.29965,29.9362 L55.46973,23.24765 L65.32348,23.24765 L67.46064,29.9362 L73.58654,29.9362 L63.8151,-0.24916 L57.26991,-0.24916 L47.11831,29.9362 L47.11831,29.9362 Z M56.96383,18.13217 L60.58047,7.359 L63.96109,18.13217 L56.96383,18.13217 L56.96383,18.13217 Z" id="path-7"></path>
        <path d="M-0.04932,29.93625 L5.70465,29.93625 L5.70465,17.93637 L10.75995,18.51365 L15.73311,29.93625 L22.20842,29.93625 L16.51191,18.04963 C18.18256,17.52191 21.30212,16.63534 21.30212,9.1632 C21.30212,1.95485 17.80862,-0.24928 13.11298,-0.24928 L-0.04932,-0.24928 L-0.04932,29.93625 L-0.04932,29.93625 Z M5.72733,13.4002 L5.72733,4.88474 L12.54786,4.88474 C14.35627,4.88474 15.507,5.73423 15.507,9.1632 C15.507,12.81061 14.55147,13.4002 12.54786,13.4002 L5.72733,13.4002 L5.72733,13.4002 Z" id="path-9"></path>
        <path d="M-0.04932,29.84833 L12.73484,29.84833 C20.07933,29.84833 23.17218,23.76589 23.17218,14.87929 C23.17218,7.40092 21.39452,-0.33719 12.73484,-0.33719 L-0.04932,-0.33719 L-0.04932,29.84833 L-0.04932,29.84833 Z M5.70465,24.69982 L5.70465,4.7557 L12.28278,4.7557 C15.49053,4.7557 17.41821,6.76178 17.41821,14.83816 C17.41821,20.89381 16.01247,24.69982 12.28278,24.69982 L5.70465,24.69982 L5.70465,24.69982 Z" id="path-11"></path>
    </defs>
    <g id="Page-1" stroke="none" stroke-width="1" fill="none" fill-rule="evenodd" sketch:type="MSPage">
        <g id="Group" sketch:type="MSLayerGroup" transform="translate(3.000000, 26.000000)">
            <text id="Пантікапей" sketch:type="MSTextLayer" font-family="Times New Roman" font-size="24" font-weight="normal" fill="#000000">
                <tspan x="478" y="228">Пантікапей</tspan>
            </text>
            <text id="Феодосія" sketch:type="MSTextLayer" font-family="Times New Roman" font-size="24" font-weight="normal" fill="#000000">
                <tspan x="484" y="312">Феодосія</tspan>
            </text>
            <text id="Херсонес" sketch:type="MSTextLayer" font-family="Times New Roman" font-size="24" font-weight="normal" fill="#000000">
                <tspan x="339" y="316">Херсонес</tspan>
            </text>
            <text id="Керкінітида" sketch:type="MSTextLayer" font-family="Times New Roman" font-size="24" font-weight="normal" fill="#000000">
                <tspan x="306" y="241">Керкінітида</tspan>
            </text>
            <text id="Ольвія" sketch:type="MSTextLayer" font-family="Times New Roman" font-size="24" font-weight="normal" fill="#000000">
                <tspan x="193" y="81">Ольвія</tspan>
            </text>
            <text id="Тіра" sketch:type="MSTextLayer" font-family="Times New Roman" font-size="24" font-weight="normal" fill="#000000">
                <tspan x="26" y="154">Тіра</tspan>
            </text>
            <circle id="Oval-8" stroke="#000000" stroke-width="4" fill="#D0011B" sketch:type="MSShapeGroup" cx="350" cy="331" r="8"></circle>
            <circle id="Oval-7" stroke="#000000" stroke-width="4" fill="#D0011B" sketch:type="MSShapeGroup" cx="80" cy="166" r="8"></circle>
            <circle id="Oval-6" stroke="#000000" stroke-width="4" fill="#D0011B" sketch:type="MSShapeGroup" cx="227" cy="98" r="8"></circle>
            <circle id="Oval-5" stroke="#000000" stroke-width="4" fill="#D0011B" sketch:type="MSShapeGroup" cx="332" cy="262" r="8"></circle>
            <path d="M687.825749,329.862489 C687.825749,329.862489 687.05858,326.682279 681.862909,324.321988 C679.663553,323.322864 677.858772,322.36074 675.542668,320.012217 C674.970304,319.431841 674.055362,317.912467 673.741994,316.866312 C673.600552,316.39412 672.079907,315.205118 672.079907,315.205118 C672.079907,315.205118 664.859748,315.700455 659.489609,315.358256 C655.787048,315.122319 652.48693,313.941569 650.723703,312.889554 C646.907447,310.612615 645.696297,305.414171 643.392511,302.066647 C639.557387,296.494007 634.583214,290.152036 634.583214,290.152036 C634.583214,290.152036 628.367558,292.499027 626.873785,290.152036 C625.380011,287.805044 630.729519,279.221769 625.49201,277.019437 C623.777499,276.298498 621.026273,277.898303 618.96354,278.84039 C614.725011,280.776202 608.722331,282.99606 606.925383,282.99606 C605.880077,282.99606 603.915682,282.721064 603.18169,281.544644 C602.653902,280.698722 603.18169,278.84039 603.18169,278.84039 C603.18169,278.84039 606.70943,270.292338 606.925383,265.944547 C607.042263,263.591375 604.973819,262.800243 603.860877,260.252545 C602.917513,258.09304 604.148772,252.867367 606.925383,248.52406 C608.585011,245.92799 611.922558,248.628321 613.858207,247.619016 C618.981497,244.947578 616.971755,238.651545 630.511899,241.733273 C634.82848,242.715725 636.620449,246.54641 639.422967,248.52406 C642.696931,250.834396 647.645316,252.941054 651.431191,252.636182 C654.569993,252.383417 656.82749,249.899622 657.41272,249.685422 C658.277693,249.368833 657.118507,247.870226 657.41272,245.205365 C657.557666,243.892507 657.111748,242.931962 658.520463,240.93092 C659.791318,239.125705 662.563803,238.850148 663.716099,238.310742 C666.433772,237.038563 668.106699,234.657831 669.25359,231.435361 C670.374443,228.286053 669.368014,224.932452 668.975705,221.952435 C668.424381,217.764529 668.218959,214.267493 669.25359,212.701657 C670.476707,210.850562 673.283583,209.763788 674.669224,207.882489 C677.187869,204.4629 674.549624,194.097269 677.338841,190.685635 C678.641717,189.092022 679.803262,187.12567 681.862912,186.318204 C686.167772,184.630525 692.077554,184.89517 695.137715,182.388852 C699.812019,178.560526 694.991856,164.674044 698.153416,161.401685 C699.871107,159.623796 702.231688,158.629692 705.522397,158.833585 C707.852396,158.977952 715.332454,158.334726 715.332454,158.334726 C715.332454,158.334726 715.921262,156.410712 715.332455,154.550351 C714.508039,151.94557 711.510691,150.062738 710.36414,146.596143 C709.566544,144.184611 710.074344,137.403825 709.337849,132.805524 C708.692238,128.77465 707.732275,127.260933 705.522397,126.53494 C703.89237,125.99944 701.104453,127.159715 698.704487,128.12843 C696.229712,129.127342 693.32879,129.459714 691.258107,129.271741 C686.637783,128.852316 681.360189,125.678457 679.467251,121.95667 C679.131756,121.297038 681.050814,119.640565 680.786427,119.033597 C680.390927,118.125624 681.647326,114.507569 680.309064,112.439618 C679.011034,110.433838 675.096319,109.984798 676.03687,108.622182 C677.643013,106.295293 683.130134,107.38453 686.625401,105.767804 C689.717502,104.337562 688.266015,98.6001159 689.726834,96.6199616 C690.552978,95.500116 691.978923,95.6549393 692.243123,95.0850266 C694.06651,91.1517496 701.731166,92.0073193 706.027791,89.3062562 C710.002112,86.807808 711.980007,70.5750067 716.233845,68.525853 C720.497423,66.4720078 723.966062,70.1269161 727.914448,71.1093873 C730.640455,71.7876955 735.130873,73.127758 739.812367,72.6534775 C742.718967,72.359011 746.589159,66.1364465 746.534581,65.1628731 C746.479471,64.1798229 747.543836,62.6329815 748.766682,60.8769883 C749.98286,59.130571 751.349048,57.174948 754.380742,56.2084054 C763.479684,53.3075467 771.308265,57.7869358 775.133702,52.8915147 C775.534466,52.3786565 775.614214,51.5609751 775.593205,50.653407 C775.513172,47.1959989 773.523514,41.5136165 773.327183,38.4934052 C773.302574,38.1148273 772.731719,37.3102941 772.510945,36.5538996 C771.93845,34.5924721 771.171774,32.0849075 768.335866,32.2739428 C765.618919,32.4550484 763.260812,33.8437018 760.110829,35.1854495 C755.241792,37.2594352 751.648369,40.3789502 744.952153,36.2578286 C738.255937,32.136707 722.569851,26.706615 737.542299,21.2958649 C752.514748,15.8851149 772.481915,12.7479521 782.650146,22.634511 C792.818377,32.5210699 829.507565,-60.9585991 788.775031,71.1093888 C748.042496,203.177377 687.825749,329.862489 687.825749,329.862489 Z" id="Path-21" fill-opacity="0.35" fill="#9012FE" sketch:type="MSShapeGroup"></path>
            <text id="Фанагорія" sketch:type="MSTextLayer" font-family="Times New Roman" font-size="24" font-weight="normal" fill="#000000">
                <tspan x="626" y="275">Фанагорія</tspan>
            </text>
            <circle id="Oval-3" stroke="#000000" stroke-width="4" fill="#D0011B" sketch:type="MSShapeGroup" cx="617" cy="259" r="8"></circle>
            <path d="M417.554759,174.14365 C419.992709,173.669153 421.310873,173.74793 422.662824,172.317508" id="Path" stroke="#EFA72C" stroke-width="3" sketch:type="MSShapeGroup"></path>
            <path d="M481.485129,280.297499 L478.894733,256.118124 L484.19411,258.76386 L491.623089,259.10774 L496.883424,259.565385 L499.968005,260.774138 C499.968005,260.774138 502.856188,260.069969 505.328166,258.763859 C507.622595,257.551561 509.455788,255.742147 510.853816,255.45852 C512.140206,255.197541 513.417016,255.906651 514.612819,256.343216 C516.116741,256.892271 517.40248,257.237083 517.40248,257.237083 C517.40248,257.237083 518.725403,257.482858 520.196593,256.343216 C521.454877,255.368501 523.218894,252.676806 525.181888,250.823435 C526.957057,249.1474 526.809906,248.302086 530.623561,247.381089 C534.437217,246.460091 537.972602,247.734479 537.972602,247.734479 C537.972602,247.734479 543.215046,249.290167 548.433772,248.915971 C553.652499,248.541775 556.902301,244.734512 556.902301,244.734512 L561.390132,239.616282 C561.390132,239.616282 563.939414,236.980065 567.220172,235.366981 C570.50093,233.753897 571.370374,233.731739 574.691425,233.309809 C578.012475,232.88788 578.791089,232.455727 581.45547,233.309809 C584.119851,234.163891 584.360223,233.795988 585.295146,236.454289 C586.230069,239.11259 585.684118,239.494222 584.818412,242.372299 C583.952707,245.250376 584.480631,246.577761 581.776714,248.915972 C579.072796,251.254183 576.337176,251.135791 573.827632,252.891154 C571.318088,254.646517 570.393094,261.286199 570.393094,261.286199 C570.393094,261.286199 571.324375,268.455721 570.018939,271.552872 C568.713503,274.650024 562.81891,276.25486 562.059772,278.357804 C561.300634,280.460748 562.944254,283.165678 561.719396,282.833861 C560.494537,282.502044 559.371164,281.186894 557.480609,281.011899 C555.590054,280.836903 552.096142,285.169719 549.522914,285.538987 C546.949686,285.908254 547.138978,283.578053 542.533889,283.447789 C540.051728,283.377576 536.533301,284.103848 534.559688,285.538987 C532.871708,286.766424 532.48493,289.325099 531.57537,289.660672 C529.602338,290.388602 525.704089,288.982247 525.704089,288.982247 C525.704089,288.982247 522.26263,284.730676 517.40248,284.224499 C515.821144,284.059806 514.25023,284.375628 513.216373,284.791901 C511.072727,285.655021 509.626262,286.869069 506.692139,287.002183 C502.420311,287.195985 498.668086,285.044106 498.668086,285.044106 C498.668086,285.044106 495.963769,287.226415 495.878858,287.247139 C494.73721,287.525779 494.221895,288.467046 493.474129,288.982247 C491.096373,290.620489 490.543533,291.548516 490.543533,291.548516 L482.356087,288.427228 L481.485129,280.297499 Z" id="Path-26" opacity="0.350715965" fill="#9012FE" sketch:type="MSShapeGroup"></path>
            <circle id="Oval-4" stroke="#000000" stroke-width="4" fill="#D0011B" sketch:type="MSShapeGroup" cx="489" cy="280" r="8"></circle>
            <path d="M422.574119,172.366138 C424.883104,156.64334 438.791969,169.37077 449.512963,162.91832 C451.142245,161.937734 450.535206,159.282034 452.139472,158.479901 C455.870849,156.614212 462.528027,156.575513 464.952267,152.484609 C466.949078,149.114991 465.779299,139.082191 469.630497,137.201373 C475.05315,134.553101 492.614034,130.770675 495.667193,127.669811 C497.904604,125.39744 500.560012,117.106581 503.630463,116.330145 C514.52834,113.57436 527.124203,116.071418 538.125277,113.703637 C546.601024,111.879387 554.194895,107.846825 562.51755,105.157967 C568.136555,103.342596 576.47925,105.94579 581.816679,103.513544 C585.279707,101.935456 587.935402,99.0622957 591.588053,97.6819333 C595.806382,96.0877975 605.457567,99.9291476 608.915398,97.3507648 C613.032739,94.2806087 614.708529,87.5550103 618.279472,85.1926939 C621.471193,83.0812478 626.786673,83.3481492 629.20042,81.4927424 C641.983826,71.6663516 650.686356,58.7896433 665.910637,51.1775024 C669.564108,49.3507673 678.299151,61.0343673 681.844791,61.5274695 C694.187004,63.2439363 691.658099,51.6623998 701.307601,49.6967605 C709.626223,48.0022264 709.623978,56.5711723 715.677268,53.8877549 C718.20003,52.7694171 719.676265,49.7447614 722.247347,48.8745491 C726.151187,47.5532492 728.13376,51.8428887 730.78921,50.9300777 C733.298077,50.0676546 734.933732,45.5173397 737.359288,44.6835547 C739.232151,44.0397581 740.717569,46.3314783 742.452431,45.7531909 C744.56464,45.0491215 745.866489,41.9590458 747.709255,40.7399851 C750.084272,39.1688199 754.113176,40.0408699 756.410993,38.5207755 C757.117172,38.0536108 769.419647,32.0353096 770.20968,34.3335877 C781.542542,67.301914 766.870225,46.7304553 750.74687,56.4343264 C745.732616,59.4521646 744.771372,70.4205875 739.003711,71.2227126 C731.791403,72.2257488 719.868632,65.208322 716.663161,66.2932506 C712.042488,67.8571706 708.335211,83.3285751 706.233256,86.5059483 C703.404396,90.7821322 691.851819,91.425727 688.57855,95.7900857 C686.603821,98.4230575 687.97347,101.970421 686.770446,103.760969 C685.07034,106.291359 677.452911,104.334119 675.354649,107.457114 C671.965418,112.501551 677.852051,110.949533 679.050794,113.292531 C683.83299,122.639549 669.669531,119.073614 686.606765,129.477915 C689.745621,131.406069 696.731089,131.078918 699.663178,129.314234 C711.67795,122.083121 707.05301,143.14282 709.190934,146.896617 C709.545014,147.518315 715.344518,157.016206 713.789227,157.414071 C709.636353,158.476434 703.885914,156.374789 700.074284,158.236283 C690.951926,162.691388 699.23309,174.871748 694.490098,180.828064 C690.866911,185.378113 682.710705,182.204373 678.312327,186.990844 C672.109474,193.741006 675.612053,198.608487 673.79397,206.053968 C673.060965,209.055799 668.03284,209.423808 667.307636,213.118896 C666.120926,219.165466 669.067169,225.909423 667.55506,231.934595 C666.028433,238.017619 659.10782,236.572424 656.877731,241.138795 C655.539301,243.879391 657.772623,248.843748 654.98969,250.091764 C640.701345,256.499424 634.43867,232.908391 618.195729,241.218733 C616.161002,242.259756 614.976606,245.314772 613.270073,246.148195 C611.513679,247.005969 607.30593,245.051576 606.288889,247.134087 C596.662951,266.844341 605.961527,258.491283 605.961527,269.074951 C605.961527,269.665829 593.212495,289.671178 613.924797,282.713764 C615.45645,282.199271 624.406065,277.805648 625.588019,278.933876 C627.603401,280.85765 624.363274,287.9671 625.667956,290.51716 C627.899477,294.878769 631.328079,290.678841 633.966201,291.997902 C638.21733,294.123466 645.085716,311.381203 652.032013,315.248214 C657.652722,318.377268 671.607784,315.946992 672.06961,316.892637 C675.916071,324.768723 680.005112,323.598628 686.279403,329.872919 C690.877538,334.471054 687.372518,341.681082 695.47599,344.006581 C704.216498,346.514895 726.13097,339.348341 727.256746,340.474117 C731.949822,345.167194 727.993882,361.012165 735.882353,363.560748 C745.731164,366.742672 753.680609,356.212325 763.064815,360.850496 C763.614536,361.122197 764.402517,365.552119 765.116537,366.438488 C767.000075,368.776673 770.647269,369.04501 772.508827,371.858993 C773.692355,373.648048 771.220314,378.31797 772.181465,380.732025 C775.378369,388.761458 797.664282,393.996983 803.932151,388.386475" id="Path" stroke="#EFA72C" stroke-width="3" sketch:type="MSShapeGroup"></path>
            <path d="M0.211824403,305.225608 C5.62978488,325.08861 21.7673664,304.698664 25.4193518,293.3949 C25.5484688,292.995252 30.5235943,292.281793 31.4945807,290.026117 C34.1029819,283.9666 32.637215,277.259432 35.1107884,271.046736 C36.8703203,266.627447 45.2095241,268.437498 45.2095241,259.870751 C45.2095241,258.674491 37.896865,257.260391 36.8351484,254.777608 C34.2181082,248.65776 41.4346745,241.582088 39.4616572,235.055953 C38.0674777,230.444437 19.1870509,215.837483 30.5086883,201.783036 C33.2420935,198.389844 44.4360643,195.748946 47.7560957,199.068977 C50.808868,202.121749 43.9198909,213.130066 49.3167748,212.216747 C57.6072421,210.813745 60.3160713,195.785526 66.0693327,190.032264 C68.8597667,187.24183 75.6880496,187.546309 79.2932332,184.528016 C81.0925215,183.021635 81.9186,178.117319 83.807783,177.215663 C108.756747,165.308203 71.8309842,148.685467 82.5782724,138.103522 C85.9445358,134.789047 88.4571119,148.022906 89.228288,148.541039 C94.2534617,151.917328 109.134475,157.191588 114.359028,152.728227 C122.298734,145.9453 125.883771,140.038462 123.966721,130.627489 C123.580084,128.729454 124.688114,124.548712 123.639359,122.987774 C123.05697,122.120962 117.931731,117.619186 118.713704,116.824995 C121.989276,113.498241 130.764835,118.852329 135.877367,117.810887 C144.565207,116.041142 155.42794,109.281557 162.732467,107.046008 C178.346892,102.267216 213.664057,107.882381 229.004231,110.498535 C232.146893,111.034492 241.657244,109.44975 243.788811,111.484427 C248.648434,116.123158 222.941488,120.534407 218.49439,120.030097 C214.208348,119.544051 199.143359,110.389631 197.139732,118.221993 C196.754563,119.727652 216.100935,127.248141 218.905496,130.052702 C220.172786,131.319992 215.953959,138.109384 216.933711,140.570156 C218.00738,143.266814 223.961425,143.661036 226.214042,144.761151 C227.75747,145.514918 225.152941,152.736763 226.872572,154.456394 C229.650985,157.234807 235.730208,155.060928 239.270455,156.839284 C242.233979,158.327938 241.090341,164.532037 245.676852,165.548635 C249.575258,166.412715 252.878248,163.884218 256.601606,164.64268 C266.753856,166.710731 275.492521,176.506636 284.933641,177.379344 C291.885003,178.021907 295.81324,174.919928 302.013561,173.352031 C307.402735,171.989251 308.080169,176.43352 313.101996,177.131919 C323.693486,178.604908 343.40489,167.965004 351.209212,179.762235 C355.202628,185.798794 332.585143,193.628136 329.443448,196.76983 C323.923765,202.289514 322.900363,215.491344 320.494286,217.30989 C318.29622,218.971219 312.389345,217.447755 310.802849,219.03425 C297.618548,232.218551 303.722082,221.253995 290.190465,224.949605 C284.894623,226.395948 281.862025,231.605179 276.475522,232.920488 C274.215189,233.472429 272.856745,230.481345 270.560168,231.52349 C267.873193,232.742789 256.795496,253.392504 255.120864,256.665649 C248.658525,269.296585 285.10796,256.65626 286.741745,256.418225 C290.492974,255.871688 295.338654,253.090547 299.223372,254.039141 C302.151349,254.754112 302.009546,261.299551 304.396452,263.075853 C307.969141,265.734599 314.935012,262.595363 318.522501,264.389108 C320.096999,265.176357 324.113377,271.411603 328.213938,273.509564 C330.471213,274.664449 329.16212,283.053256 330.26566,285.260336 C334.267662,293.264339 333.616886,314.923997 333.878061,315.248214 C335.920069,317.78312 342.651315,317.437436 340.859245,322.396885 C334.499615,339.996791 320.480023,342.60264 349.812214,352.304826 C356.117324,354.390363 343.634365,362.319614 355.148975,361.341539 C360.220055,360.910791 370.070166,355.36951 373.298531,352.141145 C374.131259,351.308417 376.877847,355.784689 378.064312,356.084715 C381.687371,357.000891 385.287901,356.413291 388.083111,353.618081 C390.718775,350.982416 397.299773,338.224719 399.167739,337.269015 C402.027371,335.805948 411.161477,339.05843 412.144215,337.352759 C415.598807,331.356857 424.523005,321.981567 431.363407,318.864421 C433.915393,317.701491 439.791615,317.90904 442.448035,318.780678 C443.330604,319.070271 444.855891,316.175328 445.07835,316.397787 C445.534374,316.853811 449.392866,322.503845 450.742474,320.26142 C455.441884,312.453168 462.248578,311.952804 468.975773,305.225609 C471.289694,302.911688 478.021286,291.192168 480.144145,290.106054 C482.813376,288.740401 490.208736,293.949563 491.312517,292.820113 C494.348123,289.713912 495.898389,289.459946 498.621063,286.737271 C498.718735,286.6396 505.116833,289.148266 506.915502,288.709056 C509.408444,288.100314 516.721541,284.74285 518.906085,285.835122 C523.731139,288.247649 524.505499,291.983303 531.227837,291.255627 C535.983981,290.740787 529.875946,286.09589 543.050933,284.929167 C545.92994,284.674214 547.130822,287.998496 550.195798,286.984696 C553.108,286.021429 554.436914,283.072983 557.588088,282.466339 C558.028428,282.381568 561.882336,285.612832 563.092337,284.110762 C564.196113,282.740557 562.614048,280.168216 563.499636,278.850132 C564.627709,277.171139 569.250007,275.923635 570.975669,272.607415 C573.578983,267.604606 570.660158,261.212577 572.943648,256.749393 C577.325808,248.184262 584.871686,256.481138 586.826079,239.246948 C587.964085,229.211798 575.337769,230.899501 569.251309,232.920488 C558.581077,236.463499 558.320093,244.797782 550.690648,246.970406 C542.649639,249.26023 535.339379,243.458055 528.350097,246.643044 C524.944901,248.194779 521.231917,253.147163 518.578723,255.679757 C518.194973,256.046064 511.764387,253.93521 510.695391,254.039141 C508.203405,254.281417 502.61201,260.223705 499.606956,258.721178 C494.614783,256.225091 486.627609,258.173405 482.363355,256.090863 C472.517162,251.282257 475.524758,239.106797 470.61639,231.687171 C467.180016,226.492652 455.425433,225.322402 450.662536,220.514992 C445.962079,215.770605 455.327561,210.573221 453.125364,208.927901 C448.124524,205.191641 436.873201,202.936388 433.826235,198.33051 C432.242558,195.93658 433.627611,191.543403 430.13009,190.359626 C426.251779,189.046967 413.188692,187.17674 411.569428,182.39255 C409.303477,175.697693 415.535151,174.929023 417.648464,174.010561" id="Path" stroke="#EFA72C" stroke-width="3" sketch:type="MSShapeGroup"></path>
            <g transform="translate(18.000000, 330.000000)">
                <g id="Group-5" transform="translate(53.000000, 23.000000)">
                    <mask id="mask-2" sketch:name="Clip 4" fill="white">
                        <use xlink:href="#path-1"></use>
                    </mask>
                    <g id="Clip-4"></g>
                    <path d="M-4.68611,-4.90345 L52,-4.90345 L52,29.35267 L-4.68611,29.35267 L-4.68611,-4.90345 Z" id="Fill-3" fill="#EFA72C" sketch:type="MSShapeGroup" mask="url(#mask-2)"></path>
                </g>
                <g id="Group-8" transform="translate(53.000000, 0.000000)">
                    <mask id="mask-4" sketch:name="Clip 7" fill="white">
                        <use xlink:href="#path-3"></use>
                    </mask>
                    <g id="Clip-7"></g>
                    <path d="M-4.68702,-5.0066 L29.3687,-5.0066 L29.3687,48.30189 L-4.68702,48.30189 L-4.68702,-5.0066 Z" id="Fill-6" fill="#F7C169" sketch:type="MSShapeGroup" mask="url(#mask-4)"></path>
                </g>
                <g id="Group-11" transform="translate(0.000000, 20.000000)">
                    <mask id="mask-6" sketch:name="Clip 10" fill="white">
                        <use xlink:href="#path-5"></use>
                    </mask>
                    <g id="Clip-10"></g>
                    <path d="M-5,-5.3391 L24.77116,-5.3391 L24.77116,34.98496 L-5,34.98496 L-5,-5.3391 Z" id="Fill-9" fill="#0E5180" sketch:type="MSShapeGroup" mask="url(#mask-6)"></path>
                </g>
                <g id="Group-14" transform="translate(0.000000, 54.000000)">
                    <mask id="mask-8" sketch:name="Clip 13" fill="white">
                        <use xlink:href="#path-7"></use>
                    </mask>
                    <g id="Clip-13"></g>
                    <path d="M-5,-5.25116 L78.5865,-5.25116 L78.5865,35.07287 L-5,35.07287 L-5,-5.25116 Z" id="Fill-12" fill="#EFA72C" sketch:type="MSShapeGroup" mask="url(#mask-8)"></path>
                </g>
                <g id="Group-17" transform="translate(23.000000, 54.000000)">
                    <mask id="mask-10" sketch:name="Clip 16" fill="white">
                        <use xlink:href="#path-9"></use>
                    </mask>
                    <g id="Clip-16"></g>
                    <path d="M-5.04932,-5.24928 L27.20842,-5.24928 L27.20842,34.93625 L-5.04932,34.93625 L-5.04932,-5.24928 Z" id="Fill-15" fill="#EFA72C" sketch:type="MSShapeGroup" mask="url(#mask-10)"></path>
                </g>
                <g id="Group-20" transform="translate(23.000000, 20.000000)">
                    <mask id="mask-12" sketch:name="Clip 19" fill="white">
                        <use xlink:href="#path-11"></use>
                    </mask>
                    <g id="Clip-19"></g>
                    <path d="M-5.04932,-5.3372 L28.17218,-5.3372 L28.17218,34.84833 L-5.04932,34.84833 L-5.04932,-5.3372 Z" id="Fill-18" fill="#0E5180" sketch:type="MSShapeGroup" mask="url(#mask-12)"></path>
                </g>
            </g>
            <circle id="Oval-1" stroke="#000000" stroke-width="4" fill="#D0011B" sketch:type="MSShapeGroup" cx="350" cy="331" r="8"></circle>
            <circle id="Oval-2" stroke="#000000" stroke-width="4" fill="#D0011B" sketch:type="MSShapeGroup" cx="576" cy="241" r="8"></circle>
        </g>
        <text id="Меотида" opacity="0.496532172" sketch:type="MSTextLayer" font-family="Times New Roman" font-size="36" font-style="italic" font-weight="normal" fill="#0E5180">
            <tspan x="502" y="195">Меотида</tspan>
        </text>
        <text id="В-е-л-и-к-а---С-к-і-" opacity="0.333197295" sketch:type="MSTextLayer" font-family="Times New Roman" font-size="48" font-style="italic" font-weight="normal" fill="#000000">
            <tspan x="177" y="59">В е л и к а   С к і ф і я</tspan>
        </text>
        <text id="Понт-Евксинкський" opacity="0.496532172" sketch:type="MSTextLayer" font-family="Times New Roman" font-size="48" font-style="italic" font-weight="normal" fill="#0E5180">
            <tspan x="221" y="435">Понт Евксинкський</tspan>
        </text>
        <text id="Боспорське" opacity="0.32879433" sketch:type="MSTextLayer" transform="translate(799.500000, 69.000000) rotate(-70.000000) translate(-799.500000, -69.000000) " font-family="Times New Roman" font-size="38" font-style="italic" font-weight="normal" fill="#000000">
            <tspan x="591" y="59">Боспорське</tspan>
            <tspan x="591" y="103">царство</tspan>
        </text>
        <rect id="Rectangle-1" stroke="#EFA72C" stroke-width="4" sketch:type="MSShapeGroup" x="0" y="0" width="811" height="453"></rect>
    </g>
</svg>