<?xml version="1.0" encoding="UTF-8" standalone="no"?>
<svg
   xmlns:dc="http://purl.org/dc/elements/1.1/"
   xmlns:cc="http://creativecommons.org/ns#"
   xmlns:rdf="http://www.w3.org/1999/02/22-rdf-syntax-ns#"
   xmlns:svg="http://www.w3.org/2000/svg"
   xmlns="http://www.w3.org/2000/svg"
   viewBox="0 0 1093.3333 626.66669"
   height="626.66669"
   width="1093.3333"
   xml:space="preserve"
   version="1.1"
   id="svg2"><metadata
     id="metadata8"><rdf:RDF><cc:Work
         rdf:about=""><dc:format>image/svg+xml</dc:format><dc:type
           rdf:resource="http://purl.org/dc/dcmitype/StillImage" /></cc:Work></rdf:RDF></metadata><defs
     id="defs6"><clipPath
       id="clipPath18"
       clipPathUnits="userSpaceOnUse"><path
         id="path20"
         d="m 467,209 156,0 0,102 -156,0 0,-102 z" /></clipPath><clipPath
       id="clipPath32"
       clipPathUnits="userSpaceOnUse"><path
         id="path34"
         d="m 473,125 135,0 0,102 -135,0 0,-102 z" /></clipPath><clipPath
       id="clipPath46"
       clipPathUnits="userSpaceOnUse"><path
         id="path48"
         d="m 328,121 138,0 0,102 -138,0 0,-102 z" /></clipPath><clipPath
       id="clipPath60"
       clipPathUnits="userSpaceOnUse"><path
         id="path62"
         d="m 295,196 162,0 0,102 -162,0 0,-102 z" /></clipPath><clipPath
       id="clipPath74"
       clipPathUnits="userSpaceOnUse"><path
         id="path76"
         d="m 182,356 110,0 0,102 -110,0 0,-102 z" /></clipPath><clipPath
       id="clipPath88"
       clipPathUnits="userSpaceOnUse"><path
         id="path90"
         d="m 15,283 106,0 0,102 -106,0 0,-102 z" /></clipPath><clipPath
       id="clipPath102"
       clipPathUnits="userSpaceOnUse"><path
         style="clip-rule:evenodd"
         id="path104"
         d="m 359,105 c 4.4183,0 8,3.5817 8,8 0,4.4183 -3.5817,8 -8,8 -4.4183,0 -8,-3.5817 -8,-8 0,-4.4183 3.5817,-8 8,-8 z" /></clipPath><clipPath
       id="clipPath118"
       clipPathUnits="userSpaceOnUse"><path
         style="clip-rule:evenodd"
         id="path120"
         d="m 89,270 c 4.41828,0 8,3.5817 8,8 0,4.4183 -3.58172,8 -8,8 -4.41828,0 -8,-3.5817 -8,-8 0,-4.4183 3.58172,-8 8,-8 z" /></clipPath><clipPath
       id="clipPath134"
       clipPathUnits="userSpaceOnUse"><path
         style="clip-rule:evenodd"
         id="path136"
         d="m 236,338 c 4.4183,0 8,3.5817 8,8 0,4.4183 -3.5817,8 -8,8 -4.4183,0 -8,-3.5817 -8,-8 0,-4.4183 3.5817,-8 8,-8 z" /></clipPath><clipPath
       id="clipPath150"
       clipPathUnits="userSpaceOnUse"><path
         style="clip-rule:evenodd"
         id="path152"
         d="m 341,174 c 4.4183,0 8,3.5817 8,8 0,4.4183 -3.5817,8 -8,8 -4.4183,0 -8,-3.5817 -8,-8 0,-4.4183 3.5817,-8 8,-8 z" /></clipPath><clipPath
       id="clipPath166"
       clipPathUnits="userSpaceOnUse"><path
         style="clip-rule:evenodd"
         id="path168"
         d="m 696.8257,114.1375 c 0,0 -0.7671,3.1802 -5.9628,5.5405 -2.1993,0.9991 -4.0041,1.9613 -6.3202,4.3098 -0.5724,0.5804 -1.4873,2.0997 -1.8007,3.1459 -0.1414,0.4722 -1.6621,1.6612 -1.6621,1.6612 0,0 -7.2202,-0.4954 -12.5903,-0.1532 -3.7026,0.236 -7.0027,1.4167 -8.7659,2.4687 -3.8163,2.277 -5.0274,7.4754 -7.3312,10.823 -3.8351,5.5726 -8.8093,11.9146 -8.8093,11.9146 0,0 -6.2156,-2.347 -7.7094,0 -1.4938,2.347 3.8557,10.9302 -1.3818,13.1326 -1.7145,0.7209 -4.4657,-0.8789 -6.5285,-1.821 -4.2385,-1.9358 -10.2412,-4.1557 -12.0381,-4.1557 -1.0453,0 -3.0097,0.275 -3.7437,1.4515 -0.5278,0.8459 0,2.7042 0,2.7042 0,0 3.5277,8.5481 3.7437,12.8959 0.1169,2.3531 -1.9516,3.1443 -3.0645,5.692 -0.9434,2.1595 0.2879,7.3851 3.0645,11.7284 1.6596,2.5961 4.9972,-0.1042 6.9328,0.9051 5.1233,2.6714 3.1136,8.9675 16.6537,5.8857 4.3166,-0.9824 6.1085,-4.8131 8.9111,-6.7908 3.2739,-2.3103 8.2223,-4.417 12.0082,-4.1121 3.1388,0.2528 5.3963,2.7366 5.9815,2.9508 0.865,0.3166 -0.2942,1.8152 0,4.48 0.145,1.3129 -0.301,2.2734 1.1078,4.2745 1.2708,1.8052 4.0433,2.0808 5.1956,2.6202 2.7177,1.2721 4.3906,3.6529 5.5375,6.8753 1.1208,3.1493 0.1144,6.5029 -0.2779,9.483 -0.5513,4.1879 -0.7567,7.6849 0.2779,9.2507 1.2231,1.8511 4.03,2.9379 5.4156,4.8192 2.5187,3.4196 -0.1196,13.7852 2.6696,17.1969 1.3029,1.5936 2.4645,3.5599 4.5241,4.3674 4.3049,1.6877 10.2147,1.423 13.2748,3.9293 4.6743,3.8284 -0.1458,17.7149 3.0157,20.9872 1.7177,1.7779 4.0783,2.772 7.369,2.5681 2.33,-0.1444 9.8101,0.4989 9.8101,0.4989 0,0 0.5888,1.924 0,3.7843 -0.8245,2.6048 -3.8218,4.4877 -4.9684,7.9543 -0.7976,2.4115 -0.2898,9.1923 -1.0263,13.7906 -0.6456,4.0308 -1.6055,5.5446 -3.8154,6.2706 -1.63,0.5355 -4.4179,-0.6248 -6.8179,-1.5935 -2.4748,-0.9989 -5.3757,-1.3313 -7.4464,-1.1433 -4.6203,0.4194 -9.8979,3.5932 -11.7908,7.315 -0.3355,0.6597 1.5835,2.3161 1.3191,2.9231 -0.3955,0.908 0.8609,4.526 -0.4773,6.594 -1.2981,2.0058 -5.2128,2.4548 -4.2722,3.8174 1.6061,2.3269 7.0932,1.2377 10.5885,2.8544 3.0921,1.4302 1.6406,7.1677 3.1014,9.1478 0.8262,1.1199 2.2521,0.9651 2.5163,1.535 1.8234,3.9333 9.4881,3.0777 13.7847,5.7787 3.9743,2.4985 5.9522,18.7313 10.206,20.7804 4.2636,2.0539 7.7323,-1.601 11.6806,-2.5835 2.7261,-0.6783 7.2165,-2.0184 11.898,-1.5441 2.9066,0.2945 6.7768,6.5171 6.7222,7.4906 -0.0551,0.9831 1.0092,2.5299 2.2321,4.2859 1.2162,1.7464 2.5823,3.7021 5.614,4.6686 9.099,2.9009 16.9276,-1.5785 20.753,3.3169 0.4008,0.5128 0.4805,1.3305 0.4595,2.2381 -0.08,3.4574 -2.0697,9.1398 -2.266,12.16 -0.0246,0.3786 -0.5955,1.1831 -0.8163,1.9395 -0.5725,1.9614 -1.3391,4.469 -4.175,4.28 -2.717,-0.1811 -5.0751,-1.5698 -8.2251,-2.9115 -4.869,-2.074 -8.4624,-5.1936 -15.1586,-1.0724 -6.6963,4.1211 -22.3823,9.5512 -7.4099,14.9619 14.9724,5.4108 34.9396,8.5479 45.1078,-1.3386 10.1683,-9.8866 46.8575,83.5931 6.1249,-48.4749 C 757.0425,240.8226 696.8257,114.1375 696.8257,114.1375 Z" /></clipPath><clipPath
       id="clipPath176"
       clipPathUnits="userSpaceOnUse"><path
         id="path178"
         d="m 615,162 145,0 0,102 -145,0 0,-102 z" /></clipPath><clipPath
       id="clipPath190"
       clipPathUnits="userSpaceOnUse"><path
         style="clip-rule:evenodd"
         id="path192"
         d="m 626,177 c 4.4183,0 8,3.5817 8,8 0,4.4183 -3.5817,8 -8,8 -4.4183,0 -8,-3.5817 -8,-8 0,-4.4183 3.5817,-8 8,-8 z" /></clipPath><clipPath
       id="clipPath210"
       clipPathUnits="userSpaceOnUse"><path
         id="path212"
         d="m 487,152 109,0 0,60 -109,0 0,-60 z" /></clipPath><clipPath
       id="clipPath214"
       clipPathUnits="userSpaceOnUse"><path
         style="clip-rule:evenodd"
         id="path216"
         d="m 490.4851,163.7025 -2.5904,24.1794 5.2994,-2.6458 7.429,-0.3438 5.2603,-0.4577 3.0846,-1.2087 c 0,0 2.8882,0.7041 5.3602,2.0102 2.2944,1.2123 4.1276,3.0218 5.5256,3.3054 1.2864,0.261 2.5632,-0.4482 3.759,-0.8847 1.5039,-0.5491 2.7897,-0.8939 2.7897,-0.8939 0,0 1.3229,-0.2458 2.7941,0.8939 1.2583,0.9747 3.0223,3.6664 4.9853,5.5198 1.7752,1.676 1.628,2.5213 5.4417,3.4423 3.8136,0.921 7.349,-0.3534 7.349,-0.3534 0,0 5.2424,-1.5557 10.4612,-1.1815 5.2187,0.3742 8.4685,4.1815 8.4685,4.1815 l 4.4878,5.1182 c 0,0 2.5493,2.6362 5.8301,4.2493 3.2807,1.6131 4.1502,1.6353 7.4712,2.0572 3.3211,0.4219 4.0997,0.8541 6.7641,0 2.6644,-0.8541 2.9047,-0.4862 3.8396,-3.1445 0.935,-2.6583 0.389,-3.0399 -0.4767,-5.918 -0.8657,-2.8781 -0.3378,-4.2055 -3.0417,-6.5437 -2.7039,-2.3382 -5.4395,-2.2198 -7.9491,-3.9752 -2.5095,-1.7553 -3.4345,-8.395 -3.4345,-8.395 0,0 0.9313,-7.1695 -0.3742,-10.2667 -1.3054,-3.0971 -7.2,-4.702 -7.9591,-6.8049 -0.7592,-2.1029 0.8845,-4.8079 -0.3404,-4.4761 -1.2249,0.3319 -2.3482,1.647 -4.2388,1.822 -1.8905,0.175 -5.3845,-4.1578 -7.9577,-4.5271 -2.5732,-0.3693 -2.3839,1.9609 -6.989,2.0912 -2.4822,0.0702 -6.0006,-0.656 -7.9742,-2.0912 -1.688,-1.2274 -2.0748,-3.7861 -2.9843,-4.1217 -1.9731,-0.7279 -5.8713,0.6785 -5.8713,0.6785 0,0 -3.4415,4.2515 -8.3016,4.7577 -1.5814,0.1647 -3.1523,-0.1511 -4.1861,-0.5674 -2.1437,-0.8631 -3.5901,-2.0772 -6.5243,-2.2103 -4.2718,-0.1938 -8.024,1.9581 -8.024,1.9581 0,0 -2.7043,-2.1823 -2.7892,-2.203 -1.1417,-0.2787 -1.657,-1.2199 -2.4048,-1.7351 -2.3777,-1.6383 -2.9306,-2.5663 -2.9306,-2.5663 l -8.1874,3.1213 -0.871,8.1297 z" /></clipPath><clipPath
       id="clipPath218"
       clipPathUnits="userSpaceOnUse"><path
         id="path220"
         d="M 0,0 820,0 820,470 0,470 0,0 Z" /></clipPath><clipPath
       id="clipPath240"
       clipPathUnits="userSpaceOnUse"><path
         style="clip-rule:evenodd"
         id="path242"
         d="m 498,156 c 4.4183,0 8,3.5817 8,8 0,4.4183 -3.5817,8 -8,8 -4.4183,0 -8,-3.5817 -8,-8 0,-4.4183 3.5817,-8 8,-8 z" /></clipPath><clipPath
       id="clipPath264"
       clipPathUnits="userSpaceOnUse"><path
         style="clip-rule:evenodd"
         id="path266"
         d="M 104.3698,90.90345 80.31389,70.65088 102.9441,66.64733 127,86.89989 l -22.6302,4.00356 0,0 z" /></clipPath><clipPath
       id="clipPath270"
       clipPathUnits="userSpaceOnUse"><path
         id="path272"
         d="m 80,66 47,0 0,25 -47,0 0,-25 z" /></clipPath><clipPath
       id="clipPath274"
       clipPathUnits="userSpaceOnUse"><path
         style="clip-rule:evenodd"
         id="path276"
         d="m 75.31389,95.90345 56.68611,0 0,-34.25612 -56.68611,0 0,34.25612 z" /></clipPath><clipPath
       id="clipPath278"
       clipPathUnits="userSpaceOnUse"><path
         id="path280"
         d="m 80,66 47,0 0,25 -47,0 0,-25 z" /></clipPath><clipPath
       id="clipPath300"
       clipPathUnits="userSpaceOnUse"><path
         style="clip-rule:evenodd"
         id="path302"
         d="m 80.31298,70.69811 24.05572,20.25257 0,23.05592 -24.05572,-20.25261 0,-23.05588 0,0 z" /></clipPath><clipPath
       id="clipPath306"
       clipPathUnits="userSpaceOnUse"><path
         id="path308"
         d="m 80,70 25,0 0,45 -25,0 0,-45 z" /></clipPath><clipPath
       id="clipPath310"
       clipPathUnits="userSpaceOnUse"><path
         style="clip-rule:evenodd"
         id="path312"
         d="m 75.31298,119.0066 34.05572,0 0,-53.30849 -34.05572,0 0,53.30849 z" /></clipPath><clipPath
       id="clipPath314"
       clipPathUnits="userSpaceOnUse"><path
         id="path316"
         d="m 80,70 25,0 0,45 -25,0 0,-45 z" /></clipPath><clipPath
       id="clipPath336"
       clipPathUnits="userSpaceOnUse"><path
         style="clip-rule:evenodd"
         id="path338"
         d="m 27,70.08567 c 0,-5.56702 4.26273,-6.17734 6.94585,-6.05767 0,0 10.49698,0.38345 12.82531,0.701 l 0,4.73186 -11.46896,0 c -1.19188,0 -2.52975,-0.04113 -2.54823,2.14445 l 0,4.70927 12.14714,0.38969 0,4.74635 -12.14714,0.43503 0,4.70927 c 0,1.11344 0,2.3093 2.13716,2.3093 l 11.88003,0 0,4.77315 c -2.64482,0.36289 -13.23621,0.6597 -13.23621,0.6597 C 30.69761,94.39286 27,93.30723 27,88.06905 l 0,-17.98338 0,0 z" /></clipPath><clipPath
       id="clipPath342"
       clipPathUnits="userSpaceOnUse"><path
         id="path344"
         d="m 27,63 20,0 0,32 -20,0 0,-32 z" /></clipPath><clipPath
       id="clipPath346"
       clipPathUnits="userSpaceOnUse"><path
         style="clip-rule:evenodd"
         id="path348"
         d="m 22,99.3391 29.77116,0 0,-40.32406 -29.77116,0 0,40.32406 z" /></clipPath><clipPath
       id="clipPath350"
       clipPathUnits="userSpaceOnUse"><path
         id="path352"
         d="m 27,63 20,0 0,32 -20,0 0,-32 z" /></clipPath><clipPath
       id="clipPath372"
       clipPathUnits="userSpaceOnUse"><path
         style="clip-rule:evenodd"
         id="path374"
         d="m 27,35.99776 c 0,-5.56702 4.26273,-6.17734 6.94585,-6.05767 0,0 10.49698,0.38345 12.82531,0.701 l 0,4.73185 -11.46896,0 c -1.19188,0 -2.52975,-0.04112 -2.54823,2.14446 l 0,4.70927 12.14714,0.38969 0,4.74635 -12.14714,0.43502 0,4.70928 c 0,1.11343 0,2.30929 2.13716,2.30929 l 11.88003,0 0,4.77315 C 44.12634,59.95234 33.53495,60.24916 33.53495,60.24916 30.69761,60.30495 27,59.21932 27,53.98114 l 0,-17.98338 0,0 z m 47.11831,-5.93396 6.18134,0 2.17008,6.68855 9.85375,0 2.13716,-6.68855 6.12586,0 -9.7714,30.18536 -6.54519,0 -10.1516,-30.18536 0,0 z m 9.84552,11.80403 3.61664,10.77317 3.38062,-10.77317 -6.99726,0 0,0 z" /></clipPath><clipPath
       id="clipPath378"
       clipPathUnits="userSpaceOnUse"><path
         id="path380"
         d="m 27,29 74,0 0,32 -74,0 0,-32 z" /></clipPath><clipPath
       id="clipPath382"
       clipPathUnits="userSpaceOnUse"><path
         style="clip-rule:evenodd"
         id="path384"
         d="m 22,65.25116 83.5865,0 0,-40.32403 -83.5865,0 0,40.32403 z" /></clipPath><clipPath
       id="clipPath386"
       clipPathUnits="userSpaceOnUse"><path
         id="path388"
         d="m 27,29 74,0 0,32 -74,0 0,-32 z" /></clipPath><clipPath
       id="clipPath408"
       clipPathUnits="userSpaceOnUse"><path
         style="clip-rule:evenodd"
         id="path410"
         d="m 49.95068,30.06375 5.75397,0 0,11.99988 5.0553,-0.57728 4.97316,-11.4226 6.47531,0 -5.69651,11.88662 c 1.67065,0.52772 4.79021,1.41429 4.79021,8.88643 0,7.20835 -3.4935,9.41248 -8.18914,9.41248 l -13.1623,0 0,-30.18553 0,0 z m 5.77665,16.53605 0,8.51546 6.82053,0 c 1.80841,0 2.95914,-0.84949 2.95914,-4.27846 0,-3.64741 -0.95553,-4.237 -2.95914,-4.237 l -6.82053,0 0,0 z" /></clipPath><clipPath
       id="clipPath414"
       clipPathUnits="userSpaceOnUse"><path
         id="path416"
         d="m 49,30 24,0 0,31 -24,0 0,-31 z" /></clipPath><clipPath
       id="clipPath418"
       clipPathUnits="userSpaceOnUse"><path
         style="clip-rule:evenodd"
         id="path420"
         d="m 44.95068,65.24928 32.25774,0 0,-40.18553 -32.25774,0 0,40.18553 z" /></clipPath><clipPath
       id="clipPath422"
       clipPathUnits="userSpaceOnUse"><path
         id="path424"
         d="m 49,30 24,0 0,31 -24,0 0,-31 z" /></clipPath><clipPath
       id="clipPath444"
       clipPathUnits="userSpaceOnUse"><path
         style="clip-rule:evenodd"
         id="path446"
         d="m 49.95068,64.15167 12.78416,0 c 7.34449,0 10.43734,6.08244 10.43734,14.96904 0,7.47837 -1.77766,15.21648 -10.43734,15.21648 l -12.78416,0 0,-30.18552 0,0 z m 5.75397,5.14851 0,19.94412 6.57813,0 c 3.20775,0 5.13543,-2.00608 5.13543,-10.08246 0,-6.05565 -1.40574,-9.86166 -5.13543,-9.86166 l -6.57813,0 0,0 z" /></clipPath><clipPath
       id="clipPath450"
       clipPathUnits="userSpaceOnUse"><path
         id="path452"
         d="m 49,64 25,0 0,31 -25,0 0,-31 z" /></clipPath><clipPath
       id="clipPath454"
       clipPathUnits="userSpaceOnUse"><path
         style="clip-rule:evenodd"
         id="path456"
         d="m 44.95068,99.3372 33.2215,0 0,-40.18553 -33.2215,0 0,40.18553 z" /></clipPath><clipPath
       id="clipPath458"
       clipPathUnits="userSpaceOnUse"><path
         id="path460"
         d="m 49,64 25,0 0,31 -25,0 0,-31 z" /></clipPath><clipPath
       id="clipPath480"
       clipPathUnits="userSpaceOnUse"><path
         style="clip-rule:evenodd"
         id="path482"
         d="m 359,105 c 4.4183,0 8,3.5817 8,8 0,4.4183 -3.5817,8 -8,8 -4.4183,0 -8,-3.5817 -8,-8 0,-4.4183 3.5817,-8 8,-8 z" /></clipPath><clipPath
       id="clipPath496"
       clipPathUnits="userSpaceOnUse"><path
         style="clip-rule:evenodd"
         id="path498"
         d="m 585,195 c 4.4183,0 8,3.5817 8,8 0,4.4183 -3.5817,8 -8,8 -4.4183,0 -8,-3.5817 -8,-8 0,-4.4183 3.5817,-8 8,-8 z" /></clipPath><clipPath
       id="clipPath512"
       clipPathUnits="userSpaceOnUse"><path
         id="path514"
         d="m 488,264 447,0 0,129 -447,0 0,-129 z" /></clipPath><clipPath
       id="clipPath526"
       clipPathUnits="userSpaceOnUse"><path
         id="path528"
         d="m 163,398 476,0 0,154 -476,0 0,-154 z" /></clipPath><clipPath
       id="clipPath584"
       clipPathUnits="userSpaceOnUse"><path
         id="path586"
         d="m 207,22 447,0 0,154 -447,0 0,-154 z" /></clipPath><clipPath
       id="clipPath602"
       clipPathUnits="userSpaceOnUse"><path
         id="path604"
         d="M 603.309,231.4269 759.6122,660.8664 925.9378,600.3289 769.6346,170.8893 603.309,231.4269 Z" /></clipPath></defs><g
     transform="matrix(1.3333333,0,0,-1.3333333,0,626.66667)"
     id="g10"><g
       id="g12" /><g
       id="g14"><g
         clip-path="url(#clipPath18)"
         id="g16"><g
           transform="matrix(1,0,0,-1,487,237)"
           id="g22"><text
             id="text24"
             style="font-variant:normal;font-weight:normal;font-size:24px;font-family:TimesNewRomanPSMT;-inkscape-font-specification:TimesNewRomanPSMT;writing-mode:lr-tb;fill:#000000;fill-opacity:1;fill-rule:nonzero;stroke:none"
             transform="translate(0,21)"><tspan
               id="tspan26"
               y="0"
               x="0 17.3328 27.983999 40.8288 51.316799 57.984001 69.2808 79.617599 92.462402 103.1136">Пантікапей</tspan></text>
</g></g></g><g
       id="g28"><g
         clip-path="url(#clipPath32)"
         id="g30"><g
           transform="matrix(1,0,0,-1,493,153)"
           id="g36"><text
             id="text38"
             style="font-variant:normal;font-weight:normal;font-size:24px;font-family:TimesNewRomanPSMT;-inkscape-font-specification:TimesNewRomanPSMT;writing-mode:lr-tb;fill:#000000;fill-opacity:1;fill-rule:nonzero;stroke:none"
             transform="translate(0,21)"><tspan
               id="tspan40"
               y="0"
               x="0 18.959999 29.6112 40.919998 53.131199 65.728798 76.379997 83.047203">Феодосія</tspan></text>
</g></g></g><g
       id="g42"><g
         clip-path="url(#clipPath46)"
         id="g44"><g
           transform="matrix(1,0,0,-1,348,149)"
           id="g50"><text
             id="text52"
             style="font-variant:normal;font-weight:normal;font-size:24px;font-family:TimesNewRomanPSMT;-inkscape-font-specification:TimesNewRomanPSMT;writing-mode:lr-tb;fill:#000000;fill-opacity:1;fill-rule:nonzero;stroke:none"
             transform="translate(0,21)"><tspan
               id="tspan54"
               y="0"
               x="0 17.3328 27.983999 39.984001 50.635201 62.635201 75.480003 86.731201">Херсонес</tspan></text>
</g></g></g><g
       id="g56"><g
         clip-path="url(#clipPath60)"
         id="g58"><g
           transform="matrix(1,0,0,-1,315,224)"
           id="g64"><text
             id="text66"
             style="font-variant:normal;font-weight:normal;font-size:24px;font-family:TimesNewRomanPSMT;-inkscape-font-specification:TimesNewRomanPSMT;writing-mode:lr-tb;fill:#000000;fill-opacity:1;fill-rule:nonzero;stroke:none"
             transform="translate(0,21)"><tspan
               id="tspan68"
               y="0"
               x="0 15.0936 25.744801 37.744801 49.403999 56.071201 68.916 75.583199 86.071198 98.916 111.1272">Керкінітида</tspan></text>
</g></g></g><g
       id="g70"><g
         clip-path="url(#clipPath74)"
         id="g72"><g
           transform="matrix(1,0,0,-1,202,384)"
           id="g78"><text
             id="text80"
             style="font-variant:normal;font-weight:normal;font-size:24px;font-family:TimesNewRomanPSMT;-inkscape-font-specification:TimesNewRomanPSMT;writing-mode:lr-tb;fill:#000000;fill-opacity:1;fill-rule:nonzero;stroke:none"
             transform="translate(0,21)"><tspan
               id="tspan82"
               y="0"
               x="0 17.3328 29.3088 40.255199 51.588001 58.255199">Ольвія</tspan></text>
</g></g></g><g
       id="g84"><g
         clip-path="url(#clipPath88)"
         id="g86"><g
           transform="matrix(1,0,0,-1,35,311)"
           id="g92"><text
             id="text94"
             style="font-variant:normal;font-weight:normal;font-size:24px;font-family:TimesNewRomanPSMT;-inkscape-font-specification:TimesNewRomanPSMT;writing-mode:lr-tb;fill:#000000;fill-opacity:1;fill-rule:nonzero;stroke:none"
             transform="translate(0,21)"><tspan
               id="tspan96"
               y="0"
               x="0 14.6592 21.326401 33.326401">Тіра</tspan></text>
</g></g></g><g
       id="g98"><g
         clip-path="url(#clipPath102)"
         id="g100"><path
           id="path106"
           style="fill:#d0021b;fill-opacity:1;fill-rule:evenodd;stroke:none"
           d="m 346,126 26,0 0,-26 -26,0 0,26 z" /></g></g><g
       id="g108"><g
         transform="matrix(1,0,0,-1,351,121)"
         id="g110"><path
           id="path112"
           style="fill:none;stroke:#000000;stroke-width:4;stroke-linecap:butt;stroke-linejoin:miter;stroke-miterlimit:10;stroke-dasharray:none;stroke-opacity:1"
           d="m 8,16 c 4.41828,0 8,-3.58172 8,-8 C 16,3.581722 12.41828,0 8,0 3.581722,0 0,3.581722 0,8 c 0,4.41828 3.581722,8 8,8 z" /></g></g><g
       id="g114"><g
         clip-path="url(#clipPath118)"
         id="g116"><path
           id="path122"
           style="fill:#d0021b;fill-opacity:1;fill-rule:evenodd;stroke:none"
           d="m 76,291 26,0 0,-26 -26,0 0,26 z" /></g></g><g
       id="g124"><g
         transform="matrix(1,0,0,-1,81,286)"
         id="g126"><path
           id="path128"
           style="fill:none;stroke:#000000;stroke-width:4;stroke-linecap:butt;stroke-linejoin:miter;stroke-miterlimit:10;stroke-dasharray:none;stroke-opacity:1"
           d="m 8,16 c 4.41828,0 8,-3.58172 8,-8 C 16,3.581722 12.41828,0 8,0 3.581722,0 0,3.581722 0,8 c 0,4.41828 3.581722,8 8,8 z" /></g></g><g
       id="g130"><g
         clip-path="url(#clipPath134)"
         id="g132"><path
           id="path138"
           style="fill:#d0021b;fill-opacity:1;fill-rule:evenodd;stroke:none"
           d="m 223,359 26,0 0,-26 -26,0 0,26 z" /></g></g><g
       id="g140"><g
         transform="matrix(1,0,0,-1,228,354)"
         id="g142"><path
           id="path144"
           style="fill:none;stroke:#000000;stroke-width:4;stroke-linecap:butt;stroke-linejoin:miter;stroke-miterlimit:10;stroke-dasharray:none;stroke-opacity:1"
           d="m 8,16 c 4.41828,0 8,-3.58172 8,-8 C 16,3.581722 12.41828,0 8,0 3.581722,0 0,3.581722 0,8 c 0,4.41828 3.581722,8 8,8 z" /></g></g><g
       id="g146"><g
         clip-path="url(#clipPath150)"
         id="g148"><path
           id="path154"
           style="fill:#d0021b;fill-opacity:1;fill-rule:evenodd;stroke:none"
           d="m 328,195 26,0 0,-26 -26,0 0,26 z" /></g></g><g
       id="g156"><g
         transform="matrix(1,0,0,-1,333,190)"
         id="g158"><path
           id="path160"
           style="fill:none;stroke:#000000;stroke-width:4;stroke-linecap:butt;stroke-linejoin:miter;stroke-miterlimit:10;stroke-dasharray:none;stroke-opacity:1"
           d="m 8,16 c 4.41828,0 8,-3.58172 8,-8 C 16,3.581722 12.41828,0 8,0 3.581722,0 0,3.581722 0,8 c 0,4.41828 3.581722,8 8,8 z" /></g></g><g
       id="g162"><g
         clip-path="url(#clipPath166)"
         id="g164"><path
           id="path170"
           style="fill:#9013fe;fill-opacity:0.35;fill-rule:evenodd;stroke:none"
           d="m 606.9471,449.3084 214.6108,0 0,-340.1709 -214.6108,0 0,340.1709 z" /></g></g><g
       id="g172"><g
         clip-path="url(#clipPath176)"
         id="g174"><g
           transform="matrix(1,0,0,-1,635,190)"
           id="g180"><text
             id="text182"
             style="font-variant:normal;font-weight:normal;font-size:24px;font-family:TimesNewRomanPSMT;-inkscape-font-specification:TimesNewRomanPSMT;writing-mode:lr-tb;fill:#000000;fill-opacity:1;fill-rule:nonzero;stroke:none"
             transform="translate(0,21)"><tspan
               id="tspan184"
               y="0"
               x="0 18.959999 29.6112 42.456001 53.107201 62.354401 74.354401 86.354401 93.021599">Фанагорія</tspan></text>
</g></g></g><g
       id="g186"><g
         clip-path="url(#clipPath190)"
         id="g188"><path
           id="path194"
           style="fill:#d0021b;fill-opacity:1;fill-rule:evenodd;stroke:none"
           d="m 613,198 26,0 0,-26 -26,0 0,26 z" /></g></g><g
       id="g196"><g
         transform="matrix(1,0,0,-1,618,193)"
         id="g198"><path
           id="path200"
           style="fill:none;stroke:#000000;stroke-width:4;stroke-linecap:butt;stroke-linejoin:miter;stroke-miterlimit:10;stroke-dasharray:none;stroke-opacity:1"
           d="m 8,16 c 4.41828,0 8,-3.58172 8,-8 C 16,3.581722 12.41828,0 8,0 3.581722,0 0,3.581722 0,8 c 0,4.41828 3.581722,8 8,8 z" /></g><g
         transform="matrix(1,0,0,-1,427,272)"
         id="g202"><path
           id="path204"
           style="fill:none;stroke:#efa72d;stroke-width:3;stroke-linecap:butt;stroke-linejoin:miter;stroke-miterlimit:10;stroke-dasharray:none;stroke-opacity:1"
           d="M -0.4452407,2.14365 C 1.992709,1.669153 3.310873,1.74793 4.662824,0.3175083" /></g></g><g
       id="g206"><g
         id="g208" /><g
         id="g222"><g
           style="opacity:0.35069999"
           id="g224"
           clip-path="url(#clipPath210)"><g
             id="g226" /><g
             id="g228"><g
               id="g230"
               clip-path="url(#clipPath214)"><g
                 id="g232"
                 clip-path="url(#clipPath218)"><path
                   id="path234"
                   style="fill:#9013fe;fill-opacity:1;fill-rule:evenodd;stroke:none"
                   d="m 482.8947,216.1817 116.8888,0 0,-68.7302 -116.8888,0 0,68.7302 z" /></g></g></g></g></g></g><g
       id="g236"><g
         clip-path="url(#clipPath240)"
         id="g238"><path
           id="path244"
           style="fill:#d0021b;fill-opacity:1;fill-rule:evenodd;stroke:none"
           d="m 485,177 26,0 0,-26 -26,0 0,26 z" /></g></g><g
       id="g246"><g
         transform="matrix(1,0,0,-1,490,172)"
         id="g248"><path
           id="path250"
           style="fill:none;stroke:#000000;stroke-width:4;stroke-linecap:butt;stroke-linejoin:miter;stroke-miterlimit:10;stroke-dasharray:none;stroke-opacity:1"
           d="m 8,16 c 4.41828,0 8,-3.58172 8,-8 C 16,3.581722 12.41828,0 8,0 3.581722,0 0,3.581722 0,8 c 0,4.41828 3.581722,8 8,8 z" /></g><g
         transform="matrix(1,0,0,-1,432,410)"
         id="g252"><path
           id="path254"
           style="fill:none;stroke:#efa72d;stroke-width:3;stroke-linecap:butt;stroke-linejoin:miter;stroke-miterlimit:10;stroke-dasharray:none;stroke-opacity:1"
           d="m -0.425881,138.3661 c 2.308985,-15.7228 16.217851,-2.9953 26.938841,-9.4478 1.62928,-0.9806 1.02225,-3.6363 2.62651,-4.4384 3.73138,-1.8657 10.38856,-1.9044 12.8128,-5.9953 1.99681,-3.3696 0.82703,-13.4024 4.67823,-15.2832 5.42265,-2.6483 22.98353,-6.43072 26.03669,-9.53159 2.23741,-2.27237 4.89282,-10.56323 7.96327,-11.33966 10.89788,-2.75579 23.49374,-0.25873 34.49484,-2.62651 8.4757,-1.82425 16.0696,-5.85682 24.3922,-8.54567 5.6191,-1.81537 13.9617,0.78782 19.2992,-1.64443 3.463,-1.57808 6.1187,-4.45124 9.7714,-5.83161 4.2183,-1.59413 13.8695,2.24722 17.3273,-0.33117 4.1173,-3.07015 5.7931,-9.79575 9.3641,-12.15807 3.1917,-2.11144 8.5072,-1.84454 10.9209,-3.69995 12.7834,-9.82639 21.486,-22.7031 36.7102,-30.31524 3.6535,-1.82673 12.3886,9.85687 15.9342,10.34997 12.3422,1.71647 9.8133,-9.86507 19.4628,-11.83071 8.3186,-1.69453 8.3164,6.87441 14.3697,4.19099 2.5227,-1.11833 3.999,-4.14299 6.57,-5.0132 3.9039,-1.3213 5.8865,2.96834 8.5419,2.05553 2.5089,-0.86243 4.1445,-5.41274 6.5701,-6.24653 1.8729,-0.64379 3.3583,1.64793 5.0931,1.06964 2.1122,-0.70407 3.4141,-3.794144 5.2569,-5.013205 2.375,-1.571165 6.4039,-0.699115 8.7017,-2.219209 0.7062,-0.467165 13.0086,-6.485466 13.7987,-4.1871883 11.3328,32.9683223 -3.3395,12.3968723 -19.4628,22.1007423 -5.0143,3.01783 -5.9755,13.98626 -11.7432,14.78838 -7.2123,1.00304 -19.1351,-6.01439 -22.3405,-4.92946 -4.6207,1.56392 -8.328,17.03533 -10.4299,20.2127 -2.8289,4.27618 -14.3815,4.91978 -17.6548,9.28414 -1.9747,2.63297 -0.605,6.18033 -1.8081,7.97088 -1.7001,2.53039 -9.3175,0.57315 -11.4158,3.69614 -3.3892,5.04444 2.4975,3.49242 3.6962,5.83542 4.7822,9.34702 -9.3813,5.78108 7.556,16.18539 3.1388,1.92815 10.1243,1.601 13.0564,-0.16369 12.0148,-7.23111 7.3898,13.82857 9.5277,17.58237 0.3541,0.6217 6.1536,10.1196 4.5983,10.5175 -4.1528,1.0623 -9.9033,-1.0393 -13.7149,0.8222 -9.1224,4.4551 -0.8412,16.6354 -5.5842,22.5918 -3.6232,4.55 -11.7794,1.3763 -16.1778,6.1627 -6.2028,6.7502 -2.7002,11.6177 -4.5183,19.0632 -0.733,3.0018 -5.7612,3.3698 -6.4864,7.0649 -1.1867,6.0466 1.7596,12.7905 0.2475,18.8157 -1.5267,6.083 -8.4473,4.6378 -10.6774,9.2042 -1.3384,2.7406 0.8949,7.7049 -1.888,8.953 -14.2884,6.4076 -20.551,-17.1834 -36.794,-8.8731 -2.0347,1.0411 -3.2191,4.0961 -4.9256,4.9295 -1.7564,0.8578 -5.9642,-1.0966 -6.9812,0.9859 -9.6259,19.7102 -0.3274,11.3572 -0.3274,21.9409 0,0.5908 -12.749,20.5962 7.9633,13.6388 1.5317,-0.5145 10.4813,-4.9082 11.6632,-3.7799 2.0154,1.9238 -1.2247,9.0332 0.08,11.5833 2.2315,4.3616 5.6601,0.1616 8.2982,1.4807 4.2511,2.1256 11.1195,19.3833 18.0658,23.2503 5.6207,3.1291 19.5758,0.6988 20.0376,1.6444 3.8465,7.8761 7.9355,6.706 14.2098,12.9803 4.5981,4.5982 1.0931,11.8082 9.1966,14.1337 8.7405,2.5083 30.655,-4.6583 31.7807,-3.5325 4.6931,4.6931 0.7372,20.5381 8.6257,23.0866 9.8488,3.182 17.7982,-7.3484 27.1824,-2.7102 0.5497,0.2717 1.3377,4.7016 2.0517,5.588 1.8836,2.3382 5.5308,2.6065 7.3923,5.4205 1.1836,1.789 -1.2885,6.459 -0.3273,8.873 3.1969,8.0295 19.4376,11.5259 25.7055,5.9154" /></g><g
         transform="matrix(1,0,0,-1,12,339)"
         id="g256"><path
           id="path258"
           style="fill:none;stroke:#efa72d;stroke-width:3;stroke-linecap:butt;stroke-linejoin:miter;stroke-miterlimit:10;stroke-dasharray:none;stroke-opacity:1"
           d="m -0.1648169,198.1701 c 5.4179609,19.863 18.9321869,1.5286 22.5841669,-9.7752 0.12912,-0.3996 5.10424,-1.1131 6.07523,-3.3688 2.6084,-6.0595 1.14263,-12.7667 3.61621,-18.9794 1.75953,-4.4193 10.09873,-2.6092 10.09873,-11.1759 0,-1.1963 -7.31266,-2.6104 -8.37437,-5.0932 -2.61704,-6.1198 4.59952,-13.1955 2.62651,-19.7216 -1.39418,-4.6116 -20.27461,-19.2185 -8.95297,-33.27296 2.7334,-3.3932 13.92737,-6.03409 17.24741,-2.71406 3.05277,3.05277 -3.83621,14.06112 1.56067,13.14772 8.29047,-1.403 10.9993,-16.43117 16.75256,-22.18444 2.79044,-2.79043 9.61872,-2.48595 13.2239,-5.50424 1.79929,-1.50639 2.62537,-6.4107 4.51455,-7.31236 24.94892,-11.90746 -11.9768,-28.53019 -1.22951,-39.11214 3.36627,-3.31447 5.87884,9.91939 6.65002,10.43752 5.02517,3.37629 19.90621,8.65055 25.13071,4.18719 7.9397,-6.78293 11.5248,-12.68977 9.6077,-22.10074 -0.3866,-1.89804 0.7214,-6.07878 -0.3273,-7.63972 -0.5824,-0.86681 -5.7077,-5.36858 -4.9257,-6.16278 3.2756,-3.326749 12.0511,2.02734 17.1637,0.9859 8.6878,-1.76975 19.5505,-8.529333 26.8551,-10.764882 15.6144,-4.778792 50.9316,0.836373 66.2717,3.452527 3.1427,0.535957 12.653,-1.048785 14.7846,0.985892 4.8596,4.638733 -20.8473,9.049983 -25.2944,8.545673 -4.2861,-0.48605 -19.351,-9.640469 -21.3547,-1.80811 -0.3851,1.50566 18.9612,9.02615 21.7658,11.83071 1.2673,1.26729 -2.9515,8.05668 -1.9718,10.51746 1.0737,2.69665 7.0277,3.09088 9.2803,4.19099 1.5435,0.75377 -1.0611,7.97561 0.6586,9.69524 2.7784,2.77842 8.8576,0.60454 12.3979,2.38289 2.9635,1.48866 1.8198,7.69276 6.4064,8.70936 3.8984,0.86407 7.2013,-1.66442 10.9247,-0.90596 10.1523,2.06805 18.8909,11.86396 28.332,12.73666 6.9514,0.64257 10.8796,-2.45941 17.08,-4.02731 5.3891,-1.36278 6.0666,3.08149 11.0884,3.77989 10.5915,1.47299 30.3029,-9.16692 38.1072,2.63031 3.9934,6.03656 -18.6241,13.86591 -21.7658,17.0076 -5.5196,5.51968 -6.543,18.72147 -8.9491,20.54007 -2.1981,1.6613 -8.105,0.1379 -9.6915,1.7244 -13.1843,13.1843 -7.0807,2.2197 -20.6123,5.9153 -5.2959,1.4463 -8.3285,6.6556 -13.715,7.9709 -2.2603,0.5519 -3.6188,-2.4392 -5.9153,-1.397 -2.687,1.2193 -13.7647,21.869 -15.4393,25.1421 -6.4624,12.631 29.9871,-0.009 31.6208,-0.2474 3.7513,-0.5465 8.597,-3.3277 12.4817,-2.3791 2.9279,0.715 2.7861,7.2605 5.1731,9.0368 3.5726,2.6587 10.5385,-0.4805 14.126,1.3132 1.5745,0.7873 5.5909,7.0225 9.6914,9.1205 2.2573,1.1548 0.9482,9.5437 2.0518,11.7507 4.002,8.004 3.3512,29.6637 3.6124,29.9879 2.042,2.5349 8.7732,2.1892 6.9811,7.1487 -6.3596,17.5999 -20.3792,20.2057 8.953,29.9079 6.3051,2.0856 -6.1778,10.0148 5.3368,9.0367 5.0711,-0.4307 14.9212,-5.972 18.1495,-9.2004 0.8328,-0.8327 3.5793,3.6436 4.7658,3.9436 3.6231,0.9162 7.2236,0.3286 10.0188,-2.4666 2.6357,-2.6357 9.2167,-15.3934 11.0846,-16.3491 2.8597,-1.4631 11.9938,1.7894 12.9765,0.0838 3.4546,-5.9959 12.3788,-15.3712 19.2192,-18.4884 2.552,-1.1629 8.4282,-0.9554 11.0846,-0.0837 0.8826,0.2896 2.4079,-2.6054 2.6304,-2.3829 0.456,0.456 4.3145,6.106 5.6641,3.8636 4.6994,-7.8082 11.5061,-8.3086 18.2333,-15.0358 2.3139,-2.3139 9.0455,-14.0334 11.1683,-15.1195 2.6693,-1.3657 10.0646,3.8435 11.1684,2.714 3.0356,-3.1062 4.5859,-3.3602 7.3086,-6.0828 0.0976,-0.0977 6.4957,2.411 8.2944,1.9718 2.4929,-0.6088 9.806,-3.9662 11.9906,-2.874 4.825,2.4125 5.5994,6.1482 12.3217,5.4205 4.7562,-0.5148 -1.3519,-5.1597 11.8231,-6.3264 2.879,-0.255 4.0799,3.0693 7.1449,2.0555 2.9122,-0.9633 4.2411,-3.9117 7.3923,-4.5184 0.4403,-0.0847 4.2942,3.1465 5.5042,1.6445 1.1038,-1.3702 -0.4783,-3.9426 0.4073,-5.2607 1.1281,-1.679 5.7504,-2.9265 7.4761,-6.2427 2.6033,-5.0028 -0.3155,-11.3948 1.9679,-15.858 4.3822,-8.5651 11.9281,-0.2683 13.8825,-17.5025 1.138,-10.0351 -11.4883,-8.3474 -17.5748,-6.3264 -10.6702,3.543 -10.9312,11.8773 -18.5607,14.0499 -8.041,2.2898 -15.3512,-3.5123 -22.3405,-0.3274 -3.4052,1.5518 -7.1182,6.5042 -9.7714,9.0368 -0.3837,0.3663 -6.8143,-1.7446 -7.8833,-1.6407 -2.492,0.2423 -8.0834,6.1846 -11.0884,4.6821 -4.9922,-2.4961 -12.9794,-0.5478 -17.2436,-2.6303 -9.8462,-4.8086 -6.8386,-16.9841 -11.747,-24.4037 -3.4364,-5.1945 -15.191,-6.3648 -19.9539,-11.1722 -4.7004,-4.7444 4.6651,-9.9418 2.4629,-11.5871 -5.0009,-3.7363 -16.2522,-5.99151 -19.2992,-10.59739 -1.5836,-2.39393 -0.1986,-6.78711 -3.6961,-7.97088 -3.8783,-1.31266 -16.9414,-3.18289 -18.5607,-7.96708 -2.2659,-6.69486 3.9658,-7.46353 6.0791,-8.38199" /></g></g><g
       id="g260"><g
         clip-path="url(#clipPath264)"
         id="g262"><g
           id="g268" /><g
           id="g282"><g
             id="g284"
             clip-path="url(#clipPath270)"><g
               id="g286" /><g
               id="g288"><g
                 id="g290"
                 clip-path="url(#clipPath274)"><g
                   id="g292"
                   clip-path="url(#clipPath278)"><path
                     id="path294"
                     style="fill:#efa72d;fill-opacity:1;fill-rule:evenodd;stroke:none"
                     d="m 70.31389,100.9035 66.68611,0 0,-44.25617 -66.68611,0 0,44.25617 z" /></g></g></g></g></g></g></g><g
       id="g296"><g
         clip-path="url(#clipPath300)"
         id="g298"><g
           id="g304" /><g
           id="g318"><g
             id="g320"
             clip-path="url(#clipPath306)"><g
               id="g322" /><g
               id="g324"><g
                 id="g326"
                 clip-path="url(#clipPath310)"><g
                   id="g328"
                   clip-path="url(#clipPath314)"><path
                     id="path330"
                     style="fill:#f7c169;fill-opacity:1;fill-rule:evenodd;stroke:none"
                     d="m 70.31298,124.0066 44.05572,0 0,-63.30849 -44.05572,0 0,63.30849 z" /></g></g></g></g></g></g></g><g
       id="g332"><g
         clip-path="url(#clipPath336)"
         id="g334"><g
           id="g340" /><g
           id="g354"><g
             id="g356"
             clip-path="url(#clipPath342)"><g
               id="g358" /><g
               id="g360"><g
                 id="g362"
                 clip-path="url(#clipPath346)"><g
                   id="g364"
                   clip-path="url(#clipPath350)"><path
                     id="path366"
                     style="fill:#0f5180;fill-opacity:1;fill-rule:evenodd;stroke:none"
                     d="m 17,104.3391 39.77116,0 0,-50.32406 -39.77116,0 0,50.32406 z" /></g></g></g></g></g></g></g><g
       id="g368"><g
         clip-path="url(#clipPath372)"
         id="g370"><g
           id="g376" /><g
           id="g390"><g
             id="g392"
             clip-path="url(#clipPath378)"><g
               id="g394" /><g
               id="g396"><g
                 id="g398"
                 clip-path="url(#clipPath382)"><g
                   id="g400"
                   clip-path="url(#clipPath386)"><path
                     id="path402"
                     style="fill:#efa72d;fill-opacity:1;fill-rule:evenodd;stroke:none"
                     d="m 17,70.25116 93.5865,0 0,-50.32403 -93.5865,0 0,50.32403 z" /></g></g></g></g></g></g></g><g
       id="g404"><g
         clip-path="url(#clipPath408)"
         id="g406"><g
           id="g412" /><g
           id="g426"><g
             id="g428"
             clip-path="url(#clipPath414)"><g
               id="g430" /><g
               id="g432"><g
                 id="g434"
                 clip-path="url(#clipPath418)"><g
                   id="g436"
                   clip-path="url(#clipPath422)"><path
                     id="path438"
                     style="fill:#efa72d;fill-opacity:1;fill-rule:evenodd;stroke:none"
                     d="m 39.95068,70.24928 42.25774,0 0,-50.18553 -42.25774,0 0,50.18553 z" /></g></g></g></g></g></g></g><g
       id="g440"><g
         clip-path="url(#clipPath444)"
         id="g442"><g
           id="g448" /><g
           id="g462"><g
             id="g464"
             clip-path="url(#clipPath450)"><g
               id="g466" /><g
               id="g468"><g
                 id="g470"
                 clip-path="url(#clipPath454)"><g
                   id="g472"
                   clip-path="url(#clipPath458)"><path
                     id="path474"
                     style="fill:#0f5180;fill-opacity:1;fill-rule:evenodd;stroke:none"
                     d="m 39.95068,104.3372 43.2215,0 0,-50.18553 -43.2215,0 0,50.18553 z" /></g></g></g></g></g></g></g><g
       id="g476"><g
         clip-path="url(#clipPath480)"
         id="g478"><path
           id="path484"
           style="fill:#d0021b;fill-opacity:1;fill-rule:evenodd;stroke:none"
           d="m 346,126 26,0 0,-26 -26,0 0,26 z" /></g></g><g
       id="g486"><g
         transform="matrix(1,0,0,-1,351,121)"
         id="g488"><path
           id="path490"
           style="fill:none;stroke:#000000;stroke-width:4;stroke-linecap:butt;stroke-linejoin:miter;stroke-miterlimit:10;stroke-dasharray:none;stroke-opacity:1"
           d="m 8,16 c 4.41828,0 8,-3.58172 8,-8 C 16,3.581722 12.41828,0 8,0 3.581722,0 0,3.581722 0,8 c 0,4.41828 3.581722,8 8,8 z" /></g></g><g
       id="g492"><g
         clip-path="url(#clipPath496)"
         id="g494"><path
           id="path500"
           style="fill:#d0021b;fill-opacity:1;fill-rule:evenodd;stroke:none"
           d="m 572,216 26,0 0,-26 -26,0 0,26 z" /></g></g><g
       id="g502"><g
         transform="matrix(1,0,0,-1,577,211)"
         id="g504"><path
           id="path506"
           style="fill:none;stroke:#000000;stroke-width:4;stroke-linecap:butt;stroke-linejoin:miter;stroke-miterlimit:10;stroke-dasharray:none;stroke-opacity:1"
           d="m 8,16 c 4.41828,0 8,-3.58172 8,-8 C 16,3.581722 12.41828,0 8,0 3.581722,0 0,3.581722 0,8 c 0,4.41828 3.581722,8 8,8 z" /></g></g><g
       id="g508"><g
         clip-path="url(#clipPath512)"
         id="g510"><g
           transform="matrix(1,0,0,-1,508,307)"
           id="g516"><text
             id="text518"
             style="font-style:italic;font-variant:normal;font-size:36px;font-family:TimesNewRomanPS;-inkscape-font-specification:TimesNewRomanPS-ItalicMT;writing-mode:lr-tb;fill:#0b6593;fill-opacity:0.49649999;fill-rule:nonzero;stroke:none"
             transform="translate(0,32)"><tspan
               id="tspan520"
               y="0"
               x="0 29.476801 45.453602 63.453602 89.452797 107.4528 125.6652">Меотида</tspan></text>
</g></g></g><g
       id="g522"><g
         clip-path="url(#clipPath526)"
         id="g524"><g
           transform="matrix(1,0,0,-1,183,454)"
           id="g530"><text
             id="text532"
             style="font-style:italic;font-variant:normal;font-size:48px;font-family:TimesNewRomanPS;-inkscape-font-specification:TimesNewRomanPS-ItalicMT;writing-mode:lr-tb;fill:#000000;fill-opacity:0.33320001;fill-rule:nonzero;stroke:none"
             transform="translate(0,43)"><tspan
               id="tspan534"
               y="0"
               x="0">В</tspan></text>
<text
             id="text536"
             style="font-style:italic;font-variant:normal;font-size:48px;font-family:TimesNewRomanPS;-inkscape-font-specification:TimesNewRomanPS-ItalicMT;writing-mode:lr-tb;fill:#000000;fill-opacity:0.33320001;fill-rule:nonzero;stroke:none"
             transform="translate(41.32031,43)"><tspan
               id="tspan538"
               y="0"
               x="0">е</tspan></text>
<text
             id="text540"
             style="font-style:italic;font-variant:normal;font-size:48px;font-family:TimesNewRomanPS;-inkscape-font-specification:TimesNewRomanPS-ItalicMT;writing-mode:lr-tb;fill:#000000;fill-opacity:0.33320001;fill-rule:nonzero;stroke:none"
             transform="translate(74.625,43)"><tspan
               id="tspan542"
               y="0"
               x="0">л</tspan></text>
<text
             id="text544"
             style="font-style:italic;font-variant:normal;font-size:48px;font-family:TimesNewRomanPS;-inkscape-font-specification:TimesNewRomanPS-ItalicMT;writing-mode:lr-tb;fill:#000000;fill-opacity:0.33320001;fill-rule:nonzero;stroke:none"
             transform="translate(107.553,43)"><tspan
               id="tspan546"
               y="0"
               x="0">и</tspan></text>
<text
             id="text548"
             style="font-style:italic;font-variant:normal;font-size:48px;font-family:TimesNewRomanPS;-inkscape-font-specification:TimesNewRomanPS-ItalicMT;writing-mode:lr-tb;fill:#000000;fill-opacity:0.33320001;fill-rule:nonzero;stroke:none"
             transform="translate(143.553,43)"><tspan
               id="tspan550"
               y="0"
               x="0">к</tspan></text>
<text
             id="text552"
             style="font-style:italic;font-variant:normal;font-size:48px;font-family:TimesNewRomanPS;-inkscape-font-specification:TimesNewRomanPS-ItalicMT;writing-mode:lr-tb;fill:#000000;fill-opacity:0.33320001;fill-rule:nonzero;stroke:none"
             transform="translate(178.0078,43)"><tspan
               id="tspan554"
               y="0"
               x="0">а</tspan></text>
<text
             id="text556"
             style="font-style:italic;font-variant:normal;font-size:48px;font-family:TimesNewRomanPS;-inkscape-font-specification:TimesNewRomanPS-ItalicMT;writing-mode:lr-tb;fill:#000000;fill-opacity:0.33320001;fill-rule:nonzero;stroke:none"
             transform="translate(238.0078,43)"><tspan
               id="tspan558"
               y="0"
               x="0">С</tspan></text>
<text
             id="text560"
             style="font-style:italic;font-variant:normal;font-size:48px;font-family:TimesNewRomanPS;-inkscape-font-specification:TimesNewRomanPS-ItalicMT;writing-mode:lr-tb;fill:#000000;fill-opacity:0.33320001;fill-rule:nonzero;stroke:none"
             transform="translate(282.0238,43)"><tspan
               id="tspan562"
               y="0"
               x="0">к</tspan></text>
<text
             id="text564"
             style="font-style:italic;font-variant:normal;font-size:48px;font-family:TimesNewRomanPS;-inkscape-font-specification:TimesNewRomanPS-ItalicMT;writing-mode:lr-tb;fill:#000000;fill-opacity:0.33320001;fill-rule:nonzero;stroke:none"
             transform="translate(316.4766,43)"><tspan
               id="tspan566"
               y="0"
               x="0">і</tspan></text>
<text
             id="text568"
             style="font-style:italic;font-variant:normal;font-size:48px;font-family:TimesNewRomanPS;-inkscape-font-specification:TimesNewRomanPS-ItalicMT;writing-mode:lr-tb;fill:#000000;fill-opacity:0.33320001;fill-rule:nonzero;stroke:none"
             transform="translate(341.8125,43)"><tspan
               id="tspan570"
               y="0"
               x="0">ф</tspan></text>
<text
             id="text572"
             style="font-style:italic;font-variant:normal;font-size:48px;font-family:TimesNewRomanPS;-inkscape-font-specification:TimesNewRomanPS-ItalicMT;writing-mode:lr-tb;fill:#000000;fill-opacity:0.33320001;fill-rule:nonzero;stroke:none"
             transform="translate(387.8925,43)"><tspan
               id="tspan574"
               y="0"
               x="0">і</tspan></text>
<text
             id="text576"
             style="font-style:italic;font-variant:normal;font-size:48px;font-family:TimesNewRomanPS;-inkscape-font-specification:TimesNewRomanPS-ItalicMT;writing-mode:lr-tb;fill:#000000;fill-opacity:0.33320001;fill-rule:nonzero;stroke:none"
             transform="translate(413.2266,43)"><tspan
               id="tspan578"
               y="0"
               x="0">я</tspan></text>
</g></g></g><g
       id="g580"><g
         clip-path="url(#clipPath584)"
         id="g582"><g
           transform="matrix(1,0,0,-1,227,78)"
           id="g588"><text
             id="text590"
             style="font-style:italic;font-variant:normal;font-size:48px;font-family:TimesNewRomanPS;-inkscape-font-specification:TimesNewRomanPS-ItalicMT;writing-mode:lr-tb;fill:#0b6593;fill-opacity:0.49649999;fill-rule:nonzero;stroke:none"
             transform="translate(0,43)"><tspan
               id="tspan592"
               y="0"
               x="0 34.6656 58.6656 82.478401">Понт</tspan></text>
<text
             id="text594"
             style="font-style:italic;font-variant:normal;font-size:48px;font-family:TimesNewRomanPS;-inkscape-font-specification:TimesNewRomanPS-ItalicMT;writing-mode:lr-tb;fill:#0b6593;fill-opacity:0.49649999;fill-rule:nonzero;stroke:none"
             transform="translate(129.144,43)"><tspan
               id="tspan596"
               y="0"
               x="0 32.107201 52.944 73.569603 94.872002 118.872 142.6848 163.31039 184.61279 206.4576 228.912 252.912">Євксинкський</tspan></text>
</g></g></g><g
       id="g598"><g
         clip-path="url(#clipPath602)"
         id="g600"><g
           transform="matrix(0.3420201,0.9396926,0.9396926,-0.3420201,692.8423,220.123)"
           id="g606"><text
             id="text608"
             style="font-style:italic;font-variant:normal;font-size:38px;font-family:TimesNewRomanPS;-inkscape-font-specification:TimesNewRomanPS-ItalicMT;writing-mode:lr-tb;fill:#000000;fill-opacity:0.32880004;fill-rule:nonzero;stroke:none"
             transform="translate(0,34)"><tspan
               id="tspan610"
               y="0"
               x="0 22.412399 41.412399 58.276798 77.276802 96.276802 115.2768 132.1412 149.435 166.2652">Боспорське</tspan></text>
</g><g
           transform="matrix(0.3420201,0.9396926,0.9396926,-0.3420201,692.8423,220.123)"
           id="g612"><text
             id="text614"
             style="font-style:italic;font-variant:normal;font-size:38px;font-family:TimesNewRomanPS;-inkscape-font-specification:TimesNewRomanPS-ItalicMT;writing-mode:lr-tb;fill:#000000;fill-opacity:0.32880004;fill-rule:nonzero;stroke:none"
             transform="translate(0,78)"><tspan
               id="tspan616"
               y="0"
               x="0 19.4636 38.4636 57.4636 74.328003 101.7716 117.7658">царство</tspan></text>
</g></g></g></g></svg>