<?xml version="1.0" encoding="UTF-8" standalone="no"?>
<svg
   xmlns:dc="http://purl.org/dc/elements/1.1/"
   xmlns:cc="http://creativecommons.org/ns#"
   xmlns:rdf="http://www.w3.org/1999/02/22-rdf-syntax-ns#"
   xmlns:svg="http://www.w3.org/2000/svg"
   xmlns="http://www.w3.org/2000/svg"
   viewBox="0 0 1441.3333 981.33331"
   height="981.33331"
   width="1441.3333"
   xml:space="preserve"
   version="1.1"
   id="svg2"><metadata
     id="metadata8"><rdf:RDF><cc:Work
         rdf:about=""><dc:format>image/svg+xml</dc:format><dc:type
           rdf:resource="http://purl.org/dc/dcmitype/StillImage" /></cc:Work></rdf:RDF></metadata><defs
     id="defs6"><clipPath
       id="clipPath84"
       clipPathUnits="userSpaceOnUse"><path
         id="path86"
         d="m 690,98.14844 128,0 0,94 -128,0 0,-94 z" /></clipPath><clipPath
       id="clipPath106"
       clipPathUnits="userSpaceOnUse"><path
         style="clip-rule:evenodd"
         id="path108"
         d="m 321,396 c 4.4183,0 8,3.134 8,7 0,3.866 -3.5817,7 -8,7 -4.4183,0 -8,-3.134 -8,-7 0,-3.866 3.5817,-7 8,-7 l 0,0 z" /></clipPath><clipPath
       id="clipPath112"
       clipPathUnits="userSpaceOnUse"><path
         id="path114"
         d="m 313,396 16,0 0,14 -16,0 0,-14 z" /></clipPath><clipPath
       id="clipPath116"
       clipPathUnits="userSpaceOnUse"><path
         style="clip-rule:evenodd"
         id="path118"
         d="m 308,415 26,0 0,-24 -26,0 0,24 z" /></clipPath><clipPath
       id="clipPath120"
       clipPathUnits="userSpaceOnUse"><path
         id="path122"
         d="m 313,396 16,0 0,14 -16,0 0,-14 z" /></clipPath><clipPath
       id="clipPath148"
       clipPathUnits="userSpaceOnUse"><path
         style="clip-rule:evenodd"
         id="path150"
         d="m 776,82 c 4.4183,0 8,3.13401 8,7 0,3.866 -3.5817,7 -8,7 -4.4183,0 -8,-3.134 -8,-7 0,-3.86599 3.5817,-7 8,-7 l 0,0 z" /></clipPath><clipPath
       id="clipPath154"
       clipPathUnits="userSpaceOnUse"><path
         id="path156"
         d="m 768,82 16,0 0,14 -16,0 0,-14 z" /></clipPath><clipPath
       id="clipPath158"
       clipPathUnits="userSpaceOnUse"><path
         style="clip-rule:evenodd"
         id="path160"
         d="m 763,101 26,0 0,-24 -26,0 0,24 z" /></clipPath><clipPath
       id="clipPath162"
       clipPathUnits="userSpaceOnUse"><path
         id="path164"
         d="m 768,82 16,0 0,14 -16,0 0,-14 z" /></clipPath><clipPath
       id="clipPath190"
       clipPathUnits="userSpaceOnUse"><path
         style="clip-rule:evenodd"
         id="path192"
         d="m 956,366 c 4.4183,0 8,3.134 8,7 0,3.866 -3.5817,7 -8,7 -4.4183,0 -8,-3.134 -8,-7 0,-3.866 3.5817,-7 8,-7 l 0,0 z" /></clipPath><clipPath
       id="clipPath196"
       clipPathUnits="userSpaceOnUse"><path
         id="path198"
         d="m 948,366 16,0 0,14 -16,0 0,-14 z" /></clipPath><clipPath
       id="clipPath200"
       clipPathUnits="userSpaceOnUse"><path
         style="clip-rule:evenodd"
         id="path202"
         d="m 943,385 26,0 0,-24 -26,0 0,24 z" /></clipPath><clipPath
       id="clipPath204"
       clipPathUnits="userSpaceOnUse"><path
         id="path206"
         d="m 948,366 16,0 0,14 -16,0 0,-14 z" /></clipPath><clipPath
       id="clipPath232"
       clipPathUnits="userSpaceOnUse"><path
         style="clip-rule:evenodd"
         id="path234"
         d="m 981,400 c 4.4183,0 8,3.134 8,7 0,3.866 -3.5817,7 -8,7 -4.4183,0 -8,-3.134 -8,-7 0,-3.866 3.5817,-7 8,-7 l 0,0 z" /></clipPath><clipPath
       id="clipPath238"
       clipPathUnits="userSpaceOnUse"><path
         id="path240"
         d="m 973,400 16,0 0,14 -16,0 0,-14 z" /></clipPath><clipPath
       id="clipPath242"
       clipPathUnits="userSpaceOnUse"><path
         style="clip-rule:evenodd"
         id="path244"
         d="m 968,419 26,0 0,-24 -26,0 0,24 z" /></clipPath><clipPath
       id="clipPath246"
       clipPathUnits="userSpaceOnUse"><path
         id="path248"
         d="m 973,400 16,0 0,14 -16,0 0,-14 z" /></clipPath><clipPath
       id="clipPath274"
       clipPathUnits="userSpaceOnUse"><path
         style="clip-rule:evenodd"
         id="path276"
         d="M 127.3698,69.90345 103.3139,49.65088 125.9441,45.64733 150,65.89989 l -22.6302,4.00356 0,0 z" /></clipPath><clipPath
       id="clipPath280"
       clipPathUnits="userSpaceOnUse"><path
         id="path282"
         d="m 103,45 47,0 0,25 -47,0 0,-25 z" /></clipPath><clipPath
       id="clipPath284"
       clipPathUnits="userSpaceOnUse"><path
         style="clip-rule:evenodd"
         id="path286"
         d="m 93.3139,79.90345 66.6861,0 0,-44.25612 -66.6861,0 0,44.25612 z" /></clipPath><clipPath
       id="clipPath288"
       clipPathUnits="userSpaceOnUse"><path
         id="path290"
         d="m 103,45 47,0 0,25 -47,0 0,-25 z" /></clipPath><clipPath
       id="clipPath310"
       clipPathUnits="userSpaceOnUse"><path
         style="clip-rule:evenodd"
         id="path312"
         d="m 103.313,49.69811 24.0557,20.25257 0,23.05592 -24.0557,-20.25261 0,-23.05588 0,0 z" /></clipPath><clipPath
       id="clipPath316"
       clipPathUnits="userSpaceOnUse"><path
         id="path318"
         d="m 103,49 25,0 0,45 -25,0 0,-45 z" /></clipPath><clipPath
       id="clipPath320"
       clipPathUnits="userSpaceOnUse"><path
         style="clip-rule:evenodd"
         id="path322"
         d="m 93.313,103.0066 44.0557,0 0,-63.30849 -44.0557,0 0,63.30849 z" /></clipPath><clipPath
       id="clipPath324"
       clipPathUnits="userSpaceOnUse"><path
         id="path326"
         d="m 103,49 25,0 0,45 -25,0 0,-45 z" /></clipPath><clipPath
       id="clipPath346"
       clipPathUnits="userSpaceOnUse"><path
         style="clip-rule:evenodd"
         id="path348"
         d="m 50,49.08567 c 0,-5.56702 4.26273,-6.17734 6.94585,-6.05767 0,0 10.49698,0.38345 12.82531,0.701 l 0,4.73186 -11.46896,0 c -1.19188,0 -2.52975,-0.04113 -2.54823,2.14445 l 0,4.70927 12.14714,0.38969 0,4.74635 -12.14714,0.43503 0,4.70927 c 0,1.11344 0,2.3093 2.13716,2.3093 l 11.88003,0 0,4.77315 c -2.64482,0.36289 -13.23621,0.6597 -13.23621,0.6597 C 53.69761,73.39286 50,72.30723 50,67.06905 l 0,-17.98338 0,0 z" /></clipPath><clipPath
       id="clipPath352"
       clipPathUnits="userSpaceOnUse"><path
         id="path354"
         d="m 50,42 20,0 0,32 -20,0 0,-32 z" /></clipPath><clipPath
       id="clipPath356"
       clipPathUnits="userSpaceOnUse"><path
         style="clip-rule:evenodd"
         id="path358"
         d="m 40,83.33907 39.7712,0 0,-50.32403 -39.7712,0 0,50.32403 z" /></clipPath><clipPath
       id="clipPath360"
       clipPathUnits="userSpaceOnUse"><path
         id="path362"
         d="m 50,42 20,0 0,32 -20,0 0,-32 z" /></clipPath><clipPath
       id="clipPath382"
       clipPathUnits="userSpaceOnUse"><path
         style="clip-rule:evenodd"
         id="path384"
         d="m 50,14.99776 c 0,-5.56702 4.26273,-6.17734 6.94585,-6.05767 0,0 10.49698,0.38345 12.82531,0.701 l 0,4.73185 -11.46896,0 c -1.19188,0 -2.52975,-0.04112 -2.54823,2.14446 l 0,4.70927 12.14714,0.38969 0,4.74635 -12.14714,0.43502 0,4.70928 c 0,1.11343 0,2.30929 2.13716,2.30929 l 11.88003,0 0,4.77315 C 67.12634,38.95234 56.53495,39.24916 56.53495,39.24916 53.69761,39.30495 50,38.21932 50,32.98114 l 0,-17.98338 0,0 z m 47.1183,-5.93396 6.1813,0 2.1701,6.68855 9.8538,0 2.1371,-6.68855 6.1259,0 -9.7714,30.18536 -6.5452,0 -10.1516,-30.18536 0,0 z m 9.8455,11.80403 3.6167,10.77317 3.3806,-10.77317 -6.9973,0 0,0 z" /></clipPath><clipPath
       id="clipPath388"
       clipPathUnits="userSpaceOnUse"><path
         id="path390"
         d="m 50,8 74,0 0,32 -74,0 0,-32 z" /></clipPath><clipPath
       id="clipPath392"
       clipPathUnits="userSpaceOnUse"><path
         style="clip-rule:evenodd"
         id="path394"
         d="m 40,49.25116 93.5865,0 0,-50.324029 -93.5865,0 0,50.324029 z" /></clipPath><clipPath
       id="clipPath396"
       clipPathUnits="userSpaceOnUse"><path
         id="path398"
         d="m 50,8 74,0 0,32 -74,0 0,-32 z" /></clipPath><clipPath
       id="clipPath418"
       clipPathUnits="userSpaceOnUse"><path
         style="clip-rule:evenodd"
         id="path420"
         d="m 72.95068,9.06375 5.75402,0 0,11.99988 5.0553,-0.57728 4.9731,-11.4226 6.4753,0 -5.6965,11.88662 c 1.6707,0.52772 4.7902,1.41429 4.7902,8.88643 0,7.20835 -3.4935,9.41248 -8.1891,9.41248 l -13.16232,0 0,-30.18553 0,0 z m 5.77662,16.53605 0,8.51546 6.8206,0 c 1.8084,0 2.9591,-0.84949 2.9591,-4.27846 0,-3.64741 -0.9555,-4.237 -2.9591,-4.237 l -6.8206,0 0,0 z" /></clipPath><clipPath
       id="clipPath424"
       clipPathUnits="userSpaceOnUse"><path
         id="path426"
         d="M 72,9 96,9 96,40 72,40 72,9 Z" /></clipPath><clipPath
       id="clipPath428"
       clipPathUnits="userSpaceOnUse"><path
         style="clip-rule:evenodd"
         id="path430"
         d="m 62.95068,49.24928 42.25772,0 0,-50.185527 -42.25772,0 0,50.185527 z" /></clipPath><clipPath
       id="clipPath432"
       clipPathUnits="userSpaceOnUse"><path
         id="path434"
         d="M 72,9 96,9 96,40 72,40 72,9 Z" /></clipPath><clipPath
       id="clipPath454"
       clipPathUnits="userSpaceOnUse"><path
         style="clip-rule:evenodd"
         id="path456"
         d="m 72.95068,43.15167 12.78412,0 c 7.3445,0 10.4374,6.08244 10.4374,14.96904 0,7.47837 -1.7777,15.21648 -10.4374,15.21648 l -12.78412,0 0,-30.18552 0,0 z m 5.75402,5.14851 0,19.94412 6.5781,0 c 3.2077,0 5.1354,-2.00608 5.1354,-10.08246 0,-6.05565 -1.4057,-9.86166 -5.1354,-9.86166 l -6.5781,0 0,0 z" /></clipPath><clipPath
       id="clipPath460"
       clipPathUnits="userSpaceOnUse"><path
         id="path462"
         d="m 72,43 25,0 0,31 -25,0 0,-31 z" /></clipPath><clipPath
       id="clipPath464"
       clipPathUnits="userSpaceOnUse"><path
         style="clip-rule:evenodd"
         id="path466"
         d="m 62.95068,83.33719 43.22152,0 0,-50.18552 -43.22152,0 0,50.18552 z" /></clipPath><clipPath
       id="clipPath468"
       clipPathUnits="userSpaceOnUse"><path
         id="path470"
         d="m 72,43 25,0 0,31 -25,0 0,-31 z" /></clipPath><clipPath
       id="clipPath490"
       clipPathUnits="userSpaceOnUse"><path
         id="path492"
         d="m 930,418.1484 102,0 0,94 -102,0 0,-94 z" /></clipPath><clipPath
       id="clipPath504"
       clipPathUnits="userSpaceOnUse"><path
         id="path506"
         d="m 861,336.1484 152,0 0,94 -152,0 0,-94 z" /></clipPath><clipPath
       id="clipPath522"
       clipPathUnits="userSpaceOnUse"><path
         id="path524"
         d="m 273,411.1484 90,0 0,94 -90,0 0,-94 z" /></clipPath><clipPath
       id="clipPath542"
       clipPathUnits="userSpaceOnUse"><path
         id="path544"
         d="m 255.0542,602.3696 302.2619,-21.1362 -6.5571,-93.7711 -302.2619,21.1363 6.5571,93.771 z" /></clipPath></defs><g
     transform="matrix(1.3333333,0,0,-1.3333333,0,981.33333)"
     id="g10"><g
       id="g12" /><g
       id="g14"><g
         transform="matrix(1,0,0,-1,14.2994,716.5748)"
         id="g16"><path
           id="path18"
           style="fill:none;stroke:#efa731;stroke-width:3;stroke-linecap:butt;stroke-linejoin:miter;stroke-miterlimit:10;stroke-dasharray:none;stroke-opacity:1"
           d="m 5.914564,333.9056 c -16.513314,-3.4396 6.624386,-15.1555 8.228816,-21.3639 1.9043,-7.3688 -6.982591,-19.0317 0,-26.0143 2.56357,-2.5635 8.75106,0.178 10.74153,-1.8577 5.74861,-5.8793 9.05511,-13.1123 15.7848,-18.1784 4.05498,-3.0527 15.7274,2.7916 19.23829,-0.6669 4.27964,-4.2158 -5.57414,-10.3232 -7.03201,-13.2721 -2.76007,-5.5829 -4.75983,-31.0936 -1.98873,-36.7618 7.5847,-15.5141 22.16736,-16.0927 34.4872,-26.6751 9.38531,-8.0618 15.15614,-20.1544 21.35804,-30.5217 1.7854,-2.9846 7.0784,-2.2587 9.5506,-4.3823 6.5028,-5.5857 14.1496,-10.1208 20.5602,-15.2609 2.1531,-1.7263 2.4455,-5.238 4.3764,-7.1689 0.7885,-0.7885 -4.061,-45.06574 -4.1144,-45.12156 -3.5128,-3.67242 -10.8858,-4.61522 -13.3972,-9.41967 -3.112,-5.9534 1.5644,-10.72204 4.7754,-13.93302 2.3826,-2.38268 5.3224,-0.93625 8.0918,-2.12568 3.316,-1.42416 5.6837,-8.32503 8.8898,-9.42563 7.89,-2.70852 18.6037,-3.90051 26.3953,-8.09187 12.957,-6.96994 21.9293,-19.90781 37.0118,-25.08539 16.4783,-5.65673 40.9016,4.97842 55.1843,10.35449 7.3512,2.76701 18.2659,-2.07896 24.8056,1.19086 7.1909,3.59547 10.3115,8.26741 19.6312,9.82457 3.5086,0.58622 13.3975,-1.64583 16.0528,0.13099 11.8248,7.91284 -4.0889,10.17199 32.8974,21.10198 19.915,5.88516 8.8276,1.23508 25.0675,2.9176 3.4161,0.35392 5.1422,4.28958 9.8186,4.64434 8.2662,0.62709 48.5087,-3.25781 53.5886,-1.5898 2.3759,0.78016 3.4706,4.18849 5.7042,5.30527 5.5047,2.75236 15.1581,-2.57101 20.6971,0.13695 3.8616,1.88791 5.2801,6.25338 9.6816,7.56194 7.4286,2.20848 14.9961,-1.26997 20.4292,4.2454 1.5224,1.54545 15.1616,12.50695 16.8446,9.69357 6.461,-10.80044 -19.3178,-22.88608 -9.9496,-32.25435 3.7088,-3.70874 9.931,-6.06025 13.1352,-10.34854 9.0289,-12.08388 11.4746,-18.45982 27.3242,-24.68645 2.6304,-1.03336 4.0871,-5.43249 7.4309,-6.77002 12.3032,-4.92126 27.3316,3.29303 39.3936,-0.131 7.5531,-2.14412 -0.4564,-14.996305 6.2341,-15.528766 8.9633,-0.713341 19.6774,-2.488212 28.658,-1.327805 6.0718,0.784564 9.1211,5.043277 16.4457,5.043277 2.125,0 1.4019,-3.088615 2.9176,-3.846467 1.9811,-0.990562 21.7162,-5.351992 23.0847,-3.9834153 2.0793,2.0792443 -0.2204,7.9919183 2.9176,10.4854963 2.6295,2.08949 14.1332,-0.05686 17.9046,1.59574 12.7721,5.59677 6.7608,15.5484 9.5506,17.38055 1.7284,1.13505 7.2864,0.26036 8.6218,1.59575 2.2243,2.2243 9.5866,14.16309 10.6165,17.11856 3.5709,10.24704 -22.4979,9.09917 -13.6651,22.29879 3.1579,4.71901 12.5699,2.63038 16.1838,7.43095 3.0791,4.09017 -3.1793,11.41451 2.9176,14.46295 10.8818,5.44093 29.2621,0.44659 34.7551,11.68231 5.6903,11.6392 5.159,17.5454 16.5827,26.1452 3.1774,2.392 -1.7119,18.837 0,22.8228 1.277,2.9732 4.6062,4.6029 6.2341,7.2999 1.2409,2.0558 0.6726,5.9579 2.3877,7.6989 9.863,10.0125 29.5221,-8.4197 36.3449,-9.4256 14.5064,-2.1388 10.6377,5.0053 19.5003,7.9668" /></g><g
         transform="matrix(1,0,0,-1,554.4739,546.2717)"
         id="g20"><path
           id="path22"
           style="fill:none;stroke:#efa731;stroke-width:3;stroke-linecap:butt;stroke-linejoin:miter;stroke-miterlimit:10;stroke-dasharray:none;stroke-opacity:1"
           d="m 310.6647,7.772979 c 9.9217,6.598631 18.4133,-1.716171 26.6632,-5.841151 8.0247,-4.012316 19.6713,-0.529931 27.9911,-0.529931 1.9531,0 4.9696,-2.2807264 5.8352,-0.5299306 1.1777,2.3820856 -1.1408,7.3743296 0.3989,9.4196736 1.4161,1.88109 6.0842,1.37262 7.562,2.9176 1.9109,1.99778 2.6714,6.10067 5.5732,7.5679 8.967,4.5339 14.5024,-2.31577 23.3408,-0.131 7.378,1.82378 14.3533,2.95918 21.8879,4.90633 7.6699,1.9821 20.8343,22.12543 29.5809,24.28752 18.0271,4.45613 12.4338,-14.50616 22.0249,-12.60522 4.6774,0.92706 4.4101,6.62681 7.9549,8.35981 4.3213,2.11265 10.407,0.94521 14.725,4.3764 2.3344,1.85502 16.6774,35.93894 16.1837,37.95855 -0.812,3.32185 -9.0086,7.46452 -10.6105,12.34327 -0.4226,1.287 -2.9261,-2.77817 -3.8465,-1.85778 -0.9214,0.92144 -1.3381,6.62828 -0.7979,7.96088 1.322,3.261 5.474,4.9291 6.7641,7.5679 5.4649,11.1784 1.1968,40.2294 1.1968,53.0825 0,6.5483 5.5958,10.48 4.7753,17.1185 -0.5731,4.6368 -2.7132,10.9567 -3.7154,16.0587 -0.3078,1.5667 -3.6006,2.1522 -4.6444,3.7155 -7.8298,11.7272 -14.0643,2.1125 -24.4066,6.2401 -2.1624,0.863 -1.9968,4.7329 -3.7155,5.5732 -3.2205,1.5745 -10.5045,-3.3149 -15.7848,-0.3989 -3.0727,1.6969 -3.3897,6.9375 -6.2341,8.3598 -12.0458,6.0229 -22.6612,2.008 -25.2045,20.0421 -0.518,3.6733 -3.5785,5.1448 -3.5785,10.4855 0,4.1165 13.7182,9.0856 5.1743,20.4351 -4.4498,5.9109 -14.8402,0.0752 -20.2982,3.8524 -8.8247,6.1071 -14.3884,16.9506 -23.2157,21.8939 -16.6097,9.3014 -29.5423,6.7629 -45.4967,20.971 -1.6505,1.4698 -0.8735,4.321 -2.2567,5.7042 -4.6978,4.6978 -20.4552,-1.4649 -26.3953,0.5299 -14.1428,4.7495 -13.7154,21.102 -33.6953,21.102 -3.6083,0 -8.1621,-0.7101 -11.5394,0.3989 -3.4661,1.1381 -1.6546,9.052 -4.6443,11.0154 -3.5784,2.35 -13.6218,3.783 -13.9271,3.9835 -2.515,1.6516 -2.2317,6.8684 -5.7042,8.3598 -5.7272,2.4597 -27.3765,5.0955 -30.9087,8.6277 -1.9137,1.9137 -3.4744,8.2357 -2.5186,11.1464 3.2571,9.9196 15.7616,15.2377 17.1126,16.5887 2.1522,2.1522 8.5967,14.6501 10.8784,18.0474 0.7308,1.088 4.9073,0.6457 5.4363,2.2567 1.473,4.486 -0.0675,9.4761 2.1197,13.802 2.8248,5.5867 7.7745,7.8073 13.2662,8.8957 3.1654,0.6274 6.0369,2.7687 8.8897,3.5785 6.5415,1.8569 19.2,-19.2059 22.4179,-22.4238 3.1635,-3.1635 11.6866,-1.9254 15.3859,-4.3824 3.0667,-2.0368 7.5514,-7.3677 11.9383,-5.1742 4.8269,2.4134 4.1646,9.2643 9.1517,11.8133 4.2417,2.1679 24.8122,-2.5556 28.521,1.3218 2.1563,2.2543 -1.5092,9.0581 -1.7208,11.4144 -0.182,2.0273 0.5907,6.1794 -0.7978,7.5679 -2.389,2.389 -11.1506,2.5539 -14.326,4.7753 -1.6162,1.1306 -4.6021,8.0118 -5.4363,8.0978 -4.1769,0.4308 -8.7896,-0.9112 -12.4742,1.1909 -2.601,1.4839 -3.1347,6.6322 -5.1683,7.2999 -12.8244,4.211 -24.5537,-3.6242 -32.5045,14.332 -2.2807,5.1508 -11.625,-3.318 -15.1179,-0.5299 -14.4909,11.5667 -12.2217,3.5245 -17.9105,6.77 -6.1171,3.4899 -10.3223,11.0082 -16.4457,14.07 -6.2326,3.1163 -27.18,-1.2101 -31.7065,3.3165 -3.8419,3.8419 -2.3963,10.5496 -4.3764,14.5999 -6.3484,12.9853 -54.9129,14.0106 -59.4297,0.6609 -3.2908,-9.7259 11.0073,-4.7749 12.4682,-9.1577 2.131,-6.3929 -3.4815,-9.8227 -4.5074,-14.9988 -1.1611,-5.8584 0.661,-12.271 0.661,-18.3094 0,-3.2954 10.3532,-11.6431 5.7042,-14.7309 -13.3571,-8.8715 -15.6629,7.7803 -21.888,4.6443 -6.2398,-3.1433 -15.8488,-22.1678 -16.1837,-22.1678 -11.7596,0 -26.31218,14.89 -35.41605,5.5792 -0.26193,-0.2679 -0.54477,-1.8964 -0.26199,-2.1257 2.18308,-1.7701 9.52907,-0.7186 12.59926,-1.7267 3.89021,-1.2774 9.80788,-5.4885 13.26608,-8.0919 4.5229,-3.4048 3.5325,-10.9694 7.032,-14.4689 3.057,-3.057 8.6982,-1.6176 12.0694,-4.5134 3.1802,-2.7317 4.0648,-8.7997 8.2228,-10.4854 3.2357,-1.3118 6.8644,1.502 9.8186,0.1369 3.415,-1.578 42.5117,-23.6903 44.0379,-26.8121 0.6696,-1.3697 2.3199,-7.9276 1.4588,-9.2887 -2.6194,-4.1404 -15.5897,2.3548 -18.0415,3.7155 -7.6737,4.2589 -15.4148,3.2883 -22.9478,7.0379 -3.7106,1.847 -5.284,5.3709 -9.1517,7.032 -13.0738,5.615 -16.5506,-3.0406 -32.4985,7.8299 -23.04566,-0.4475 -32.13993,-8.9929 -50.80783,-19.6432 -2.97652,-1.6981 -6.56625,4.2818 -9.28273,2.9236 -4.00287,-2.0015 -14.36213,-12.1729 -12.73621,-17.1245 3.2514,-9.902 28.01661,-12.0488 26.00235,-17.9165 -1.42704,-4.157 -14.07236,-3.5637 -17.51154,-4.2454 -4.5472,-0.9012 -4.4469,-7.159 -8.09187,-7.9608 -5.23981,-1.1528 -5.50367,4.8603 -9.28868,6.1031 -7.47618,2.4549 -13.41622,-4.1919 -19.101337,-2.7866 -3.078494,0.761 -5.408675,4.583 -8.484853,5.4422" /></g><g
         transform="matrix(1,0,0,-1,372.5119,212.0965)"
         id="g24"><path
           id="path26"
           style="fill:none;stroke:#efa731;stroke-width:3;stroke-linecap:butt;stroke-linejoin:miter;stroke-miterlimit:10;stroke-dasharray:none;stroke-opacity:1"
           d="m 172.8754,19.24424 c -6.3757,-3.20681 -5.8205,-1.29387 -10.2116,1.58979 -4.6372,3.04532 -17.4447,2.25668 -22.5488,2.25668 -0.5736,0 -0.268,1.75349 -0.268,2.25667 0,7.36596 5.5143,5.25231 9.0207,8.75875 2.1091,2.10902 -0.1939,8.38036 1.5898,10.08655 3.9338,3.76269 7.845,3.57532 1.0659,10.3545 -1.3255,1.32549 -0.7194,5.75669 -1.7268,6.76407 -0.9279,0.92789 -8.8994,-0.54792 -10.3485,-0.26199 -1.8282,0.36071 -5.2283,4.56736 -6.6331,5.97214 -7.8963,7.89633 -7.4405,20.51347 -15.9158,23.3527 -5.0649,1.69673 -12.2514,0.76357 -12.3373,1.19681 -0.7997,4.03519 0.098,8.71989 -1.1908,12.47419 -1.7646,5.1403 -6.95131,8.7311 -7.69894,13.8021 -0.66719,4.5252 5.08224,13.5924 1.19681,17.6544 -4.63731,4.8481 -15.83183,-19.0293 -16.71367,-19.9111 -4.7661,-4.7661 -13.54583,-2.2677 -18.83935,0.3989 -22.84079,11.5063 -18.85505,12.2123 -46.02661,12.2123 -2.39913,0 -7.418845,2.0821 -9.550674,0.6609 C -12.41833,116.7579 18.11653,104.5419 20.32667,97.811 c 1.05908,-3.22541 0.25503,-7.94102 1.72674,-10.88443 0.54503,-1.09006 3.99914,-1.53062 5.04327,-2.9176 4.73917,-6.29531 18.07713,-28.62209 21.35206,-35.17195 4.95149,-9.90297 -3.39487,-21.68456 5.44222,-30.52165 2.99659,-2.9966 7.43256,5.04328 11.67039,5.04328 4.06742,0 9.13199,4.65282 12.8672,3.04859 5.26365,-2.26067 18.65847,-3.97766 24.40665,-2.7866 3.6786,0.76223 6.6506,5.06089 10.4795,4.11441 6.8375,-1.69016 -6.7006,-14.92991 -7.6929,-16.58863 C 103.1994,7.097092 107.7114,1.98336 102.4422,0" /></g><g
         transform="matrix(1,0,0,-1,22.01216,374.1856)"
         id="g28"><path
           id="path30"
           style="fill:none;stroke:#efa731;stroke-width:3;stroke-linecap:butt;stroke-linejoin:miter;stroke-miterlimit:10;stroke-dasharray:none;stroke-opacity:1"
           d="m 0,0 c 12.96066,13.33299 26.87575,15.21727 39.26253,27.60406 4.1025,4.10249 21.5852,-3.63016 26.53229,-2.64966 3.54843,0.70329 7.69592,7.96387 10.0806,10.34854 0.68358,0.68358 7.73125,-1.72674 9.28272,-1.72674 5.86392,0 16.80416,2.47065 22.68576,4.78129 3.0762,1.20849 5.9056,6.41791 9.1518,8.35981 3.3274,1.99054 8.8961,-1.92815 12.7362,-0.66092 3.313,1.09332 3.9351,6.78002 7.026,8.35981 1.3425,0.68614 4.8364,-1.00478 5.8412,0 1.5269,1.52694 0.5644,6.5396 2.3876,7.43095 4.2469,2.07622 8.7849,3.05039 13.1292,5.17427 7.5076,3.67034 13.7588,-4.97233 19.5003,-7.29995 4.118,-1.66946 9.9875,1.3658 13.7961,-0.52993 2.3218,-1.15569 3.903,-4.1994 6.633,-4.51335 5.6514,-0.6499 9.3312,4.442 14.1951,3.05455 7.5803,-2.16233 8.1031,-7.80346 13.927,-11.67635 2.1749,-1.44631 4.7578,-0.4092 6.7641,-1.72674 3.1672,-2.08 3.1689,-7.09789 6.6331,-9.15769 4.1656,-2.47685 11.7075,0.90478 16.4516,-0.26794 4.5823,-1.1327 5.5362,-6.25729 9.0208,-7.96088 3.0839,-1.50768 7.5253,5.83176 11.8014,3.98342 8.0391,-3.475 10.7712,-12.05033 17.5115,-17.12452 1.2473,-0.939 4.4611,-0.39298 5.8352,-0.39298 8.3305,0 26.7665,-1.64402 33.6953,-0.66688 3.5422,0.49954 12.254,12.93722 12.8672,16.0587 0.3716,1.89198 -1.564,11.04121 0,12.60521 4.169,4.16901 11.4445,-6.99639 16.0527,-6.23413 5.6465,0.934 10.1064,6.26717 14.725,8.62776 1.6868,0.86216 4.5488,-0.9953 6.0972,0.52993 1.7378,1.71191 4.1563,6.58855 6.1031,7.56194 1.9051,0.95252 4.7555,-1.90663 7.032,-0.92887 4.4158,1.8965 3.6135,7.54733 5.4363,11.15237 0.8536,1.6882 4.5652,2.3906 5.1742,4.2454 1.1052,3.36579 0.0765,7.18471 1.8578,10.34854 1.3396,2.3794 4.7861,-1.64068 6.1031,3.31654 2.1539,8.10721 -2.2672,20.20424 1.4588,27.74104 3.9359,7.9613 10.3605,2.4554 13.6651,7.4309 1.3135,1.9777 -1.5052,22.6153 12.8672,36.3628 3.0326,2.9008 -3.9029,10.7824 -2.6556,14.4689 1.5588,4.6071 10.6754,1.5946 13.5281,3.3166 4.7249,2.8519 -0.612,9.9985 2.1257,12.7362 3.7344,3.7344 12.8355,-2.8765 8.7528,7.2999" /></g><g
         transform="matrix(1,0,0,-1,514.7962,618.5242)"
         id="g32"><path
           id="path34"
           style="fill:none;stroke:#0c5a97;stroke-width:2;stroke-linecap:butt;stroke-linejoin:miter;stroke-miterlimit:10;stroke-dasharray:none;stroke-opacity:1"
           d="m 9.900027,0 c -14.57158,15.74231 -8.752796,4.291059 -8.752796,28.13398 0,5.16542 -0.6398578,11.14642 -0.5299306,11.14642 2.8996136,0 4.2321286,-25.72974 8.0859156,-2.25668 2.077494,12.65382 -11.616382,13.99894 2.256674,27.872 1.15595,1.15595 1.65924,22.44398 2.78661,25.87731 2.27481,6.92784 8.5205,9.43157 11.67635,14.20097 2.23793,3.3821 0.18842,7.3511 1.72078,10.4855 1.39859,2.8607 15.63953,-1.746 17.11261,-1.8578 1.89354,-0.1436 13.45342,5.6139 15.65381,6.7641 2.0563,1.0749 2.68461,22.6033 5.7042,26.6752 4.96882,6.7003 11.60461,3.1793 17.64254,8.3657 2.81833,2.4209 -0.77823,8.1175 1.19086,10.0866 2.66272,2.6627 8.84069,0.4529 12.33727,1.8577 4.52918,1.8198 7.57008,6.5465 12.20628,8.0919 12.1308,4.0436 23.4687,7.0826 32.8974,16.7256 0.4907,0.5019 4.2005,-5.6842 5.9662,-3.7155 1.9181,2.1387 1.2272,7.8544 2.5246,9.1517 0.6708,0.6709 9.9006,-0.1953 12.2003,0.399 9.1953,2.3763 16.9366,7.1299 23.3467,13.54 2.1127,2.1127 10.7471,-1.1625 13.5341,0.262 2.9685,1.5172 34.5337,28.3175 42.0492,33.0463 13.1034,8.2449 30.7841,4.4007 42.1801,15.7967 5.2965,5.2965 -8.4613,23.9971 -4.2454,36.0948 3.6832,10.5692 14.1305,11.1599 9.8186,32.9153 -0.4212,2.1254 -6.942,5.3053 -9.5507,5.3053 -1.327,0 -2.3876,-4.5126 -2.3876,-3.1856 0,11.8367 -22.6758,0.6156 -28.652,-0.9288 -5.6598,-1.4627 -11.3173,4.0105 -15.3859,4.5133 -0.9241,0.1142 -10.1098,-0.84 -10.7475,0.131 -2.1535,3.2793 0.1201,8.6495 -1.7267,12.3432 -1.7063,3.4126 -6.0464,3.7467 -7.163,7.8299 -0.5958,2.1785 0.6233,8.6189 -0.53,9.8246 -4.6905,4.9037 -9.2332,9.2384 -11.8013,16.7196 -0.27,0.7865 -4.8237,-0.3506 -5.5733,0.3989 -0.6872,0.6873 -1.2601,5.563 -1.9887,6.7701 -1.3352,2.212 -8.1578,1.2515 -10.0806,4.1144 -1.9286,2.8715 -1.4812,7.1854 -4.1144,9.8186 -6.2335,6.2335 -23.4716,-1.9424 -28.652,3.3165 -4.4876,4.5556 -9.2993,10.2342 -13.7961,14.7309 -0.8004,0.8004 -4.5468,-0.2861 -5.7042,0 -1.9177,0.4741 -3.4825,2.4956 -5.5732,3.1856 -0.8194,0.2704 -3.9435,-0.068 -4.3764,0.7978 -0.3529,0.7058 0.5242,2.6376 0,3.1856 -1.3457,1.4069 -8.8412,-0.4911 -9.9496,-0.7979" /></g><g
         transform="matrix(1,0,0,-1,476.2611,211.976)"
         id="g36"><path
           id="path38"
           style="fill:none;stroke:#ffffff;stroke-width:5;stroke-linecap:butt;stroke-linejoin:miter;stroke-miterlimit:10;stroke-dasharray:none;stroke-opacity:1"
           d="M 2.768041,5.281357 C 2.557702,3.042042 0.9532797,1.417579 0,0" /></g><g
         transform="matrix(1,0,0,-1,482.0771,198.371)"
         id="g40"><path
           id="path42"
           style="fill:none;stroke:#ffffff;stroke-width:4;stroke-linecap:butt;stroke-linejoin:miter;stroke-miterlimit:10;stroke-dasharray:none;stroke-opacity:1"
           d="M 0,0 C 1.431947,1.863515 2.573069,3.516586 3.699863,5.270668" /></g><g
         transform="matrix(1,0,0,-1,474.8508,223.5745)"
         id="g44"><path
           id="path46"
           style="fill:none;stroke:#ffffff;stroke-width:3;stroke-linecap:butt;stroke-linejoin:miter;stroke-miterlimit:10;stroke-dasharray:none;stroke-opacity:1"
           d="M 6.918629,0 C 7.543648,6.39143 1.394262,9.672898 0,14.54363" /></g><g
         transform="matrix(1,0,0,-1,474.8792,207.8092)"
         id="g48"><path
           id="path50"
           style="fill:none;stroke:#ffffff;stroke-width:2;stroke-linecap:butt;stroke-linejoin:miter;stroke-miterlimit:10;stroke-dasharray:none;stroke-opacity:1"
           d="M 0,0 C 12.66313,5.106966 -0.7980895,13.36036 17.17751,15.76103" /></g><g
         transform="matrix(1,0,0,-1,476.5343,207.8766)"
         id="g52"><path
           id="path54"
           style="fill:none;stroke:#ffffff;stroke-width:3;stroke-linecap:butt;stroke-linejoin:miter;stroke-miterlimit:10;stroke-dasharray:none;stroke-opacity:1"
           d="M 0,0 C 5.527162,1.570431 6.316175,6.61168 5.16556,12.16446" /></g><g
         transform="matrix(1,0,0,-1,545.4694,193.2731)"
         id="g56"><path
           id="path58"
           style="fill:none;stroke:#efa731;stroke-width:3;stroke-linecap:butt;stroke-linejoin:miter;stroke-miterlimit:10;stroke-dasharray:none;stroke-opacity:1"
           d="M 0,0 C 3.843867,1.368978 7.14035,3.257493 10.91384,0.4246926" /></g><g
         transform="matrix(1,0,0,-1,20.74084,382.954)"
         id="g60"><path
           id="path62"
           style="fill:none;stroke:#efa731;stroke-width:3;stroke-linecap:butt;stroke-linejoin:miter;stroke-miterlimit:10;stroke-dasharray:none;stroke-opacity:1"
           d="M 0,0 C 5.943828,1.296413 0.6571373,5.403914 2.190583,8.720594" /></g><g
         transform="matrix(1,0,0,-1,21.98792,376.7099)"
         id="g64"><path
           id="path66"
           style="fill:none;stroke:#efa731;stroke-width:2;stroke-linecap:butt;stroke-linejoin:miter;stroke-miterlimit:10;stroke-dasharray:none;stroke-opacity:1"
           d="M 0.3460272,0 C -0.3114677,1.901553 -0.1656984,2.556612 1.965054,3.523526" /></g><g
         transform="matrix(1,0,0,-1,859.7656,549.9512)"
         id="g68"><path
           id="path70"
           style="fill:none;stroke:#efa731;stroke-width:3;stroke-linecap:butt;stroke-linejoin:miter;stroke-miterlimit:10;stroke-dasharray:none;stroke-opacity:1"
           d="M 0,0 C 5.586079,3.218733 0.6447362,8.817325 6.721036,11.42653" /></g><g
         transform="matrix(1,0,0,-1,524.6597,620.6382)"
         id="g72"><path
           id="path74"
           style="fill:none;stroke:#0c5a97;stroke-width:2;stroke-linecap:butt;stroke-linejoin:miter;stroke-miterlimit:10;stroke-dasharray:none;stroke-opacity:1"
           d="M 0,2.156858 C 1.966085,0.8073804 5.06273,0.6014319 7.0024,0" /></g><g
         transform="matrix(1,0,0,-1,617.5224,190.9531)"
         id="g76"><path
           id="path78"
           style="fill:none;stroke:#0c5a97;stroke-width:2;stroke-linecap:butt;stroke-linejoin:miter;stroke-miterlimit:10;stroke-dasharray:none;stroke-opacity:1"
           d="M 9.06407,0 C 5.845653,0.00445522 2.233662,0.05159903 0,1.073967" /></g></g><g
       id="g80"><g
         clip-path="url(#clipPath84)"
         id="g82"><g
           transform="matrix(1,0,0,-1,710,122.1484)"
           id="g88"><text
             id="text90"
             style="font-variant:normal;font-weight:normal;font-size:20px;font-family:TimesNewRomanPSMT;-inkscape-font-specification:TimesNewRomanPSMT;writing-mode:lr-tb;fill:#000000;fill-opacity:1;fill-rule:nonzero;stroke:none"
             transform="translate(0,18)"><tspan
               id="tspan92"
               y="0"
               x="0 13.34 24.044001 29.6">Киїк</tspan></text>
<text
             id="text94"
             style="font-variant:normal;font-weight:normal;font-size:20px;font-family:TimesNewRomanPSMT;-inkscape-font-specification:TimesNewRomanPSMT;writing-mode:lr-tb;fill:#000000;fill-opacity:1;fill-rule:nonzero;stroke:none"
             transform="translate(39.316,18)"><tspan
               id="tspan96"
               y="0"
               x="0">-</tspan></text>
<text
             id="text98"
             style="font-variant:normal;font-weight:normal;font-size:20px;font-family:TimesNewRomanPSMT;-inkscape-font-specification:TimesNewRomanPSMT;writing-mode:lr-tb;fill:#000000;fill-opacity:1;fill-rule:nonzero;stroke:none"
             transform="translate(45.976,18)"><tspan
               id="tspan100"
               y="0"
               x="0 12.344 22.344 32.52">Коба</tspan></text>
</g></g></g><g
       id="g102"><g
         clip-path="url(#clipPath106)"
         id="g104"><g
           id="g110" /><g
           id="g124"><g
             id="g126"
             clip-path="url(#clipPath112)"><g
               id="g128" /><g
               id="g130"><g
                 id="g132"
                 clip-path="url(#clipPath116)"><g
                   id="g134"
                   clip-path="url(#clipPath120)"><path
                     id="path136"
                     style="fill:#d0021b;fill-opacity:1;fill-rule:evenodd;stroke:none"
                     d="m 303,420 36,0 0,-34 -36,0 0,34 z" /></g></g></g></g></g></g></g><g
       id="g138"><g
         transform="matrix(1,0,0,-1,313,410)"
         id="g140"><path
           id="path142"
           style="fill:none;stroke:#d0021b;stroke-width:2;stroke-linecap:butt;stroke-linejoin:miter;stroke-miterlimit:10;stroke-dasharray:none;stroke-opacity:1"
           d="m 8,14 c 4.41828,0 8,-3.13401 8,-7 C 16,3.134007 12.41828,0 8,0 3.581722,0 0,3.134007 0,7 c 0,3.86599 3.581722,7 8,7 l 0,0 z" /></g></g><g
       id="g144"><g
         clip-path="url(#clipPath148)"
         id="g146"><g
           id="g152" /><g
           id="g166"><g
             id="g168"
             clip-path="url(#clipPath154)"><g
               id="g170" /><g
               id="g172"><g
                 id="g174"
                 clip-path="url(#clipPath158)"><g
                   id="g176"
                   clip-path="url(#clipPath162)"><path
                     id="path178"
                     style="fill:#d0021b;fill-opacity:1;fill-rule:evenodd;stroke:none"
                     d="m 758,106 36,0 0,-34 -36,0 0,34 z" /></g></g></g></g></g></g></g><g
       id="g180"><g
         transform="matrix(1,0,0,-1,768,96)"
         id="g182"><path
           id="path184"
           style="fill:none;stroke:#d0021b;stroke-width:2;stroke-linecap:butt;stroke-linejoin:miter;stroke-miterlimit:10;stroke-dasharray:none;stroke-opacity:1"
           d="m 8,14 c 4.41828,0 8,-3.13401 8,-7 C 16,3.134007 12.41828,0 8,0 3.581722,0 0,3.134007 0,7 c 0,3.86599 3.581722,7 8,7 l 0,0 z" /></g></g><g
       id="g186"><g
         clip-path="url(#clipPath190)"
         id="g188"><g
           id="g194" /><g
           id="g208"><g
             id="g210"
             clip-path="url(#clipPath196)"><g
               id="g212" /><g
               id="g214"><g
                 id="g216"
                 clip-path="url(#clipPath200)"><g
                   id="g218"
                   clip-path="url(#clipPath204)"><path
                     id="path220"
                     style="fill:#d0021b;fill-opacity:1;fill-rule:evenodd;stroke:none"
                     d="m 938,390 36,0 0,-34 -36,0 0,34 z" /></g></g></g></g></g></g></g><g
       id="g222"><g
         transform="matrix(1,0,0,-1,948,380)"
         id="g224"><path
           id="path226"
           style="fill:none;stroke:#d0021b;stroke-width:2;stroke-linecap:butt;stroke-linejoin:miter;stroke-miterlimit:10;stroke-dasharray:none;stroke-opacity:1"
           d="m 8,14 c 4.41828,0 8,-3.13401 8,-7 C 16,3.134007 12.41828,0 8,0 3.581722,0 0,3.134007 0,7 c 0,3.86599 3.581722,7 8,7 l 0,0 z" /></g></g><g
       id="g228"><g
         clip-path="url(#clipPath232)"
         id="g230"><g
           id="g236" /><g
           id="g250"><g
             id="g252"
             clip-path="url(#clipPath238)"><g
               id="g254" /><g
               id="g256"><g
                 id="g258"
                 clip-path="url(#clipPath242)"><g
                   id="g260"
                   clip-path="url(#clipPath246)"><path
                     id="path262"
                     style="fill:#d0021b;fill-opacity:1;fill-rule:evenodd;stroke:none"
                     d="m 963,424 36,0 0,-34 -36,0 0,34 z" /></g></g></g></g></g></g></g><g
       id="g264"><g
         transform="matrix(1,0,0,-1,973,414)"
         id="g266"><path
           id="path268"
           style="fill:none;stroke:#d0021b;stroke-width:2;stroke-linecap:butt;stroke-linejoin:miter;stroke-miterlimit:10;stroke-dasharray:none;stroke-opacity:1"
           d="m 8,14 c 4.41828,0 8,-3.13401 8,-7 C 16,3.134007 12.41828,0 8,0 3.581722,0 0,3.134007 0,7 c 0,3.86599 3.581722,7 8,7 l 0,0 z" /></g></g><g
       id="g270"><g
         clip-path="url(#clipPath274)"
         id="g272"><g
           id="g278" /><g
           id="g292"><g
             id="g294"
             clip-path="url(#clipPath280)"><g
               id="g296" /><g
               id="g298"><g
                 id="g300"
                 clip-path="url(#clipPath284)"><g
                   id="g302"
                   clip-path="url(#clipPath288)"><path
                     id="path304"
                     style="fill:#efa72d;fill-opacity:1;fill-rule:evenodd;stroke:none"
                     d="m 88.3139,84.90345 76.6861,0 0,-54.25612 -76.6861,0 0,54.25612 z" /></g></g></g></g></g></g></g><g
       id="g306"><g
         clip-path="url(#clipPath310)"
         id="g308"><g
           id="g314" /><g
           id="g328"><g
             id="g330"
             clip-path="url(#clipPath316)"><g
               id="g332" /><g
               id="g334"><g
                 id="g336"
                 clip-path="url(#clipPath320)"><g
                   id="g338"
                   clip-path="url(#clipPath324)"><path
                     id="path340"
                     style="fill:#f7c169;fill-opacity:1;fill-rule:evenodd;stroke:none"
                     d="m 88.313,108.0066 54.0557,0 0,-73.30849 -54.0557,0 0,73.30849 z" /></g></g></g></g></g></g></g><g
       id="g342"><g
         clip-path="url(#clipPath346)"
         id="g344"><g
           id="g350" /><g
           id="g364"><g
             id="g366"
             clip-path="url(#clipPath352)"><g
               id="g368" /><g
               id="g370"><g
                 id="g372"
                 clip-path="url(#clipPath356)"><g
                   id="g374"
                   clip-path="url(#clipPath360)"><path
                     id="path376"
                     style="fill:#0f5180;fill-opacity:1;fill-rule:evenodd;stroke:none"
                     d="m 35,88.33907 49.7712,0 0,-60.32403 -49.7712,0 0,60.32403 z" /></g></g></g></g></g></g></g><g
       id="g378"><g
         clip-path="url(#clipPath382)"
         id="g380"><g
           id="g386" /><g
           id="g400"><g
             id="g402"
             clip-path="url(#clipPath388)"><g
               id="g404" /><g
               id="g406"><g
                 id="g408"
                 clip-path="url(#clipPath392)"><g
                   id="g410"
                   clip-path="url(#clipPath396)"><path
                     id="path412"
                     style="fill:#efa72d;fill-opacity:1;fill-rule:evenodd;stroke:none"
                     d="m 35,54.25116 103.5865,0 0,-60.324029 -103.5865,0 0,60.324029 z" /></g></g></g></g></g></g></g><g
       id="g414"><g
         clip-path="url(#clipPath418)"
         id="g416"><g
           id="g422" /><g
           id="g436"><g
             id="g438"
             clip-path="url(#clipPath424)"><g
               id="g440" /><g
               id="g442"><g
                 id="g444"
                 clip-path="url(#clipPath428)"><g
                   id="g446"
                   clip-path="url(#clipPath432)"><path
                     id="path448"
                     style="fill:#efa72d;fill-opacity:1;fill-rule:evenodd;stroke:none"
                     d="m 57.95068,54.24928 52.25772,0 0,-60.185527 -52.25772,0 0,60.185527 z" /></g></g></g></g></g></g></g><g
       id="g450"><g
         clip-path="url(#clipPath454)"
         id="g452"><g
           id="g458" /><g
           id="g472"><g
             id="g474"
             clip-path="url(#clipPath460)"><g
               id="g476" /><g
               id="g478"><g
                 id="g480"
                 clip-path="url(#clipPath464)"><g
                   id="g482"
                   clip-path="url(#clipPath468)"><path
                     id="path484"
                     style="fill:#0f5180;fill-opacity:1;fill-rule:evenodd;stroke:none"
                     d="m 57.95068,88.33719 53.22152,0 0,-60.18552 -53.22152,0 0,60.18552 z" /></g></g></g></g></g></g></g><g
       id="g486"><g
         clip-path="url(#clipPath490)"
         id="g488"><g
           transform="matrix(1,0,0,-1,950,442.1484)"
           id="g494"><text
             id="text496"
             style="font-variant:normal;font-weight:normal;font-size:20px;font-family:TimesNewRomanPSMT;-inkscape-font-specification:TimesNewRomanPSMT;writing-mode:lr-tb;fill:#000000;fill-opacity:1;fill-rule:nonzero;stroke:none"
             transform="translate(0,18)"><tspan
               id="tspan498"
               y="0"
               x="0 13.886 22.761999 32.762001 42.195999 51.318001">Деркул</tspan></text>
</g></g></g><g
       id="g500"><g
         clip-path="url(#clipPath504)"
         id="g502"><g
           transform="matrix(1,0,0,-1,881,360.1484)"
           id="g508"><text
             id="text510"
             style="font-variant:normal;font-weight:normal;font-size:20px;font-family:TimesNewRomanPSMT;-inkscape-font-specification:TimesNewRomanPSMT;writing-mode:lr-tb;fill:#000000;fill-opacity:1;fill-rule:nonzero;stroke:none"
             transform="translate(0,18)"><tspan
               id="tspan512"
               y="0"
               x="0 12.998 21.874001 31.874001 41.18 51.18 61.883999 72.587997">Червоний</tspan></text>
<text
             id="text514"
             style="font-variant:normal;font-weight:normal;font-size:20px;font-family:TimesNewRomanPSMT;-inkscape-font-specification:TimesNewRomanPSMT;writing-mode:lr-tb;fill:#000000;fill-opacity:1;fill-rule:nonzero;stroke:none"
             transform="translate(88.292,18)"><tspan
               id="tspan516"
               y="0"
               x="0 13.34">Яр</tspan></text>
</g></g></g><g
       id="g518"><g
         clip-path="url(#clipPath522)"
         id="g520"><g
           transform="matrix(1,0,0,-1,293,435.1484)"
           id="g526"><text
             id="text528"
             style="font-variant:normal;font-weight:normal;font-size:20px;font-family:TimesNewRomanPSMT;-inkscape-font-specification:TimesNewRomanPSMT;writing-mode:lr-tb;fill:#000000;fill-opacity:1;fill-rule:nonzero;stroke:none"
             transform="translate(0,18)"><tspan
               id="tspan530"
               y="0"
               x="0 11.124 21.827999 31.332001 40.316002">Рихта</tspan></text>
</g></g></g><g
       id="g532"><g
         transform="matrix(1,0,0,-1,20,670)"
         id="g534"><path
           id="path536"
           style="fill:none;stroke:#0f5180;stroke-width:6;stroke-linecap:butt;stroke-linejoin:miter;stroke-miterlimit:10;stroke-dasharray:none;stroke-opacity:1"
           d="M 0.02992289,142.1717 C 29.28155,170.0369 100.0675,157.6615 127.3278,171.9112 c 8.4617,4.4232 26.1253,-4.8421 35.7128,-2.9419 9.3809,1.8593 18.9103,6.631 28.9898,7.6706 24.7419,2.5518 49.5067,0.0597 74.3628,1.6784 19.0046,1.2376 38.2674,2.6307 57.3479,2.6307 32.7419,0 66.4873,-6.1671 98.9397,0.2074 31.7205,6.2308 63.9783,22.0526 92.429,37.4101 7.1007,3.8329 12.5157,9.4661 19.4287,12.9226 15.7439,7.872 95.92,46.521 111.6502,30.7908 19.2487,-19.2486 22.5567,-68.5982 12.0787,-92.9947 -6.4663,-15.056 -31.2678,-55.0037 -21.4276,-69.98767 1.9642,-2.99108 8.6102,-6.14836 11.5553,-8.50978 28.6744,-22.99116 79.2597,-18.7407 114.38,-38.77726 6.6739,-3.80757 17.2898,-1.75057 23.5257,-7.98647 7.9183,-7.91835 10.9806,-16.96691 15.3364,-27.10872 2.5854,-6.01959 8.2981,-10.065323 8.7172,-16.92056089" /></g></g><g
       id="g538"><g
         clip-path="url(#clipPath542)"
         id="g540"><g
           transform="matrix(0.9975641,-0.06975647,-0.06975647,-0.9975641,270.1225,531.145)"
           id="g546"><text
             id="text548"
             style="font-style:italic;font-variant:normal;font-size:20px;font-family:TimesNewRomanPS;-inkscape-font-specification:TimesNewRomanPS-ItalicMT;writing-mode:lr-tb;fill:#000000;fill-opacity:0.49620002;fill-rule:nonzero;stroke:none"
             transform="translate(0,18)"><tspan
               id="tspan550"
               y="0"
               x="0">м</tspan></text>
<text
             id="text552"
             style="font-style:italic;font-variant:normal;font-size:20px;font-family:TimesNewRomanPS;-inkscape-font-specification:TimesNewRomanPS-ItalicMT;writing-mode:lr-tb;fill:#000000;fill-opacity:0.49620002;fill-rule:nonzero;stroke:none"
             transform="translate(17.763672,18)"><tspan
               id="tspan554"
               y="0"
               x="0">е</tspan></text>
<text
             id="text556"
             style="font-style:italic;font-variant:normal;font-size:20px;font-family:TimesNewRomanPS;-inkscape-font-specification:TimesNewRomanPS-ItalicMT;writing-mode:lr-tb;fill:#000000;fill-opacity:0.49620002;fill-rule:nonzero;stroke:none"
             transform="translate(31.64062,18)"><tspan
               id="tspan558"
               y="0"
               x="0">ж</tspan></text>
<text
             id="text560"
             style="font-style:italic;font-variant:normal;font-size:20px;font-family:TimesNewRomanPS;-inkscape-font-specification:TimesNewRomanPS-ItalicMT;writing-mode:lr-tb;fill:#000000;fill-opacity:0.49620002;fill-rule:nonzero;stroke:none"
             transform="translate(55.24414,18)"><tspan
               id="tspan562"
               y="0"
               x="0">а</tspan></text>
<text
             id="text564"
             style="font-style:italic;font-variant:normal;font-size:20px;font-family:TimesNewRomanPS;-inkscape-font-specification:TimesNewRomanPS-ItalicMT;writing-mode:lr-tb;fill:#000000;fill-opacity:0.49620002;fill-rule:nonzero;stroke:none"
             transform="translate(80.24414,18.000002)"><tspan
               id="tspan566"
               y="0"
               x="0">з</tspan></text>
<text
             id="text568"
             style="font-style:italic;font-variant:normal;font-size:20px;font-family:TimesNewRomanPS;-inkscape-font-specification:TimesNewRomanPS-ItalicMT;writing-mode:lr-tb;fill:#000000;fill-opacity:0.49620002;fill-rule:nonzero;stroke:none"
             transform="translate(93.04688,18)"><tspan
               id="tspan570"
               y="0"
               x="0">л</tspan></text>
<text
             id="text572"
             style="font-style:italic;font-variant:normal;font-size:20px;font-family:TimesNewRomanPS;-inkscape-font-specification:TimesNewRomanPS-ItalicMT;writing-mode:lr-tb;fill:#000000;fill-opacity:0.49620002;fill-rule:nonzero;stroke:none"
             transform="translate(106.76688,18)"><tspan
               id="tspan574"
               y="0"
               x="0">е</tspan></text>
<text
             id="text576"
             style="font-style:italic;font-variant:normal;font-size:20px;font-family:TimesNewRomanPS;-inkscape-font-specification:TimesNewRomanPS-ItalicMT;writing-mode:lr-tb;fill:#000000;fill-opacity:0.49620002;fill-rule:nonzero;stroke:none"
             transform="translate(120.6445,18)"><tspan
               id="tspan578"
               y="0"
               x="0">д</tspan></text>
<text
             id="text580"
             style="font-style:italic;font-variant:normal;font-size:20px;font-family:TimesNewRomanPS;-inkscape-font-specification:TimesNewRomanPS-ItalicMT;writing-mode:lr-tb;fill:#000000;fill-opacity:0.49620002;fill-rule:nonzero;stroke:none"
             transform="translate(135.7617,18)"><tspan
               id="tspan582"
               y="0"
               x="0">е</tspan></text>
<text
             id="text584"
             style="font-style:italic;font-variant:normal;font-size:20px;font-family:TimesNewRomanPS;-inkscape-font-specification:TimesNewRomanPS-ItalicMT;writing-mode:lr-tb;fill:#000000;fill-opacity:0.49620002;fill-rule:nonzero;stroke:none"
             transform="translate(149.6387,18)"><tspan
               id="tspan586"
               y="0"
               x="0">н</tspan></text>
<text
             id="text588"
             style="font-style:italic;font-variant:normal;font-size:20px;font-family:TimesNewRomanPS;-inkscape-font-specification:TimesNewRomanPS-ItalicMT;writing-mode:lr-tb;fill:#000000;fill-opacity:0.49620002;fill-rule:nonzero;stroke:none"
             transform="translate(164.5605,18)"><tspan
               id="tspan590"
               y="0"
               x="0">і</tspan></text>
<text
             id="text592"
             style="font-style:italic;font-variant:normal;font-size:20px;font-family:TimesNewRomanPS;-inkscape-font-specification:TimesNewRomanPS-ItalicMT;writing-mode:lr-tb;fill:#000000;fill-opacity:0.49620002;fill-rule:nonzero;stroke:none"
             transform="translate(175.1172,18)"><tspan
               id="tspan594"
               y="0"
               x="0">н</tspan></text>
<text
             id="text596"
             style="font-style:italic;font-variant:normal;font-size:20px;font-family:TimesNewRomanPS;-inkscape-font-specification:TimesNewRomanPS-ItalicMT;writing-mode:lr-tb;fill:#000000;fill-opacity:0.49620002;fill-rule:nonzero;stroke:none"
             transform="translate(190.0391,18)"><tspan
               id="tspan598"
               y="0"
               x="0">н</tspan></text>
<text
             id="text600"
             style="font-style:italic;font-variant:normal;font-size:20px;font-family:TimesNewRomanPS;-inkscape-font-specification:TimesNewRomanPS-ItalicMT;writing-mode:lr-tb;fill:#000000;fill-opacity:0.49620002;fill-rule:nonzero;stroke:none"
             transform="translate(204.9609,18)"><tspan
               id="tspan602"
               y="0"
               x="0">я</tspan></text>
</g><g
           transform="matrix(0.9975641,-0.06975647,-0.06975647,-0.9975641,270.1225,531.145)"
           id="g604" /></g></g></g></svg>