<?xml version="1.0" encoding="UTF-8" standalone="no"?>
<svg
   xmlns:dc="http://purl.org/dc/elements/1.1/"
   xmlns:cc="http://creativecommons.org/ns#"
   xmlns:rdf="http://www.w3.org/1999/02/22-rdf-syntax-ns#"
   xmlns:svg="http://www.w3.org/2000/svg"
   xmlns="http://www.w3.org/2000/svg"
   viewBox="0 0 806.66669 681.33331"
   height="681.33331"
   width="806.66669"
   xml:space="preserve"
   version="1.1"
   id="svg2"><metadata
     id="metadata8"><rdf:RDF><cc:Work
         rdf:about=""><dc:format>image/svg+xml</dc:format><dc:type
           rdf:resource="http://purl.org/dc/dcmitype/StillImage" /></cc:Work></rdf:RDF></metadata><defs
     id="defs6"><clipPath
       id="clipPath40"
       clipPathUnits="userSpaceOnUse"><path
         style="clip-rule:evenodd"
         id="path42"
         d="M 86.36979,65.90345 62.31389,45.65088 84.94407,41.64733 109,61.89989 l -22.63021,4.00356 0,0 z" /></clipPath><clipPath
       id="clipPath46"
       clipPathUnits="userSpaceOnUse"><path
         id="path48"
         d="m 62,41 47,0 0,25 -47,0 0,-25 z" /></clipPath><clipPath
       id="clipPath50"
       clipPathUnits="userSpaceOnUse"><path
         style="clip-rule:evenodd"
         id="path52"
         d="m 57.31389,70.90345 56.68611,0 0,-34.25612 -56.68611,0 0,34.25612 z" /></clipPath><clipPath
       id="clipPath54"
       clipPathUnits="userSpaceOnUse"><path
         id="path56"
         d="m 62,41 47,0 0,25 -47,0 0,-25 z" /></clipPath><clipPath
       id="clipPath76"
       clipPathUnits="userSpaceOnUse"><path
         style="clip-rule:evenodd"
         id="path78"
         d="m 62.31298,45.69811 24.05574,20.25257 0,23.05588 -24.05574,-20.25257 0,-23.05588 0,0 z" /></clipPath><clipPath
       id="clipPath82"
       clipPathUnits="userSpaceOnUse"><path
         id="path84"
         d="m 62,45 25,0 0,45 -25,0 0,-45 z" /></clipPath><clipPath
       id="clipPath86"
       clipPathUnits="userSpaceOnUse"><path
         style="clip-rule:evenodd"
         id="path88"
         d="m 57.31298,94.0066 34.05574,0 0,-53.30849 -34.05574,0 0,53.30849 z" /></clipPath><clipPath
       id="clipPath90"
       clipPathUnits="userSpaceOnUse"><path
         id="path92"
         d="m 62,45 25,0 0,45 -25,0 0,-45 z" /></clipPath><clipPath
       id="clipPath112"
       clipPathUnits="userSpaceOnUse"><path
         style="clip-rule:evenodd"
         id="path114"
         d="m 9,45.08567 c 0,-5.56702 4.26273,-6.17734 6.94585,-6.05767 0,0 10.49698,0.38345 12.82531,0.701 l 0,4.73186 -11.46896,0 c -1.19188,0 -2.52975,-0.04113 -2.54823,2.14445 l 0,4.70927 12.14714,0.38969 0,4.74635 -12.14714,0.43503 0,4.70927 c 0,1.11344 0,2.3093 2.13716,2.3093 l 11.88003,0 0,4.77315 c -2.64482,0.36289 -13.23621,0.6597 -13.23621,0.6597 C 12.69761,69.39286 9,68.30723 9,63.06905 l 0,-17.98338 0,0 z" /></clipPath><clipPath
       id="clipPath118"
       clipPathUnits="userSpaceOnUse"><path
         id="path120"
         d="M 9,38 29,38 29,70 9,70 9,38 Z" /></clipPath><clipPath
       id="clipPath122"
       clipPathUnits="userSpaceOnUse"><path
         style="clip-rule:evenodd"
         id="path124"
         d="m 4,74.33907 29.77116,0 0,-40.32403 -29.77116,0 0,40.32403 z" /></clipPath><clipPath
       id="clipPath126"
       clipPathUnits="userSpaceOnUse"><path
         id="path128"
         d="M 9,38 29,38 29,70 9,70 9,38 Z" /></clipPath><clipPath
       id="clipPath148"
       clipPathUnits="userSpaceOnUse"><path
         style="clip-rule:evenodd"
         id="path150"
         d="m 9,10.99776 c 0,-5.56702 4.26273,-6.17734 6.94585,-6.05767 0,0 10.49698,0.38345 12.82531,0.701 l 0,4.73185 -11.46896,0 c -1.19188,0 -2.52975,-0.04112 -2.54823,2.14446 l 0,4.70927 12.14714,0.38969 0,4.74635 -12.14714,0.43502 0,4.70928 c 0,1.11343 0,2.30929 2.13716,2.30929 l 11.88003,0 0,4.77315 C 26.12634,34.95234 15.53495,35.24916 15.53495,35.24916 12.69761,35.30495 9,34.21932 9,28.98114 l 0,-17.98338 0,0 z m 47.11831,-5.93396 6.18134,0 2.17008,6.68855 9.85375,0 2.13716,-6.68855 6.1259,0 -9.77144,30.18536 -6.54519,0 -10.1516,-30.18536 0,0 z m 9.84552,11.80403 3.61664,10.77317 3.38062,-10.77317 -6.99726,0 0,0 z" /></clipPath><clipPath
       id="clipPath154"
       clipPathUnits="userSpaceOnUse"><path
         id="path156"
         d="M 9,4 83,4 83,36 9,36 9,4 Z" /></clipPath><clipPath
       id="clipPath158"
       clipPathUnits="userSpaceOnUse"><path
         style="clip-rule:evenodd"
         id="path160"
         d="m 4,40.25116 83.58654,0 0,-40.324029 -83.58654,0 0,40.324029 z" /></clipPath><clipPath
       id="clipPath162"
       clipPathUnits="userSpaceOnUse"><path
         id="path164"
         d="M 9,4 83,4 83,36 9,36 9,4 Z" /></clipPath><clipPath
       id="clipPath184"
       clipPathUnits="userSpaceOnUse"><path
         style="clip-rule:evenodd"
         id="path186"
         d="m 31.95068,5.06375 5.75397,0 0,11.99988 5.0553,-0.57728 4.97316,-11.4226 6.47531,0 -5.69651,11.88662 c 1.67065,0.52772 4.79021,1.41429 4.79021,8.88643 0,7.20835 -3.4935,9.41248 -8.18914,9.41248 l -13.1623,0 0,-30.18553 0,0 z m 5.77665,16.53605 0,8.51546 6.82053,0 c 1.80841,0 2.95914,-0.84949 2.95914,-4.27846 0,-3.64741 -0.95553,-4.237 -2.95914,-4.237 l -6.82053,0 0,0 z" /></clipPath><clipPath
       id="clipPath190"
       clipPathUnits="userSpaceOnUse"><path
         id="path192"
         d="M 31,5 55,5 55,36 31,36 31,5 Z" /></clipPath><clipPath
       id="clipPath194"
       clipPathUnits="userSpaceOnUse"><path
         style="clip-rule:evenodd"
         id="path196"
         d="m 26.95068,40.24928 32.25774,0 0,-40.185527 -32.25774,0 0,40.185527 z" /></clipPath><clipPath
       id="clipPath198"
       clipPathUnits="userSpaceOnUse"><path
         id="path200"
         d="M 31,5 55,5 55,36 31,36 31,5 Z" /></clipPath><clipPath
       id="clipPath220"
       clipPathUnits="userSpaceOnUse"><path
         style="clip-rule:evenodd"
         id="path222"
         d="m 31.95068,39.15167 12.78416,0 c 7.34449,0 10.43734,6.08244 10.43734,14.96904 0,7.47837 -1.77766,15.21648 -10.43734,15.21648 l -12.78416,0 0,-30.18552 0,0 z m 5.75397,5.14851 0,19.94412 6.57813,0 c 3.20775,0 5.13543,-2.00608 5.13543,-10.08246 0,-6.05565 -1.40574,-9.86166 -5.13543,-9.86166 l -6.57813,0 0,0 z" /></clipPath><clipPath
       id="clipPath226"
       clipPathUnits="userSpaceOnUse"><path
         id="path228"
         d="m 31,39 25,0 0,31 -25,0 0,-31 z" /></clipPath><clipPath
       id="clipPath230"
       clipPathUnits="userSpaceOnUse"><path
         style="clip-rule:evenodd"
         id="path232"
         d="m 26.95068,74.33719 33.2215,0 0,-40.18552 -33.2215,0 0,40.18552 z" /></clipPath><clipPath
       id="clipPath234"
       clipPathUnits="userSpaceOnUse"><path
         id="path236"
         d="m 31,39 25,0 0,31 -25,0 0,-31 z" /></clipPath><clipPath
       id="clipPath286"
       clipPathUnits="userSpaceOnUse"><path
         id="path288"
         d="m 292,311 310,0 0,169 -310,0 0,-169 z" /></clipPath><clipPath
       id="clipPath324"
       clipPathUnits="userSpaceOnUse"><path
         id="path326"
         d="m 425.6122,309.3897 68,-117.7794 -85.7366,-49.5 -68,117.7794 85.7366,49.5 z" /></clipPath><clipPath
       id="clipPath338"
       clipPathUnits="userSpaceOnUse"><path
         id="path340"
         d="m 168,117 165,0 0,129 -165,0 0,-129 z" /></clipPath><clipPath
       id="clipPath352"
       clipPathUnits="userSpaceOnUse"><path
         id="path354"
         d="m 220,101 358,0 0,312 -358,0 0,-312 z" /></clipPath><clipPath
       id="clipPath356"
       clipPathUnits="userSpaceOnUse"><path
         style="clip-rule:evenodd"
         id="path358"
         d="m 433.6964,114.2003 c -6.6559,-7.1902 -20.1122,-13.0584 -30.5719,-9.8594 -4.6818,1.4318 -7.4447,4.0913 -12.7336,4.3912 -29.741,1.6863 -31.7242,-0.8254 -62.8011,6.045 -22.2077,4.9097 -46.3249,-1.2419 -66.8288,11.8034 -10.9615,6.9741 -14.5222,14.8676 -21.2193,24.9003 -4.0605,6.0829 -10.5603,9.2753 -13.7406,16.408 -5.2507,11.7761 2.8289,48.2286 3.311,61.464 0.8625,23.681 -1.6575,45.1298 4.9614,68.3726 1.4004,4.9177 10.6075,5.8867 13.0203,11.9467 1.9166,4.8139 0.846,11.2421 2.8075,16.408 3.2283,8.5025 15.653,30.2528 24.2401,34.5464 3.5406,1.7702 8.3379,-0.5468 12.0134,0.7902 17.1607,6.2424 29.9409,15.5471 48.7738,17.8484 12.1011,1.4786 21.0049,-4.6677 32.6592,-5.4683 18.394,-1.2634 33.6211,7.4752 51.2911,10.0029 7.5479,1.0797 16.3075,-1.0058 23.6667,0.7902 25.6382,6.2571 66.4435,28.0095 94.1632,22.6731 11.5581,-2.2251 18.4856,-22.3692 21.2927,-32.1725 1.5749,-5.5002 7.5875,-8.9247 10.0728,-14.1773 3.0548,-6.456 4.2226,-16.2317 5.8984,-23.2465 3.0733,-12.8651 -13.7457,-49.3962 -21.5094,-61.6074 -8.5796,-13.4943 -23.674,-18.4896 -30.9321,-33.6795 -3.2816,-6.8678 -3.0324,-14.6103 -6.2584,-21.376 -3.7691,-7.9046 -12.6919,-11.7485 -16.1846,-19.8623 -2.3514,-5.4626 -15.4989,-32.7846 -19.4955,-34.4731" /></clipPath><clipPath
       id="clipPath360"
       clipPathUnits="userSpaceOnUse"><path
         id="path362"
         d="M 0,0 605,0 605,511 0,511 0,0 Z" /></clipPath><clipPath
       id="clipPath382"
       clipPathUnits="userSpaceOnUse"><path
         style="clip-rule:evenodd"
         id="path384"
         d="m 456.5,364 c 1.933,0 3.5,1.567 3.5,3.5 0,1.933 -1.567,3.5 -3.5,3.5 -1.933,0 -3.5,-1.567 -3.5,-3.5 0,-1.933 1.567,-3.5 3.5,-3.5 z" /></clipPath><clipPath
       id="clipPath398"
       clipPathUnits="userSpaceOnUse"><path
         id="path400"
         d="m 396,374 130,0 0,100 -130,0 0,-100 z" /></clipPath></defs><g
     transform="matrix(1.3333333,0,0,-1.3333333,0,681.33333)"
     id="g10"><g
       id="g12" /><g
       id="g14"><g
         transform="matrix(1,0,0,-1,155,505)"
         id="g16"><path
           id="path18"
           style="fill:none;stroke:#efa72d;stroke-width:3;stroke-linecap:butt;stroke-linejoin:miter;stroke-miterlimit:10;stroke-dasharray:none;stroke-opacity:1"
           d="m 430.464,60.88362 c -3.7923,-5.35172 -14.7544,0.26861 -18.6895,-3.66651 -1.2173,-1.21731 5.7048,-6.80079 4.4116,-10.6218 -0.6201,-1.83201 -4.4894,-2.83131 -5.6107,-4.48784 -1.7232,-2.54558 1.883,-4.97616 0.9738,-7.70384 C 408.9489,26.60268 402.1118,21.86069 398.9139,14.43187 397.66,11.51892 396.8927,1.329828 393.0052,0.6668518 385.0627,-0.6876827 355.5943,4.129374 349.118,8.446931 c -3.3301,2.220039 -3.4791,6.140929 -7.8494,7.703839 -6.6432,2.37571 -12.2648,0.46061 -18.693,4.7131 -3.1399,2.07715 -5.6389,8.33247 -7.7766,9.42619 -9.0363,4.62322 -16.2398,10.62999 -25.5686,15.18589 -4.2637,2.0823 -2.5696,14.45181 -14.2086,17.57708 -17.5596,4.71507 -15.9169,-6.65005 -17.7919,-6.95528 -8.1661,-1.32937 -22.7931,7.34249 -30.5069,3.44125 -1.8685,-0.94494 -3.085,-3.3998 -5.0077,-4.33882 -4.9294,-2.40738 1.4207,10.86892 -17.2721,-1.4971 -3.2962,-2.18051 -37.6387,11.8833 -44.5631,10.47278 -4.4845,-0.91351 -5.7746,-15.63098 -11.5124,-17.65333 -8.7866,-3.09692 -17.268,4.37349 -26.1681,2.76548 -5.5156,-0.99652 -10.9354,-5.84748 -17.4974,-4.93489 -2.1668,0.30135 -4.3508,3.43658 -6.95181,3.81553 -7.4072,1.0792 -14.80813,0.19125 -22.35603,1.42086 -1.35556,0.22083 -5.87107,0.16066 -6.87905,1.12283 -1.46239,1.39592 0.49612,4.19854 -0.29803,6.05772 -1.98249,4.64116 -6.6069,4.49638 -7.77662,10.02226 -0.55696,2.63118 8.02036,11.09208 2.84173,29.39796 -0.34492,1.21923 -5.12249,2.13521 -6.35576,3.36848 -3.25613,3.25614 -5.00415,7.84794 -6.73003,12.04264 -2.07167,5.0352 3.35901,10.8584 -0.22525,13.9868 -4.46499,3.8972 -13.37878,-0.4615 -16.74537,6.432 -0.02553,0.0523 4.94291,5.523 3.43779,8.6049 -0.49244,1.0083 -8.79958,-1.0114 -12.33723,8.9757 -2.81849,7.9568 4.83677,12.3221 0.3015,21.3926 -2.53531,5.0706 -13.15853,-4.1851 -15.327965,7.3296 -0.938959,4.9837 4.324225,8.642 2.841725,14.4373 -1.40011,5.4731 -7.900364,8.721 -7.551359,15.1859 0.342267,6.3401 6.975999,2.6015 6.428529,6.3592 -0.85556,5.8722 -14.798086,11.3027 -10.0950423,20.495 0.7738353,1.5125 21.3022523,10.0079 24.0021523,15.4077" /></g><g
         transform="matrix(1,0,0,-1,83,254)"
         id="g20"><path
           id="path22"
           style="fill:none;stroke:#efa72d;stroke-width:3;stroke-linecap:butt;stroke-linejoin:miter;stroke-miterlimit:10;stroke-dasharray:none;stroke-opacity:1"
           d="M 93.78632,0.2581627 C 89.37629,7.727191 79.96335,9.845408 74.123,15.96387 71.70643,18.49552 72.7161,24.07163 69.48614,26.58567 66.00071,29.29855 60.881,29.50023 58.79503,33.31917 50.46035,48.57804 63.55329,52.75239 37.18755,67.43022 26.76499,73.23247 4.284817,62.56839 -0.04939867,79.02236 -2.654214,88.91101 9.034599,106.4062 15.05678,113.882 c 1.88821,2.344 5.94193,2.7991 7.32609,5.6106 0.90105,1.8303 0.14584,4.221 0.97035,5.8325 1.03081,2.0148 5.40129,1.8323 6.50477,3.2922 4.37861,5.7933 -8.76412,11.8586 -6.80281,17.6534 2.45538,7.2545 18.40311,2.2654 21.16043,7.78 1.77441,3.5489 -3.70023,7.5724 -2.39467,11.5194 0.81599,2.467 5.8971,4.6812 7.47858,6.8063 1.74633,2.3466 1.02743,6.4891 2.99074,8.4524 5.12675,5.1267 16.80424,0.4493 21.75649,8.6776 1.85618,3.0841 -0.68384,7.9105 -0.14901,11.2213 0.45112,2.7927 4.63072,5.8194 6.42853,7.6311 2.58755,2.6076 -0.39474,8.6113 2.31842,11.3669 0.44784,0.4548 18.84371,11.8061 20.33561,12.5694 4.994,2.5551 12.9111,-1.9718 17.9445,-1.2718 3.4365,0.4779 6.4648,2.8568 10.1712,3.0669 4.9596,0.2813 11.24,-2.3833 15.9241,-0.9738 2.51,0.7554 5.0742,4.1898 7.4751,4.1898 5.0326,0 6.6899,-6.4148 12.3372,-5.0111 4.0702,1.0117 6.3531,3.6212 11.2907,3.9646 2.8981,0.2015 12.0522,1.0792 14.2051,-0.9738 2.9811,-2.8429 8.2233,-6.8392 11.8902,-8.8267 4.1106,-2.228 17.3001,-3.7677 22.356,-5.4617 7.2638,-2.4337 5.8653,-7.1805 15.3245,-7.1805 8.3902,0 11.3126,6.6803 18.991,9.4262 5.0314,1.7993 10.6811,-0.8348 15.7023,0.0762 0.5443,0.0988 18.4989,9.2138 19.8886,10.3203 3.0746,2.4484 4.4281,10.5934 9.7207,8.6049 11.2282,-4.2187 -1.1662,-22.5718 1.5699,-30.2227 0.7712,-2.1565 3.4641,-3.4768 4.1863,-5.6107 1.7446,-5.1544 -1.2166,-11.2025 0.8214,-16.6795 1.5711,-4.2224 5.2415,0.44 6.581,-3.5175 1.0599,-3.1316 0.7436,-11.6917 3.2125,-13.5363 3.2062,-2.3955 10.98,2.0233 16.8251,0.596 7.2701,-1.7752 11.8343,-25.8996 10.4658,-31.5639" /></g><g
         transform="matrix(1,0,0,-1,182,266)"
         id="g24"><path
           id="path26"
           style="fill:none;stroke:#efa72d;stroke-width:3;stroke-linecap:butt;stroke-linejoin:miter;stroke-miterlimit:10;stroke-dasharray:none;stroke-opacity:1"
           d="m 250.7145,150.5668 c -6.5635,9.0233 -18.7613,1.9148 -24.8962,3.5903 -11.6267,3.1753 -3.6281,8.381 -23.0284,5.1601 -1.8361,-0.3048 -6.1382,0.213 -7.7038,-0.9703 -7.7098,-5.8272 -1.2324,-28.6849 -2.166,-37.8503 -0.2784,-2.7342 -3.9274,-4.9009 -4.2625,-7.8564 -1.1134,-9.8176 5.1781,-20.8129 1.7951,-31.04057 -1.3714,-4.14615 -6.3148,-16.48558 -8.6742,-19.44846 -3.2267,-4.05221 -9.29,-1.2687 -12.1847,-4.86212 C 162.1173,48.00789 158.7865,36.14361 151.7984,27.3678 149.4002,24.35611 142.1934,0.07915834 141.7033,-0.00975657 130.1018,-2.114666 127.8837,9.292082 118.2279,12.93047 c -3.8531,1.4519 -8.0007,0.46264 -11.9629,1.94416 -5.7197,2.13865 -9.71493,7.24394 -15.70227,8.00533 C 78.23209,24.44802 86.21231,20.28518 68.65722,24.52262 64.48096,25.53068 55.84872,14.61077 51.90839,13.60278 45.41079,11.94061 10.55927,13.1147 7.196327,10.61204 5.746746,9.533286 5.987902,6.68753 4.877898,5.524669 1.198783,1.670358 -1.241153,12.79906 0.393523,2.007173" /></g><g
         transform="matrix(1,0,0,-1,326,267)"
         id="g28"><path
           id="path30"
           style="fill:none;stroke:#efa72d;stroke-width:3;stroke-linecap:butt;stroke-linejoin:miter;stroke-miterlimit:10;stroke-dasharray:none;stroke-opacity:1"
           d="M 0.02174701,0.9140021 C 7.035243,9.0756 16.07734,-1.510369 23.12633,0.2416924 c 3.67955,0.9145716 3.25625,7.1007646 6.8028,5.8324596 3.26361,-1.167118 5.68322,-4.8736 9.79354,-3.514031 3.73659,1.235947 4.49484,6.883865 8.89944,7.478579 6.31957,0.85328 11.41371,-2.700481 18.16623,0.67578 0.11289,0.05644 7.91228,10.98623 7.92563,11.06885 0.44449,2.7516 -2.70629,6.70286 -1.49364,9.12816 1.58337,3.16673 12.97468,4.02678 16.29831,7.40234 1.62143,1.64675 0.55544,6.122 1.64612,8.30337 2.41243,4.82485 8.08368,9.81022 10.01884,14.96062 0.9352,2.48907 -0.374,5.39166 0.447,7.78008 3.0159,8.77349 5.9361,5.57473 8.2237,8.60141 0.7518,0.99473 2.9411,14.64532 2.6164,15.78541 -4.5247,15.88908 -14.79914,-6.32973 -30.05636,3.81553 -1.84979,1.23002 -0.79166,3.93485 -2.01693,5.16015 -1.26135,1.2614 -4.43835,-0.7183 -6.65379,1.4971 -3.11455,3.1146 2.32573,12.9295 -0.15248,15.4077 -0.86,0.86 -6.27951,3.2401 -6.27951,3.5903 0,2.2274 1.77463,9.3739 -0.07278,11.2213 -6.00837,6.0084 -13.0455,10.7881 -14.95369,20.048" /></g><g
         transform="matrix(1,0,0,-1,434,192)"
         id="g32"><path
           id="path34"
           style="fill:none;stroke:#efa72d;stroke-width:3;stroke-linecap:butt;stroke-linejoin:miter;stroke-miterlimit:10;stroke-dasharray:none;stroke-opacity:1"
           d="M -0.08987394,76.34156 C 12.36543,72.18956 5.130849,59.60852 11.05175,52.4815 c 1.96454,-2.36472 7.24806,-1.61066 9.86979,-2.47091 2.87251,-0.94255 8.76544,-6.67587 11.51243,-8.97568 2.02963,-1.69922 1.80491,-4.79397 3.44126,-6.50824 2.44425,-2.56064 8.19438,-2.65944 10.46585,-5.9087 1.49947,-2.14493 0.73148,-4.80355 1.79514,-6.88251 C 49.85063,18.38457 63.92783,9.085887 67.27625,7.450613 69.2738,6.475068 75.03122,7.891243 78.49065,6.702062 81.36007,5.7157 82.8867,1.913104 85.44594,0.6408786 c 1.25133,-0.62204636 2.4023,-1.1688065 2.99074,0.8975684 0.32202,1.130816 -2.22236,3.368479 -1.04659,3.368479 4.61623,0 8.29991,-1.738436 8.29991,3.215997 0,9.130537 -15.80037,3.044127 -17.27212,6.057717 -1.90244,3.89547 7.34727,4.15921 4.78587,7.03153 -1.00642,1.12859 -6.05772,3.07472 -6.05772,4.86212 0,4.56764 12.34147,4.33882 15.40075,4.33882 4.96938,0 4.67117,4.33195 11.89022,3.5175 4.2784,-0.4827 17.719,-6.73358 22.356,-2.09664 1.5398,1.53977 0.5506,3.16929 3.2888,3.5175 4.7247,0.60083 13.7335,-4.92624 17.2721,-3.14323 0.6,0.30234 4.0609,5.17032 4.1863,5.61067 1.3079,4.59269 -4.0864,3.26511 -5.9087,5.08738 -5.3674,5.36744 10.6952,7.16668 -16.9706,16.5305 -3.7562,1.27134 -17.9678,-0.05439 -18.7658,5.68344 -0.3102,2.23094 0.6751,5.00413 2.5403,6.28644 2.4689,1.69738 9.5976,0.9951 13.0095,1.86791 2.3215,0.59388 0.3255,4.50783 2.9907,4.93836 2.5532,0.41244 17.4687,9.57116 18.2425,11.96642 1.6367,5.06608 8.361,7.9476 7.9256,11.96984 -0.7557,6.9813 -25.1134,22.6645 5.1602,22.6645" /></g></g><g
       id="g36"><g
         clip-path="url(#clipPath40)"
         id="g38"><g
           id="g44" /><g
           id="g58"><g
             id="g60"
             clip-path="url(#clipPath46)"><g
               id="g62" /><g
               id="g64"><g
                 id="g66"
                 clip-path="url(#clipPath50)"><g
                   id="g68"
                   clip-path="url(#clipPath54)"><path
                     id="path70"
                     style="fill:#efa72d;fill-opacity:1;fill-rule:evenodd;stroke:none"
                     d="m 52.31389,75.90345 66.68611,0 0,-44.25612 -66.68611,0 0,44.25612 z" /></g></g></g></g></g></g></g><g
       id="g72"><g
         clip-path="url(#clipPath76)"
         id="g74"><g
           id="g80" /><g
           id="g94"><g
             id="g96"
             clip-path="url(#clipPath82)"><g
               id="g98" /><g
               id="g100"><g
                 id="g102"
                 clip-path="url(#clipPath86)"><g
                   id="g104"
                   clip-path="url(#clipPath90)"><path
                     id="path106"
                     style="fill:#f7c169;fill-opacity:1;fill-rule:evenodd;stroke:none"
                     d="m 52.31298,99.0066 44.05574,0 0,-63.30849 -44.05574,0 0,63.30849 z" /></g></g></g></g></g></g></g><g
       id="g108"><g
         clip-path="url(#clipPath112)"
         id="g110"><g
           id="g116" /><g
           id="g130"><g
             id="g132"
             clip-path="url(#clipPath118)"><g
               id="g134" /><g
               id="g136"><g
                 id="g138"
                 clip-path="url(#clipPath122)"><g
                   id="g140"
                   clip-path="url(#clipPath126)"><path
                     id="path142"
                     style="fill:#0f5180;fill-opacity:1;fill-rule:evenodd;stroke:none"
                     d="m -1,79.33907 39.77116,0 0,-50.32403 -39.77116,0 0,50.32403 z" /></g></g></g></g></g></g></g><g
       id="g144"><g
         clip-path="url(#clipPath148)"
         id="g146"><g
           id="g152" /><g
           id="g166"><g
             id="g168"
             clip-path="url(#clipPath154)"><g
               id="g170" /><g
               id="g172"><g
                 id="g174"
                 clip-path="url(#clipPath158)"><g
                   id="g176"
                   clip-path="url(#clipPath162)"><path
                     id="path178"
                     style="fill:#efa72d;fill-opacity:1;fill-rule:evenodd;stroke:none"
                     d="m -1,45.25116 93.58654,0 0,-50.324029 -93.58654,0 0,50.324029 z" /></g></g></g></g></g></g></g><g
       id="g180"><g
         clip-path="url(#clipPath184)"
         id="g182"><g
           id="g188" /><g
           id="g202"><g
             id="g204"
             clip-path="url(#clipPath190)"><g
               id="g206" /><g
               id="g208"><g
                 id="g210"
                 clip-path="url(#clipPath194)"><g
                   id="g212"
                   clip-path="url(#clipPath198)"><path
                     id="path214"
                     style="fill:#efa72d;fill-opacity:1;fill-rule:evenodd;stroke:none"
                     d="m 21.95068,45.24928 42.25774,0 0,-50.185527 -42.25774,0 0,50.185527 z" /></g></g></g></g></g></g></g><g
       id="g216"><g
         clip-path="url(#clipPath220)"
         id="g218"><g
           id="g224" /><g
           id="g238"><g
             id="g240"
             clip-path="url(#clipPath226)"><g
               id="g242" /><g
               id="g244"><g
                 id="g246"
                 clip-path="url(#clipPath230)"><g
                   id="g248"
                   clip-path="url(#clipPath234)"><path
                     id="path250"
                     style="fill:#0f5180;fill-opacity:1;fill-rule:evenodd;stroke:none"
                     d="m 21.95068,79.33719 43.2215,0 0,-50.18552 -43.2215,0 0,50.18552 z" /></g></g></g></g></g></g></g><g
       id="g252"><g
         transform="matrix(1,0,0,-1,177,256)"
         id="g254"><path
           id="path256"
           style="fill:none;stroke:#efa72d;stroke-width:3;stroke-linecap:square;stroke-linejoin:miter;stroke-miterlimit:10;stroke-dasharray:none;stroke-opacity:1"
           d="m 0.5,2.5 2,-2" /></g><g
         transform="matrix(1,0,0,-1,179,262)"
         id="g258"><path
           id="path260"
           style="fill:none;stroke:#efa72d;stroke-width:3;stroke-linecap:square;stroke-linejoin:miter;stroke-miterlimit:10;stroke-dasharray:none;stroke-opacity:1"
           d="m 2.5,0.5 -2,6" /></g><g
         transform="matrix(1,0,0,-1,322,268)"
         id="g262"><path
           id="path264"
           style="fill:none;stroke:#efa72d;stroke-width:3;stroke-linecap:square;stroke-linejoin:miter;stroke-miterlimit:10;stroke-dasharray:none;stroke-opacity:1"
           d="m 3.5,1.5 -3,0" /></g><g
         transform="matrix(1,0,0,-1,325,267)"
         id="g266"><path
           id="path268"
           style="fill:none;stroke:#efa72d;stroke-width:3;stroke-linecap:square;stroke-linejoin:miter;stroke-miterlimit:10;stroke-dasharray:none;stroke-opacity:1"
           d="m 0.5,0.5 1,1" /></g><g
         transform="matrix(1,0,0,-1,376,114)"
         id="g270"><path
           id="path272"
           style="fill:none;stroke:#efa72d;stroke-width:3;stroke-linecap:square;stroke-linejoin:miter;stroke-miterlimit:10;stroke-dasharray:none;stroke-opacity:1"
           d="m 2.5,0.5 -2,5" /></g><g
         transform="matrix(1,0,0,-1,432,117)"
         id="g274"><path
           id="path276"
           style="fill:none;stroke:#efa72d;stroke-width:3;stroke-linecap:square;stroke-linejoin:miter;stroke-miterlimit:10;stroke-dasharray:none;stroke-opacity:1"
           d="m 0.5,1.5 2,0" /></g><g
         transform="matrix(1,0,0,-1,432,116)"
         id="g278"><path
           id="path280"
           style="fill:none;stroke:#efa72d;stroke-width:3;stroke-linecap:square;stroke-linejoin:miter;stroke-miterlimit:10;stroke-dasharray:none;stroke-opacity:1"
           d="m 0.5,3.5 1,-3" /></g></g><g
       id="g282"><g
         clip-path="url(#clipPath286)"
         id="g284"><g
           transform="matrix(1,0,0,-1,312,375)"
           id="g290"><text
             id="text292"
             style="font-variant:normal;font-weight:normal;font-size:55px;font-family:TimesNewRomanPSMT;-inkscape-font-specification:TimesNewRomanPSMT;writing-mode:lr-tb;fill:#0b6593;fill-opacity:0.15290001;fill-rule:nonzero;stroke:none"
             transform="translate(0,49)"><tspan
               id="tspan294"
               y="0"
               x="0">У</tspan></text>
<text
             id="text296"
             style="font-variant:normal;font-weight:normal;font-size:55px;font-family:TimesNewRomanPSMT;-inkscape-font-specification:TimesNewRomanPSMT;writing-mode:lr-tb;fill:#0b6593;fill-opacity:0.15290001;fill-rule:nonzero;stroke:none"
             transform="translate(52.69,49)"><tspan
               id="tspan298"
               y="0"
               x="0">к</tspan></text>
<text
             id="text300"
             style="font-variant:normal;font-weight:normal;font-size:55px;font-family:TimesNewRomanPSMT;-inkscape-font-specification:TimesNewRomanPSMT;writing-mode:lr-tb;fill:#0b6593;fill-opacity:0.15290001;fill-rule:nonzero;stroke:none"
             transform="translate(93.159,49)"><tspan
               id="tspan302"
               y="0"
               x="0">р</tspan></text>
<text
             id="text304"
             style="font-variant:normal;font-weight:normal;font-size:55px;font-family:TimesNewRomanPSMT;-inkscape-font-specification:TimesNewRomanPSMT;writing-mode:lr-tb;fill:#0b6593;fill-opacity:0.15290001;fill-rule:nonzero;stroke:none"
             transform="translate(134.409,49)"><tspan
               id="tspan306"
               y="0"
               x="0">а</tspan></text>
<text
             id="text308"
             style="font-variant:normal;font-weight:normal;font-size:55px;font-family:TimesNewRomanPSMT;-inkscape-font-specification:TimesNewRomanPSMT;writing-mode:lr-tb;fill:#0b6593;fill-opacity:0.15290001;fill-rule:nonzero;stroke:none"
             transform="translate(172.568,49)"><tspan
               id="tspan310"
               y="0"
               x="0">ї</tspan></text>
<text
             id="text312"
             style="font-variant:normal;font-weight:normal;font-size:55px;font-family:TimesNewRomanPSMT;-inkscape-font-specification:TimesNewRomanPSMT;writing-mode:lr-tb;fill:#0b6593;fill-opacity:0.15290001;fill-rule:nonzero;stroke:none"
             transform="translate(201.597,49)"><tspan
               id="tspan314"
               y="0"
               x="0">н</tspan></text>
<text
             id="text316"
             style="font-variant:normal;font-weight:normal;font-size:55px;font-family:TimesNewRomanPSMT;-inkscape-font-specification:TimesNewRomanPSMT;writing-mode:lr-tb;fill:#0b6593;fill-opacity:0.15290001;fill-rule:nonzero;stroke:none"
             transform="translate(244.783,49)"><tspan
               id="tspan318"
               y="0"
               x="0">а</tspan></text>
</g></g></g><g
       id="g320"><g
         clip-path="url(#clipPath324)"
         id="g322"><g
           transform="matrix(0.5,-0.8660254,-0.8660254,-0.5,373.2583,256.0692)"
           id="g328"><text
             id="text330"
             style="font-variant:normal;font-weight:normal;font-size:22px;font-family:TimesNewRomanPSMT;-inkscape-font-specification:TimesNewRomanPSMT;writing-mode:lr-tb;fill:#0b6593;fill-opacity:0.15330003;fill-rule:nonzero;stroke:none"
             transform="translate(0,20)"><tspan
               id="tspan332"
               y="0"
               x="0 19.014601 29.724199 40.702202 51.895802 62.895802 72.993797">Молдова</tspan></text>
</g></g></g><g
       id="g334"><g
         clip-path="url(#clipPath338)"
         id="g336"><g
           transform="matrix(1,0,0,-1,188,160)"
           id="g342"><text
             id="text344"
             style="font-variant:normal;font-weight:normal;font-size:36px;font-family:TimesNewRomanPSMT;-inkscape-font-specification:TimesNewRomanPSMT;writing-mode:lr-tb;fill:#0b6593;fill-opacity:0.15;fill-rule:nonzero;stroke:none"
             transform="translate(0,32)"><tspan
               id="tspan346"
               y="0"
               x="0 20.023199 37.548 60.3288 78.328796 97.596001 107.5968">Румунія</tspan></text>
</g></g></g><g
       id="g348"><g
         id="g350" /><g
         id="g364"><g
           style="opacity:0.2512"
           id="g366"
           clip-path="url(#clipPath352)"><g
             id="g368" /><g
             id="g370"><g
               id="g372"
               clip-path="url(#clipPath356)"><g
                 id="g374"
                 clip-path="url(#clipPath360)"><path
                   id="path376"
                   style="fill:#7ed321;fill-opacity:1;fill-rule:evenodd;stroke:none"
                   d="m 219.0345,413.0977 360.3089,0 0,-314.6515 -360.3089,0 0,314.6515 z" /></g></g></g></g></g></g><g
       id="g378"><g
         clip-path="url(#clipPath382)"
         id="g380"><path
           id="path386"
           style="fill:#d0021b;fill-opacity:1;fill-rule:evenodd;stroke:none"
           d="m 448,376 17,0 0,-17 -17,0 0,17 z" /></g></g><g
       id="g388"><g
         transform="matrix(1,0,0,-1,453,371)"
         id="g390"><path
           id="path392"
           style="fill:none;stroke:#d0021b;stroke-width:1;stroke-linecap:butt;stroke-linejoin:miter;stroke-miterlimit:10;stroke-dasharray:none;stroke-opacity:1"
           d="M 3.5,7 C 5.432997,7 7,5.432997 7,3.5 7,1.567003 5.432997,0 3.5,0 1.567003,0 0,1.567003 0,3.5 0,5.432997 1.567003,7 3.5,7 Z" /></g></g><g
       id="g394"><g
         clip-path="url(#clipPath398)"
         id="g396"><g
           transform="matrix(1,0,0,-1,416,401)"
           id="g402"><text
             id="text404"
             style="font-variant:normal;font-weight:normal;font-size:23px;font-family:TimesNewRomanPSMT;-inkscape-font-specification:TimesNewRomanPSMT;writing-mode:lr-tb;fill:#000000;fill-opacity:1;fill-rule:nonzero;stroke:none"
             transform="translate(0,20)"><tspan
               id="tspan406"
               y="0"
               x="0 13.1744 24.6744 36.984001 49.293598 55.682999 67.160004 78.637001">Трипілля</tspan></text>
</g></g></g></g></svg>