<?xml version="1.0" encoding="UTF-8" standalone="no"?>
<svg
   xmlns:dc="http://purl.org/dc/elements/1.1/"
   xmlns:cc="http://creativecommons.org/ns#"
   xmlns:rdf="http://www.w3.org/1999/02/22-rdf-syntax-ns#"
   xmlns:svg="http://www.w3.org/2000/svg"
   xmlns="http://www.w3.org/2000/svg"
   viewBox="0 0 1458.6667 990.66669"
   height="990.66669"
   width="1458.6667"
   xml:space="preserve"
   version="1.1"
   id="svg2"><metadata
     id="metadata8"><rdf:RDF><cc:Work
         rdf:about=""><dc:format>image/svg+xml</dc:format><dc:type
           rdf:resource="http://purl.org/dc/dcmitype/StillImage" /></cc:Work></rdf:RDF></metadata><defs
     id="defs6"><clipPath
       id="clipPath18"
       clipPathUnits="userSpaceOnUse"><path
         id="path20"
         d="m 0,0 1093,0 0,741 L 0,741 0,0 Z" /></clipPath><clipPath
       id="clipPath22"
       clipPathUnits="userSpaceOnUse"><path
         id="path24"
         d="m 0,0 1094,0 0,743 L 0,743 0,0 Z" /></clipPath><clipPath
       id="clipPath26"
       clipPathUnits="userSpaceOnUse"><path
         id="path28"
         d="m 0,0 1094,0 0,743 L 0,743 0,0 Z" /></clipPath><clipPath
       id="clipPath30"
       clipPathUnits="userSpaceOnUse"><path
         id="path32"
         d="m 347,64 216,0 0,172 -216,0 0,-172 z" /></clipPath><clipPath
       id="clipPath34"
       clipPathUnits="userSpaceOnUse"><path
         style="clip-rule:evenodd"
         id="path36"
         d="m 547.3873,200.8523 c -6.3757,3.2068 -5.8205,1.2938 -10.2116,-1.5898 -4.6372,-3.0453 -17.4447,-2.2567 -22.5488,-2.2567 -0.5736,0 -0.268,-1.7535 -0.268,-2.2567 0,-7.3659 5.5143,-5.2523 9.0207,-8.7587 2.1091,-2.1091 -0.1939,-8.3804 1.5898,-10.0866 3.9338,-3.7627 7.845,-3.5753 1.0659,-10.3545 -1.3255,-1.3255 -0.7194,-5.7567 -1.7268,-6.7641 -0.9279,-0.9278 -8.8994,0.548 -10.3485,0.262 -1.8282,-0.3607 -5.2283,-4.5673 -6.6331,-5.9721 -7.8963,-7.8963 -7.4405,-20.5135 -15.9158,-23.3527 -5.0649,-1.6967 -12.2514,-0.7636 -12.3373,-1.1968 -0.7997,-4.0352 0.098,-8.7199 -1.1908,-12.4742 -1.7646,-5.1403 -6.9513,-8.7311 -7.6989,-13.8021 -0.6672,-4.5252 5.0822,-13.5924 1.1968,-17.6544 -4.6373,-4.8481 -15.8318,19.0293 -16.7137,19.9111 -4.7661,4.7661 -13.5458,2.2677 -18.8393,-0.3989 -22.8408,-11.5063 -18.8551,-12.2123 -46.0266,-12.2123 -2.3992,0 -7.4189,-2.0821 -9.5507,-0.6609 -18.157,12.1047 12.3779,24.3207 14.588,31.0516 1.0591,3.2254 0.255,7.941 1.7267,10.8844 0.5451,1.0901 3.9992,1.5306 5.0433,2.9176 4.7392,6.2953 18.0771,28.6221 21.3521,35.172 4.9515,9.903 -3.3949,21.6845 5.4422,30.5216 2.9966,2.9966 7.4325,-5.0432 11.6704,-5.0432 4.0674,0 9.132,-4.6529 12.8672,-3.0486 5.2636,2.2606 18.6585,3.9776 24.4066,2.7866 3.6786,-0.7623 6.6506,-5.0609 10.4795,-4.1145 6.8375,1.6902 -6.7006,14.93 -7.6929,16.5887 -2.4224,4.0493 2.0896,9.163 -3.1796,11.1464" /></clipPath><clipPath
       id="clipPath38"
       clipPathUnits="userSpaceOnUse"><path
         id="path40"
         d="m 0,0 1094,0 0,743 L 0,743 0,0 Z" /></clipPath><clipPath
       id="clipPath42"
       clipPathUnits="userSpaceOnUse"><path
         id="path44"
         d="m 0,0 1094,0 0,743 L 0,743 0,0 Z" /></clipPath><clipPath
       id="clipPath46"
       clipPathUnits="userSpaceOnUse"><path
         style="clip-rule:evenodd"
         id="path48"
         d="M 129.3698,77.90345 105.3139,57.65088 127.9441,53.64733 152,73.89989 l -22.6302,4.00356 0,0 z" /></clipPath><clipPath
       id="clipPath50"
       clipPathUnits="userSpaceOnUse"><path
         id="path52"
         d="m 0,0 1094,0 0,743 L 0,743 0,0 Z" /></clipPath><clipPath
       id="clipPath54"
       clipPathUnits="userSpaceOnUse"><path
         id="path56"
         d="m 105,53 47,0 0,25 -47,0 0,-25 z" /></clipPath><clipPath
       id="clipPath58"
       clipPathUnits="userSpaceOnUse"><path
         style="clip-rule:evenodd"
         id="path60"
         d="m 100.3139,82.90345 56.6861,0 0,-34.25612 -56.6861,0 0,34.25612 z" /></clipPath><clipPath
       id="clipPath62"
       clipPathUnits="userSpaceOnUse"><path
         id="path64"
         d="m 105,53 47,0 0,25 -47,0 0,-25 z" /></clipPath><clipPath
       id="clipPath66"
       clipPathUnits="userSpaceOnUse"><path
         style="clip-rule:evenodd"
         id="path68"
         d="m 105.313,57.69811 24.0557,20.25257 0,23.05592 -24.0557,-20.25261 0,-23.05588 0,0 z" /></clipPath><clipPath
       id="clipPath70"
       clipPathUnits="userSpaceOnUse"><path
         id="path72"
         d="m 0,0 1094,0 0,743 L 0,743 0,0 Z" /></clipPath><clipPath
       id="clipPath74"
       clipPathUnits="userSpaceOnUse"><path
         id="path76"
         d="m 105,57 25,0 0,45 -25,0 0,-45 z" /></clipPath><clipPath
       id="clipPath78"
       clipPathUnits="userSpaceOnUse"><path
         style="clip-rule:evenodd"
         id="path80"
         d="m 100.313,106.0066 34.0557,0 0,-53.30849 -34.0557,0 0,53.30849 z" /></clipPath><clipPath
       id="clipPath82"
       clipPathUnits="userSpaceOnUse"><path
         id="path84"
         d="m 105,57 25,0 0,45 -25,0 0,-45 z" /></clipPath><clipPath
       id="clipPath86"
       clipPathUnits="userSpaceOnUse"><path
         style="clip-rule:evenodd"
         id="path88"
         d="m 52,57.08567 c 0,-5.56702 4.26273,-6.17734 6.94585,-6.05767 0,0 10.49698,0.38345 12.82531,0.701 l 0,4.73186 -11.46896,0 c -1.19188,0 -2.52975,-0.04113 -2.54823,2.14445 l 0,4.70927 12.14714,0.38969 0,4.74635 -12.14714,0.43503 0,4.70927 c 0,1.11344 0,2.3093 2.13716,2.3093 l 11.88003,0 0,4.77315 c -2.64482,0.36289 -13.23621,0.6597 -13.23621,0.6597 C 55.69761,81.39286 52,80.30723 52,75.06905 l 0,-17.98338 0,0 z" /></clipPath><clipPath
       id="clipPath90"
       clipPathUnits="userSpaceOnUse"><path
         id="path92"
         d="m 0,0 1094,0 0,743 L 0,743 0,0 Z" /></clipPath><clipPath
       id="clipPath94"
       clipPathUnits="userSpaceOnUse"><path
         id="path96"
         d="m 52,50 20,0 0,32 -20,0 0,-32 z" /></clipPath><clipPath
       id="clipPath98"
       clipPathUnits="userSpaceOnUse"><path
         style="clip-rule:evenodd"
         id="path100"
         d="m 47,86.33907 29.7712,0 0,-40.32403 -29.7712,0 0,40.32403 z" /></clipPath><clipPath
       id="clipPath102"
       clipPathUnits="userSpaceOnUse"><path
         id="path104"
         d="m 52,50 20,0 0,32 -20,0 0,-32 z" /></clipPath><clipPath
       id="clipPath106"
       clipPathUnits="userSpaceOnUse"><path
         style="clip-rule:evenodd"
         id="path108"
         d="m 52,22.99776 c 0,-5.56702 4.26273,-6.17734 6.94585,-6.05767 0,0 10.49698,0.38345 12.82531,0.701 l 0,4.73185 -11.46896,0 c -1.19188,0 -2.52975,-0.04112 -2.54823,2.14446 l 0,4.70927 12.14714,0.38969 0,4.74635 -12.14714,0.43502 0,4.70928 c 0,1.11343 0,2.30929 2.13716,2.30929 l 11.88003,0 0,4.77315 C 69.12634,46.95234 58.53495,47.24916 58.53495,47.24916 55.69761,47.30495 52,46.21932 52,40.98114 l 0,-17.98338 0,0 z m 47.1183,-5.93396 6.1813,0 2.1701,6.68855 9.8538,0 2.1371,-6.68855 6.1259,0 -9.7714,30.18536 -6.5452,0 -10.1516,-30.18536 0,0 z m 9.8455,11.80403 3.6167,10.77317 3.3806,-10.77317 -6.9973,0 0,0 z" /></clipPath><clipPath
       id="clipPath110"
       clipPathUnits="userSpaceOnUse"><path
         id="path112"
         d="m 0,0 1094,0 0,743 L 0,743 0,0 Z" /></clipPath><clipPath
       id="clipPath114"
       clipPathUnits="userSpaceOnUse"><path
         id="path116"
         d="m 52,16 74,0 0,32 -74,0 0,-32 z" /></clipPath><clipPath
       id="clipPath118"
       clipPathUnits="userSpaceOnUse"><path
         style="clip-rule:evenodd"
         id="path120"
         d="m 47,52.25116 83.5865,0 0,-40.32403 -83.5865,0 0,40.32403 z" /></clipPath><clipPath
       id="clipPath122"
       clipPathUnits="userSpaceOnUse"><path
         id="path124"
         d="m 52,16 74,0 0,32 -74,0 0,-32 z" /></clipPath><clipPath
       id="clipPath126"
       clipPathUnits="userSpaceOnUse"><path
         style="clip-rule:evenodd"
         id="path128"
         d="m 74.95068,17.06375 5.75402,0 0,11.99988 5.0553,-0.57728 4.9731,-11.4226 6.4753,0 -5.6965,11.88662 c 1.6707,0.52772 4.7902,1.41429 4.7902,8.88643 0,7.20835 -3.4935,9.41248 -8.1891,9.41248 l -13.16232,0 0,-30.18553 0,0 z m 5.77662,16.53605 0,8.51546 6.8206,0 c 1.8084,0 2.9591,-0.84949 2.9591,-4.27846 0,-3.64741 -0.9555,-4.237 -2.9591,-4.237 l -6.8206,0 0,0 z" /></clipPath><clipPath
       id="clipPath130"
       clipPathUnits="userSpaceOnUse"><path
         id="path132"
         d="m 0,0 1094,0 0,743 L 0,743 0,0 Z" /></clipPath><clipPath
       id="clipPath134"
       clipPathUnits="userSpaceOnUse"><path
         id="path136"
         d="m 74,17 24,0 0,31 -24,0 0,-31 z" /></clipPath><clipPath
       id="clipPath138"
       clipPathUnits="userSpaceOnUse"><path
         style="clip-rule:evenodd"
         id="path140"
         d="m 69.95068,52.24928 32.25772,0 0,-40.18553 -32.25772,0 0,40.18553 z" /></clipPath><clipPath
       id="clipPath142"
       clipPathUnits="userSpaceOnUse"><path
         id="path144"
         d="m 74,17 24,0 0,31 -24,0 0,-31 z" /></clipPath><clipPath
       id="clipPath146"
       clipPathUnits="userSpaceOnUse"><path
         style="clip-rule:evenodd"
         id="path148"
         d="m 74.95068,51.15167 12.78412,0 c 7.3445,0 10.4374,6.08244 10.4374,14.96904 0,7.47837 -1.7777,15.21648 -10.4374,15.21648 l -12.78412,0 0,-30.18552 0,0 z m 5.75402,5.14851 0,19.94412 6.5781,0 c 3.2077,0 5.1354,-2.00608 5.1354,-10.08246 0,-6.05565 -1.4057,-9.86166 -5.1354,-9.86166 l -6.5781,0 0,0 z" /></clipPath><clipPath
       id="clipPath150"
       clipPathUnits="userSpaceOnUse"><path
         id="path152"
         d="m 0,0 1094,0 0,743 L 0,743 0,0 Z" /></clipPath><clipPath
       id="clipPath154"
       clipPathUnits="userSpaceOnUse"><path
         id="path156"
         d="m 74,51 25,0 0,31 -25,0 0,-31 z" /></clipPath><clipPath
       id="clipPath158"
       clipPathUnits="userSpaceOnUse"><path
         style="clip-rule:evenodd"
         id="path160"
         d="m 69.95068,86.33719 33.22152,0 0,-40.18552 -33.22152,0 0,40.18552 z" /></clipPath><clipPath
       id="clipPath162"
       clipPathUnits="userSpaceOnUse"><path
         id="path164"
         d="m 74,51 25,0 0,31 -25,0 0,-31 z" /></clipPath><clipPath
       id="clipPath166"
       clipPathUnits="userSpaceOnUse"><path
         id="path168"
         d="m 0,0 1094,0 0,743 L 0,743 0,0 Z" /></clipPath><clipPath
       id="clipPath170"
       clipPathUnits="userSpaceOnUse"><path
         id="path172"
         d="m 476,49 484,0 0,294 -484,0 0,-294 z" /></clipPath><clipPath
       id="clipPath174"
       clipPathUnits="userSpaceOnUse"><path
         style="clip-rule:evenodd"
         id="path176"
         d="m 482.283,218.5363 c -3.278,9.2226 -5.6741,16.7745 -4.7816,26.8898 1.0647,12.0672 36.5837,53.6716 45.0092,58.7035 10.8807,6.4982 24.02,6.252 35.1406,11.3968 19.2807,8.9199 16.9929,15.0818 41.651,15.0818 10.4611,0 21.4084,4.233 32.1042,4.233 14.3926,0 31.7463,6.1748 45.6627,3.4688 23.2797,-4.5266 46.9546,0.273 70.5025,-2.4935 8.5033,-0.999 15.7264,-3.6831 24.4024,-2.9309 3.7999,0.3294 8.4321,3.5383 11.4973,5.6456 2.6869,1.8472 52.0045,3.4978 58.1354,0.4323 6.532,-3.2659 50.5799,-0.2744 59.7643,-0.8697 6.1354,-0.3976 10.5197,-7.0287 16.1576,-9.1144 25.0325,-9.2606 42.0522,-19.5159 37.6392,-49.8052 -0.4709,-3.2326 -4.3161,-6.7911 -5.9673,-9.5518 -2.5328,-4.2346 -0.6337,-12.7393 -3.9062,-16.1678 -3.6562,-3.8302 -25.3521,-10.7982 -25.3521,-10.7982 0,0 -18.9956,-10.4794 -19.4409,-10.9045 -1.828,-1.7449 -0.8984,-4.192 -4.8815,-6.1835 -2.4478,-1.2239 -20.9101,3.3889 -22.4651,1.8339 -3.3514,-3.3515 -2.9567,-3.4279 -7.2897,-5.5441 -1.9155,-0.9354 -13.9536,-12.5149 -16.2313,-14.8455 -3.7716,-3.8593 -15.9399,3.1319 -19.0718,0 -2.8101,-2.8101 -2.1969,-8.228 -4.9283,-10.9595 -2.5761,-2.576 -6.893,-2.0382 -9.1984,-4.3435 -4.0224,-4.0225 -7.139,-4.6625 -12.8737,-7.5965 -10.6252,-5.4362 -24.4639,-0.2853 -31.5875,-15.2109 -1.6007,-3.3538 0.7588,-8.6773 1.6288,-10.5002 2.9015,-6.0794 16.4887,-13.9019 16.4887,-13.9019 0,0 3.6471,-9.4299 6.4687,-12.2515 3.1165,-3.1165 9.5545,-10.5262 10.665,-14.8673 1.4655,-5.7285 8.4619,-16.1464 3.8781,-17.67428 -9.3556,-3.11851 -24.1567,-14.76776 -33.7436,-14.76776 -5.1707,0 -11.9097,-6.83347 -17.6789,-9.61399 -1.4735,-0.71017 7.2291,1.69247 5.9244,1.69247 -7.6438,0 -47.9371,-25.32284 -55.322,-26.9513 -2.6116,-0.57589 -2.7337,14.01398 -2.7337,14.01398 l 9.0592,17.0498 c 0,0 -10.9957,-1.55069 -12.1133,3.80904 -0.6428,3.08274 -10.458,-7.92152 -10.458,-7.92152 0,0 -6.3068,4.00175 -8.1982,6.13696 -4.5568,5.14427 -11.1462,16.55232 -11.1462,16.55232 l -26.4649,-8.32678 c 0,0 -2.818,-0.66078 -4.2703,0 -1.255,0.57094 -1.1197,2.43323 -1.7079,2.9097 -4.4654,3.61738 14.8207,4.14756 14.8207,4.14756 0,0 12.6655,8.9709 12.6655,10.0186 0,3.8627 4.9569,10.549 4.9569,10.549 0,0 14.0274,8.0614 13.733,8.3559 -1.5883,1.5883 2.3969,5.7654 5.6114,6.079 1.813,0.1769 5.3377,0 5.3377,0 0,0 46.7429,26.9143 48.1965,29.0075 1.7449,2.5127 -1.3913,8.9431 -2.4567,9.7914 -3.5034,2.7898 -15.8219,-5.3792 -15.8219,-5.3792 0,0 -16.9422,-4.7306 -21.7435,-6.9426 -5.6528,-2.6043 -8.0023,-6.2475 -13.5121,-7.4688 -22.3914,-4.963 -30.0597,-7.7034 -47.3221,-3.0583 -4.11,1.1059 -11.8657,4.4855 -15.3089,6.8717 -7.5763,5.2503 -32.1042,10.598 -32.1042,10.598 0,0 -10.2159,7.0375 0,17.2534 1.1638,1.1638 21.2251,10.6807 19.3824,12.5233 -5.0442,5.0442 -11.2206,4.5786 -17.3031,5.6159 -0.9722,0.1658 -9.5325,7.4472 -9.5325,7.4472 0,0 -6.6774,-6.916 -7.7382,-6.3732 -1.6609,0.8497 -5.2862,0 -5.2862,0 0,0 -10.6894,2.9927 -12.5315,2.4682 -6.3459,-1.8071 -5.2165,-2.8616 -13.4128,-6.0514 l -14.3881,3.5832" /></clipPath><clipPath
       id="clipPath178"
       clipPathUnits="userSpaceOnUse"><path
         id="path180"
         d="m 0,0 1094,0 0,743 L 0,743 0,0 Z" /></clipPath><clipPath
       id="clipPath182"
       clipPathUnits="userSpaceOnUse"><path
         id="path184"
         d="m 615.9665,274.4975 201.3954,69.346 41.9983,-121.9719 -201.3954,-69.346 -41.9983,121.9719 z" /></clipPath><clipPath
       id="clipPath186"
       clipPathUnits="userSpaceOnUse"><path
         id="path188"
         d="m 0,0 1094,0 0,743 L 0,743 0,0 Z" /></clipPath></defs><g
     transform="matrix(1.3333333,0,0,-1.3333333,0,990.66667)"
     id="g10"><g
       id="g12" /><g
       id="g14"><g
         id="g16" /><g
         id="g190"><g
           id="g192"
           clip-path="url(#clipPath18)"><g
             id="g194" /><g
             id="g196"><g
               id="g198"
               clip-path="url(#clipPath22)"><g
                 id="g200"
                 transform="matrix(1,0,0,-1,16.2994,724.5748)"><path
                   id="path202"
                   style="fill:none;stroke:#efa731;stroke-width:3;stroke-linecap:butt;stroke-linejoin:miter;stroke-miterlimit:10;stroke-dasharray:none;stroke-opacity:1"
                   d="m 5.914564,333.9056 c -16.513314,-3.4396 6.624386,-15.1555 8.228816,-21.3639 1.9043,-7.3688 -6.982591,-19.0317 0,-26.0143 2.56357,-2.5635 8.75106,0.178 10.74153,-1.8577 5.74861,-5.8793 9.05511,-13.1123 15.7848,-18.1784 4.05498,-3.0527 15.7274,2.7916 19.23829,-0.6669 4.27964,-4.2158 -5.57414,-10.3232 -7.03201,-13.2721 -2.76007,-5.5829 -4.75983,-31.0936 -1.98873,-36.7618 7.5847,-15.5141 22.16736,-16.0927 34.4872,-26.6751 9.38531,-8.0618 15.15614,-20.1544 21.35804,-30.5217 1.7854,-2.9846 7.0784,-2.2587 9.5506,-4.3823 6.5028,-5.5857 14.1496,-10.1208 20.5602,-15.2609 2.1531,-1.7263 2.4455,-5.238 4.3764,-7.1689 0.7885,-0.7885 -4.061,-45.06574 -4.1144,-45.12156 -3.5128,-3.67242 -10.8858,-4.61522 -13.3972,-9.41967 -3.112,-5.9534 1.5644,-10.72204 4.7754,-13.93302 2.3826,-2.38268 5.3224,-0.93625 8.0918,-2.12568 3.316,-1.42416 5.6837,-8.32503 8.8898,-9.42563 7.89,-2.70852 18.6037,-3.90051 26.3953,-8.09187 12.957,-6.96994 21.9293,-19.90781 37.0118,-25.08539 16.4783,-5.65673 40.9016,4.97842 55.1843,10.35449 7.3512,2.76701 18.2659,-2.07896 24.8056,1.19086 7.1909,3.59547 10.3115,8.26741 19.6312,9.82457 3.5086,0.58622 13.3975,-1.64583 16.0528,0.13099 11.8248,7.91284 -4.0889,10.17199 32.8974,21.10198 19.915,5.88516 8.8276,1.23508 25.0675,2.9176 3.4161,0.35392 5.1422,4.28958 9.8186,4.64434 8.2662,0.62709 48.5087,-3.25781 53.5886,-1.5898 2.3759,0.78016 3.4706,4.18849 5.7042,5.30527 5.5047,2.75236 15.1581,-2.57101 20.6971,0.13695 3.8616,1.88791 5.2801,6.25338 9.6816,7.56194 7.4286,2.20848 14.9961,-1.26997 20.4292,4.2454 1.5224,1.54545 15.1616,12.50695 16.8446,9.69357 6.461,-10.80044 -19.3178,-22.88608 -9.9496,-32.25435 3.7088,-3.70874 9.931,-6.06025 13.1352,-10.34854 9.0289,-12.08388 11.4746,-18.45982 27.3242,-24.68645 2.6304,-1.03336 4.0871,-5.43249 7.4309,-6.77002 12.3032,-4.92126 27.3316,3.29303 39.3936,-0.131 7.5531,-2.14412 -0.4564,-14.996305 6.2341,-15.528766 8.9633,-0.713341 19.6774,-2.488212 28.658,-1.327805 6.0718,0.784564 9.1211,5.043277 16.4457,5.043277 2.125,0 1.4019,-3.088615 2.9176,-3.846467 1.9811,-0.990562 21.7162,-5.351992 23.0847,-3.9834152 2.0793,2.0792442 -0.2204,7.9919182 2.9176,10.4854962 2.6295,2.08949 14.1332,-0.05686 17.9046,1.59574 12.7721,5.59677 6.7608,15.5484 9.5506,17.38055 1.7284,1.13505 7.2864,0.26036 8.6218,1.59575 2.2243,2.2243 9.5866,14.16309 10.6165,17.11856 3.5709,10.24704 -22.4979,9.09917 -13.6651,22.29879 3.1579,4.71901 12.5699,2.63038 16.1838,7.43095 3.0791,4.09017 -3.1793,11.41451 2.9176,14.46295 10.8818,5.44093 29.2621,0.44659 34.7551,11.68231 5.6903,11.6392 5.159,17.5454 16.5827,26.1452 3.1774,2.392 -1.7119,18.837 0,22.8228 1.277,2.9732 4.6062,4.6029 6.2341,7.2999 1.2409,2.0558 0.6726,5.9579 2.3877,7.6989 9.863,10.0125 29.5221,-8.4197 36.3449,-9.4256 14.5064,-2.1388 10.6377,5.0053 19.5003,7.9668" /></g><g
                 id="g204"
                 transform="matrix(1,0,0,-1,556.4739,554.2717)"><path
                   id="path206"
                   style="fill:none;stroke:#efa731;stroke-width:3;stroke-linecap:butt;stroke-linejoin:miter;stroke-miterlimit:10;stroke-dasharray:none;stroke-opacity:1"
                   d="m 310.6647,7.772979 c 9.9217,6.598631 18.4133,-1.716171 26.6632,-5.841151 8.0247,-4.012316 19.6713,-0.529931 27.9911,-0.529931 1.9531,0 4.9696,-2.2807267 5.8352,-0.5299309 1.1777,2.3820859 -1.1408,7.3743299 0.3989,9.4196739 1.4161,1.88109 6.0842,1.37262 7.562,2.9176 1.9109,1.99778 2.6714,6.10067 5.5732,7.5679 8.967,4.5339 14.5024,-2.31577 23.3408,-0.131 7.378,1.82378 14.3533,2.95918 21.8879,4.90633 7.6699,1.9821 20.8343,22.12543 29.5809,24.28752 18.0271,4.45613 12.4338,-14.50616 22.0249,-12.60522 4.6774,0.92706 4.4101,6.62681 7.9549,8.35981 4.3213,2.11265 10.407,0.94521 14.725,4.3764 2.3344,1.85502 16.6774,35.93894 16.1837,37.95855 -0.812,3.32185 -9.0086,7.46452 -10.6105,12.34327 -0.4226,1.287 -2.9261,-2.77817 -3.8465,-1.85778 -0.9214,0.92144 -1.3381,6.62828 -0.7979,7.96088 1.322,3.261 5.474,4.9291 6.7641,7.5679 5.4649,11.1784 1.1968,40.2294 1.1968,53.0825 0,6.5483 5.5958,10.48 4.7753,17.1185 -0.5731,4.6368 -2.7132,10.9567 -3.7154,16.0587 -0.3078,1.5667 -3.6006,2.1522 -4.6444,3.7155 -7.8298,11.7272 -14.0643,2.1125 -24.4066,6.2401 -2.1624,0.863 -1.9968,4.7329 -3.7155,5.5732 -3.2205,1.5745 -10.5045,-3.3149 -15.7848,-0.3989 -3.0727,1.6969 -3.3897,6.9375 -6.2341,8.3598 -12.0458,6.0229 -22.6612,2.008 -25.2045,20.0421 -0.518,3.6733 -3.5785,5.1448 -3.5785,10.4855 0,4.1165 13.7182,9.0856 5.1743,20.4351 -4.4498,5.9109 -14.8402,0.0752 -20.2982,3.8524 -8.8247,6.1071 -14.3884,16.9506 -23.2157,21.8939 -16.6097,9.3014 -29.5423,6.7629 -45.4967,20.971 -1.6505,1.4698 -0.8735,4.321 -2.2567,5.7042 -4.6978,4.6978 -20.4552,-1.4649 -26.3953,0.5299 -14.1428,4.7495 -13.7154,21.102 -33.6953,21.102 -3.6083,0 -8.1621,-0.7101 -11.5394,0.3989 -3.4661,1.1381 -1.6546,9.052 -4.6443,11.0154 -3.5784,2.35 -13.6218,3.783 -13.9271,3.9835 -2.515,1.6516 -2.2317,6.8684 -5.7042,8.3598 -5.7272,2.4597 -27.3765,5.0955 -30.9087,8.6277 -1.9137,1.9137 -3.4744,8.2357 -2.5186,11.1464 3.2571,9.9196 15.7616,15.2377 17.1126,16.5887 2.1522,2.1522 8.5967,14.6501 10.8784,18.0474 0.7308,1.088 4.9073,0.6457 5.4363,2.2567 1.473,4.486 -0.0675,9.4761 2.1197,13.802 2.8248,5.5867 7.7745,7.8073 13.2662,8.8957 3.1654,0.6274 6.0369,2.7687 8.8897,3.5785 6.5415,1.8569 19.2,-19.2059 22.4179,-22.4238 3.1635,-3.1635 11.6866,-1.9254 15.3859,-4.3824 3.0667,-2.0368 7.5514,-7.3677 11.9383,-5.1742 4.8269,2.4134 4.1646,9.2643 9.1517,11.8133 4.2417,2.1679 24.8122,-2.5556 28.521,1.3218 2.1563,2.2543 -1.5092,9.0581 -1.7208,11.4144 -0.182,2.0273 0.5907,6.1794 -0.7978,7.5679 -2.389,2.389 -11.1506,2.5539 -14.326,4.7753 -1.6162,1.1306 -4.6021,8.0118 -5.4363,8.0978 -4.1769,0.4308 -8.7896,-0.9112 -12.4742,1.1909 -2.601,1.4839 -3.1347,6.6322 -5.1683,7.2999 -12.8244,4.211 -24.5537,-3.6242 -32.5045,14.332 -2.2807,5.1508 -11.625,-3.318 -15.1179,-0.5299 -14.4909,11.5667 -12.2217,3.5245 -17.9105,6.77 -6.1171,3.4899 -10.3223,11.0082 -16.4457,14.07 -6.2326,3.1163 -27.18,-1.2101 -31.7065,3.3165 -3.8419,3.8419 -2.3963,10.5496 -4.3764,14.5999 -6.3484,12.9853 -54.9129,14.0106 -59.4297,0.6609 -3.2908,-9.7259 11.0073,-4.7749 12.4682,-9.1577 2.131,-6.3929 -3.4815,-9.8227 -4.5074,-14.9988 -1.1611,-5.8584 0.661,-12.271 0.661,-18.3094 0,-3.2954 10.3532,-11.6431 5.7042,-14.7309 -13.3571,-8.8715 -15.6629,7.7803 -21.888,4.6443 -6.2398,-3.1433 -15.8488,-22.1678 -16.1837,-22.1678 -11.7596,0 -26.31218,14.89 -35.41605,5.5792 -0.26193,-0.2679 -0.54477,-1.8964 -0.26199,-2.1257 2.18308,-1.7701 9.52907,-0.7186 12.59926,-1.7267 3.89021,-1.2774 9.80788,-5.4885 13.26608,-8.0919 4.5229,-3.4048 3.5325,-10.9694 7.032,-14.4689 3.057,-3.057 8.6982,-1.6176 12.0694,-4.5134 3.1802,-2.7317 4.0648,-8.7997 8.2228,-10.4854 3.2357,-1.3118 6.8644,1.502 9.8186,0.1369 3.415,-1.578 42.5117,-23.6903 44.0379,-26.8121 0.6696,-1.3697 2.3199,-7.9276 1.4588,-9.2887 -2.6194,-4.1404 -15.5897,2.3548 -18.0415,3.7155 -7.6737,4.2589 -15.4148,3.2883 -22.9478,7.0379 -3.7106,1.847 -5.284,5.3709 -9.1517,7.032 -13.0738,5.615 -16.5506,-3.0406 -32.4985,7.8299 -23.04566,-0.4475 -32.13993,-8.9929 -50.80783,-19.6432 -2.97652,-1.6981 -6.56625,4.2818 -9.28273,2.9236 -4.00287,-2.0015 -14.36213,-12.1729 -12.73621,-17.1245 3.2514,-9.902 28.01661,-12.0488 26.00235,-17.9165 -1.42704,-4.157 -14.07236,-3.5637 -17.51154,-4.2454 -4.5472,-0.9012 -4.4469,-7.159 -8.09187,-7.9608 -5.23981,-1.1528 -5.50367,4.8603 -9.28868,6.1031 -7.47618,2.4549 -13.41622,-4.1919 -19.101337,-2.7866 -3.078494,0.761 -5.408675,4.583 -8.484853,5.4422" /></g></g></g><g
             id="g208"><g
               id="g210"
               clip-path="url(#clipPath26)"><g
                 id="g212" /><g
                 id="g214"><g
                   style="opacity:0.3351"
                   id="g216"
                   clip-path="url(#clipPath30)"><g
                     id="g218" /><g
                     id="g220"><g
                       id="g222"
                       clip-path="url(#clipPath34)"><g
                         id="g224"
                         clip-path="url(#clipPath38)"><path
                           id="path226"
                           style="fill:#4a90e2;fill-opacity:1;fill-rule:evenodd;stroke:none"
                           d="m 369.5119,225.0965 182.8754,0 0,-146.15055 -182.8754,0 0,146.15055 z" /></g></g></g><g
                     id="g228"><g
                       id="g230"
                       clip-path="url(#clipPath42)"><g
                         id="g232"
                         transform="matrix(1,0,0,-1,374.5119,220.0965)"><path
                           id="path234"
                           style="fill:none;stroke:#efa731;stroke-width:3;stroke-linecap:butt;stroke-linejoin:miter;stroke-miterlimit:10;stroke-dasharray:none;stroke-opacity:1"
                           d="m 172.8754,19.24424 c -6.3757,-3.20681 -5.8205,-1.29387 -10.2116,1.58979 -4.6372,3.04532 -17.4447,2.25668 -22.5488,2.25668 -0.5736,0 -0.268,1.75349 -0.268,2.25667 0,7.36596 5.5143,5.25231 9.0207,8.75875 2.1091,2.10902 -0.1939,8.38036 1.5898,10.08655 3.9338,3.76269 7.845,3.57532 1.0659,10.3545 -1.3255,1.32549 -0.7194,5.75669 -1.7268,6.76407 -0.9279,0.92789 -8.8994,-0.54792 -10.3485,-0.26199 -1.8282,0.36071 -5.2283,4.56736 -6.6331,5.97214 -7.8963,7.89633 -7.4405,20.51347 -15.9158,23.3527 -5.0649,1.69673 -12.2514,0.76357 -12.3373,1.19681 -0.7997,4.03519 0.098,8.71989 -1.1908,12.47419 -1.7646,5.1403 -6.95131,8.7311 -7.69894,13.8021 -0.66719,4.5252 5.08224,13.5924 1.19681,17.6544 -4.63731,4.8481 -15.83183,-19.0293 -16.71367,-19.9111 -4.7661,-4.7661 -13.54583,-2.2677 -18.83935,0.3989 -22.84079,11.5063 -18.85505,12.2123 -46.02661,12.2123 -2.39913,0 -7.418842,2.0821 -9.550671,0.6609 C -12.41833,116.7579 18.11653,104.5419 20.32667,97.811 c 1.05908,-3.22541 0.25503,-7.94102 1.72674,-10.88443 0.54503,-1.09006 3.99914,-1.53062 5.04327,-2.9176 4.73917,-6.29531 18.07713,-28.62209 21.35206,-35.17195 4.95149,-9.90297 -3.39487,-21.68456 5.44222,-30.52165 2.99659,-2.9966 7.43256,5.04328 11.67039,5.04328 4.06742,0 9.13199,4.65282 12.8672,3.04859 5.26365,-2.26067 18.65847,-3.97766 24.40665,-2.7866 3.6786,0.76223 6.6506,5.06089 10.4795,4.11441 6.8375,-1.69016 -6.7006,-14.92991 -7.6929,-16.58863 C 103.1994,7.097092 107.7114,1.98336 102.4422,0" /></g></g></g></g></g><g
                 id="g236"
                 transform="matrix(1,0,0,-1,24.01216,382.1856)"><path
                   id="path238"
                   style="fill:none;stroke:#efa731;stroke-width:3;stroke-linecap:butt;stroke-linejoin:miter;stroke-miterlimit:10;stroke-dasharray:none;stroke-opacity:1"
                   d="m 0,0 c 12.96066,13.33299 26.87575,15.21727 39.26253,27.60406 4.1025,4.10249 21.5852,-3.63016 26.53229,-2.64966 3.54843,0.70329 7.69592,7.96387 10.0806,10.34854 0.68358,0.68358 7.73125,-1.72674 9.28272,-1.72674 5.86392,0 16.80416,2.47065 22.68576,4.78129 3.0762,1.20849 5.9056,6.41791 9.1518,8.35981 3.3274,1.99054 8.8961,-1.92815 12.7362,-0.66092 3.313,1.09332 3.9351,6.78002 7.026,8.35981 1.3425,0.68614 4.8364,-1.00478 5.8412,0 1.5269,1.52694 0.5644,6.5396 2.3876,7.43095 4.2469,2.07622 8.7849,3.05039 13.1292,5.17427 7.5076,3.67034 13.7588,-4.97233 19.5003,-7.29995 4.118,-1.66946 9.9875,1.3658 13.7961,-0.52993 2.3218,-1.15569 3.903,-4.1994 6.633,-4.51335 5.6514,-0.6499 9.3312,4.442 14.1951,3.05455 7.5803,-2.16233 8.1031,-7.80346 13.927,-11.67635 2.1749,-1.44631 4.7578,-0.4092 6.7641,-1.72674 3.1672,-2.08 3.1689,-7.09789 6.6331,-9.15769 4.1656,-2.47685 11.7075,0.90478 16.4516,-0.26794 4.5823,-1.1327 5.5362,-6.25729 9.0208,-7.96088 3.0839,-1.50768 7.5253,5.83176 11.8014,3.98342 8.0391,-3.475 10.7712,-12.05033 17.5115,-17.12452 1.2473,-0.939 4.4611,-0.39298 5.8352,-0.39298 8.3305,0 26.7665,-1.64402 33.6953,-0.66688 3.5422,0.49954 12.254,12.93722 12.8672,16.0587 0.3716,1.89198 -1.564,11.04121 0,12.60521 4.169,4.16901 11.4445,-6.99639 16.0527,-6.23413 5.6465,0.934 10.1064,6.26717 14.725,8.62776 1.6868,0.86216 4.5488,-0.9953 6.0972,0.52993 1.7378,1.71191 4.1563,6.58855 6.1031,7.56194 1.9051,0.95252 4.7555,-1.90663 7.032,-0.92887 4.4158,1.8965 3.6135,7.54733 5.4363,11.15237 0.8536,1.6882 4.5652,2.3906 5.1742,4.2454 1.1052,3.36579 0.0765,7.18471 1.8578,10.34854 1.3396,2.3794 4.7861,-1.64068 6.1031,3.31654 2.1539,8.10721 -2.2672,20.20424 1.4588,27.74104 3.9359,7.9613 10.3605,2.4554 13.6651,7.4309 1.3135,1.9777 -1.5052,22.6153 12.8672,36.3628 3.0326,2.9008 -3.9029,10.7824 -2.6556,14.4689 1.5588,4.6071 10.6754,1.5946 13.5281,3.3166 4.7249,2.8519 -0.612,9.9985 2.1257,12.7362 3.7344,3.7344 12.8355,-2.8765 8.7528,7.2999" /></g><g
                 id="g240"
                 transform="matrix(1,0,0,-1,516.7962,626.5242)"><path
                   id="path242"
                   style="fill:none;stroke:#0c5a97;stroke-width:2;stroke-linecap:butt;stroke-linejoin:miter;stroke-miterlimit:10;stroke-dasharray:none;stroke-opacity:1"
                   d="m 9.900027,0 c -14.57158,15.74231 -8.752796,4.291059 -8.752796,28.13398 0,5.16542 -0.6398579,11.14642 -0.5299307,11.14642 2.8996137,0 4.2321287,-25.72974 8.0859157,-2.25668 2.077494,12.65382 -11.616382,13.99894 2.256674,27.872 1.15595,1.15595 1.65924,22.44398 2.78661,25.87731 2.27481,6.92784 8.5205,9.43157 11.67635,14.20097 2.23793,3.3821 0.18842,7.3511 1.72078,10.4855 1.39859,2.8607 15.63953,-1.746 17.11261,-1.8578 1.89354,-0.1436 13.45342,5.6139 15.65381,6.7641 2.0563,1.0749 2.68461,22.6033 5.7042,26.6752 4.96882,6.7003 11.60461,3.1793 17.64254,8.3657 2.81833,2.4209 -0.77823,8.1175 1.19086,10.0866 2.66272,2.6627 8.84069,0.4529 12.33727,1.8577 4.52918,1.8198 7.57008,6.5465 12.20628,8.0919 12.1308,4.0436 23.4687,7.0826 32.8974,16.7256 0.4907,0.5019 4.2005,-5.6842 5.9662,-3.7155 1.9181,2.1387 1.2272,7.8544 2.5246,9.1517 0.6708,0.6709 9.9006,-0.1953 12.2003,0.399 9.1953,2.3763 16.9366,7.1299 23.3467,13.54 2.1127,2.1127 10.7471,-1.1625 13.5341,0.262 2.9685,1.5172 34.5337,28.3175 42.0492,33.0463 13.1034,8.2449 30.7841,4.4007 42.1801,15.7967 5.2965,5.2965 -8.4613,23.9971 -4.2454,36.0948 3.6832,10.5692 14.1305,11.1599 9.8186,32.9153 -0.4212,2.1254 -6.942,5.3053 -9.5507,5.3053 -1.327,0 -2.3876,-4.5126 -2.3876,-3.1856 0,11.8367 -22.6758,0.6156 -28.652,-0.9288 -5.6598,-1.4627 -11.3173,4.0105 -15.3859,4.5133 -0.9241,0.1142 -10.1098,-0.84 -10.7475,0.131 -2.1535,3.2793 0.1201,8.6495 -1.7267,12.3432 -1.7063,3.4126 -6.0464,3.7467 -7.163,7.8299 -0.5958,2.1785 0.6233,8.6189 -0.53,9.8246 -4.6905,4.9037 -9.2332,9.2384 -11.8013,16.7196 -0.27,0.7865 -4.8237,-0.3506 -5.5733,0.3989 -0.6872,0.6873 -1.2601,5.563 -1.9887,6.7701 -1.3352,2.212 -8.1578,1.2515 -10.0806,4.1144 -1.9286,2.8715 -1.4812,7.1854 -4.1144,9.8186 -6.2335,6.2335 -23.4716,-1.9424 -28.652,3.3165 -4.4876,4.5556 -9.2993,10.2342 -13.7961,14.7309 -0.8004,0.8004 -4.5468,-0.2861 -5.7042,0 -1.9177,0.4741 -3.4825,2.4956 -5.5732,3.1856 -0.8194,0.2704 -3.9435,-0.068 -4.3764,0.7978 -0.3529,0.7058 0.5242,2.6376 0,3.1856 -1.3457,1.4069 -8.8412,-0.4911 -9.9496,-0.7979" /></g><g
                 id="g244"
                 transform="matrix(1,0,0,-1,478.2611,219.976)"><path
                   id="path246"
                   style="fill:none;stroke:#ffffff;stroke-width:5;stroke-linecap:butt;stroke-linejoin:miter;stroke-miterlimit:10;stroke-dasharray:none;stroke-opacity:1"
                   d="M 2.768041,5.281357 C 2.557702,3.042042 0.9532797,1.417579 0,0" /></g><g
                 id="g248"
                 transform="matrix(1,0,0,-1,484.0771,206.371)"><path
                   id="path250"
                   style="fill:none;stroke:#ffffff;stroke-width:4;stroke-linecap:butt;stroke-linejoin:miter;stroke-miterlimit:10;stroke-dasharray:none;stroke-opacity:1"
                   d="M 0,0 C 1.431947,1.863515 2.573069,3.516586 3.699863,5.270668" /></g><g
                 id="g252"
                 transform="matrix(1,0,0,-1,476.8508,231.5745)"><path
                   id="path254"
                   style="fill:none;stroke:#ffffff;stroke-width:3;stroke-linecap:butt;stroke-linejoin:miter;stroke-miterlimit:10;stroke-dasharray:none;stroke-opacity:1"
                   d="M 6.918629,0 C 7.543648,6.39143 1.394262,9.672898 0,14.54363" /></g><g
                 id="g256"
                 transform="matrix(1,0,0,-1,476.8792,215.8092)"><path
                   id="path258"
                   style="fill:none;stroke:#ffffff;stroke-width:2;stroke-linecap:butt;stroke-linejoin:miter;stroke-miterlimit:10;stroke-dasharray:none;stroke-opacity:1"
                   d="M 0,0 C 12.66313,5.106966 -0.7980895,13.36036 17.17751,15.76103" /></g><g
                 id="g260"
                 transform="matrix(1,0,0,-1,478.5343,215.8766)"><path
                   id="path262"
                   style="fill:none;stroke:#ffffff;stroke-width:3;stroke-linecap:butt;stroke-linejoin:miter;stroke-miterlimit:10;stroke-dasharray:none;stroke-opacity:1"
                   d="M 0,0 C 5.527162,1.570431 6.316175,6.61168 5.16556,12.16446" /></g><g
                 id="g264"
                 transform="matrix(1,0,0,-1,547.4694,201.2731)"><path
                   id="path266"
                   style="fill:none;stroke:#efa731;stroke-width:3;stroke-linecap:butt;stroke-linejoin:miter;stroke-miterlimit:10;stroke-dasharray:none;stroke-opacity:1"
                   d="M 0,0 C 3.843867,1.368978 7.14035,3.257493 10.91384,0.4246926" /></g><g
                 id="g268"
                 transform="matrix(1,0,0,-1,22.74084,390.954)"><path
                   id="path270"
                   style="fill:none;stroke:#efa731;stroke-width:3;stroke-linecap:butt;stroke-linejoin:miter;stroke-miterlimit:10;stroke-dasharray:none;stroke-opacity:1"
                   d="M 0,0 C 5.943828,1.296413 0.6571373,5.403914 2.190583,8.720594" /></g><g
                 id="g272"
                 transform="matrix(1,0,0,-1,23.98792,384.7099)"><path
                   id="path274"
                   style="fill:none;stroke:#efa731;stroke-width:2;stroke-linecap:butt;stroke-linejoin:miter;stroke-miterlimit:10;stroke-dasharray:none;stroke-opacity:1"
                   d="M 0.3460272,0 C -0.3114677,1.901553 -0.1656984,2.556612 1.965054,3.523526" /></g><g
                 id="g276"
                 transform="matrix(1,0,0,-1,861.7656,557.9512)"><path
                   id="path278"
                   style="fill:none;stroke:#efa731;stroke-width:3;stroke-linecap:butt;stroke-linejoin:miter;stroke-miterlimit:10;stroke-dasharray:none;stroke-opacity:1"
                   d="M 0,0 C 5.586079,3.218733 0.6447362,8.817325 6.721036,11.42653" /></g><g
                 id="g280"
                 transform="matrix(1,0,0,-1,526.6597,628.6382)"><path
                   id="path282"
                   style="fill:none;stroke:#0c5a97;stroke-width:2;stroke-linecap:butt;stroke-linejoin:miter;stroke-miterlimit:10;stroke-dasharray:none;stroke-opacity:1"
                   d="M 0,2.156858 C 1.966085,0.8073804 5.06273,0.6014319 7.0024,0" /></g><g
                 id="g284"
                 transform="matrix(1,0,0,-1,619.5224,198.9531)"><path
                   id="path286"
                   style="fill:none;stroke:#0c5a97;stroke-width:2;stroke-linecap:butt;stroke-linejoin:miter;stroke-miterlimit:10;stroke-dasharray:none;stroke-opacity:1"
                   d="M 9.06407,0 C 5.845653,0.00445522 2.233662,0.05159903 0,1.073967" /></g></g></g><g
             id="g288"><g
               id="g290"
               clip-path="url(#clipPath46)"><g
                 id="g292"
                 clip-path="url(#clipPath50)"><g
                   id="g294" /><g
                   id="g296"><g
                     id="g298"
                     clip-path="url(#clipPath54)"><g
                       id="g300" /><g
                       id="g302"><g
                         id="g304"
                         clip-path="url(#clipPath58)"><g
                           id="g306"
                           clip-path="url(#clipPath62)"><path
                             id="path308"
                             style="fill:#efa72d;fill-opacity:1;fill-rule:evenodd;stroke:none"
                             d="m 95.3139,87.90345 66.6861,0 0,-44.25612 -66.6861,0 0,44.25612 z" /></g></g></g></g></g></g></g></g><g
             id="g310"><g
               id="g312"
               clip-path="url(#clipPath66)"><g
                 id="g314"
                 clip-path="url(#clipPath70)"><g
                   id="g316" /><g
                   id="g318"><g
                     id="g320"
                     clip-path="url(#clipPath74)"><g
                       id="g322" /><g
                       id="g324"><g
                         id="g326"
                         clip-path="url(#clipPath78)"><g
                           id="g328"
                           clip-path="url(#clipPath82)"><path
                             id="path330"
                             style="fill:#f7c169;fill-opacity:1;fill-rule:evenodd;stroke:none"
                             d="m 95.313,111.0066 44.0557,0 0,-63.30849 -44.0557,0 0,63.30849 z" /></g></g></g></g></g></g></g></g><g
             id="g332"><g
               id="g334"
               clip-path="url(#clipPath86)"><g
                 id="g336"
                 clip-path="url(#clipPath90)"><g
                   id="g338" /><g
                   id="g340"><g
                     id="g342"
                     clip-path="url(#clipPath94)"><g
                       id="g344" /><g
                       id="g346"><g
                         id="g348"
                         clip-path="url(#clipPath98)"><g
                           id="g350"
                           clip-path="url(#clipPath102)"><path
                             id="path352"
                             style="fill:#0f5180;fill-opacity:1;fill-rule:evenodd;stroke:none"
                             d="m 42,91.33907 39.7712,0 0,-50.32403 -39.7712,0 0,50.32403 z" /></g></g></g></g></g></g></g></g><g
             id="g354"><g
               id="g356"
               clip-path="url(#clipPath106)"><g
                 id="g358"
                 clip-path="url(#clipPath110)"><g
                   id="g360" /><g
                   id="g362"><g
                     id="g364"
                     clip-path="url(#clipPath114)"><g
                       id="g366" /><g
                       id="g368"><g
                         id="g370"
                         clip-path="url(#clipPath118)"><g
                           id="g372"
                           clip-path="url(#clipPath122)"><path
                             id="path374"
                             style="fill:#efa72d;fill-opacity:1;fill-rule:evenodd;stroke:none"
                             d="m 42,57.25116 93.5865,0 0,-50.324029 -93.5865,0 0,50.324029 z" /></g></g></g></g></g></g></g></g><g
             id="g376"><g
               id="g378"
               clip-path="url(#clipPath126)"><g
                 id="g380"
                 clip-path="url(#clipPath130)"><g
                   id="g382" /><g
                   id="g384"><g
                     id="g386"
                     clip-path="url(#clipPath134)"><g
                       id="g388" /><g
                       id="g390"><g
                         id="g392"
                         clip-path="url(#clipPath138)"><g
                           id="g394"
                           clip-path="url(#clipPath142)"><path
                             id="path396"
                             style="fill:#efa72d;fill-opacity:1;fill-rule:evenodd;stroke:none"
                             d="m 64.95068,57.24928 42.25772,0 0,-50.185527 -42.25772,0 0,50.185527 z" /></g></g></g></g></g></g></g></g><g
             id="g398"><g
               id="g400"
               clip-path="url(#clipPath146)"><g
                 id="g402"
                 clip-path="url(#clipPath150)"><g
                   id="g404" /><g
                   id="g406"><g
                     id="g408"
                     clip-path="url(#clipPath154)"><g
                       id="g410" /><g
                       id="g412"><g
                         id="g414"
                         clip-path="url(#clipPath158)"><g
                           id="g416"
                           clip-path="url(#clipPath162)"><path
                             id="path418"
                             style="fill:#0f5180;fill-opacity:1;fill-rule:evenodd;stroke:none"
                             d="m 64.95068,91.33719 43.22152,0 0,-50.18552 -43.22152,0 0,50.18552 z" /></g></g></g></g></g></g></g></g><g
             id="g420"><g
               id="g422"
               clip-path="url(#clipPath166)"><g
                 id="g424" /><g
                 id="g426"><g
                   style="opacity:0.34250004"
                   id="g428"
                   clip-path="url(#clipPath170)"><g
                     id="g430" /><g
                     id="g432"><g
                       id="g434"
                       clip-path="url(#clipPath174)"><g
                         id="g436"
                         clip-path="url(#clipPath178)"><path
                           id="path438"
                           style="fill:#4a90e2;fill-opacity:1;fill-rule:evenodd;stroke:none"
                           d="m 472.3132,345.6677 488.5515,0 0,-300.61777 -488.5515,0 0,300.61777 z" /></g></g></g></g></g></g></g><g
             id="g440"><g
               id="g442"
               clip-path="url(#clipPath182)"><g
                 id="g444"
                 clip-path="url(#clipPath186)"><g
                   id="g446"
                   transform="matrix(0.9455186,0.3255682,0.3255682,-0.9455186,662.8757,199.6942)"><text
                     id="text448"
                     style="font-variant:normal;font-weight:normal;font-size:36px;font-family:TimesNewRomanPSMT;-inkscape-font-specification:TimesNewRomanPSMT;writing-mode:lr-tb;fill:#0b6593;fill-opacity:1;fill-rule:nonzero;stroke:none"
                     transform="translate(0,32)"><tspan
                       id="tspan450"
                       y="0"
                       x="0 24.011999 34.012798 56.793598 79.574402 95.551201 113.5512 123.552 142.8192 162.0864">Кіммерійці</tspan></text>
</g></g></g></g></g></g></g></g></svg>