<?xml version="1.0" encoding="UTF-8" standalone="no"?>
<svg width="1149px" height="623px" viewBox="0 0 1149 623" version="1.1" xmlns="http://www.w3.org/2000/svg" xmlns:xlink="http://www.w3.org/1999/xlink" xmlns:sketch="http://www.bohemiancoding.com/sketch/ns">
    <!-- Generator: Sketch 3.2.2 (9983) - http://www.bohemiancoding.com/sketch -->
    <title>Group 6</title>
    <desc>Created with Sketch.</desc>
    <defs>
        <path id="path-1" d="M23.4206789,-0.933270732 L-0.687593722,19.9880096 L21.9918349,24.1237633 L46.1001075,3.20246236 L23.4206789,-0.933270732 L23.4206789,-0.933270732 Z"></path>
        <path id="path-3" d="M-0.688515725,44.731667 L23.4195965,23.8103867 L23.4195965,-0.00677660498 L-0.688515725,20.9145037 L-0.688515725,44.731667 L-0.688515725,44.731667 Z"></path>
        <path id="path-5" d="M0,24.7039688 C0,30.4548065 4.27200045,31.0852581 6.96098197,30.961647 C6.96098197,30.961647 17.4808152,30.5655255 19.8142042,30.2375006 L19.8142042,25.3493991 L8.32027489,25.3493991 C7.12580002,25.3493991 5.7850073,25.3918769 5.76648706,23.1341311 L5.76648706,18.2693758 L17.9400729,17.8668289 L17.9400729,12.9637486 L5.76648706,12.5143647 L5.76648706,7.64958872 C5.76648706,6.49938398 5.76648706,5.26403782 7.90829992,5.26403782 L19.8142042,5.26403782 L19.8142042,0.333293267 C17.1636261,-0.041589347 6.5491874,-0.348210062 6.5491874,-0.348210062 C3.70567016,-0.405831864 0,0.715634278 0,6.12677401 L0,24.7039688 L0,24.7039688 Z"></path>
        <path d="M0,24.7947712 C0,30.5456089 4.27200045,31.1760811 6.96098197,31.05247 C6.96098197,31.05247 17.4808152,30.6563486 19.8142042,30.3283237 L19.8142042,25.4402222 L8.32027489,25.4402222 C7.12580002,25.4402222 5.7850073,25.4826999 5.76648706,23.2249541 L5.76648706,18.3601988 L17.9400729,17.9576313 L17.9400729,13.0545717 L5.76648706,12.605167 L5.76648706,7.74041175 C5.76648706,6.59020702 5.76648706,5.35486086 7.90829992,5.35486086 L19.8142042,5.35486086 L19.8142042,0.424095641 C17.1636261,0.049233688 6.5491874,-0.257387027 6.5491874,-0.257387027 C3.70567016,-0.315008829 0,0.806457313 0,6.21759705 L0,24.7947712 L0,24.7947712 Z M47.2209023,30.9246649 L53.4156797,30.9246649 L55.5905043,24.015255 L65.4656971,24.015255 L67.6075099,30.9246649 L73.7467468,30.9246649 L63.9540332,-0.257387027 L57.3945835,-0.257387027 L47.2209023,30.9246649 L47.2209023,30.9246649 Z M57.0878371,18.7308874 L60.712371,7.6019872 L64.100331,18.7308874 L57.0878371,18.7308874 L57.0878371,18.7308874 Z" id="path-7"></path>
        <path d="M0.952749745,30.9247062 L6.71925685,30.9247062 L6.71925685,18.5286016 L11.7855628,19.1249635 L16.76953,30.9247062 L23.2589475,30.9247062 L17.5500255,18.645622 C19.2243227,18.1004565 22.3506744,17.1846231 22.3506744,9.46576017 C22.3506744,2.01938696 18.8495686,-0.257510989 14.1437057,-0.257510989 L0.952749745,-0.257510989 L0.952749745,30.9247062 L0.952749745,30.9247062 Z M6.74196619,13.8426619 L6.74196619,5.04602948 L13.5773553,5.04602948 C15.3896924,5.04602948 16.5429377,5.92357916 16.5429377,9.46576017 C16.5429377,13.2336145 15.5853374,13.8426619 13.5773553,13.8426619 L6.74196619,13.8426619 L6.74196619,13.8426619 Z" id="path-9"></path>
        <path d="M0.952749745,30.8339039 L13.7647424,30.8339039 C21.1252122,30.8339039 24.2248057,24.5506068 24.2248057,15.3705797 C24.2248057,7.64529136 22.4432756,-0.348313364 13.7647424,-0.348313364 L0.952749745,-0.348313364 L0.952749745,30.8339039 L0.952749745,30.8339039 Z M6.71925685,25.5153846 L6.71925685,4.9127287 L13.3116982,4.9127287 C16.5264419,4.9127287 18.4582986,6.98504756 18.4582986,15.328102 C18.4582986,21.5836935 17.0495182,25.5153846 13.3116982,25.5153846 L6.71925685,25.5153846 L6.71925685,25.5153846 Z" id="path-11"></path>
    </defs>
    <g id="Page-1" stroke="none" stroke-width="1" fill="none" fill-rule="evenodd" sketch:type="MSPage">
        <g id="Group" sketch:type="MSLayerGroup" transform="translate(2.000000, 1.000000)">
            <g>
                <g id="seredz" transform="translate(26.513427, 489.552699)">
                    <g id="Group-9" transform="translate(54.227327, 24.606008)">
                        <mask id="mask-2" sketch:name="Clip 8" fill="white">
                            <use xlink:href="#path-1"></use>
                        </mask>
                        <g id="Clip-8"></g>
                        <path d="M-10.7093649,-11.2634612 L56.1218787,-11.2634612 L56.1218787,34.4539538 L-10.7093649,34.4539538 L-10.7093649,-11.2634612 Z" id="Fill-7" fill="#EFA72C" sketch:type="MSShapeGroup" mask="url(#mask-2)"></path>
                    </g>
                    <g id="Group-12" transform="translate(54.227327, -0.186449)">
                        <mask id="mask-4" sketch:name="Clip 11" fill="white">
                            <use xlink:href="#path-3"></use>
                        </mask>
                        <g id="Clip-11"></g>
                        <path d="M-10.7102869,-10.3369671 L33.4413677,-10.3369671 L33.4413677,55.0618575 L-10.7102869,55.0618575 L-10.7102869,-10.3369671 Z" id="Fill-10" fill="#F7C169" sketch:type="MSShapeGroup" mask="url(#mask-4)"></path>
                    </g>
                    <g id="Group-15" transform="translate(0.109762, 20.473932)">
                        <mask id="mask-6" sketch:name="Clip 14" fill="white">
                            <use xlink:href="#path-5"></use>
                        </mask>
                        <g id="Clip-14"></g>
                        <path d="M-10.0217712,-10.6804666 L29.8359754,-10.6804666 L29.8359754,41.3052254 L-10.0217712,41.3052254 L-10.0217712,-10.6804666 Z" id="Fill-13" fill="#0E5180" sketch:type="MSShapeGroup" mask="url(#mask-6)"></path>
                    </g>
                    <g id="Group-18" transform="translate(0.109762, 55.596580)">
                        <mask id="mask-8" sketch:name="Clip 17" fill="white">
                            <use xlink:href="#path-7"></use>
                        </mask>
                        <g id="Clip-17"></g>
                        <path d="M-10.0217712,-10.5896436 L83.768518,-10.5896436 L83.768518,41.3960278 L-10.0217712,41.3960278 L-10.0217712,-10.5896436 Z" id="Fill-16" fill="#EFA72C" sketch:type="MSShapeGroup" mask="url(#mask-8)"></path>
                    </g>
                    <g id="Group-21" transform="translate(22.157659, 55.596580)">
                        <mask id="mask-10" sketch:name="Clip 20" fill="white">
                            <use xlink:href="#path-9"></use>
                        </mask>
                        <g id="Clip-20"></g>
                        <path d="M-9.06902146,-10.5877015 L33.2807187,-10.5877015 L33.2807187,41.2548968 L-9.06902146,41.2548968 L-9.06902146,-10.5877015 Z" id="Fill-19" fill="#EFA72C" sketch:type="MSShapeGroup" mask="url(#mask-10)"></path>
                    </g>
                    <g id="Group-24" transform="translate(22.157659, 20.473932)">
                        <mask id="mask-12" sketch:name="Clip 23" fill="white">
                            <use xlink:href="#path-11"></use>
                        </mask>
                        <g id="Clip-23"></g>
                        <path d="M-9.06902146,-10.6785039 L34.246577,-10.6785039 L34.246577,41.1640944 L-9.06902146,41.1640944 L-9.06902146,-10.6785039 Z" id="Fill-22" fill="#0E5180" sketch:type="MSShapeGroup" mask="url(#mask-12)"></path>
                    </g>
                </g>
                <path d="M18.2688846,387.086071 L9.10650822,390.14604" id="Line" stroke="#EFA731" stroke-width="3" stroke-linecap="square" sketch:type="MSShapeGroup"></path>
                <path d="M977.264278,84.1491458 L984.5,78.5" id="Line" stroke="#EFA731" stroke-width="3" stroke-linecap="square" sketch:type="MSShapeGroup"></path>
                <path d="M482.495954,145.348525 L488.604205,139.228587" id="Line" stroke="#EFA731" stroke-width="3" stroke-linecap="square" sketch:type="MSShapeGroup"></path>
                <path d="M412.251068,298.346971 L409.196943,301.40694" id="Line" stroke="#EFA731" stroke-width="3" stroke-linecap="square" sketch:type="MSShapeGroup"></path>
                <path d="M378.655688,319.766754 L387.818065,325.886692" id="Line" stroke="#EFA731" stroke-width="3" stroke-linecap="square" sketch:type="MSShapeGroup"></path>
                <path d="M800.125001,439.105543 L806.233252,442.165512" id="Line" stroke="#EFA731" stroke-width="3" stroke-linecap="square" sketch:type="MSShapeGroup"></path>
                <path d="M412.251068,261.627344 L406.142817,264.687313" id="Line" stroke="#EFA731" stroke-width="3" stroke-linecap="square" sketch:type="MSShapeGroup"></path>
                <path d="M285.991735,0.326963072 C273.961505,20.4041205 243.022048,5.95611525 227.331621,16.279991 C219.357279,21.526892 230.356325,35.2755426 208.931249,35.2755426 C204.068282,35.2755426 176.777895,21.7370367 173.931418,30.4224373 C165.296465,56.7701109 204.73083,59.4183662 210.595542,70.9147563 C213.9261,77.4435328 217.04456,115.990586 215.023306,117.927658 C208.152356,124.512445 201.154528,120.817736 197.312249,128.604489 C193.781731,135.759428 196.361633,144.514923 193.021106,151.20876 C176.499338,184.315518 84.9785728,130.668231 64.9140251,145.801903 C61.7049137,148.222373 55.7591458,161.734994 59.7907355,165.774297 C60.9641537,166.949961 74.1271643,169.565617 71.5525664,172.568645 C64.4272681,180.879639 53.2040273,186.985971 48.8610509,199.472269 C47.1273769,204.456678 47.5827944,225.995385 44.4394967,229.00777 C39.4378272,233.801129 27.1755323,236.00012 16.9041438,246.758935 C13.100507,250.743073 30.1148789,252.4958 27.8338283,261.741342 C25.7058863,270.366306 8.68868049,278.12709 17.0407648,290.586209 C21.689411,297.520769 32.0131942,290.020201 36.968809,293.354967 C50.525198,302.477425 38.575015,321.676288 47.0663471,330.107906 C52.4065984,335.410603 63.9509705,329.286114 67.6774965,333.01977 C69.8452236,335.191644 62.3017685,342.049967 65.3300983,345.084091 C66.3120272,346.067899 97.0434312,337.749036 98.1191519,336.622267 C102.113417,332.438455 109.339505,349.131021 113.33377,344.947209 C121.776575,336.103752 133.925934,342.179207 143.495973,334.961012 C147.232515,332.142727 145.772385,324.345774 149.861272,322.342938 C155.667722,319.498798 174.490621,325.111397 178.775256,320.818565 C189.612151,309.960935 188.571584,256.630049 192.331791,252.862648 C196.745569,248.440425 254.871746,224.154664 264.411818,224.154664 C266.472211,224.154664 273.461906,225.240514 274.236114,223.327148 C277.651605,214.88615 289.265491,171.862163 310.204712,182.828607 C315.095847,185.390228 319.788895,196.588849 325.698782,200.162903 C329.498782,202.460985 379.534337,193.785425 382.974055,193.785425 C386.487286,193.785425 408.676292,170.798544 412.03087,176.451129 C426.343105,200.56776 443.097641,206.045911 466.815914,218.467821 C470.784199,220.546121 464.295781,233.825101 465.015,238.023346 C465.801752,242.615804 475.373259,244.876316 478.993818,247.312687 C482.321146,249.551735 480.823266,256.779943 483.558203,259.520113 C504.050262,280.05138 566.425084,295.285092 566.425084,331.632279 C566.425084,344.54656 537.819962,365.245532 524.370639,357.148413 C520.47439,354.80269 520.451962,345.133799 517.036572,343.422836 C514.328548,342.066233 486.874369,352.412372 486.874369,355.487158 C486.874369,365.271109 501.170718,359.637425 503.343416,363.94276 C510.962711,379.040864 517.451593,402.950007 541.38617,392.650744 C551.21032,388.423325 546.809116,358.796345 551.763161,352.84906 C557.370256,346.117793 562.203045,363.612742 569.331386,358.81589 C580.766729,351.120741 580.005295,333.098524 590.364819,323.170455 C600.783394,313.185794 577.020338,309.499961 588.563905,297.934308 C597.13582,289.345993 619.283173,312.473323 623.563736,305.282407 C636.770531,283.096315 597.38244,285.741581 596.171214,268.11882 C595.293994,255.355692 580.718039,263.963528 571.684995,258.549492 C566.970223,255.723652 572.190651,242.505456 572.101068,242.459582 C569.483218,241.11901 560.156236,254.340553 557.296313,251.475158 C533.74537,227.879154 476.500587,184.233454 483.415372,143.443792" id="Path" stroke="#EFA731" stroke-width="3" sketch:type="MSShapeGroup"></path>
                <path d="M406.142817,249.387468 L415.305194,252.447437" id="Line" stroke="#EFA731" stroke-width="3" stroke-linecap="square" sketch:type="MSShapeGroup"></path>
                <path d="M488.402041,140.531928 C504.883448,134.407347 494.91795,146.908205 500.710356,152.459368 C504.434758,156.028655 518.251901,150.637284 521.743788,153.983741 C525.767712,157.840076 521.075623,165.269149 523.26525,169.656782 C523.833633,170.795722 537.464484,171.408214 540.144161,174.093018 C562.220531,196.211627 578.391988,225.004378 605.163364,243.019555 C611.898664,247.55192 636.213032,225.982615 642.380181,235.39147 C650.202627,247.325711 641.019649,277.955658 647.087398,292.110581 C654.071518,308.403228 688.823749,337.280408 701.456368,349.937197 C704.302639,352.788913 699.01162,363.047848 700.35098,367.13461 C701.832307,371.654556 710.066139,378.235909 708.09491,383.218299 C707.876246,383.770984 695.140638,393.848476 699.934907,395.425725 C709.222343,398.481166 744.93506,392.063437 745.864422,381.693926 C746.14303,378.585311 738.91631,366.891021 741.71611,364.085865 C750.163282,355.62253 751.677027,361.48842 751.677027,347.579085 C751.677027,345.738122 777.198277,334.685285 766.34516,324.28418 C762.747074,320.835948 754.175968,332.026595 749.46625,328.857299 C745.073406,325.901236 750.174276,312.38176 745.727801,309.028008 C742.046088,306.251079 735.566485,315.621573 732.307887,312.356741 C705.250189,285.247273 797.236954,285.316234 806.188828,285.316234 C816.207104,285.316234 800.850573,316.011074 812.690749,331.769162 C816.657393,337.048368 825.775554,328.970451 830.395596,340.647855 C832.911966,347.008117 835.112971,369.087212 838.282357,372.124598 C841.499549,375.2078 854.384175,365.361061 855.993414,368.658983 C858.228346,373.239183 854.109657,379.92344 855.713961,384.605789 C857.293283,389.215225 870.778402,384.113688 874.530407,385.99328 C879.734662,388.600386 882.705016,393.472632 886.292238,397.230085 C887.653712,398.656167 903.977038,388.877113 906.766766,387.797639 C913.419657,385.223331 926.06836,389.588376 930.010976,383.218299 C957.452757,338.880667 945.529968,383.494678 963.352724,372.124598 C967.081171,369.746024 970.535677,353.867567 973.450262,355.344054 C978.503235,357.903816 995.767653,370.247097 998.905249,369.629604 C1001.71624,369.076389 1022.84862,336.638356 1028.788,342.589098 C1041.88,355.706144 1026.25305,363.532744 1028.09868,377.25769 C1029.1903,385.37539 1045.7944,381.130863 1044.28828,394.318222 C1042.95014,406.034778 1027.55221,394.465886 1031.14161,409.01442 C1032.70055,415.333118 1040.73954,415.317215 1041.93467,421.358728 C1047.18534,447.901412 1028.37792,462.429869 1017.03238,479.739095 C1008.39989,492.909172 1029.68807,492.805893 999.737395,507.476458 C991.419016,511.551002 988.895852,493.2548 982.026338,495.549019 C977.693219,496.996156 975.878194,506.352414 971.649348,508.447079 C964.930933,511.774898 955.317768,505.478032 948.827422,506.22585 C925.595002,508.90269 954.275601,526.017725 873.977713,516.765799 C860.769767,515.243979 849.1798,534.439127 837.176968,531.331337 C816.846868,526.067439 786.862995,514.74984 767.171097,508.173314 C762.495477,506.611793 756.605049,513.102802 756.378033,513.02642 C750.510167,511.052097 747.040166,501.269996 740.747342,499.71149 C730.330959,497.131727 731.005043,512.308033 718.614731,508.727066 C713.87278,507.356579 713.485414,499.77149 706.989521,501.235863 C674.981255,508.451502 677.233562,571.200082 639.337258,566.833668 C610.885851,563.555496 599.251863,544.934342 584.552214,539.096305 C580.298025,537.406734 568.406233,539.948713 565.87239,538.262567 C561.339843,535.246384 563.524255,524.963938 559.786543,523.006395 C550.347544,518.062932 539.34692,537.808471 532.530642,533.272579 C522.548982,526.630285 523.627795,504.10885 509.845336,499.574607 C499.033634,496.017704 450.420395,501.355931 434.306312,471.837245 C412.167571,431.28225 461.000695,394.054166 410.925481,364.222747 C407.78739,362.353285 363.264841,384.885776 350.327833,384.885776 C344.135379,384.885776 343.084924,378.029205 337.181161,376.567056 C328.162562,374.333474 322.630245,383.903251 312.974394,382.944534 C298.77543,381.534737 286.359744,372.729918 274.093283,370.183356 C263.28024,367.938529 243.667895,385.867015 229.411987,378.645181 C223.392746,375.595921 217.811298,363.399098 208.521386,368.105232 C193.16341,375.885358 110.776813,395.172093 97.7030787,388.76826 C93.7818126,386.847529 93.1180985,379.279546 88.7109292,377.120808 C81.2597311,373.47103 67.0720894,383.871745 58.9647991,374.06584 C56.6269667,371.238192 60.597308,351.0447 56.7478119,351.0447 C51.1154539,351.0447 23.69032,384.953566 15.382682,388.905143" id="Path" stroke="#EFA731" stroke-width="3" sketch:type="MSShapeGroup"></path>
                <path d="M662.213312,309.932881 C662.213312,309.932881 668.613646,316.635849 670.669338,318.808657 C677.336447,325.855603 691.301258,338.454611 691.301258,338.454611 C691.301258,338.454611 698.69724,343.95318 703.816344,350.917141 C705.327118,352.972377 700.411038,362.151092 701.291064,366.089609 C702.581408,371.864483 712.07788,378.161974 710.150769,382.826877 C708.223659,387.491779 699.220543,391.000962 700.458051,393.954224 C701.695559,396.907487 720.168769,393.243968 720.168769,393.243968 C720.168769,393.243968 737.02657,389.506768 742.082145,385.655308 C747.13772,381.803848 740.605518,371.111216 740.605518,371.111216 C740.605518,371.111216 739.886139,366.436182 740.109302,364.153793 C740.332465,361.871403 747.087166,358.036132 748.912786,356.440884 C750.605131,354.962093 749.100386,349.093331 751.077716,346.149463 C753.055046,343.205595 759.867098,340.36969 759.867098,340.36969 C759.867098,340.36969 765.501367,335.041876 766.571576,332.447364 C766.877711,331.705201 767.443207,330.041707 767.269785,328.864547 C767.010421,327.104042 766.088269,325.475812 765.340794,325.197239 C763.405274,324.475899 757.200616,329.312573 757.200616,329.312573 C757.200616,329.312573 750.262823,333.89604 746.040598,327.706259 C745.008036,326.192524 745.726957,324.208829 745.73085,322.461643 C745.742875,317.064448 748.151752,311.562865 746.040598,309.932881 C744.764466,308.947602 737.540106,314.980627 733.263652,312.951977 C728.175173,310.538121 724.837894,302.083644 724.403867,301.194963 C722.104748,296.487462 722.533714,300.988295 701.291065,299.593119 C672.668002,297.713212 662.213312,309.932881 662.213312,309.932881 Z" id="Path-50" opacity="0.690648321" fill="#D0011B" sketch:type="MSShapeGroup"></path>
                <g id="Group-6" transform="translate(0.239435, 1.233663)" stroke="#EFA731" stroke-width="3" stroke-linecap="square" sketch:type="MSShapeGroup">
                    <path d="M-0.211478625,615.97636 L-0.211478625,1.30336236" id="Stroke-2"></path>
                    <path d="M-0.211478625,0.145292593 L1145.25259,0.145292593" id="Stroke-3"></path>
                    <path d="M2.84993591,618.653005 L1145.09003,618.653005" id="Stroke-4"></path>
                    <path d="M1144.75756,0.145292593 L1144.75756,618.044857" id="Stroke-5"></path>
                </g>
                <ellipse id="Oval-7" stroke="#000000" fill="#D0011B" sketch:type="MSShapeGroup" cx="952.831274" cy="139.228587" rx="4.58118818" ry="4.58995341"></ellipse>
                <text id="Херсонес" sketch:type="MSTextLayer" font-family="Times New Roman" font-size="26.496" font-weight="normal" fill="#000000">
                    <tspan x="882.059326" y="165.81854">Херсонес</tspan>
                </text>
                <path d="M904.819355,98.9556918 C918.278875,104.094554 931.381194,99.0053071 945.086512,109.916978 C950.835581,114.494175 920.706133,122.707722 925.30028,128.82207 C930.372526,135.572721 965.19811,151.981998 970.247246,147.3083 C976.917357,141.134158 978.287784,130.25046 985.723895,124.641778 C986.28156,124.221159 1002.66194,118.276838 998.559051,114.980842 C994.848936,112.000373 979.889752,112.855265 975.854697,113.865958 C943.346337,122.008598 976.73096,96.8825436 976.364277,84.1850463" id="Path" stroke="#EFA731" stroke-width="3" sketch:type="MSShapeGroup"></path>
                <text id="Ольвія" sketch:type="MSTextLayer" font-family="Times New Roman" font-size="25.92" font-weight="normal" fill="#000000">
                    <tspan x="841.355695" y="75.0194719">Ольвія</tspan>
                </text>
                <ellipse id="Oval-5" stroke="#000000" fill="#D0011B" sketch:type="MSShapeGroup" cx="885.640514" cy="90.2690837" rx="4.58118818" ry="4.58995341"></ellipse>
                <path d="M984.516274,78.473091 C998.835131,71.6726826 1028.12471,70.976671 1037.61859,56.037881 C1044.86877,44.6295881 1016.32472,101.491097 1029.92498,121.482593 C1048.45117,148.714888 1159.20663,159.610935 1119.35509,210.800403 C1118.10583,212.405083 980.926222,212.967085 960.326861,219.394385 C948.671675,223.030972 941.563809,240.443538 931.18101,246.703824 C927.259949,249.068019 902.804421,245.398187 893.18512,248.191725 C881.316568,251.638467 857.946769,297.483741 834.801901,274.29459 C814.177766,253.630994 886.61113,256.940413 874.650996,243.267482 C835.990472,199.070432 862.583105,220.198753 853.011558,191.572307 C851.476549,186.981423 843.318695,190.942391 843.65194,185.858268 C844.708002,169.746564 869.605072,176.858463 875.901025,158.500898 C883.642057,135.929812 882.973127,94.7437072 903.241509,91.6641443" id="Path" stroke="#EFA731" stroke-width="3" sketch:type="MSShapeGroup"></path>
                <text id="Пантікапей" sketch:type="MSTextLayer" font-family="Times New Roman" font-size="26.496" font-weight="normal" fill="#000000">
                    <tspan x="981.79134" y="105.559192">Пантікапей</tspan>
                </text>
                <ellipse id="Oval-6" stroke="#000000" fill="#D0011B" sketch:type="MSShapeGroup" cx="952.831274" cy="139.228587" rx="4.58118818" ry="4.58995341"></ellipse>
                <text id="Мілет" sketch:type="MSTextLayer" font-family="Times New Roman" font-size="25.92" font-weight="normal" fill="#000000">
                    <tspan x="849.463946" y="349.296738">Мілет</tspan>
                </text>
                <ellipse id="Oval-4" stroke="#000000" fill="#D0011B" sketch:type="MSShapeGroup" cx="842.882758" cy="356.486381" rx="4.58118818" ry="4.58995341"></ellipse>
                <text id="Візантій" sketch:type="MSTextLayer" font-family="Times New Roman" font-size="25.92" font-weight="normal" fill="#000000">
                    <tspan x="734.461304" y="246.377732">Візантій</tspan>
                </text>
                <ellipse id="Oval-3" stroke="#000000" fill="#D0011B" sketch:type="MSShapeGroup" cx="821.503879" cy="261.627344" rx="4.58118818" ry="4.58995341"></ellipse>
                <text id="Спарта" sketch:type="MSTextLayer" font-family="Times New Roman" font-size="25.92" font-weight="normal" fill="#000000">
                    <tspan x="664.216418" y="414.676024">Спарта</tspan>
                </text>
                <ellipse id="Oval-2" stroke="#000000" fill="#D0011B" sketch:type="MSShapeGroup" cx="720.717739" cy="384.026102" rx="4.58118818" ry="4.58995341"></ellipse>
                <ellipse id="Oval-8" stroke="#000000" fill="#D0011B" sketch:type="MSShapeGroup" cx="983.372528" cy="117.808804" rx="4.58118818" ry="4.58995341"></ellipse>
                <path d="M897.857016,93.3290526 L907.019392,99.4489905" id="Line" stroke="#EFA731" stroke-width="3" stroke-linecap="square" sketch:type="MSShapeGroup"></path>
                <path d="M988.110406,396.606927 C953.1469,412.105004 979.32047,421.179612 1002.54162,406.724685" id="Path" stroke="#EFA731" stroke-width="3" sketch:type="MSShapeGroup"></path>
                <path d="M1024.90605,391.600513 C1020.51347,396.69795 1004.25068,390.16912 993.900115,391.825145" id="Path" stroke="#EFA731" stroke-width="3" sketch:type="MSShapeGroup"></path>
                <path d="M1003.57885,404.039208 C1006.65052,396.58481 1011.92373,397.091594 1018.54613,396.000654" id="Path" stroke="#EFA731" stroke-width="3" sketch:type="MSShapeGroup"></path>
                <path d="M989.480779,396.265977 L995.58903,393.207745" id="Line" stroke="#EFA731" stroke-width="3" stroke-linecap="square" sketch:type="MSShapeGroup"></path>
                <path d="M1004.75141,402.385915 L1001.69728,408.505853" id="Line" stroke="#EFA731" stroke-width="3" stroke-linecap="square" sketch:type="MSShapeGroup"></path>
                <path d="M819.26949,424.9748 C859.459733,421.054862 828.904782,445.77778 806.507022,442.643728" id="Path" stroke="#EFA731" stroke-width="3" sketch:type="MSShapeGroup"></path>
                <path d="M802.026616,438.500941 C787.142994,434.511516 735.242712,414.139177 780.140009,409.854204" id="Path" stroke="#EFA731" stroke-width="3" sketch:type="MSShapeGroup"></path>
                <path d="M782.699889,410.422419 C789.162198,420.754721 799.062217,425.508611 812.924368,424.20512" id="Path" stroke="#EFA731" stroke-width="3" sketch:type="MSShapeGroup"></path>
                <path d="M778.746123,408.505853 L781.800248,411.565822" id="Line" stroke="#EFA731" stroke-width="3" stroke-linecap="square" sketch:type="MSShapeGroup"></path>
                <path d="M812.341503,423.805698 L818.449754,423.805698" id="Line" stroke="#EFA731" stroke-width="3" stroke-linecap="square" sketch:type="MSShapeGroup"></path>
                <path d="M417.855508,209.199641 C410.336794,220.628015 389.385471,241.20868 407.961832,250.914621" id="Path" stroke="#EFA731" stroke-width="3" sketch:type="MSShapeGroup"></path>
                <path d="M407.281977,263.934604 C364.946208,277.033058 412.819598,270.269197 379.756276,318.740214" id="Path" stroke="#EFA731" stroke-width="3" sketch:type="MSShapeGroup"></path>
                <path d="M412.837633,260.197738 C433.050388,255.41122 415.179747,268.52806 416.050631,269.551502 C429.67239,285.559473 423.635136,282.624565 411.970449,299.093198" id="Path" stroke="#EFA731" stroke-width="3" sketch:type="MSShapeGroup"></path>
                <path d="M409.766709,300.902584 C399.077803,314.62206 408.635843,330.917247 386.930534,326.449081" id="Path" stroke="#EFA731" stroke-width="3" sketch:type="MSShapeGroup"></path>
                <path d="M423.599545,213.03035 C427.991613,226.541261 425.371168,243.712233 414.50254,253.50006" id="Path" stroke="#EFA731" stroke-width="3" sketch:type="MSShapeGroup"></path>
                <path d="M418.359319,209.607872 L424.46757,212.667841" id="Line" stroke="#EFA731" stroke-width="3" stroke-linecap="square" sketch:type="MSShapeGroup"></path>
                <text id="Афіни" sketch:type="MSTextLayer" font-family="Times New Roman" font-size="25.92" font-weight="normal" fill="#000000">
                    <tspan x="749.595297" y="363.996894">Афіни</tspan>
                </text>
                <path d="M178.615594,311.085482 C174.752217,302.885038 178.266415,300.696334 177.174124,287.940016 C175.595385,269.50273 172.078024,261.151211 180.935977,248.830654 C189.79393,236.510097 218.222033,230.846339 218.222033,230.846339 C218.222033,230.846339 237.476401,230.3456 256.025178,216.554197 C266.736893,208.589813 276.526476,199.331562 281.725379,188.007571 C285.529076,179.722548 280.950429,167.987801 302.039055,166.539584 C351.951671,163.111941 406.415561,174.322114 406.415561,174.322114 L385.09512,191.810293 L368.618747,194.592082 L325.157315,199.691304 C325.157315,199.691304 314.013514,179.939877 304.966745,179.939877 C295.919977,179.939877 292.803659,186.146936 292.803659,186.146936 C292.803659,186.146936 282.948973,195.197921 279.429018,206.411198 C277.850636,211.439341 275.482122,215.566509 274.56233,219.608828 C273.933306,222.373276 274.198706,224.91298 271.040954,224.450443 C252.968431,221.803238 243.557196,229.004177 229.28195,234.211285 C215.992563,239.058785 191.995274,253.090603 191.995274,253.090603 C191.995274,253.090603 190.025664,259.265911 189.339437,262.773549 C188.263692,268.272197 188.493442,277.2998 187.617521,284.631449 C186.542648,293.62838 183.727243,302.183273 183.727243,302.183273 C183.727243,302.183273 182.478971,319.285926 178.615594,311.085482 Z" id="Path-51" fill-opacity="0.300000668" fill="#D0011B" sketch:type="MSShapeGroup"></path>
                <path d="M422.389221,213.006792 C422.389221,213.006792 422.199485,213.792255 422.104617,214.184986 C419.396182,225.397248 413.969619,249.760003 413.969619,249.760003 L416.8436,251.650892 C416.8436,251.650892 423.328232,237.945859 424.447777,231.247104 C425.567322,224.54835 422.389221,213.006792 422.389221,213.006792 Z" id="Path-52" fill-opacity="0.3" fill="#D0011B" sketch:type="MSShapeGroup"></path>
                <path d="M481.707624,157.827991 C481.578426,157.460317 480.879436,157.827991 480.879436,157.827991 C480.879436,157.827991 481.707624,155.98926 481.707624,155.481265 C481.707624,152.149931 480.879436,146.310005 480.879436,146.310005 L478.939977,144.55748 C478.939977,144.55748 465.204678,151.324194 467.683785,157.827991 C470.162893,164.331788 485.728472,171.627464 485.728472,171.627464 C485.728472,171.627464 483.194771,162.060142 481.707624,157.827991 Z" id="Path-53" opacity="0.3" fill="#D0011B" sketch:type="MSShapeGroup"></path>
                <path d="M510.361401,207.108516 C505.364039,201.609393 496.205605,189.64941 496.205605,189.64941 C496.205605,189.64941 498.853277,207.398497 505.843631,218.054049 C512.833985,228.709602 529.559061,226.35172 529.559061,226.35172 C529.559061,226.35172 516.481857,213.843497 510.361401,207.108516 Z" id="Path-54" fill-opacity="0.3" fill="#D0011B" sketch:type="MSShapeGroup"></path>
                <path d="M511.713699,276.116043 L503.747201,271.323439 L514.313151,271.656586 L539.033098,278.47052 C539.033098,278.47052 550.460601,286.989248 567.130374,285.969514 C583.800146,284.94978 596.294439,273.668476 596.294439,273.668476 C596.294439,273.668476 600.353469,278.871178 602.956412,280.581767 C605.388325,282.179961 608.832703,283.228482 612.263992,285.039864 C618.013182,288.074869 623.623157,291.628236 623.623157,291.628236 L624.781029,297.181878 L622.835354,302.597757 C622.835354,302.597757 623.157122,305.721977 619.936534,304.912525 C615.06962,303.68929 605.436067,298.095642 600.744898,295.763703 C592.949437,291.888646 585.538276,296.308781 584.545018,300.533737 C583.551761,304.758692 584.508802,307.147292 584.508802,307.147292 L589.019424,313.802712 C589.019424,313.802712 592.880245,314.640297 591.43312,319.252188 C589.985995,323.864078 584.508802,328.177762 584.508802,328.177762 L574.549323,349.514312 C574.549323,349.514312 572.811488,354.087714 571.333352,355.641775 C569.990743,357.053347 566.087087,358.411212 566.087087,358.411212 L556.592932,349.514316 L564.99623,340.234071 L568.626985,331.204996 C568.626985,331.204996 566.881787,323.428767 564.99623,317.866557 C563.110673,312.304347 560.353221,310.607685 557.921825,307.147292 C555.49043,303.6869 553.294339,302.341095 543.33219,294.361061 C533.370041,286.381028 511.713699,276.116043 511.713699,276.116043 Z" id="Path-55" fill-opacity="0.3" fill="#D0011B" sketch:type="MSShapeGroup"></path>
                <path d="M528.978556,360.535072 C528.978556,359.962325 532.551027,393.14133 532.551027,393.14133 C532.551027,393.14133 534.29172,393.091086 534.9002,393.14133 C535.397491,393.182393 538.033715,392.184209 538.695754,391.927004 C540.189133,391.34682 541.603595,390.685696 541.603595,390.685696 C541.603595,390.685696 542.875297,389.201602 543.540768,387.710737 C543.968831,386.75174 544.996258,383.949911 544.996258,383.949911 C544.996258,383.949911 545.86295,381.489823 545.916181,380.795972 C546.592152,371.984927 548.412952,355.568882 548.412952,355.568882 L542.252967,358.745705 L537.465317,360.069907 L532.551027,360.792857" id="Path-56" fill-opacity="0.3" fill="#D0011B" sketch:type="MSShapeGroup"></path>
                <path d="M488.642261,356.327773 C488.408026,354.824764 493.82817,352.994035 494.379199,352.631942 C495.702973,351.762062 498.483139,350.699018 500.152319,349.958591 C507.473989,346.710788 510.245041,346.441454 514.551214,345.147514 C518.857388,343.853575 518.549891,350.313078 519.697038,353.051643 C520.501818,354.972881 522.221707,357.732657 522.221707,357.732657 L507.557382,368.533506 C507.557382,368.533506 505.935013,364.400966 504.160369,362.033234 C503.382692,360.995655 502.921502,361.271621 501.972691,360.741801 L492.717674,359.801832 C489.463807,358.848642 488.876497,357.830782 488.642261,356.327773 Z" id="Path-57" fill-opacity="0.3" fill="#D0011B" sketch:type="MSShapeGroup"></path>
                <path d="M968.178061,146.40273 C966.315553,146.327205 958.123799,144.726305 956.857796,144.354193 C954.414198,143.635954 948.078096,141.042548 948.185311,140.943449 C948.256653,140.877506 951.346844,138.526633 951.346844,138.526633 L976.470112,117.89157 L979.108331,115.167219 L985.796725,114.556563 L994.008528,115.167219 C994.008528,115.167219 997.971097,116.00839 997.271246,116.457931 C995.855324,117.367432 994.575066,118.678402 994.575066,118.678402 L981.998812,125.623696 L976.470113,134.333299 L971.62846,143.382932 C971.62846,143.382932 969.817758,146.469221 968.178061,146.40273 Z" id="Path-58" opacity="0.3" fill="#D0011B" sketch:type="MSShapeGroup"></path>
                <path d="M1026.14626,104.779086 C1026.54188,104.973205 1049.22805,132.172608 1049.22805,132.172608 C1049.22805,132.172608 1043.00505,130.227304 1038.28637,127.197114 C1033.56768,124.166924 1029.79898,120.040238 1029.79898,120.040238 C1029.79898,120.040238 1027.01142,113.715213 1026.43587,109.422831" id="Path-59" opacity="0.3" fill="#D0011B" sketch:type="MSShapeGroup" transform="translate(1037.697138, 118.593119) rotate(6.000000) translate(-1037.697138, -118.593119) "></path>
                <path d="M896.180874,390.812898 C894.745459,389.826413 904.161449,378.529935 905.873429,378.529935 C907.58541,378.529935 909.812964,381.919419 919.600018,375.95837 C929.387071,369.997322 928.684956,366.513889 933.740328,361.556907 C938.7957,356.599925 939.072253,352.861585 944.302958,351.736207 C949.533664,350.61083 950.31172,359.648219 958.737529,356.1788 C967.163338,352.709381 961.634472,344.21736 969.608134,341.316523 C977.581797,338.415687 987.028237,336.183295 995.797287,342.696375 C1004.56634,349.209455 1004.98036,359.589441 1002.25233,362.75084 C1001.92513,363.130016 1000.57559,367.041658 998.551146,367.428564 C995.613386,367.990019 991.330761,364.758244 989.467228,363.576714 C983.927462,360.064356 973.454536,353.099574 972.158737,353.330063 C971.41419,353.462499 968.916315,356.326562 968.257604,358.378764 C967.312465,361.323324 966.002194,366.721412 963.572816,369.742634 C961.887169,371.838936 959.057148,372.108176 957.946781,372.449609 C956.396127,372.926427 954.04021,369.03105 953.691429,368.602526 C953.043273,367.806181 951.343481,363.252361 949.255165,361.556907 C948.105828,360.623788 947.365928,362.020308 946.015326,361.556907 C943.095349,362.862294 939.802312,366.202275 939.567073,366.31087 C938.652452,366.733092 929.74215,381.784686 927.21237,383.643251 C923.787541,386.159385 919.11131,384.598881 911.42977,385.116659 C903.74823,385.634438 897.616289,391.799383 896.180874,390.812898 Z" id="Path-61" fill-opacity="0.3" fill="#D0011B" sketch:type="MSShapeGroup"></path>
                <path d="M756.905489,286.577395 C749.096188,287.40169 732.710858,294.354262 737.957589,290.251231 C743.204321,286.1482 765.935134,273.572164 765.935134,273.572164 L802.856168,263.693526 L830.563993,250.918836 C830.563993,250.918836 843.070228,248.674316 846.114316,239.618452 C849.158404,230.562589 841.003444,219.862491 841.003444,219.862491 C841.003444,219.862491 830.422208,200.937891 826.847234,192.645648 C823.27226,184.353405 816.631929,185.227746 821.994725,175.771284 C827.357521,166.314822 837.970845,164.944097 846.036938,158.807568 C854.103031,152.671039 856.310453,147.265276 861.031467,146.072879 C865.75248,144.880481 869.648849,149.330277 872.008517,152.247865 C873.266305,153.803045 874.338501,156.372996 874.278238,157.261434 C874.225444,158.039746 873.066787,161.698142 871.487532,163.845123 C868.10557,168.442869 858.081705,171.160413 858.081705,171.160413 C858.081705,171.160413 846.867293,175.461098 844.03705,179.196059 C841.206806,182.931019 842.29167,186.777872 842.904237,188.544504 C843.516804,190.311137 849.289064,189.576662 850.944675,191.676114 C852.600287,193.775566 852.849289,198.486743 853.050494,200.037254 C853.182278,201.05279 853.63447,204.830763 853.63447,204.830763 C853.63447,204.830763 850.944675,209.90232 850.944675,212.460097 C850.944675,215.017874 857.116264,224.563165 857.116264,224.563165 C857.116264,224.563165 863.542028,233.538376 868.921673,239.618457 C872.620809,243.799224 875.206239,245.202301 874.278238,247.049756 C873.350236,248.897211 855.439146,253.318523 848.994715,255.047852 C837.914368,258.021204 832.677565,261.055617 832.677565,261.055617 C832.677565,261.055617 827.856183,265.55177 829.997826,269.80078 C832.139468,274.049789 834.302298,276.492672 839.29379,279.990616 C844.285282,283.488559 846.757354,282.890527 854.980898,281.161896 C858.305546,280.463037 860.009648,279.600166 862.436328,277.90094 C867.137873,274.608793 871.487532,270.728813 871.487532,270.728813 L886.391803,255.047852 C886.391803,255.047852 891.337845,251.044057 892.621713,250.239829 C893.853024,249.468523 901.352018,248.967519 901.352018,248.967519 L925.445629,248.967519 C930.059334,248.967519 931.370413,248.132964 933.138827,247.637146 C934.369871,247.291993 943.642634,236.941683 947.729491,232.060509 C957.079931,220.892729 955.936417,222.874549 963.029541,220.635927 C970.122666,218.397305 1001.72647,216.929934 1001.72647,216.929934 L1119.75654,212.460097 C1119.75654,212.460097 1125.67167,205.321827 1128.3039,199.234985 C1130.68983,193.717726 1129.24554,187.563726 1128.3039,183.119772 C1126.38112,174.045437 1115.05786,166.273178 1115.05786,166.273178 C1115.05786,166.273178 1101.24942,158.10988 1099.69425,154.140983 C1098.13908,150.172087 1100.08556,144.929954 1102.65049,143.26302 C1105.21542,141.596086 1106.84367,141.356674 1111.77592,142.771705 C1116.70818,144.186736 1116.54456,144.918994 1119.75653,148.170631 C1122.9685,151.422268 1121.49911,150.40178 1124.16439,155.313172 C1126.82967,160.224564 1125.82989,159.904405 1129.00917,165.220746 C1132.18845,170.537086 1133.15759,168.367444 1136.33901,175.671352 C1139.52043,182.975261 1140.5647,185.411923 1140.09243,190.665701 C1139.62015,195.919479 1137.93119,193.334693 1134.06964,200.916826 C1130.20809,208.49896 1127.08638,216.203009 1127.08638,216.203009 L1123.74591,219.2765 L1067.42446,222.874552 C1067.42446,222.874552 987.40026,226.344264 976.359986,227.782163 C965.319711,229.220062 964.825999,233.575264 959.416171,236.941682 C954.006344,240.3081 957.290495,239.050223 949.839073,244.285551 C942.38765,249.52088 949.660141,250.40828 934.399573,254.518206 C919.139004,258.628132 917.27436,250.242062 899.026065,257.970342 C880.777771,265.698622 871.487528,281.161897 871.487528,281.161897 C871.487528,281.161897 858.271125,293.089135 848.994711,294.977828 C839.718297,296.86652 835.513925,284.642597 826.84479,290.251228 C818.175655,295.859859 820.741748,306.917793 821.493044,312.770457 C822.244341,318.623121 824.595757,314.854374 831.141153,323.720268 C837.686549,332.586163 840.01977,336.944708 842.904241,341.772431 C845.788712,346.600154 843.860993,346.637947 847.791429,351.587739 C851.721865,356.537531 859.839305,356.718828 858.081704,360.886159 C856.324103,365.05349 843.944427,371.117732 840.181908,370.929165 C836.41939,370.740598 837.816151,363.99396 836.757609,360.886167 C834.144042,353.21295 832.717667,339.221969 829.500618,335.464524 C826.28357,331.70708 817.990631,331.88384 815.366968,331.88384 C812.743304,331.88384 809.394091,319.648349 809.394091,319.648349 C809.394091,319.648349 808.919193,312.304765 809.394091,307.476822 C810.044161,300.86803 812.593397,292.92293 811.262283,290.251231 C810.315707,288.351343 810.903014,286.364465 809.394091,285.312737 C807.885169,284.26101 812.447985,283.990319 793.783362,284.26101 C775.845752,284.521157 767.095424,285.501816 756.905489,286.577395 Z" id="Path-60" fill-opacity="0.3" fill="#D0011B" sketch:type="MSShapeGroup"></path>
                <path d="M673.276929,546.04714 C671.622573,548.579675 670.437165,550.883006 669.05684,552.924857 C667.805819,554.775435 666.31804,556.413219 665.596779,557.775263 C665.317601,558.302469 676.710787,557.130764 681.263889,554.864843 C697.652683,546.708711 726.903443,510.209086 726.903443,510.209086 C726.903443,510.209086 723.543852,511.170989 721.855781,511.170989 C720.500783,511.170989 718.508507,510.895955 717.09219,510.209086 C715.645357,509.507418 714.788743,508.393601 714.788743,508.393601 C714.788743,508.393601 712.854263,506.108345 711.976844,504.965619 C711.188004,503.938255 710.430766,503.547764 709.534239,503.087001 C708.637711,502.626238 707.59758,503.096497 707.259164,503.087001 C705.803309,503.046149 703.852164,503.898472 701.825702,504.965619 C700.283163,505.777928 697.910247,507.559794 697.910247,507.559794 L695.18765,509.973727 C695.18765,509.973727 691.086877,513.991842 689.032548,516.935116 C685.405187,522.132101 679.986102,533.279369 679.986102,533.279369 C679.986102,533.279369 674.885222,543.585119 673.276929,546.04714 Z" id="Path-62" opacity="0.3" fill="#D0011B" sketch:type="MSShapeGroup"></path>
                <path d="M890.981428,99.8916609 C893.463041,95.8641768 897.801905,92.2090249 898.572933,90.3631721 C900.529972,85.6779875 907.370525,82.335652 898.697979,79.8925005 C890.025433,77.4493491 881.50176,79.0333229 873.88132,83.4072736 C866.26088,87.7812244 863.854787,97.2758974 863.854788,99.8916609 C863.854788,102.507424 871.842555,112.852811 871.842555,112.852811 C871.842555,112.852811 880.840542,123.050791 882.16734,123.316709 C883.181836,123.520035 884.930191,112.85281 884.930191,112.85281 C884.930191,112.85281 887.164156,106.086826 890.981428,99.8916609 Z" id="Path-63" fill-opacity="0.3" fill="#D0011B" sketch:type="MSShapeGroup"></path>
                <path d="M575.884017,214.958562 C563.966815,202.07787 554.514667,185.128183 545.770911,177.276306 C543.539738,175.272716 535.749988,170.4333 533.341931,169.883367 C528.709875,168.825535 524.650865,169.883366 524.650865,167.405041 C524.650865,164.926717 525.475987,161.019923 524.650865,155.001473 C523.608607,147.39924 528.88392,135.979501 532.381445,138.638833 C539.674592,144.184152 565.415356,184.820109 573.060106,194.304811 C580.704856,203.789513 582.104333,202.104936 590.928198,211.27672 C599.752062,220.448503 598.443977,227.475061 607.727992,230.339626 C617.012006,233.20419 620.667394,222.215892 630.191743,223.391409 C639.716091,224.566927 648.240415,231.200664 648.240415,231.200664 C648.240415,231.200664 660.128227,236.772839 660.744628,245.427483 C661.361029,254.082127 646.712389,267.28273 646.712389,267.28273 C646.712389,267.28273 648.034883,246.433096 645.480629,240.049305 C642.926375,233.665513 637.155874,230.339628 637.155874,230.339628 C637.155874,230.339628 633.912839,232.867247 632.344644,233.338465 C630.586169,233.866859 627.175865,233.338464 627.175865,233.338464 C627.175865,233.338464 623.438723,236.953116 619.01021,239.004062 C616.987968,239.940609 613.987453,240.6793 612.496917,241.43839 C609.115172,243.160621 609.87885,243.499887 605.623818,241.438387 C604.838131,241.057733 603.969554,239.586654 602.788572,239.004059 C586.219365,230.830243 592.511117,232.929939 575.884017,214.958562 Z" id="Path-64" fill-opacity="0.3" fill="#D0011B" sketch:type="MSShapeGroup"></path>
                <ellipse id="Oval-1" stroke="#000000" fill="#D0011B" sketch:type="MSShapeGroup" cx="742.096618" cy="341.186537" rx="4.58118818" ry="4.58995341"></ellipse>
            </g>
        </g>
    </g>
</svg>