<?xml version="1.0" encoding="UTF-8" standalone="no"?>
<svg
   xmlns:dc="http://purl.org/dc/elements/1.1/"
   xmlns:cc="http://creativecommons.org/ns#"
   xmlns:rdf="http://www.w3.org/1999/02/22-rdf-syntax-ns#"
   xmlns:svg="http://www.w3.org/2000/svg"
   xmlns="http://www.w3.org/2000/svg"
   viewBox="0 0 1562.6667 864"
   height="864"
   width="1562.6667"
   xml:space="preserve"
   version="1.1"
   id="svg2"><metadata
     id="metadata8"><rdf:RDF><cc:Work
         rdf:about=""><dc:format>image/svg+xml</dc:format><dc:type
           rdf:resource="http://purl.org/dc/dcmitype/StillImage" /></cc:Work></rdf:RDF></metadata><defs
     id="defs6"><clipPath
       id="clipPath18"
       clipPathUnits="userSpaceOnUse"><path
         style="clip-rule:evenodd"
         id="path20"
         d="m 118.1614,122.7746 -24.10824,-20.9213 22.67944,-4.13577 24.1083,20.92127 -22.6795,4.1358 0,0 z" /></clipPath><clipPath
       id="clipPath24"
       clipPathUnits="userSpaceOnUse"><path
         id="path26"
         d="m 94,97 47,0 0,26 -47,0 0,-26 z" /></clipPath><clipPath
       id="clipPath28"
       clipPathUnits="userSpaceOnUse"><path
         style="clip-rule:evenodd"
         id="path30"
         d="m 84.03139,133.1048 66.83121,0 0,-45.71746 -66.83121,0 0,45.71746 z" /></clipPath><clipPath
       id="clipPath32"
       clipPathUnits="userSpaceOnUse"><path
         id="path34"
         d="m 94,97 47,0 0,26 -47,0 0,-26 z" /></clipPath><clipPath
       id="clipPath54"
       clipPathUnits="userSpaceOnUse"><path
         style="clip-rule:evenodd"
         id="path56"
         d="m 94.05224,101.9021 24.10816,20.9213 0,23.8171 -24.10816,-20.9213 0,-23.8171 0,0 z" /></clipPath><clipPath
       id="clipPath60"
       clipPathUnits="userSpaceOnUse"><path
         id="path62"
         d="m 94,101 25,0 0,46 -25,0 0,-46 z" /></clipPath><clipPath
       id="clipPath64"
       clipPathUnits="userSpaceOnUse"><path
         style="clip-rule:evenodd"
         id="path66"
         d="m 84.03047,156.9707 44.15163,0 0,-65.39881 -44.15163,0 0,65.39881 z" /></clipPath><clipPath
       id="clipPath68"
       clipPathUnits="userSpaceOnUse"><path
         id="path70"
         d="m 94,101 25,0 0,46 -25,0 0,-46 z" /></clipPath><clipPath
       id="clipPath90"
       clipPathUnits="userSpaceOnUse"><path
         style="clip-rule:evenodd"
         id="path92"
         d="m 40.62319,101.2694 c 0,-5.75084 4.272,-6.38129 6.96098,-6.25768 0,0 10.51983,0.39612 12.85322,0.72415 l 0,4.88813 -11.49393,0 c -1.19447,0 -2.53526,-0.0425 -2.55378,2.2152 l 0,4.8648 12.17358,0.4025 0,4.9031 -12.17358,0.4494 0,4.8648 c 0,1.1502 0,2.3855 2.14181,2.3855 l 11.9059,0 0,4.9308 c -2.65057,0.3749 -13.26501,0.6815 -13.26501,0.6815 -2.84352,0.0576 -6.54919,-1.0639 -6.54919,-6.475 l 0,-18.5772 0,0 z" /></clipPath><clipPath
       id="clipPath96"
       clipPathUnits="userSpaceOnUse"><path
         id="path98"
         d="m 40,94 21,0 0,33 -21,0 0,-33 z" /></clipPath><clipPath
       id="clipPath100"
       clipPathUnits="userSpaceOnUse"><path
         style="clip-rule:evenodd"
         id="path102"
         d="m 30.60142,136.6538 39.85774,0 0,-51.98566 -39.85774,0 0,51.98566 z" /></clipPath><clipPath
       id="clipPath104"
       clipPathUnits="userSpaceOnUse"><path
         id="path106"
         d="m 40,94 21,0 0,33 -21,0 0,-33 z" /></clipPath><clipPath
       id="clipPath126"
       clipPathUnits="userSpaceOnUse"><path
         style="clip-rule:evenodd"
         id="path128"
         d="m 40.62319,66.05595 c 0,-5.75084 4.272,-6.38131 6.96098,-6.2577 0,0 10.51983,0.39612 12.85322,0.72415 l 0,4.8881 -11.49393,0 c -1.19447,0 -2.53526,-0.04248 -2.55378,2.21527 l 0,4.86475 12.17358,0.40257 0,4.90306 -12.17358,0.4494 0,4.86476 c 0,1.1502 0,2.38555 2.14181,2.38555 l 11.9059,0 0,4.93077 c -2.65057,0.37486 -13.26501,0.68148 -13.26501,0.68148 -2.84352,0.05762 -6.54919,-1.06385 -6.54919,-6.47499 l 0,-18.57717 0,0 z m 47.2209,-6.12989 6.19478,0 2.17482,6.90941 9.87521,0 2.1418,-6.90941 6.1392,0 -9.7927,31.18205 -6.55943,0 -10.17368,-31.18205 0,0 z m 9.86694,12.19377 3.62457,11.1289 3.3879,-11.1289 -7.01247,0 0,0 z" /></clipPath><clipPath
       id="clipPath132"
       clipPathUnits="userSpaceOnUse"><path
         id="path134"
         d="m 40,59 75,0 0,33 -75,0 0,-33 z" /></clipPath><clipPath
       id="clipPath136"
       clipPathUnits="userSpaceOnUse"><path
         style="clip-rule:evenodd"
         id="path138"
         d="m 30.60142,101.4404 93.79028,0 0,-51.98571 -93.79028,0 0,51.98571 z" /></clipPath><clipPath
       id="clipPath140"
       clipPathUnits="userSpaceOnUse"><path
         id="path142"
         d="m 40,59 75,0 0,33 -75,0 0,-33 z" /></clipPath><clipPath
       id="clipPath162"
       clipPathUnits="userSpaceOnUse"><path
         style="clip-rule:evenodd"
         id="path164"
         d="m 63.62384,59.92602 5.7665,0 0,12.3961 5.06631,-0.59636 4.98397,-11.79974 6.48941,0 -5.70892,12.27908 c 1.6743,0.54517 4.80065,1.461 4.80065,9.17986 0,7.44637 -3.50111,9.72327 -8.20697,9.72327 l -13.19095,0 0,-31.18221 0,0 z m 5.78921,17.08204 0,8.79663 6.83539,0 c 1.81234,0 2.96558,-0.87755 2.96558,-4.41973 0,-3.76785 -0.9576,-4.3769 -2.96558,-4.3769 l -6.83539,0 0,0 z" /></clipPath><clipPath
       id="clipPath168"
       clipPathUnits="userSpaceOnUse"><path
         id="path170"
         d="m 63,59 23,0 0,33 -23,0 0,-33 z" /></clipPath><clipPath
       id="clipPath172"
       clipPathUnits="userSpaceOnUse"><path
         style="clip-rule:evenodd"
         id="path174"
         d="m 53.60206,101.4384 42.34974,0 0,-51.84258 -42.34974,0 0,51.84258 z" /></clipPath><clipPath
       id="clipPath176"
       clipPathUnits="userSpaceOnUse"><path
         id="path178"
         d="m 63,59 23,0 0,33 -23,0 0,-33 z" /></clipPath><clipPath
       id="clipPath198"
       clipPathUnits="userSpaceOnUse"><path
         style="clip-rule:evenodd"
         id="path200"
         d="m 63.62384,95.13947 12.81199,0 c 7.36047,0 10.46006,6.28333 10.46006,15.46333 0,7.7253 -1.78153,15.7189 -10.46006,15.7189 l -12.81199,0 0,-31.18223 0,0 z m 5.7665,5.31853 0,20.6026 6.59244,0 c 3.21475,0 5.1466,-2.0723 5.1466,-10.4153 0,-6.2556 -1.40878,-10.1873 -5.1466,-10.1873 l -6.59244,0 0,0 z" /></clipPath><clipPath
       id="clipPath204"
       clipPathUnits="userSpaceOnUse"><path
         id="path206"
         d="m 63,95 24,0 0,32 -24,0 0,-32 z" /></clipPath><clipPath
       id="clipPath208"
       clipPathUnits="userSpaceOnUse"><path
         style="clip-rule:evenodd"
         id="path210"
         d="m 53.60206,136.6519 43.3156,0 0,-51.84263 -43.3156,0 0,51.84263 z" /></clipPath><clipPath
       id="clipPath212"
       clipPathUnits="userSpaceOnUse"><path
         id="path214"
         d="m 63,95 24,0 0,32 -24,0 0,-32 z" /></clipPath><clipPath
       id="clipPath276"
       clipPathUnits="userSpaceOnUse"><path
         id="path278"
         d="m 676,239 106,0 0,101 -106,0 0,-101 z" /></clipPath><clipPath
       id="clipPath280"
       clipPathUnits="userSpaceOnUse"><path
         style="clip-rule:evenodd"
         id="path282"
         d="m 676.2133,326.0671 c 0,0 6.4003,-6.7029 8.456,-8.8758 6.6671,-7.0469 20.632,-19.6459 20.632,-19.6459 0,0 7.3959,-5.4986 12.515,-12.4625 1.5108,-2.0553 -3.4053,-11.234 -2.5252,-15.1725 1.2903,-5.7749 10.7868,-12.0724 8.8597,-16.7373 -1.9271,-4.6649 -10.9303,-8.1741 -9.6927,-11.1273 1.2375,-2.9533 19.7107,0.7102 19.7107,0.7102 0,0 16.8578,3.7372 21.9133,7.5887 5.0556,3.8515 -1.4766,14.5441 -1.4766,14.5441 0,0 -0.7194,4.675 -0.4962,6.9574 0.2232,2.2824 6.9779,6.1177 8.8035,7.7129 1.6923,1.4788 0.1876,7.3476 2.1649,10.2914 1.9773,2.9439 8.7894,5.7798 8.7894,5.7798 0,0 5.6343,5.3278 6.7045,7.9223 0.3061,0.7422 0.8716,2.4057 0.6982,3.5829 -0.2594,1.7605 -1.1815,3.3887 -1.929,3.6673 -1.9355,0.7213 -8.1402,-4.1154 -8.1402,-4.1154 0,0 -6.9378,-4.5834 -11.16,1.6063 -1.0326,1.5138 -0.3136,3.4975 -0.3098,5.2447 0.0121,5.3972 2.421,10.8987 0.3098,12.5287 -1.2761,0.9853 -8.5005,-5.0477 -12.7769,-3.0191 -5.0885,2.4139 -8.4258,10.8684 -8.8598,11.757 -2.2992,4.7075 -1.8702,0.2067 -23.1128,1.6019 -28.6231,1.8799 -39.0778,-10.3398 -39.0778,-10.3398 z" /></clipPath><clipPath
       id="clipPath284"
       clipPathUnits="userSpaceOnUse"><path
         id="path286"
         d="m 0,0 1172,0 0,648 L 0,648 0,0 Z" /></clipPath><clipPath
       id="clipPath322"
       clipPathUnits="userSpaceOnUse"><path
         style="clip-rule:evenodd"
         id="path324"
         d="m 966.8313,492.1815 c 2.5301,0 4.5812,2.055 4.5812,4.5899 0,2.535 -2.0511,4.59 -4.5812,4.59 -2.5301,0 -4.5812,-2.055 -4.5812,-4.59 0,-2.5349 2.0511,-4.5899 4.5812,-4.5899 z" /></clipPath><clipPath
       id="clipPath338"
       clipPathUnits="userSpaceOnUse"><path
         id="path340"
         d="m 875.0593,429.1815 153.0026,0 0,139.496 -153.0026,0 0,-139.496 z" /></clipPath><clipPath
       id="clipPath358"
       clipPathUnits="userSpaceOnUse"><path
         id="path360"
         d="m 835.3557,522.9805 119.4073,0 0,136.92 -119.4073,0 0,-136.92 z" /></clipPath><clipPath
       id="clipPath372"
       clipPathUnits="userSpaceOnUse"><path
         style="clip-rule:evenodd"
         id="path374"
         d="m 899.6405,541.141 c 2.5301,0 4.5812,2.055 4.5812,4.5899 0,2.535 -2.0511,4.59 -4.5812,4.59 -2.5301,0 -4.5812,-2.055 -4.5812,-4.59 0,-2.5349 2.0511,-4.5899 4.5812,-4.5899 z" /></clipPath><clipPath
       id="clipPath392"
       clipPathUnits="userSpaceOnUse"><path
         id="path394"
         d="m 972.7913,493.4408 174.3815,0 0,139.496 -174.3815,0 0,-139.496 z" /></clipPath><clipPath
       id="clipPath406"
       clipPathUnits="userSpaceOnUse"><path
         style="clip-rule:evenodd"
         id="path408"
         d="m 966.8313,492.1815 c 2.5301,0 4.5812,2.055 4.5812,4.5899 0,2.535 -2.0511,4.59 -4.5812,4.59 -2.5301,0 -4.5812,-2.055 -4.5812,-4.59 0,-2.5349 2.0511,-4.5899 4.5812,-4.5899 z" /></clipPath><clipPath
       id="clipPath422"
       clipPathUnits="userSpaceOnUse"><path
         id="path424"
         d="m 841.4639,253.7033 110.2449,0 0,136.92 -110.2449,0 0,-136.92 z" /></clipPath><clipPath
       id="clipPath436"
       clipPathUnits="userSpaceOnUse"><path
         style="clip-rule:evenodd"
         id="path438"
         d="m 856.8828,274.9237 c 2.5301,0 4.5811,2.055 4.5811,4.5899 0,2.535 -2.051,4.59 -4.5811,4.59 -2.5302,0 -4.5812,-2.055 -4.5812,-4.59 0,-2.5349 2.051,-4.5899 4.5812,-4.5899 z" /></clipPath><clipPath
       id="clipPath452"
       clipPathUnits="userSpaceOnUse"><path
         id="path454"
         d="m 728.4613,351.6223 140.7861,0 0,136.92 -140.7861,0 0,-136.92 z" /></clipPath><clipPath
       id="clipPath466"
       clipPathUnits="userSpaceOnUse"><path
         style="clip-rule:evenodd"
         id="path468"
         d="m 835.5039,369.7827 c 2.5301,0 4.5812,2.055 4.5812,4.59 0,2.5349 -2.0511,4.5899 -4.5812,4.5899 -2.5301,0 -4.5812,-2.055 -4.5812,-4.5899 0,-2.535 2.0511,-4.59 4.5812,-4.59 z" /></clipPath><clipPath
       id="clipPath482"
       clipPathUnits="userSpaceOnUse"><path
         id="path484"
         d="m 658.2164,183.324 125.5155,0 0,136.92 -125.5155,0 0,-136.92 z" /></clipPath><clipPath
       id="clipPath496"
       clipPathUnits="userSpaceOnUse"><path
         style="clip-rule:evenodd"
         id="path498"
         d="m 734.7177,247.3839 c 2.5302,0 4.5812,2.055 4.5812,4.59 0,2.535 -2.051,4.59 -4.5812,4.59 -2.5301,0 -4.5811,-2.055 -4.5811,-4.59 0,-2.535 2.051,-4.59 4.5811,-4.59 z" /></clipPath><clipPath
       id="clipPath512"
       clipPathUnits="userSpaceOnUse"><path
         style="clip-rule:evenodd"
         id="path514"
         d="m 997.3725,513.6012 c 2.5301,0 4.5815,2.055 4.5815,4.59 0,2.535 -2.0514,4.5899 -4.5815,4.5899 -2.5301,0 -4.5812,-2.0549 -4.5812,-4.5899 0,-2.535 2.0511,-4.59 4.5812,-4.59 z" /></clipPath><clipPath
       id="clipPath596"
       clipPathUnits="userSpaceOnUse"><path
         id="path598"
         d="m 679.5953,269.0031 116.3531,0 0,136.92 -116.3531,0 0,-136.92 z" /></clipPath><clipPath
       id="clipPath610"
       clipPathUnits="userSpaceOnUse"><path
         style="clip-rule:evenodd"
         id="path612"
         d="m 192.6156,324.9145 c -3.8634,8.2005 -0.3492,10.3892 -1.4415,23.1455 -1.5787,18.4373 -5.0961,26.7888 3.7619,39.1093 8.8579,12.3206 37.286,17.9844 37.286,17.9844 0,0 19.2544,0.5007 37.8032,14.2921 10.7117,7.9644 20.5013,17.2226 25.7002,28.5466 3.8037,8.2851 -0.775,20.0198 20.3137,21.468 49.9126,3.4277 104.3765,-7.7825 104.3765,-7.7825 l -21.3205,-17.4882 -16.4764,-2.7818 -43.4614,-5.0992 c 0,0 -11.1438,19.7514 -20.1906,19.7514 -9.0467,0 -12.163,-6.207 -12.163,-6.207 0,0 -9.8547,-9.051 -13.3747,-20.2643 -1.5784,-5.0281 -3.9469,-9.1553 -4.8667,-13.1976 -0.629,-2.7645 -0.3636,-5.3042 -3.5213,-4.8416 -18.0726,2.6472 -27.4838,-4.5538 -41.759,-9.7609 -13.2894,-4.8475 -37.2867,-18.8793 -37.2867,-18.8793 0,0 -1.9696,-6.1753 -2.6559,-9.6829 -1.0757,-5.4987 -0.846,-14.5263 -1.7219,-21.8579 -1.0749,-8.997 -3.8903,-17.5519 -3.8903,-17.5519 0,0 -1.2482,-17.1026 -5.1116,-8.9022 z" /></clipPath><clipPath
       id="clipPath620"
       clipPathUnits="userSpaceOnUse"><path
         style="clip-rule:evenodd"
         id="path622"
         d="m 436.3892,422.9932 c 0,0 -0.1897,-0.7855 -0.2846,-1.1782 -2.7084,-11.2122 -8.135,-35.575 -8.135,-35.575 l 2.874,-1.8909 c 0,0 6.4846,13.705 7.6042,20.4038 1.1195,6.6987 -2.0586,18.2403 -2.0586,18.2403 z" /></clipPath><clipPath
       id="clipPath630"
       clipPathUnits="userSpaceOnUse"><path
         id="path632"
         d="m 479,464 21,0 0,28 -21,0 0,-28 z" /></clipPath><clipPath
       id="clipPath634"
       clipPathUnits="userSpaceOnUse"><path
         style="clip-rule:evenodd"
         id="path636"
         d="m 495.7076,478.172 c -0.1292,0.3677 -0.8282,0 -0.8282,0 0,0 0.8282,1.8387 0.8282,2.3467 0,3.3314 -0.8282,9.1713 -0.8282,9.1713 l -1.9394,1.7525 c 0,0 -13.7353,-6.7667 -11.2562,-13.2705 2.4791,-6.5038 18.0447,-13.7995 18.0447,-13.7995 0,0 -2.5337,9.5674 -4.0209,13.7995 z" /></clipPath><clipPath
       id="clipPath638"
       clipPathUnits="userSpaceOnUse"><path
         id="path640"
         d="m 0,0 1172,0 0,648 L 0,648 0,0 Z" /></clipPath><clipPath
       id="clipPath660"
       clipPathUnits="userSpaceOnUse"><path
         style="clip-rule:evenodd"
         id="path662"
         d="m 524.3614,428.8915 c -4.9974,5.4991 -14.1558,17.4591 -14.1558,17.4591 0,0 2.6477,-17.7491 9.638,-28.4046 6.9904,-10.6556 23.7155,-8.2977 23.7155,-8.2977 0,0 -13.0772,12.5082 -19.1977,19.2432 z" /></clipPath><clipPath
       id="clipPath670"
       clipPathUnits="userSpaceOnUse"><path
         style="clip-rule:evenodd"
         id="path672"
         d="m 525.7137,359.884 -7.9665,4.7926 10.566,-0.3332 24.7199,-6.8139 c 0,0 11.4275,-8.5187 28.0973,-7.499 16.6697,1.0197 29.164,12.301 29.164,12.301 0,0 4.0591,-5.2027 6.662,-6.9133 2.4319,-1.5982 5.8763,-2.6467 9.3076,-4.4581 5.7492,-3.035 11.3592,-6.5883 11.3592,-6.5883 l 1.1578,-5.5537 -1.9456,-5.4159 c 0,0 0.3217,-3.1242 -2.8989,-2.3147 -4.8669,1.2232 -14.5004,6.8169 -19.1916,9.1488 -7.7955,3.8751 -15.2066,-0.5451 -16.1999,-4.77 -0.9932,-4.225 -0.0362,-6.6136 -0.0362,-6.6136 l 4.5106,-6.6554 c 0,0 3.8608,-0.8376 2.4137,-5.4495 -1.4471,-4.6119 -6.9243,-8.9256 -6.9243,-8.9256 l -9.9595,-21.3365 c 0,0 -1.7378,-4.5734 -3.2159,-6.1275 -1.3427,-1.4115 -5.2463,-2.7694 -5.2463,-2.7694 l -9.4942,8.8969 8.4033,9.2802 3.6308,9.0291 c 0,0 -1.7452,7.7762 -3.6308,13.3384 -1.8855,5.5623 -4.643,7.2589 -7.0744,10.7193 -2.4314,3.4604 -4.6275,4.8062 -14.5896,12.7862 -9.9622,7.9801 -31.6185,18.2451 -31.6185,18.2451 z" /></clipPath><clipPath
       id="clipPath680"
       clipPathUnits="userSpaceOnUse"><path
         style="clip-rule:evenodd"
         id="path682"
         d="m 542.9786,275.4649 c 0,0.5728 3.5724,-32.6062 3.5724,-32.6062 0,0 1.7407,0.0502 2.3492,0 0.4973,-0.0411 3.1335,0.9571 3.7956,1.2143 1.4933,0.5802 2.9078,1.2413 2.9078,1.2413 0,0 1.2717,1.4841 1.9372,2.975 0.428,0.959 1.4555,3.7608 1.4555,3.7608 0,0 0.8667,2.4601 0.9199,3.1539 0.676,8.8111 2.4968,25.2271 2.4968,25.2271 l -6.16,-3.1768 -4.7877,-1.3242 -4.9143,-0.723" /></clipPath><clipPath
       id="clipPath690"
       clipPathUnits="userSpaceOnUse"><path
         style="clip-rule:evenodd"
         id="path692"
         d="m 502.6423,279.6722 c -0.2343,1.503 5.1859,3.3338 5.7369,3.6959 1.3238,0.8698 4.1039,1.9329 5.7731,2.6733 7.3217,3.2478 10.0927,3.5171 14.3989,4.8111 4.3062,1.2939 3.9987,-5.1656 5.1458,-7.9041 0.8048,-1.9213 2.5247,-4.6811 2.5247,-4.6811 l -14.6643,-10.8008 c 0,0 -1.6224,4.1325 -3.397,6.5003 -0.7777,1.0375 -1.2389,0.7616 -2.1877,1.2914 l -9.255,0.94 c -3.2539,0.9532 -3.8412,1.971 -4.0754,3.474 z" /></clipPath><clipPath
       id="clipPath700"
       clipPathUnits="userSpaceOnUse"><path
         id="path702"
         d="m 962,489 50,0 0,33 -50,0 0,-33 z" /></clipPath><clipPath
       id="clipPath704"
       clipPathUnits="userSpaceOnUse"><path
         style="clip-rule:evenodd"
         id="path706"
         d="m 982.1781,489.5973 c -1.8625,0.0755 -10.0543,1.6764 -11.3203,2.0485 -2.4436,0.7182 -8.7797,3.3117 -8.6725,3.4108 0.0714,0.0659 3.1615,2.4168 3.1615,2.4168 l 25.1233,20.635 2.6382,2.7244 6.6884,0.6106 8.2123,-0.6106 c 0,0 3.962,-0.8412 3.262,-1.2907 -1.416,-0.9095 -2.696,-2.2205 -2.696,-2.2205 l -12.5762,-6.9453 -5.5287,-8.7096 -4.8416,-9.0496 c 0,0 -1.8107,-3.0863 -3.4504,-3.0198 z" /></clipPath><clipPath
       id="clipPath708"
       clipPathUnits="userSpaceOnUse"><path
         id="path710"
         d="m 0,0 1172,0 0,648 L 0,648 0,0 Z" /></clipPath><clipPath
       id="clipPath730"
       clipPathUnits="userSpaceOnUse"><path
         id="path732"
         d="m 1041,502 21,0 0,31 -21,0 0,-31 z" /></clipPath><clipPath
       id="clipPath734"
       clipPathUnits="userSpaceOnUse"><path
         style="clip-rule:evenodd"
         id="path736"
         d="m 1041.653,532.3526 c 0.374,-0.2344 20.092,-29.6561 20.092,-29.6561 0,0 -5.985,2.5851 -10.361,6.0919 -4.376,3.5069 -7.693,8.0049 -7.693,8.0049 0,0 -2.111,6.5817 -2.235,10.9108" /></clipPath><clipPath
       id="clipPath738"
       clipPathUnits="userSpaceOnUse"><path
         id="path740"
         d="m 0,0 1172,0 0,648 L 0,648 0,0 Z" /></clipPath><clipPath
       id="clipPath760"
       clipPathUnits="userSpaceOnUse"><path
         style="clip-rule:evenodd"
         id="path762"
         d="m 910.1809,245.1871 c -1.4354,0.9865 7.9805,12.283 9.6925,12.283 1.712,0 3.9396,-3.3895 13.7266,2.5715 9.7871,5.9611 9.085,9.4445 14.1403,14.4015 5.0554,4.957 5.332,8.6953 10.5627,9.8207 5.2307,1.1254 6.0087,-7.912 14.4345,-4.4426 8.4258,3.4694 2.897,11.9614 10.8706,14.8623 7.9737,2.9008 17.4199,5.1332 26.1889,-1.3799 8.769,-6.5131 9.183,-16.893 6.455,-20.0544 -0.327,-0.3792 -1.676,-4.2909 -3.701,-4.6778 -2.938,-0.5614 -7.22,2.6704 -9.084,3.8519 -5.5395,3.5123 -16.0125,10.4771 -17.3083,10.2466 -0.7445,-0.1324 -3.2424,-2.9965 -3.9011,-5.0487 -0.9451,-2.9445 -2.2554,-8.3426 -4.6848,-11.3638 -1.6856,-2.0963 -4.5157,-2.3656 -5.626,-2.707 -1.5507,-0.4768 -3.9066,3.4186 -4.2554,3.8471 -0.6481,0.7963 -2.3479,5.3501 -4.4362,7.0456 -1.1494,0.9331 -1.8893,-0.4634 -3.2399,0 -2.92,-1.3054 -6.213,-4.6454 -6.4482,-4.754 -0.9146,-0.4222 -9.825,-15.4738 -12.3547,-17.3324 -3.4249,-2.5161 -8.1011,-0.9556 -15.7826,-1.4734 -7.6816,-0.5177 -13.8135,-6.6827 -15.2489,-5.6962 z" /></clipPath><clipPath
       id="clipPath770"
       clipPathUnits="userSpaceOnUse"><path
         style="clip-rule:evenodd"
         id="path772"
         d="m 770.9055,349.4226 c -7.8093,-0.8243 -24.1946,-7.7769 -18.9479,-3.6738 5.2467,4.103 27.9775,16.679 27.9775,16.679 l 36.9211,9.8787 27.7078,12.7747 c 0,0 12.5062,2.2445 15.5503,11.3003 3.0441,9.0559 -5.1109,19.756 -5.1109,19.756 0,0 -10.5812,18.9246 -14.1562,27.2169 -3.5749,8.2922 -10.2153,7.4179 -4.8525,16.8743 5.3628,9.4565 15.9761,10.8272 24.0422,16.9637 8.0661,6.1366 10.2736,11.5423 14.9946,12.7347 4.721,1.1924 8.6173,-3.2574 10.977,-6.175 1.2578,-1.5551 2.33,-4.1251 2.2697,-5.0135 -0.0528,-0.7783 -1.2114,-4.4367 -2.7907,-6.5837 -3.3819,-4.5978 -13.4058,-7.3153 -13.4058,-7.3153 0,0 -11.2144,-4.3007 -14.0447,-8.0357 -2.8302,-3.7349 -1.7453,-7.5818 -1.1328,-9.3484 0.6126,-1.7666 6.3849,-1.0322 8.0405,-3.1316 1.6556,-2.0995 1.9046,-6.8106 2.1058,-8.3612 0.1318,-1.0155 0.584,-4.7935 0.584,-4.7935 0,0 -2.6898,-5.0715 -2.6898,-7.6293 0,-2.5578 6.1716,-12.1031 6.1716,-12.1031 0,0 6.4257,-8.9752 11.8054,-15.0553 3.6991,-4.1807 6.2845,-5.5838 5.3565,-7.4313 -0.928,-1.8474 -18.8391,-6.2687 -25.2835,-7.9981 -11.0803,-2.9733 -16.3171,-6.0077 -16.3171,-6.0077 0,0 -4.8214,-4.4962 -2.6798,-8.7452 2.1417,-4.249 4.3045,-6.6919 9.296,-10.1898 4.9915,-3.498 7.4636,-2.8999 15.6871,-1.1713 3.3246,0.6989 5.0287,1.5617 7.4554,3.261 4.7016,3.2921 9.0512,7.1721 9.0512,7.1721 l 14.9043,15.6809 c 0,0 4.946,4.0038 6.2299,4.8081 1.2313,0.7713 8.7303,1.2723 8.7303,1.2723 l 24.0936,0 c 4.6137,0 5.9248,0.8345 7.6932,1.3304 1.2311,0.3451 10.5038,10.6954 14.5907,15.5766 9.3504,11.1678 8.2069,9.186 15.3,11.4246 7.0932,2.2386 38.6965,3.706 38.6965,3.706 l 118.031,4.4698 c 0,0 5.915,7.1383 8.547,13.2251 2.386,5.5173 0.942,11.6713 0,16.1152 -1.923,9.0744 -13.246,16.8466 -13.246,16.8466 0,0 -13.809,8.1633 -15.364,12.1322 -1.555,3.9689 0.392,9.211 2.956,10.878 2.565,1.6669 4.194,1.9063 9.126,0.4913 4.932,-1.415 4.769,-2.1473 7.981,-5.3989 3.212,-3.2517 1.742,-2.2312 4.407,-7.1426 2.666,-4.9114 1.666,-4.5912 4.845,-9.9075 3.179,-5.3164 4.149,-3.1467 7.33,-10.4507 3.181,-7.3039 4.226,-9.7405 3.753,-14.9943 -0.472,-5.2538 -2.161,-2.669 -6.022,-10.2511 -3.862,-7.5822 -6.984,-15.2862 -6.984,-15.2862 l -3.34,-3.0735 -56.322,-3.5981 c 0,0 -80.024,-3.4697 -91.064,-4.9076 -11.0403,-1.4379 -11.534,-5.7931 -16.9438,-9.1595 -5.4099,-3.3664 -2.1257,-2.1085 -9.5771,-7.3439 -7.4515,-5.2353 -0.179,-6.1227 -15.4395,-10.2326 -15.2606,-4.1099 -17.1252,4.2761 -35.3735,-3.4521 -18.2483,-7.7283 -27.5386,-23.1916 -27.5386,-23.1916 0,0 -13.2164,-11.9272 -22.4928,-13.8159 -9.2764,-1.8887 -13.4808,10.3352 -22.1499,4.7266 -8.6691,-5.6087 -6.1031,-16.6666 -5.3518,-22.5193 0.7513,-5.8526 3.1028,-2.0839 9.6482,-10.9498 6.5453,-8.8659 8.8786,-13.2244 11.763,-18.0521 2.8845,-4.8278 0.9568,-4.8655 4.8872,-9.8153 3.9305,-4.9498 12.0479,-5.1311 10.2903,-9.2985 -1.7576,-4.1673 -14.1373,-10.2315 -17.8998,-10.043 -3.7625,0.1886 -2.3657,6.9352 -3.4243,10.043 -2.6136,7.6733 -4.0399,21.6642 -7.257,25.4217 -3.217,3.7574 -11.51,3.5807 -14.1336,3.5807 -2.6237,0 -5.9729,12.2355 -5.9729,12.2355 0,0 -0.4749,7.3435 0,12.1715 0.6501,6.6088 3.1993,14.5539 1.8682,17.2256 -0.9466,1.8999 -0.3593,3.8867 -1.8682,4.9385 -1.5089,1.0517 3.0539,1.3224 -15.6107,1.0517 -17.9376,-0.2602 -26.688,-1.2408 -36.8779,-2.3164 z" /></clipPath><clipPath
       id="clipPath780"
       clipPathUnits="userSpaceOnUse"><path
         id="path782"
         d="m 679,77 62,0 0,57 -62,0 0,-57 z" /></clipPath><clipPath
       id="clipPath784"
       clipPathUnits="userSpaceOnUse"><path
         style="clip-rule:evenodd"
         id="path786"
         d="m 687.2769,89.95286 c -1.6543,-2.53253 -2.8397,-4.83587 -4.2201,-6.87772 -1.251,-1.85057 -2.7388,-3.48836 -3.46,-4.8504 -0.2792,-0.52721 11.114,0.6445 15.6671,2.91042 16.3888,8.15613 45.6395,44.65574 45.6395,44.65574 0,0 -3.3595,-0.9619 -5.0476,-0.9619 -1.355,0 -3.3473,0.275 -4.7636,0.9619 -1.4468,0.7017 -2.3035,1.8155 -2.3035,1.8155 0,0 -1.9344,2.2853 -2.8119,3.428 -0.7888,1.0273 -1.546,1.4178 -2.4426,1.8786 -0.8965,0.4608 -1.9366,-0.01 -2.275,0 -1.4559,0.0409 -3.407,-0.8115 -5.4335,-1.8786 -1.5425,-0.8123 -3.9155,-2.5942 -3.9155,-2.5942 l -2.7225,-2.4139 c 0,0 -4.1008,-4.0181 -6.1552,-6.9614 -3.6273,-5.197 -9.0464,-16.3443 -9.0464,-16.3443 0,0 -5.1009,-10.30572 -6.7092,-12.76774 z" /></clipPath><clipPath
       id="clipPath788"
       clipPathUnits="userSpaceOnUse"><path
         id="path790"
         d="m 0,0 1172,0 0,648 L 0,648 0,0 Z" /></clipPath><clipPath
       id="clipPath810"
       clipPathUnits="userSpaceOnUse"><path
         style="clip-rule:evenodd"
         id="path812"
         d="m 904.9814,536.1083 c 2.4816,4.0275 6.8205,7.6827 7.5915,9.5285 1.9571,4.6852 8.7976,8.0275 0.1251,10.4707 -8.6726,2.4432 -17.1962,0.8592 -24.8167,-3.5148 -7.6204,-4.3739 -10.0265,-13.8686 -10.0265,-16.4844 0,-2.6157 7.9878,-12.9611 7.9878,-12.9611 0,0 8.9979,-10.198 10.3247,-10.4639 1.0145,-0.2033 2.7629,10.4639 2.7629,10.4639 0,0 2.234,6.766 6.0512,12.9611 z" /></clipPath><clipPath
       id="clipPath820"
       clipPathUnits="userSpaceOnUse"><path
         style="clip-rule:evenodd"
         id="path822"
         d="m 589.884,421.0414 c -11.9172,12.8807 -21.3693,29.8304 -30.1131,37.6823 -2.2312,2.0036 -10.0209,6.843 -12.429,7.3929 -4.632,1.0579 -8.691,0 -8.691,2.4784 0,2.4783 0.8251,6.3851 0,12.4035 -1.0423,7.6023 4.233,19.022 7.7305,16.3627 7.2932,-5.5454 33.034,-46.1813 40.6787,-55.666 7.6448,-9.4847 9.0442,-7.8001 17.8681,-16.9719 8.8239,-9.1718 7.5158,-16.1984 16.7998,-19.0629 9.284,-2.8646 12.9394,8.1237 22.4637,6.9482 9.5244,-1.1755 18.0487,-7.8093 18.0487,-7.8093 0,0 11.8878,-5.5721 12.5042,-14.2268 0.6164,-8.6546 -14.0322,-21.8552 -14.0322,-21.8552 0,0 1.3225,20.8496 -1.2318,27.2334 -2.5542,6.3838 -8.3247,9.7097 -8.3247,9.7097 0,0 -3.2431,-2.5276 -4.8113,-2.9989 -1.7584,-0.5284 -5.1687,0 -5.1687,0 0,0 -3.7372,-3.6146 -8.1657,-5.6656 -2.0222,-0.9365 -5.0227,-1.6752 -6.5133,-2.4343 -3.3817,-1.7222 -2.6181,-2.0615 -6.8731,0 -0.7857,0.3807 -1.6542,1.8517 -2.8352,2.4343 -16.5692,8.1739 -10.2775,6.0742 -26.9046,24.0455 z" /></clipPath><clipPath
       id="clipPath830"
       clipPathUnits="userSpaceOnUse"><path
         style="clip-rule:evenodd"
         id="path832"
         d="m 756.0966,290.2235 c 2.5301,0 4.5812,2.055 4.5812,4.59 0,2.5349 -2.0511,4.5899 -4.5812,4.5899 -2.5301,0 -4.5812,-2.055 -4.5812,-4.5899 0,-2.535 2.0511,-4.59 4.5812,-4.59 z" /></clipPath></defs><g
     transform="matrix(1.3333333,0,0,-1.3333333,0,864)"
     id="g10"><g
       id="g12" /><g
       id="g14"><g
         clip-path="url(#clipPath18)"
         id="g16"><g
           id="g22" /><g
           id="g36"><g
             id="g38"
             clip-path="url(#clipPath24)"><g
               id="g40" /><g
               id="g42"><g
                 id="g44"
                 clip-path="url(#clipPath28)"><g
                   id="g46"
                   clip-path="url(#clipPath32)"><path
                     id="path48"
                     style="fill:#efa72d;fill-opacity:1;fill-rule:evenodd;stroke:none"
                     d="m 79.03139,138.1048 76.83121,0 0,-55.71746 -76.83121,0 0,55.71746 z" /></g></g></g></g></g></g></g><g
       id="g50"><g
         clip-path="url(#clipPath54)"
         id="g52"><g
           id="g58" /><g
           id="g72"><g
             id="g74"
             clip-path="url(#clipPath60)"><g
               id="g76" /><g
               id="g78"><g
                 id="g80"
                 clip-path="url(#clipPath64)"><g
                   id="g82"
                   clip-path="url(#clipPath68)"><path
                     id="path84"
                     style="fill:#f7c169;fill-opacity:1;fill-rule:evenodd;stroke:none"
                     d="m 79.03047,161.9707 54.15163,0 0,-75.39881 -54.15163,0 0,75.39881 z" /></g></g></g></g></g></g></g><g
       id="g86"><g
         clip-path="url(#clipPath90)"
         id="g88"><g
           id="g94" /><g
           id="g108"><g
             id="g110"
             clip-path="url(#clipPath96)"><g
               id="g112" /><g
               id="g114"><g
                 id="g116"
                 clip-path="url(#clipPath100)"><g
                   id="g118"
                   clip-path="url(#clipPath104)"><path
                     id="path120"
                     style="fill:#0f5180;fill-opacity:1;fill-rule:evenodd;stroke:none"
                     d="m 25.60142,141.6538 49.85774,0 0,-61.98566 -49.85774,0 0,61.98566 z" /></g></g></g></g></g></g></g><g
       id="g122"><g
         clip-path="url(#clipPath126)"
         id="g124"><g
           id="g130" /><g
           id="g144"><g
             id="g146"
             clip-path="url(#clipPath132)"><g
               id="g148" /><g
               id="g150"><g
                 id="g152"
                 clip-path="url(#clipPath136)"><g
                   id="g154"
                   clip-path="url(#clipPath140)"><path
                     id="path156"
                     style="fill:#efa72d;fill-opacity:1;fill-rule:evenodd;stroke:none"
                     d="m 25.60142,106.4404 103.79028,0 0,-61.98571 -103.79028,0 0,61.98571 z" /></g></g></g></g></g></g></g><g
       id="g158"><g
         clip-path="url(#clipPath162)"
         id="g160"><g
           id="g166" /><g
           id="g180"><g
             id="g182"
             clip-path="url(#clipPath168)"><g
               id="g184" /><g
               id="g186"><g
                 id="g188"
                 clip-path="url(#clipPath172)"><g
                   id="g190"
                   clip-path="url(#clipPath176)"><path
                     id="path192"
                     style="fill:#efa72d;fill-opacity:1;fill-rule:evenodd;stroke:none"
                     d="m 48.60206,106.4384 52.34974,0 0,-61.84258 -52.34974,0 0,61.84258 z" /></g></g></g></g></g></g></g><g
       id="g194"><g
         clip-path="url(#clipPath198)"
         id="g196"><g
           id="g202" /><g
           id="g216"><g
             id="g218"
             clip-path="url(#clipPath204)"><g
               id="g220" /><g
               id="g222"><g
                 id="g224"
                 clip-path="url(#clipPath208)"><g
                   id="g226"
                   clip-path="url(#clipPath212)"><path
                     id="path228"
                     style="fill:#0f5180;fill-opacity:1;fill-rule:evenodd;stroke:none"
                     d="m 48.60206,141.6519 53.31564,0 0,-61.84263 -53.31564,0 0,61.84263 z" /></g></g></g></g></g></g></g><g
       id="g230"><g
         transform="matrix(1,0,0,-1,21.57945,250.4439)"
         id="g232"><path
           id="path234"
           style="fill:none;stroke:#efa731;stroke-width:3;stroke-linecap:square;stroke-linejoin:miter;stroke-miterlimit:10;stroke-dasharray:none;stroke-opacity:1"
           d="M 10.68944,1.529984 1.527063,4.589953" /></g><g
         transform="matrix(1,0,0,-1,990.7372,557.5008)"
         id="g236"><path
           id="path238"
           style="fill:none;stroke:#efa731;stroke-width:3;stroke-linecap:square;stroke-linejoin:miter;stroke-miterlimit:10;stroke-dasharray:none;stroke-opacity:1"
           d="M 0.5270627,5.649922 7.762785,7.765482e-4" /></g><g
         transform="matrix(1,0,0,-1,494.9689,498.3014)"
         id="g240"><path
           id="path242"
           style="fill:none;stroke:#efa731;stroke-width:3;stroke-linecap:square;stroke-linejoin:miter;stroke-miterlimit:10;stroke-dasharray:none;stroke-opacity:1"
           d="M 1.527063,7.649922 7.635314,1.529984" /></g><g
         transform="matrix(1,0,0,-1,421.6699,339.183)"
         id="g244"><path
           id="path246"
           style="fill:none;stroke:#efa731;stroke-width:3;stroke-linecap:square;stroke-linejoin:miter;stroke-miterlimit:10;stroke-dasharray:none;stroke-opacity:1"
           d="M 4.581188,1.529984 1.527063,4.589953" /></g><g
         transform="matrix(1,0,0,-1,391.1286,317.7632)"
         id="g248"><path
           id="path250"
           style="fill:none;stroke:#efa731;stroke-width:3;stroke-linecap:square;stroke-linejoin:miter;stroke-miterlimit:10;stroke-dasharray:none;stroke-opacity:1"
           d="M 1.527063,1.529984 10.68944,7.649922" /></g><g
         transform="matrix(1,0,0,-1,812.5979,198.4244)"
         id="g252"><path
           id="path254"
           style="fill:none;stroke:#efa731;stroke-width:3;stroke-linecap:square;stroke-linejoin:miter;stroke-miterlimit:10;stroke-dasharray:none;stroke-opacity:1"
           d="M 1.527063,1.529984 7.635314,4.589953" /></g><g
         transform="matrix(1,0,0,-1,418.6158,375.9026)"
         id="g256"><path
           id="path258"
           style="fill:none;stroke:#efa731;stroke-width:3;stroke-linecap:square;stroke-linejoin:miter;stroke-miterlimit:10;stroke-dasharray:none;stroke-opacity:1"
           d="M 7.635314,1.529984 1.527063,4.589953" /></g><g
         transform="matrix(1,0,0,-1,27.6877,636)"
         id="g260"><path
           id="path262"
           style="fill:none;stroke:#efa731;stroke-width:3;stroke-linecap:butt;stroke-linejoin:miter;stroke-miterlimit:10;stroke-dasharray:none;stroke-opacity:1"
           d="M 272.304,0.3269631 C 260.2738,20.40412 229.3344,5.956115 213.6439,16.27999 c -7.9743,5.2469 3.0247,18.99555 -18.4003,18.99555 -4.863,0 -32.1534,-13.5385 -34.9999,-4.8531 -8.6349,26.34767 30.7994,28.99593 36.6641,40.49232 3.3306,6.52877 6.4491,45.07584 4.4278,47.01294 -6.8709,6.5847 -13.8688,2.89 -17.711,10.6768 -3.5306,7.1549 -0.9507,15.9104 -4.2912,22.6043 -16.5218,33.1067 -108.04252,-20.5406 -128.10707,-5.4069 -3.20911,2.4205 -9.15488,15.9331 -5.12329,19.9724 1.17342,1.1757 14.33643,3.7913 11.76183,6.7943 -7.1253,8.311 -18.34854,14.4174 -22.69152,26.9037 -1.73367,4.9844 -1.27825,26.5231 -4.42155,29.5355 -5.00167,4.7933 -17.26396,6.9923 -27.535353,17.7511 -3.8036364,3.9842 13.210733,5.7369 10.929683,14.9824 -2.12794,8.625 -19.145146,16.3858 -10.793062,28.8449 4.648647,6.9346 14.972432,-0.566 19.928042,2.7688 13.55639,9.1224 1.60621,28.3213 10.09754,36.7529 5.34025,5.3027 16.88462,-0.8218 20.61115,2.9119 2.16773,2.1718 -5.37573,9.0302 -2.3474,12.0643 0.98193,0.9838 31.71333,-7.3351 32.78906,-8.4618 3.99426,-4.1838 11.22035,12.5087 15.21461,8.3249 8.44283,-8.8434 20.59213,-2.768 30.16223,-9.9862 3.7365,-2.8183 2.2764,-10.6152 6.3653,-12.6181 5.8064,-2.8441 24.6293,2.7685 28.914,-1.5243 10.8369,-10.8577 9.7963,-64.1886 13.5565,-67.956 4.4138,-4.4222 62.5399,-28.7079 72.08,-28.7079 2.0604,0 9.0501,1.0858 9.8243,-0.8276 3.4155,-8.4409 15.0294,-51.4649 35.9686,-40.4985 4.8912,2.5616 9.5842,13.7602 15.4941,17.3343 3.8,2.2981 53.8355,-6.3775 57.2753,-6.3775 3.5132,0 25.7022,-22.9869 29.0568,-17.3343 14.3122,24.1167 31.0667,29.5948 54.785,42.0167 3.9683,2.0783 -2.5201,15.3573 -1.8009,19.5555 0.7868,4.5925 10.3583,6.853 13.9788,9.2894 3.3273,2.239 1.8295,9.4672 4.5644,12.2074 20.4921,20.5313 82.8669,35.765 82.8669,72.1122 0,12.9143 -28.6051,33.6132 -42.0545,25.5161 -3.8962,-2.3457 -3.9186,-12.0146 -7.334,-13.7256 -2.708,-1.3566 -30.1622,8.9896 -30.1622,12.0644 0,9.7839 14.2963,4.1502 16.469,8.4556 7.6193,15.0981 14.1082,39.0072 38.0428,28.7079 9.8241,-4.2274 5.4229,-33.8544 10.377,-39.8016 5.6071,-6.7313 10.4398,10.7636 17.5682,5.9668 11.4353,-7.6952 10.6739,-25.7174 21.0334,-35.6454 10.4186,-9.9847 -13.3445,-13.6705 -1.8009,-25.2362 8.5719,-8.5883 30.7193,14.539 34.9998,7.3481 13.2068,-22.1861 -26.1813,-19.5408 -27.3925,-37.1636 -0.8772,-12.7631 -15.4532,-4.1553 -24.4862,-9.5693 -4.7148,-2.8258 0.5057,-16.044 0.4161,-16.0899 -2.6179,-1.3406 -11.9449,11.881 -14.8048,9.0156 -23.5509,-23.596 -80.7957,-67.2417 -73.8809,-108.0314" /></g><g
         transform="matrix(1,0,0,-1,418.6158,388.1425)"
         id="g264"><path
           id="path266"
           style="fill:none;stroke:#efa731;stroke-width:3;stroke-linecap:square;stroke-linejoin:miter;stroke-miterlimit:10;stroke-dasharray:none;stroke-opacity:1"
           d="M 1.527063,1.529984 10.68944,4.589953" /></g><g
         transform="matrix(1,0,0,-1,30.74182,498.3014)"
         id="g268"><path
           id="path270"
           style="fill:none;stroke:#efa731;stroke-width:3;stroke-linecap:butt;stroke-linejoin:miter;stroke-miterlimit:10;stroke-dasharray:none;stroke-opacity:1"
           d="m 471.6602,2.833326 c 16.4814,-6.124581 6.5159,6.376277 12.3083,11.927444 3.7244,3.56928 17.5416,-1.82209 21.0335,1.52437 4.0239,3.85633 -0.6682,11.28541 1.5214,15.67304 0.5684,1.13894 14.1993,1.75143 16.8789,4.43624 22.0764,22.1186 38.2479,50.91136 65.0192,68.92658 6.7353,4.5323 31.0497,-17.03699 37.2169,-7.62813 7.8224,11.93423 -1.3606,42.56423 4.7072,56.71913 6.9841,16.2926 41.7363,45.1698 54.3689,57.8266 2.8463,2.8517 -2.4447,13.1106 -1.1053,17.1974 1.4813,4.52 9.7151,11.1013 7.7439,16.0837 -0.2187,0.5527 -12.9543,10.6302 -8.16,12.2074 9.2874,3.0555 45.0001,-3.3623 45.9295,-13.7318 0.2786,-3.1086 -6.9481,-14.8029 -4.1483,-17.608 8.4472,-8.4634 9.9609,-2.5975 9.9609,-16.5068 0,-1.841 25.5213,-12.8938 14.6681,-23.2949 -3.598,-3.4483 -12.1692,7.7424 -16.8789,4.5731 -4.3928,-2.9561 0.7081,-16.4755 -3.7384,-19.8293 -3.6817,-2.7769 -10.1613,6.5936 -13.4199,3.3287 -27.0577,-27.1094 64.929,-27.0405 73.8809,-27.0405 10.0183,0 -5.3382,30.6949 6.5019,46.453 3.9667,5.2792 13.0848,-2.7988 17.7049,8.8787 2.5163,6.3602 4.7173,28.4393 7.8867,31.4767 3.2172,3.0832 16.1019,-6.7635 17.7111,-3.4656 2.2349,4.5802 -1.8838,11.2644 -0.2795,15.9468 1.5794,4.6094 15.0645,-0.4921 18.8165,1.3875 5.2042,2.6071 8.1746,7.4793 11.7618,11.2368 1.3615,1.4261 17.6848,-8.353 20.4745,-9.4325 6.6529,-2.5743 19.3016,1.7908 23.2443,-4.5793 27.4417,-44.3376 15.5189,0.2764 33.3417,-11.0937 3.7284,-2.3786 7.183,-18.257 10.0975,-16.7805 5.053,2.5597 22.3174,14.903 25.455,14.2855 2.811,-0.5532 23.9436,-32.9912 29.8826,-27.0405 13.092,13.117 -2.535,20.9436 -0.689,34.6686 1.091,8.1177 17.696,3.8732 16.189,17.0605 -1.338,11.7166 -16.736,0.1477 -13.146,14.6962 1.559,6.3187 9.598,6.3028 10.793,12.3443 5.251,26.5427 -13.557,41.0712 -24.902,58.3804 -8.6329,13.1701 12.655,13.0668 -17.2954,27.7374 -8.3184,4.0745 -10.8416,-14.2217 -17.7111,-11.9275 -4.3331,1.4472 -6.1481,10.8034 -10.377,12.8981 -6.7184,3.3278 -16.3316,-2.9691 -22.8219,-2.2213 -23.2324,2.6769 5.4482,19.7919 -74.8497,10.54 -13.208,-1.5218 -24.7979,17.6733 -36.8008,14.5655 -20.3301,-5.2639 -50.3139,-16.5815 -70.0058,-23.158 -4.6756,-1.5615 -10.5661,4.9295 -10.7931,4.8531 -5.8679,-1.9743 -9.3379,-11.7564 -15.6307,-13.3149 -10.4164,-2.5798 -9.7423,12.5965 -22.1326,9.0156 -4.7419,-1.3705 -5.1293,-8.9556 -11.6252,-7.4912 -32.0083,7.2156 -29.756,69.9642 -67.6523,65.5978 -28.4514,-3.2782 -40.0854,-21.8994 -54.785,-27.7374 -4.2542,-1.6896 -16.146,0.8524 -18.6798,-0.8337 -4.5326,-3.0162 -2.3482,-13.2987 -6.0859,-15.2562 -9.439,-4.9435 -20.4396,14.8021 -27.2559,10.2662 -9.9816,-6.6423 -8.9028,-29.1638 -22.6853,-33.698 -10.8117,-3.5569 -59.4249,1.7813 -75.539,-27.7374 -22.1388,-40.555 26.6944,-77.783 -23.3808,-107.6145 -3.1381,-1.8694 -47.6607,20.6631 -60.5977,20.6631 -6.1924,0 -7.2429,-6.8566 -13.1467,-8.3187 -9.0186,-2.2336 -14.5509,7.3361 -24.2067,6.3774 -14.199,-1.4098 -26.6147,-10.2146 -38.8811,-12.7611 -10.8131,-2.2449 -30.4254,15.6836 -44.6813,8.4618 -6.0193,-3.0493 -11.6007,-15.2461 -20.8906,-10.54 -15.358,7.7802 -97.74461,27.0669 -110.81834,20.6631 -3.92127,-1.9208 -4.58498,-9.4888 -8.99215,-11.6475 -7.4512,-3.6498 -21.63884,6.7509 -29.74613,-3.055 -2.33784,-2.8276 1.63251,-23.0211 -2.21699,-23.0211 -5.63236,0 -33.057492,33.9089 -41.36513,37.8604" /></g></g><g
       id="g272"><g
         id="g274" /><g
         id="g288"><g
           style="opacity:0.69059999"
           id="g290"
           clip-path="url(#clipPath276)"><g
             id="g292" /><g
             id="g294"><g
               id="g296"
               clip-path="url(#clipPath280)"><g
                 id="g298"
                 clip-path="url(#clipPath284)"><path
                   id="path300"
                   style="fill:#d0021b;fill-opacity:1;fill-rule:evenodd;stroke:none"
                   d="m 671.2133,342.0139 115.0889,0 0,-106.1189 -115.0889,0 0,106.1189 z" /></g></g></g></g></g><g
         transform="matrix(1,0,0,-1,14.02796,633.463)"
         id="g302"><path
           id="path304"
           style="fill:none;stroke:#efa731;stroke-width:3;stroke-linecap:square;stroke-linejoin:miter;stroke-miterlimit:10;stroke-dasharray:none;stroke-opacity:1"
           d="M 0,614.673 0,0" /></g><g
         transform="matrix(1,0,0,-1,14.02796,634.621)"
         id="g306"><path
           id="path308"
           style="fill:none;stroke:#efa731;stroke-width:3;stroke-linecap:square;stroke-linejoin:miter;stroke-miterlimit:10;stroke-dasharray:none;stroke-opacity:1"
           d="M 0,0 1145.464,0" /></g><g
         transform="matrix(1,0,0,-1,17.08937,16.11333)"
         id="g310"><path
           id="path312"
           style="fill:none;stroke:#efa731;stroke-width:3;stroke-linecap:square;stroke-linejoin:miter;stroke-miterlimit:10;stroke-dasharray:none;stroke-opacity:1"
           d="M 0,0 1142.24,0" /></g><g
         transform="matrix(1,0,0,-1,1158.997,634.621)"
         id="g314"><path
           id="path316"
           style="fill:none;stroke:#efa731;stroke-width:3;stroke-linecap:square;stroke-linejoin:miter;stroke-miterlimit:10;stroke-dasharray:none;stroke-opacity:1"
           d="M 0,0 0,617.8996" /></g></g><g
       id="g318"><g
         clip-path="url(#clipPath322)"
         id="g320"><path
           id="path326"
           style="fill:#d0021b;fill-opacity:1;fill-rule:evenodd;stroke:none"
           d="m 957.2501,506.3614 19.1624,0 0,-19.1799 -19.1624,0 0,19.1799 z" /></g></g><g
       id="g328"><g
         transform="matrix(1,0,0,-1,962.2501,501.3614)"
         id="g330"><path
           id="path332"
           style="fill:none;stroke:#000000;stroke-width:1;stroke-linecap:butt;stroke-linejoin:miter;stroke-miterlimit:10;stroke-dasharray:none;stroke-opacity:1"
           d="m 4.581188,9.179907 c 2.530121,0 4.581188,-2.054992 4.581188,-4.589954 C 9.162376,2.054992 7.111309,0 4.581188,0 2.051068,0 0,2.054992 0,4.589953 0,7.124915 2.051068,9.179907 4.581188,9.179907 Z" /></g></g><g
       id="g334"><g
         clip-path="url(#clipPath338)"
         id="g336"><g
           transform="matrix(1,0,0,-1,895.0593,492.1815)"
           id="g342"><text
             id="text344"
             style="font-variant:normal;font-weight:normal;font-size:26.49600029px;font-family:TimesNewRomanPSMT;-inkscape-font-specification:TimesNewRomanPSMT;writing-mode:lr-tb;fill:#000000;fill-opacity:1;fill-rule:nonzero;stroke:none"
             transform="translate(0,24)"><tspan
               id="tspan346"
               y="0"
               x="0 19.13541 30.894337 44.142338 55.90126 69.149261 83.329918 95.751244">Херсонес</tspan></text>
</g></g></g><g
       id="g348"><g
         transform="matrix(1,0,0,-1,919.4923,550.3209)"
         id="g350"><path
           id="path352"
           style="fill:none;stroke:#efa731;stroke-width:3;stroke-linecap:butt;stroke-linejoin:miter;stroke-miterlimit:10;stroke-dasharray:none;stroke-opacity:1"
           d="M -0.6729743,13.27656 C 12.78655,18.41542 25.88886,13.32618 39.59418,24.23785 45.34325,28.81504 15.2138,37.02859 19.80795,43.14294 24.8802,49.89359 59.70578,66.30287 64.75492,61.62917 71.42503,55.45503 72.79545,44.57133 80.23157,38.96265 80.78923,38.54203 97.16961,32.59771 93.06672,29.30171 89.35661,26.32124 74.39742,27.17613 70.36237,28.18683 37.85401,36.32947 71.23863,11.20341 70.87195,-1.494084" /></g></g><g
       id="g354"><g
         clip-path="url(#clipPath358)"
         id="g356"><g
           transform="matrix(1,0,0,-1,855.3557,583.9805)"
           id="g362"><text
             id="text364"
             style="font-variant:normal;font-weight:normal;font-size:25.92000008px;font-family:TimesNewRomanPSMT;-inkscape-font-specification:TimesNewRomanPSMT;writing-mode:lr-tb;fill:#000000;fill-opacity:1;fill-rule:nonzero;stroke:none"
             transform="translate(0,23)"><tspan
               id="tspan366"
               y="0"
               x="0 18.719423 31.653503 43.475616 55.715038 62.915615">Ольвія</tspan></text>
</g></g></g><g
       id="g368"><g
         clip-path="url(#clipPath372)"
         id="g370"><path
           id="path376"
           style="fill:#d0021b;fill-opacity:1;fill-rule:evenodd;stroke:none"
           d="m 890.0593,555.3209 19.1624,0 0,-19.1799 -19.1624,0 0,19.1799 z" /></g></g><g
       id="g378"><g
         transform="matrix(1,0,0,-1,895.0593,550.3209)"
         id="g380"><path
           id="path382"
           style="fill:none;stroke:#000000;stroke-width:1;stroke-linecap:butt;stroke-linejoin:miter;stroke-miterlimit:10;stroke-dasharray:none;stroke-opacity:1"
           d="m 4.581188,9.179907 c 2.530121,0 4.581188,-2.054992 4.581188,-4.589954 C 9.162376,2.054992 7.111309,0 4.581188,0 2.051068,0 0,2.054992 0,4.589953 0,7.124915 2.051068,9.179907 4.581188,9.179907 Z" /></g><g
         transform="matrix(1,0,0,-1,846.1933,580.9206)"
         id="g384"><path
           id="path386"
           style="fill:none;stroke:#efa731;stroke-width:3;stroke-linecap:butt;stroke-linejoin:miter;stroke-miterlimit:10;stroke-dasharray:none;stroke-opacity:1"
           d="m 152.323,23.39365 c 14.3188,-6.80041 43.6084,-7.49642 53.1023,-22.4352099 7.2502,-11.4082901 -21.2939,45.4532199 -7.6936,65.4447099 18.5262,27.2323 129.2816,38.12835 89.4301,89.31785 -1.2493,1.6046 -138.4289,2.1666 -159.0283,8.5939 -11.6551,3.6366 -18.763,21.0492 -29.14581,27.3095 -3.92106,2.3642 -28.37659,-1.3057 -37.99589,1.4879 C 49.12325,196.559 25.75345,242.4043 2.608583,219.2151 -18.01555,198.5516 54.41781,201.861 42.45768,188.188 3.797154,143.991 30.38979,165.1193 20.81824,136.4929 c -1.53501,-4.5909 -9.69286,-0.6299 -9.35962,-5.7141 1.05606,-16.1117 25.95313,-8.9998 32.24909,-27.3573 7.74103,-22.57113 7.0721,-63.75723 27.34048,-66.8368" /></g></g><g
       id="g388"><g
         clip-path="url(#clipPath392)"
         id="g390"><g
           transform="matrix(1,0,0,-1,992.7913,556.4408)"
           id="g396"><text
             id="text398"
             style="font-variant:normal;font-weight:normal;font-size:26.49600029px;font-family:TimesNewRomanPSMT;-inkscape-font-specification:TimesNewRomanPSMT;writing-mode:lr-tb;fill:#000000;fill-opacity:1;fill-rule:nonzero;stroke:none"
             transform="translate(0,24)"><tspan
               id="tspan400"
               y="0"
               x="0 19.13541 30.894337 45.074997 56.653748 64.014336 76.486 87.897827 102.07849 113.83742">Пантікапей</tspan></text>
</g></g></g><g
       id="g402"><g
         clip-path="url(#clipPath406)"
         id="g404"><path
           id="path410"
           style="fill:#d0021b;fill-opacity:1;fill-rule:evenodd;stroke:none"
           d="m 957.2501,506.3614 19.1624,0 0,-19.1799 -19.1624,0 0,19.1799 z" /></g></g><g
       id="g412"><g
         transform="matrix(1,0,0,-1,962.2501,501.3614)"
         id="g414"><path
           id="path416"
           style="fill:none;stroke:#000000;stroke-width:1;stroke-linecap:butt;stroke-linejoin:miter;stroke-miterlimit:10;stroke-dasharray:none;stroke-opacity:1"
           d="m 4.581188,9.179907 c 2.530121,0 4.581188,-2.054992 4.581188,-4.589954 C 9.162376,2.054992 7.111309,0 4.581188,0 2.051068,0 0,2.054992 0,4.589953 0,7.124915 2.051068,9.179907 4.581188,9.179907 Z" /></g></g><g
       id="g418"><g
         clip-path="url(#clipPath422)"
         id="g420"><g
           transform="matrix(1,0,0,-1,861.4639,314.7033)"
           id="g426"><text
             id="text428"
             style="font-variant:normal;font-weight:normal;font-size:25.92000008px;font-family:TimesNewRomanPSMT;-inkscape-font-specification:TimesNewRomanPSMT;writing-mode:lr-tb;fill:#000000;fill-opacity:1;fill-rule:nonzero;stroke:none"
             transform="translate(0,23)"><tspan
               id="tspan430"
               y="0"
               x="0 23.048063 30.24864 43.18272 54.686016">Мілет</tspan></text>
</g></g></g><g
       id="g432"><g
         clip-path="url(#clipPath436)"
         id="g434"><path
           id="path440"
           style="fill:#d0021b;fill-opacity:1;fill-rule:evenodd;stroke:none"
           d="m 847.3016,289.1036 19.1623,0 0,-19.1799 -19.1623,0 0,19.1799 z" /></g></g><g
       id="g442"><g
         transform="matrix(1,0,0,-1,852.3016,284.1036)"
         id="g444"><path
           id="path446"
           style="fill:none;stroke:#000000;stroke-width:1;stroke-linecap:butt;stroke-linejoin:miter;stroke-miterlimit:10;stroke-dasharray:none;stroke-opacity:1"
           d="m 4.581188,9.179907 c 2.530121,0 4.581188,-2.054992 4.581188,-4.589954 C 9.162376,2.054992 7.111309,0 4.581188,0 2.051068,0 0,2.054992 0,4.589953 0,7.124915 2.051068,9.179907 4.581188,9.179907 Z" /></g></g><g
       id="g448"><g
         clip-path="url(#clipPath452)"
         id="g450"><g
           transform="matrix(1,0,0,-1,748.4613,412.6223)"
           id="g456"><text
             id="text458"
             style="font-variant:normal;font-weight:normal;font-size:25.92000008px;font-family:TimesNewRomanPSMT;-inkscape-font-specification:TimesNewRomanPSMT;writing-mode:lr-tb;fill:#000000;fill-opacity:1;fill-rule:nonzero;stroke:none"
             transform="translate(0,23)"><tspan
               id="tspan460"
               y="0"
               x="0 17.288639 24.489216 34.727615 46.230911 60.103294 71.430336 78.630913">Візантій</tspan></text>
</g></g></g><g
       id="g462"><g
         clip-path="url(#clipPath466)"
         id="g464"><path
           id="path470"
           style="fill:#d0021b;fill-opacity:1;fill-rule:evenodd;stroke:none"
           d="m 825.9227,383.9626 19.1624,0 0,-19.1799 -19.1624,0 0,19.1799 z" /></g></g><g
       id="g472"><g
         transform="matrix(1,0,0,-1,830.9227,378.9626)"
         id="g474"><path
           id="path476"
           style="fill:none;stroke:#000000;stroke-width:1;stroke-linecap:butt;stroke-linejoin:miter;stroke-miterlimit:10;stroke-dasharray:none;stroke-opacity:1"
           d="m 4.581188,9.179907 c 2.530121,0 4.581188,-2.054992 4.581188,-4.589954 C 9.162376,2.054992 7.111309,0 4.581188,0 2.051068,0 0,2.054992 0,4.589953 0,7.124915 2.051068,9.179907 4.581188,9.179907 Z" /></g></g><g
       id="g478"><g
         clip-path="url(#clipPath482)"
         id="g480"><g
           transform="matrix(1,0,0,-1,678.2164,244.324)"
           id="g486"><text
             id="text488"
             style="font-variant:normal;font-weight:normal;font-size:25.92000008px;font-family:TimesNewRomanPSMT;-inkscape-font-specification:TimesNewRomanPSMT;writing-mode:lr-tb;fill:#000000;fill-opacity:1;fill-rule:nonzero;stroke:none"
             transform="translate(0,23)"><tspan
               id="tspan490"
               y="0"
               x="0 17.288639 31.161024 42.664322 55.282177 66.925438">Спарта</tspan></text>
</g></g></g><g
       id="g492"><g
         clip-path="url(#clipPath496)"
         id="g494"><path
           id="path500"
           style="fill:#d0021b;fill-opacity:1;fill-rule:evenodd;stroke:none"
           d="m 725.1366,261.5639 19.1623,0 0,-19.18 -19.1623,0 0,19.18 z" /></g></g><g
       id="g502"><g
         transform="matrix(1,0,0,-1,730.1366,256.5639)"
         id="g504"><path
           id="path506"
           style="fill:none;stroke:#000000;stroke-width:1;stroke-linecap:butt;stroke-linejoin:miter;stroke-miterlimit:10;stroke-dasharray:none;stroke-opacity:1"
           d="m 4.581188,9.179907 c 2.530121,0 4.581188,-2.054992 4.581188,-4.589954 C 9.162376,2.054992 7.111309,0 4.581188,0 2.051068,0 0,2.054992 0,4.589953 0,7.124915 2.051068,9.179907 4.581188,9.179907 Z" /></g></g><g
       id="g508"><g
         clip-path="url(#clipPath512)"
         id="g510"><path
           id="path516"
           style="fill:#d0021b;fill-opacity:1;fill-rule:evenodd;stroke:none"
           d="m 987.7913,527.7811 19.1627,0 0,-19.1799 -19.1627,0 0,19.1799 z" /></g></g><g
       id="g518"><g
         transform="matrix(1,0,0,-1,992.7913,522.7811)"
         id="g520"><path
           id="path522"
           style="fill:none;stroke:#000000;stroke-width:1;stroke-linecap:butt;stroke-linejoin:miter;stroke-miterlimit:10;stroke-dasharray:none;stroke-opacity:1"
           d="m 4.581188,9.179907 c 2.530121,0 4.581188,-2.054992 4.581188,-4.589954 C 9.162376,2.054992 7.111309,0 4.581188,0 2.051068,0 0,2.054992 0,4.589953 0,7.124915 2.051068,9.179907 4.581188,9.179907 Z" /></g><g
         transform="matrix(1,0,0,-1,910.33,544.2009)"
         id="g524"><path
           id="path526"
           style="fill:none;stroke:#efa731;stroke-width:3;stroke-linecap:square;stroke-linejoin:miter;stroke-miterlimit:10;stroke-dasharray:none;stroke-opacity:1"
           d="M 1.527063,1.529984 10.68944,7.649922" /></g><g
         transform="matrix(1,0,0,-1,983.629,238.204)"
         id="g528"><path
           id="path530"
           style="fill:none;stroke:#efa731;stroke-width:3;stroke-linecap:butt;stroke-linejoin:miter;stroke-miterlimit:10;stroke-dasharray:none;stroke-opacity:1"
           d="M 18.48144,-1.189035 C -16.48206,14.30904 9.691506,23.38365 32.91266,8.928723" /></g><g
         transform="matrix(1,0,0,-1,1008.062,244.324)"
         id="g532"><path
           id="path534"
           style="fill:none;stroke:#efa731;stroke-width:3;stroke-linecap:butt;stroke-linejoin:miter;stroke-miterlimit:10;stroke-dasharray:none;stroke-opacity:1"
           d="M 30.84408,-0.07551073 C 26.4515,5.021926 10.18871,-1.506904 -0.1618527,0.1491211" /></g><g
         transform="matrix(1,0,0,-1,1017.224,241.264)"
         id="g536"><path
           id="path538"
           style="fill:none;stroke:#efa731;stroke-width:3;stroke-linecap:butt;stroke-linejoin:miter;stroke-miterlimit:10;stroke-dasharray:none;stroke-opacity:1"
           d="M 0.3545062,9.303215 C 3.426176,1.848817 8.699385,2.355601 15.32179,1.264661" /></g><g
         transform="matrix(1,0,0,-1,1001.954,247.3839)"
         id="g540"><path
           id="path542"
           style="fill:none;stroke:#efa731;stroke-width:3;stroke-linecap:square;stroke-linejoin:miter;stroke-miterlimit:10;stroke-dasharray:none;stroke-opacity:1"
           d="M 1.527063,7.649922 7.635314,4.59169" /></g><g
         transform="matrix(1,0,0,-1,1014.17,235.1441)"
         id="g544"><path
           id="path546"
           style="fill:none;stroke:#efa731;stroke-width:3;stroke-linecap:square;stroke-linejoin:miter;stroke-miterlimit:10;stroke-dasharray:none;stroke-opacity:1"
           d="M 4.581188,1.529984 1.527063,7.649922" /></g><g
         transform="matrix(1,0,0,-1,821.7603,210.6643)"
         id="g548"><path
           id="path550"
           style="fill:none;stroke:#efa731;stroke-width:3;stroke-linecap:butt;stroke-linejoin:miter;stroke-miterlimit:10;stroke-dasharray:none;stroke-opacity:1"
           d="M 11.50917,-0.3608824 C 51.69942,-4.28082 21.14447,20.4421 -1.253293,17.30805" /></g><g
         transform="matrix(1,0,0,-1,775.9484,225.9642)"
         id="g552"><path
           id="path554"
           style="fill:none;stroke:#efa731;stroke-width:3;stroke-linecap:butt;stroke-linejoin:miter;stroke-miterlimit:10;stroke-dasharray:none;stroke-opacity:1"
           d="M 40.07818,28.4651 C 25.19456,24.47568 -26.70572,4.103339 18.19158,-0.1816338" /></g><g
         transform="matrix(1,0,0,-1,797.3273,225.9642)"
         id="g556"><path
           id="path558"
           style="fill:none;stroke:#efa731;stroke-width:3;stroke-linecap:butt;stroke-linejoin:miter;stroke-miterlimit:10;stroke-dasharray:none;stroke-opacity:1"
           d="M -0.6274217,0.3865809 C 5.834886,10.71888 15.73491,15.47277 29.59706,14.16928" /></g><g
         transform="matrix(1,0,0,-1,791.2191,229.0241)"
         id="g560"><path
           id="path562"
           style="fill:none;stroke:#efa731;stroke-width:3;stroke-linecap:square;stroke-linejoin:miter;stroke-miterlimit:10;stroke-dasharray:none;stroke-opacity:1"
           d="M 1.527063,1.529984 4.581188,4.589953" /></g><g
         transform="matrix(1,0,0,-1,824.8144,216.7843)"
         id="g564"><path
           id="path566"
           style="fill:none;stroke:#efa731;stroke-width:3;stroke-linecap:square;stroke-linejoin:miter;stroke-miterlimit:10;stroke-dasharray:none;stroke-opacity:1"
           d="m 1.527063,4.589953 6.108251,0" /></g><g
         transform="matrix(1,0,0,-1,415.5616,427.9221)"
         id="g568"><path
           id="path570"
           style="fill:none;stroke:#efa731;stroke-width:3;stroke-linecap:butt;stroke-linejoin:miter;stroke-miterlimit:10;stroke-dasharray:none;stroke-opacity:1"
           d="M 16.29388,1.121753 C 8.775165,12.55013 -12.17616,33.13079 6.400202,42.83673" /></g><g
         transform="matrix(1,0,0,-1,394.1828,372.8427)"
         id="g572"><path
           id="path574"
           style="fill:none;stroke:#efa731;stroke-width:3;stroke-linecap:butt;stroke-linejoin:miter;stroke-miterlimit:10;stroke-dasharray:none;stroke-opacity:1"
           d="M 27.09923,0.7772756 C -15.23654,13.87573 32.63685,7.111868 -0.4264749,55.58289" /></g><g
         transform="matrix(1,0,0,-1,424.724,375.9026)"
         id="g576"><path
           id="path578"
           style="fill:none;stroke:#efa731;stroke-width:3;stroke-linecap:butt;stroke-linejoin:miter;stroke-miterlimit:10;stroke-dasharray:none;stroke-opacity:1"
           d="M 2.113627,0.1003786 C 22.32638,-4.68614 4.455742,8.4307 5.326625,9.454142 18.94838,25.46211 12.91113,22.5272 1.246444,38.99584" /></g><g
         transform="matrix(1,0,0,-1,400.291,336.123)"
         id="g580"><path
           id="path582"
           style="fill:none;stroke:#efa731;stroke-width:3;stroke-linecap:butt;stroke-linejoin:miter;stroke-miterlimit:10;stroke-dasharray:none;stroke-opacity:1"
           d="M 23.47571,1.025628 C 12.7868,14.7451 22.34484,31.04029 0.6395316,26.57213" /></g><g
         transform="matrix(1,0,0,-1,427.7781,421.8022)"
         id="g584"><path
           id="path586"
           style="fill:none;stroke:#efa731;stroke-width:3;stroke-linecap:butt;stroke-linejoin:miter;stroke-miterlimit:10;stroke-dasharray:none;stroke-opacity:1"
           d="M 9.821414,-1.167476 C 14.21348,12.34343 11.59304,29.51441 0.7244091,39.30223" /></g><g
         transform="matrix(1,0,0,-1,430.8323,427.9221)"
         id="g588"><path
           id="path590"
           style="fill:none;stroke:#efa731;stroke-width:3;stroke-linecap:square;stroke-linejoin:miter;stroke-miterlimit:10;stroke-dasharray:none;stroke-opacity:1"
           d="M 1.527063,1.529984 7.635314,4.589953" /></g></g><g
       id="g592"><g
         clip-path="url(#clipPath596)"
         id="g594"><g
           transform="matrix(1,0,0,-1,699.5953,330.0031)"
           id="g600"><text
             id="text602"
             style="font-variant:normal;font-weight:normal;font-size:25.92000008px;font-family:TimesNewRomanPSMT;-inkscape-font-specification:TimesNewRomanPSMT;writing-mode:lr-tb;fill:#000000;fill-opacity:1;fill-rule:nonzero;stroke:none"
             transform="translate(0,23)"><tspan
               id="tspan604"
               y="0"
               x="0 17.731873 34.530624 41.738976 55.608768">Афіни</tspan></text>
</g></g></g><g
       id="g606"><g
         clip-path="url(#clipPath610)"
         id="g608"><path
           id="path614"
           style="fill:#d0021b;fill-opacity:0.3;fill-rule:evenodd;stroke:none"
           d="m 184.1408,475.1121 241.2748,0 0,-157.423 -241.2748,0 0,157.423 z" /></g></g><g
       id="g616"><g
         clip-path="url(#clipPath620)"
         id="g618"><path
           id="path624"
           style="fill:#d0021b;fill-opacity:0.3;fill-rule:evenodd;stroke:none"
           d="m 422.9696,427.9932 20.7171,0 0,-48.6441 -20.7171,0 0,48.6441 z" /></g></g><g
       id="g626"><g
         id="g628" /><g
         id="g642"><g
           style="opacity:0.3"
           id="g644"
           clip-path="url(#clipPath630)"><g
             id="g646" /><g
             id="g648"><g
               id="g650"
               clip-path="url(#clipPath634)"><g
                 id="g652"
                 clip-path="url(#clipPath638)"><path
                   id="path654"
                   style="fill:#d0021b;fill-opacity:1;fill-rule:evenodd;stroke:none"
                   d="m 476.3845,496.4425 28.344,0 0,-37.07 -28.344,0 0,37.07 z" /></g></g></g></g></g></g><g
       id="g656"><g
         clip-path="url(#clipPath660)"
         id="g658"><path
           id="path664"
           style="fill:#d0021b;fill-opacity:0.3;fill-rule:evenodd;stroke:none"
           d="m 505.2056,451.3506 43.3535,0 0,-46.9242 -43.3535,0 0,46.9242 z" /></g></g><g
       id="g666"><g
         clip-path="url(#clipPath670)"
         id="g668"><path
           id="path674"
           style="fill:#d0021b;fill-opacity:0.3;fill-rule:evenodd;stroke:none"
           d="m 512.7472,369.6766 131.0338,0 0,-97.0878 -131.0338,0 0,97.0878 z" /></g></g><g
       id="g676"><g
         clip-path="url(#clipPath680)"
         id="g678"><path
           id="path684"
           style="fill:#d0021b;fill-opacity:0.3;fill-rule:evenodd;stroke:none"
           d="m 537.9786,285.4311 29.4344,0 0,-47.5737 -29.4344,0 0,47.5737 z" /></g></g><g
       id="g686"><g
         clip-path="url(#clipPath690)"
         id="g688"><path
           id="path694"
           style="fill:#d0021b;fill-opacity:0.3;fill-rule:evenodd;stroke:none"
           d="m 497.6349,296.0218 43.5868,0 0,-33.5553 -43.5868,0 0,33.5553 z" /></g></g><g
       id="g696"><g
         id="g698" /><g
         id="g712"><g
           style="opacity:0.3"
           id="g714"
           clip-path="url(#clipPath700)"><g
             id="g716" /><g
             id="g718"><g
               id="g720"
               clip-path="url(#clipPath704)"><g
                 id="g722"
                 clip-path="url(#clipPath708)"><path
                   id="path724"
                   style="fill:#d0021b;fill-opacity:1;fill-rule:evenodd;stroke:none"
                   d="m 957.184,526.4434 59.17,0 0,-41.8472 -59.17,0 0,41.8472 z" /></g></g></g></g></g></g><g
       id="g726"><g
         id="g728" /><g
         id="g742"><g
           style="opacity:0.3"
           id="g744"
           clip-path="url(#clipPath730)"><g
             id="g746" /><g
             id="g748"><g
               id="g750"
               clip-path="url(#clipPath734)"><g
                 id="g752"
                 clip-path="url(#clipPath738)"><path
                   id="path754"
                   style="fill:#d0021b;fill-opacity:1;fill-rule:evenodd;stroke:none"
                   d="m 1037.204,537.8479 32.9,-3.458 -3.909,-37.1887 -32.9,3.458 3.909,37.1887 z" /></g></g></g></g></g></g><g
       id="g756"><g
         clip-path="url(#clipPath760)"
         id="g758"><path
           id="path764"
           style="fill:#d0021b;fill-opacity:0.3;fill-rule:evenodd;stroke:none"
           d="m 905.0326,302.5309 117.7074,0 0,-62.4505 -117.7074,0 0,62.4505 z" /></g></g><g
       id="g766"><g
         clip-path="url(#clipPath770)"
         id="g768"><path
           id="path774"
           style="fill:#d0021b;fill-opacity:0.3;fill-rule:evenodd;stroke:none"
           d="m 745.941,499.1546 413.259,0 0,-239.0881 -413.259,0 0,239.0881 z" /></g></g><g
       id="g776"><g
         id="g778" /><g
         id="g792"><g
           style="opacity:0.3"
           id="g794"
           clip-path="url(#clipPath780)"><g
             id="g796" /><g
             id="g798"><g
               id="g800"
               clip-path="url(#clipPath784)"><g
                 id="g802"
                 clip-path="url(#clipPath788)"><path
                   id="path804"
                   style="fill:#d0021b;fill-opacity:1;fill-rule:evenodd;stroke:none"
                   d="m 674.5917,138.1157 71.3117,0 0,-65.01602 -71.3117,0 0,65.01602 z" /></g></g></g></g></g></g><g
       id="g806"><g
         clip-path="url(#clipPath810)"
         id="g808"><path
           id="path814"
           style="fill:#d0021b;fill-opacity:0.3;fill-rule:evenodd;stroke:none"
           d="m 872.8548,562.2563 49.1316,0 0,-54.5759 -49.1316,0 0,54.5759 z" /></g></g><g
       id="g816"><g
         clip-path="url(#clipPath820)"
         id="g818"><path
           id="path824"
           style="fill:#d0021b;fill-opacity:0.3;fill-rule:evenodd;stroke:none"
           d="m 533.517,502.7545 146.2465,0 0,-139.0372 -146.2465,0 0,139.0372 z" /></g></g><g
       id="g826"><g
         clip-path="url(#clipPath830)"
         id="g828"><path
           id="path834"
           style="fill:#d0021b;fill-opacity:1;fill-rule:evenodd;stroke:none"
           d="m 746.5154,304.4034 19.1624,0 0,-19.1799 -19.1624,0 0,19.1799 z" /></g></g><g
       id="g836"><g
         transform="matrix(1,0,0,-1,751.5154,299.4034)"
         id="g838"><path
           id="path840"
           style="fill:none;stroke:#000000;stroke-width:1;stroke-linecap:butt;stroke-linejoin:miter;stroke-miterlimit:10;stroke-dasharray:none;stroke-opacity:1"
           d="m 4.581188,9.179907 c 2.530121,0 4.581188,-2.054992 4.581188,-4.589954 C 9.162376,2.054992 7.111309,0 4.581188,0 2.051068,0 0,2.054992 0,4.589953 0,7.124915 2.051068,9.179907 4.581188,9.179907 Z" /></g></g></g></svg>