<?xml version="1.0" encoding="UTF-8" standalone="no"?>
<svg width="334px" height="702px" viewBox="0 0 334 702" version="1.1" xmlns="http://www.w3.org/2000/svg" xmlns:xlink="http://www.w3.org/1999/xlink" xmlns:sketch="http://www.bohemiancoding.com/sketch/ns">
    <!-- Generator: Sketch 3.0.1 (7597) - http://www.bohemiancoding.com/sketch -->
    <title>slov2</title>
    <description>Created with Sketch.</description>
    <defs>
        <path id="path-1" d="M14.604,-0.2809 L0.1483,12.79905 L13.7473,15.38471 L28.2031,2.30477 L14.604,-0.2809 L14.604,-0.2809 Z"></path>
        <path id="path-3" d="M0.1477,27.76855 L14.6034,14.6886 L14.6034,-0.20187 L0.1477,12.8781 L0.1477,27.76855 L0.1477,27.76855 Z"></path>
        <path id="path-5" d="M0.1106,15.16409 C0.1106,18.7595 2.6722,19.15367 4.2846,19.07638 C4.2846,19.07638 10.5924,18.82873 11.9916,18.62365 L11.9916,15.56761 L5.0996,15.56761 C4.3834,15.56761 3.5794,15.59418 3.5684,14.18264 L3.5684,11.1412 L10.8678,10.88952 L10.8678,7.82413 L3.5684,7.54317 L3.5684,4.50173 C3.5684,3.78262 3.5684,3.01029 4.8526,3.01029 L11.9916,3.01029 L11.9916,-0.07241 C10.4022,-0.30678 4.0377,-0.49847 4.0377,-0.49847 C2.3326,-0.5345 0.1106,0.16664 0.1106,3.54967 L0.1106,15.16409 L0.1106,15.16409 Z"></path>
        <path d="M0.1106,15.17947 C0.1106,18.77488 2.6722,19.16905 4.2846,19.09176 C4.2846,19.09176 10.5924,18.84412 11.9916,18.63903 L11.9916,15.58301 L5.0996,15.58301 C4.3834,15.58301 3.5794,15.60956 3.5684,14.19802 L3.5684,11.15658 L10.8678,10.9049 L10.8678,7.83951 L3.5684,7.55856 L3.5684,4.51711 C3.5684,3.79801 3.5684,3.02568 4.8526,3.02568 L11.9916,3.02568 L11.9916,-0.05702 C10.4022,-0.29139 4.0377,-0.48309 4.0377,-0.48309 C2.3326,-0.51912 0.1106,0.18202 0.1106,3.56506 L0.1106,15.17947 L0.1106,15.17947 Z M28.4252,19.01187 L32.1397,19.01187 L33.4437,14.69213 L39.3651,14.69213 L40.6494,19.01187 L44.3306,19.01187 L38.4587,-0.48309 L34.5255,-0.48309 L28.4252,19.01187 L28.4252,19.01187 Z M34.3416,11.38834 L36.5149,4.43058 L38.5464,11.38834 L34.3416,11.38834 L34.3416,11.38834 Z" id="path-7"></path>
        <path d="M-0.0977,19.0119 L3.36,19.0119 L3.36,11.26188 L6.3978,11.63471 L9.3863,19.0119 L13.2775,19.0119 L9.8543,11.33503 C10.8583,10.9942 12.7328,10.42162 12.7328,5.5958 C12.7328,0.94035 10.6335,-0.48317 7.8118,-0.48317 L-0.0977,-0.48317 L-0.0977,19.0119 L-0.0977,19.0119 Z M3.3736,8.33223 L3.3736,2.8326 L7.4722,2.8326 C8.5589,2.8326 9.2504,3.38123 9.2504,5.5958 C9.2504,7.95145 8.6762,8.33223 7.4722,8.33223 L3.3736,8.33223 L3.3736,8.33223 Z" id="path-9"></path>
        <path d="M-0.0977,18.99651 L7.5845,18.99651 C11.998,18.99651 13.8566,15.06822 13.8566,9.32888 C13.8566,4.49904 12.7884,-0.49855 7.5845,-0.49855 L-0.0977,-0.49855 L-0.0977,18.99651 L-0.0977,18.99651 Z M3.36,15.67139 L3.36,2.79065 L7.3129,2.79065 C9.2405,2.79065 10.3989,4.08626 10.3989,9.30232 C10.3989,13.21331 9.5542,15.67139 7.3129,15.67139 L3.36,15.67139 L3.36,15.67139 Z" id="path-11"></path>
        <path id="path-13" d="M89.8815,310.8466 C86.2469,307.4076 35.64793,315.0338 22.26933,298.3419 C12.23857,285.8269 33.51503,258.1675 27.818,239.0478 C25.44031,231.0681 24.31397,199.852 27.818,184.623 C31.32203,169.394 20.17346,140.0198 15.32013,134.3715 C10.4668,128.7232 13.33535,116.1777 10.13163,111.965 C6.9279,107.7523 9.61395,100.8167 10.13163,99.2488 C12.98187,90.616 18.38619,78.3563 14.43019,71.1943 C12.45622,67.6206 7.70606,65.9819 5.02551,64.6682 C2.33401,63.3492 1.71713,62.3609 2.20683,61.6133 C2.39593,61.3246 1.5609,61.1429 1.45281,60.757 C1.33935,60.3519 0.10931,60.29 -0.1254,59.3702 C-0.5352,57.7642 0.06814,55.1006 0.44927,54.602 C3.79594,50.2239 9.93331,52.7666 14.43019,49.456 C15.93815,48.3459 13.70619,44.354 15.32013,43.3461 C19.43397,40.7771 28.76627,49.0347 33.51503,47.1319 C40.19458,44.4554 42.76587,38.1594 51.09063,35.2244 C54.04989,34.1811 62.32492,37.8392 65.38192,36.282 C66.71907,35.6008 68.0697,33.2986 68.90646,31.34 C69.95241,28.8916 69.13912,24.5853 70.87454,23.5446 C76.63575,20.0896 83.1504,22.3342 88.7003,18.955 C103.1571,10.1528 119.115,-1.1444 131.6383,-0.2638 C144.6015,0.6478 139.3718,13.2585 148.291,23.5446 C160.8772,38.0597 176.9577,40.9295 180.3454,47.1319 C185.4364,56.4527 185.4912,88.2882 190.7437,99.2488 C199.1823,116.8579 236.8543,129.2834 246.0748,140.847 C254.4245,151.3184 240.7045,172.4078 241.2094,184.623 C243.6081,242.6543 165.0409,281.3647 160.399,287.5607 C155.7571,293.7568 153.0207,302.338 153.0207,302.338 C153.0207,302.338 151.2609,308.1196 145.5166,307.9917 C139.7724,307.8638 137.7141,302.2089 131.6383,302.338 C129.8365,302.3763 128.6671,303.7336 127.5805,304.3962 C125.003,305.9679 123.752,307.9081 121.8294,309.8666 C119.0963,312.6508 119.7515,316.7499 119.7515,316.7499 C119.7515,316.7499 133.3497,351.9752 89.8815,310.8466 L89.8815,310.8466 L89.8815,310.8466 Z"></path>
    </defs>
    <g id="Page-1" stroke="none" stroke-width="1" fill="none" fill-rule="evenodd" sketch:type="MSPage">
        <g id="slov2" sketch:type="MSLayerGroup" transform="translate(-144.000000, -1.000000)">
            <g id="Page-1">
                <g id="slov2">
                    <g id="Group-5" transform="translate(143.000000, 0.000000)" stroke="#EFA731" stroke-width="3" sketch:type="MSShapeGroup">
                        <path d="M2.892407,702.393703 L334.506707,702.393703" id="Stroke-1"></path>
                        <path d="M1.545383,703.500026 L1.545383,1.1506" id="Stroke-2"></path>
                        <path d="M0.5,1.1506 L335.500012,1.1506" id="Stroke-3"></path>
                        <path d="M334.5192,703.500026 L334.5192,0.500000014" id="Stroke-4"></path>
                    </g>
                    <g id="Group-8" transform="translate(439.000000, 651.000000)">
                        <g id="mask-2" fill="#FFFFFF" sketch:type="MSShapeGroup">
                            <path d="M14.604,-0.2809 L0.1483,12.79905 L13.7473,15.38471 L28.2031,2.30477 L14.604,-0.2809 L14.604,-0.2809 Z" id="path-1"></path>
                        </g>
                        <g id="Clip-7"></g>
                        <g id="Fill-6-Clipped">
                            <mask id="mask-2" sketch:name="path-1" fill="white">
                                <use xlink:href="#path-1"></use>
                            </mask>
                            <g id="path-1"></g>
                            <path d="M-7.8564,-8.51011 L36.2077,-8.51011 L36.2077,23.61392 L-7.8564,23.61392 L-7.8564,-8.51011 L-7.8564,-8.51011 Z" id="Fill-6" fill="#EFA72C" sketch:type="MSShapeGroup" mask="url(#mask-2)"></path>
                        </g>
                    </g>
                    <g id="Group-11" transform="translate(439.000000, 636.000000)">
                        <g id="mask-4" fill="#FFFFFF" sketch:type="MSShapeGroup">
                            <path d="M0.1477,27.76855 L14.6034,14.6886 L14.6034,-0.20187 L0.1477,12.8781 L0.1477,27.76855 L0.1477,27.76855 Z" id="path-3"></path>
                        </g>
                        <g id="Clip-10"></g>
                        <g id="Fill-9-Clipped">
                            <mask id="mask-4" sketch:name="path-3" fill="white">
                                <use xlink:href="#path-3"></use>
                            </mask>
                            <g id="path-3"></g>
                            <path d="M-7.8569,-8.43108 L22.608,-8.43108 L22.608,35.99775 L-7.8569,35.99775 L-7.8569,-8.43108 L-7.8569,-8.43108 Z" id="Fill-9" fill="#F7C169" sketch:type="MSShapeGroup" mask="url(#mask-4)"></path>
                        </g>
                    </g>
                    <g id="Group-14" transform="translate(407.000000, 649.000000)">
                        <g id="mask-6" fill="#FFFFFF" sketch:type="MSShapeGroup">
                            <path d="M0.1106,15.16409 C0.1106,18.7595 2.6722,19.15367 4.2846,19.07638 C4.2846,19.07638 10.5924,18.82873 11.9916,18.62365 L11.9916,15.56761 L5.0996,15.56761 C4.3834,15.56761 3.5794,15.59418 3.5684,14.18264 L3.5684,11.1412 L10.8678,10.88952 L10.8678,7.82413 L3.5684,7.54317 L3.5684,4.50173 C3.5684,3.78262 3.5684,3.01029 4.8526,3.01029 L11.9916,3.01029 L11.9916,-0.07241 C10.4022,-0.30678 4.0377,-0.49847 4.0377,-0.49847 C2.3326,-0.5345 0.1106,0.16664 0.1106,3.54967 L0.1106,15.16409 L0.1106,15.16409 Z" id="path-5"></path>
                        </g>
                        <g id="Clip-13"></g>
                        <g id="Fill-12-Clipped">
                            <mask id="mask-6" sketch:name="path-5" fill="white">
                                <use xlink:href="#path-5"></use>
                            </mask>
                            <g id="path-5"></g>
                            <path d="M-7.894,-8.72897 L19.9963,-8.72897 L19.9963,27.31396 L-7.894,27.31396 L-7.894,-8.72897 L-7.894,-8.72897 Z" id="Fill-12" fill="#0E5180" sketch:type="MSShapeGroup" mask="url(#mask-6)"></path>
                        </g>
                    </g>
                    <g id="Group-17" transform="translate(407.000000, 671.000000)">
                        <g id="mask-8" fill="#FFFFFF" sketch:type="MSShapeGroup">
                            <path d="M0.1106,15.17947 C0.1106,18.77488 2.6722,19.16905 4.2846,19.09176 C4.2846,19.09176 10.5924,18.84412 11.9916,18.63903 L11.9916,15.58301 L5.0996,15.58301 C4.3834,15.58301 3.5794,15.60956 3.5684,14.19802 L3.5684,11.15658 L10.8678,10.9049 L10.8678,7.83951 L3.5684,7.55856 L3.5684,4.51711 C3.5684,3.79801 3.5684,3.02568 4.8526,3.02568 L11.9916,3.02568 L11.9916,-0.05702 C10.4022,-0.29139 4.0377,-0.48309 4.0377,-0.48309 C2.3326,-0.51912 0.1106,0.18202 0.1106,3.56506 L0.1106,15.17947 L0.1106,15.17947 Z M28.4252,19.01187 L32.1397,19.01187 L33.4437,14.69213 L39.3651,14.69213 L40.6494,19.01187 L44.3306,19.01187 L38.4587,-0.48309 L34.5255,-0.48309 L28.4252,19.01187 L28.4252,19.01187 Z M34.3416,11.38834 L36.5149,4.43058 L38.5464,11.38834 L34.3416,11.38834 L34.3416,11.38834 Z" id="path-7"></path>
                        </g>
                        <g id="Clip-16"></g>
                        <g id="Fill-15-Clipped">
                            <mask id="mask-8" sketch:name="path-7" fill="white">
                                <use xlink:href="#path-7"></use>
                            </mask>
                            <g id="path-7"></g>
                            <path d="M-7.894,-8.71359 L52.3352,-8.71359 L52.3352,27.32934 L-7.894,27.32934 L-7.894,-8.71359 L-7.894,-8.71359 Z" id="Fill-15" fill="#EFA72C" sketch:type="MSShapeGroup" mask="url(#mask-8)"></path>
                        </g>
                    </g>
                    <g id="Group-20" transform="translate(421.000000, 671.000000)">
                        <g id="mask-10" fill="#FFFFFF" sketch:type="MSShapeGroup">
                            <path d="M-0.0977,19.0119 L3.36,19.0119 L3.36,11.26188 L6.3978,11.63471 L9.3863,19.0119 L13.2775,19.0119 L9.8543,11.33503 C10.8583,10.9942 12.7328,10.42162 12.7328,5.5958 C12.7328,0.94035 10.6335,-0.48317 7.8118,-0.48317 L-0.0977,-0.48317 L-0.0977,19.0119 L-0.0977,19.0119 Z M3.3736,8.33223 L3.3736,2.8326 L7.4722,2.8326 C8.5589,2.8326 9.2504,3.38123 9.2504,5.5958 C9.2504,7.95145 8.6762,8.33223 7.4722,8.33223 L3.3736,8.33223 L3.3736,8.33223 Z" id="path-9"></path>
                        </g>
                        <g id="Clip-19"></g>
                        <g id="Fill-18-Clipped">
                            <mask id="mask-10" sketch:name="path-9" fill="white">
                                <use xlink:href="#path-9"></use>
                            </mask>
                            <g id="path-9"></g>
                            <path d="M-8.1023,-8.71237 L21.2821,-8.71237 L21.2821,27.24111 L-8.1023,27.24111 L-8.1023,-8.71237 L-8.1023,-8.71237 Z" id="Fill-18" fill="#EFA72C" sketch:type="MSShapeGroup" mask="url(#mask-10)"></path>
                        </g>
                    </g>
                    <g id="Group-23" transform="translate(421.000000, 649.000000)">
                        <g id="mask-12" fill="#FFFFFF" sketch:type="MSShapeGroup">
                            <path d="M-0.0977,18.99651 L7.5845,18.99651 C11.998,18.99651 13.8566,15.06822 13.8566,9.32888 C13.8566,4.49904 12.7884,-0.49855 7.5845,-0.49855 L-0.0977,-0.49855 L-0.0977,18.99651 L-0.0977,18.99651 Z M3.36,15.67139 L3.36,2.79065 L7.3129,2.79065 C9.2405,2.79065 10.3989,4.08626 10.3989,9.30232 C10.3989,13.21331 9.5542,15.67139 7.3129,15.67139 L3.36,15.67139 L3.36,15.67139 Z" id="path-11"></path>
                        </g>
                        <g id="Clip-22"></g>
                        <g id="Fill-21-Clipped">
                            <mask id="mask-12" sketch:name="path-11" fill="white">
                                <use xlink:href="#path-11"></use>
                            </mask>
                            <g id="path-11"></g>
                            <path d="M-8.1023,-8.72776 L21.8613,-8.72776 L21.8613,27.22572 L-8.1023,27.22572 L-8.1023,-8.72776 L-8.1023,-8.72776 Z" id="Fill-21" fill="#0E5180" sketch:type="MSShapeGroup" mask="url(#mask-12)"></path>
                        </g>
                    </g>
                    <g id="Group-38" transform="translate(0.000000, 2.000000)" stroke="#EFA72C" stroke-width="3" sketch:type="MSShapeGroup">
                        <path d="M255.26763,174.082859 L252.525846,174.082859" id="Stroke-24"></path>
                        <path d="M408.807546,526.799859 L415.662006,526.799859" id="Stroke-25"></path>
                        <path d="M286.798146,622.87058 L289.53993,624.243019" id="Stroke-26"></path>
                        <path d="M338.921894,-0.3722344 C318.328694,2.251389 326.727694,46.24032 318.190694,49.08922 C316.635994,49.60803 305.696394,50.68632 304.757894,48.77866 C298.541694,36.14368 320.216094,36.45842 312.756894,25.21513 C310.746094,22.18422 288.035594,15.86683 280.220594,24.04619 C276.276794,28.1739 289.765894,31.39741 290.237694,32.83585 C292.271494,39.03672 291.180794,45.86078 293.499994,52.27848 C295.054894,56.58113 301.628994,59.23895 300.798494,64.8785 C299.314694,74.95385 288.201894,66.71109 285.267494,68.92265 C282.823294,70.76477 278.846894,83.8396 277.038494,87.43362 C273.571394,94.32382 285.265294,109.2069 282.472194,111.388 C275.286394,116.9992 259.979794,104.1845 254.829394,114.497 C253.289094,117.5811 262.112094,118.736 262.981794,120.9523 C264.009494,123.5713 269.422794,139.5799 260.186494,136.9718 C227.147054,127.6425 239.851194,112.5178 231.689794,108.4325 C220.366134,102.7643 207.792274,90.92357 208.239944,90.77641 C222.862934,85.96941 244.741694,109.2708 258.865494,95.13111 C264.663194,89.32691 281.139394,54.76638 263.525494,54.76638 C258.236994,54.76638 249.326494,43.02674 242.484094,39.60169 C236.284194,36.49824 229.487694,35.413 223.070364,33.30342 C217.929524,31.61348 212.281434,35.85789 206.842294,35.08997 C204.484354,34.75706 177.093024,26.76382 175.473604,26.84814 C173.651434,26.94302 171.629624,31.35721 170.813614,29.72336 C168.222964,24.53621 177.251114,17.29766 171.200494,14.86922 C166.012824,12.78713 154.545464,6.047425 149.228474,6.547135 C144.986354,6.945824 130.492149,27.51089 128.417092,12.07077" id="Stroke-27"></path>
                        <path d="M124.3116,14.7360059 C124.0893,28.75719 106.3018,19.658395 103.8905,22.901071 C102.7593,24.42242 103.0948,36.17391 102.6462,36.35598 C97.60802,38.40081 75.59831,44.05097 73.37229,46.85542 C71.77852,48.86332 71.84566,53.44737 69.56971,54.94372 C67.47862,56.31852 62.41764,54.48662 60.71677,56.18941 C57.35358,59.5564 61.11887,68.84979 56.75735,72.67656 C54.96931,74.24537 46.67524,74.25387 45.96303,75.71229 C40.99706,85.88142 62.50473,78.22338 57.68795,86.67581 C53.59711,93.85437 40.77013,91.44872 37.26694,101.14263 C35.01626,107.37063 40.12816,114.79588 37.81066,120.1979 C34.9534,126.8582 30.76905,131.6626 27.71691,137.7738 C25.80328,141.6054 28.15,147.0924 26.47262,150.5273 C24.42605,154.7182 19.59337,157.8101 16.84592,161.5711 C14.65581,164.5691 16.13951,168.643 14.28414,171.5262 C13.17995,173.2421 5.407613,177.5646 4.964159,178.9166 C0.0701354,193.838 1.429165,214.0677 4.343756,228.9224 C5.568958,235.1668 -2.178938,243.3838 0.84789,249.3769 C2.28785,252.2281 0.1620359,257.295 3.022786,258.7109 C4.792515,259.5868 8.315221,260.38 8.770226,262.6783 C9.767214,267.7143 9.793018,273.011 14.36082,276.21 C15.67003,277.1269 26.41674,324.8725 25.38517,325.9052 C17.73758,333.5615 6.89597,340.5713 5.27436,353.2059 C3.750383,365.0798 10.2283,369.5748 21.27239,364.1694 C28.69067,360.5386 21.51207,345.6694 27.09302,343.4043 C33.13735,340.9511 37.19398,357.7331 45.26595,351.6496 C49.97483,348.1007 54.90629,338.8538 58.155,333.9935 C64.63401,324.3005 79.49833,326.4673 81.52815,310.7405 C82.78904,300.9714 77.12936,289.6207 81.37131,280.3309 C86.94726,268.1198 94.07632,270.8606 98.4533,251.4775 C99.88056,245.1571 74.07943,237.965 73.52914,224.5677 C72.82226,207.3584 86.62456,201.6761 93.32975,187.5493 C95.16819,183.6759 92.34021,177.36 94.4172,174.0943 C98.10284,168.2995 110.8539,158.2335 117.0131,154.1841 C124.4702,149.2814 103.5447,129.9854 118.4874,125.7181 C126.9395,123.3043 150.1446,131.2104 149.0022,142.2052 C148.4959,147.0781 121.9932,172.5825 118.8743,177.2836 C110.266,190.2591 120.3581,199.3604 121.5163,211.1128 C122.131,217.3508 115.5577,222.9263 118.3306,229.39 C138.3512,276.0578 147.6354,226.7115 195.0479,229.4667 C203.4287,229.9538 203.0414,223.9589 209.9585,230.9462 C213.6036,234.6283 189.8395,251.9104 186.4285,252.3324 C180.6464,253.0479 174.4791,245.9907 168.883,248.2115 C166.5498,249.1374 169.0017,253.5118 167.7955,254.6668 C165.5294,256.8368 154.6561,256.7553 153.4287,260.4975 C149.3582,272.9079 170.0334,272.0026 169.0363,282.1209 C167.9904,292.7353 165.1966,298.8535 161.8146,308.7167 C160.0986,313.721 154.5911,307.0122 153.819,307.7851 C153.6977,307.9065 152.4357,312.5306 152.8849,312.5306 C156.6201,312.5306 150.2104,305.4907 149.6261,301.7974 C148.8842,297.108 154.4304,289.6496 150.1698,287.5643 C147.2977,286.1586 140.2318,294.7706 138.0545,296.8181 C136.0678,298.6863 130.8421,291.5814 130.289,294.2534 C129.5461,297.8428 136.757,308.7735 134.949,310.5835 C132.4715,313.0638 129.2008,310.0565 126.6398,313.4622 C117.9677,324.9949 139.8413,340.0048 116.3125,361.8385" id="Stroke-28"></path>
                        <path d="M205.601492,210.89087 C207.294291,209.15108 209.700651,207.77681 210.725044,205.524258 C219.18024,186.93207 221.72462,202.036038 225.71231,203.346907 C229.7465,204.673065 233.74008,202.612551 236.5833,206.612933 C238.27927,208.99915 236.43651,213.19616 238.13431,215.47936 C239.29525,217.0406 245.65905,217.18681 245.19923,219.28972 C243.15368,228.6447 229.58477,223.47791 224.93506,228.15614 C222.70734,230.39753 224.04957,234.80752 222.52664,236.40146 C218.35719,240.76536 224.85166,216.40318 210.257999,216.02369 L205.601492,210.89087 L205.601492,210.89087 Z" id="Stroke-29"></path>
                        <path d="M246.366817,169.905063 C248.761666,171.160929 253.009459,166.632553 255.44979,167.881244 C256.67385,168.50758 254.58337,173.990187 255.60664,175.037888 C260.04009,179.57722 281.97779,198.5535 267.64176,202.10124 C264.80921,202.80221 262.15649,193.19744 259.72291,191.44827 C256.47585,189.11442 242.742071,185.27175 244.345279,177.525791 C244.921603,174.741264 251.453318,174.292862 253.508421,174.182999" id="Stroke-30"></path>
                        <path d="M-0.1318307,624.32171 C19.12301,652.22981 22.86665,641.00806 47.31157,650.21962 C48.38593,650.62447 73.02946,674.6214 74.1771,677.6738 C79.13892,690.8708 66.49446,685.6668 68.97339,695.4834 C69.6962,698.3457 85.52972,701.8581 87.53319,700.0719 C103.2655,686.0457 79.23547,675.1202 83.80729,667.0976 C90.20272,655.875 122.6434,681.7089 112.2238,662.8196 C104.7064,649.19166 86.50823,653.15154 82.40964,650.0626 C78.95297,647.45745 71.92119,637.56783 69.98416,633.73247 C68.96531,631.71515 73.06843,629.77768 70.06083,627.51097 C62.53997,621.8428 58.32391,634.14398 53.05552,622.45491 C43.45871,601.16229 26.69998,593.1397 21.99704,583.72319 C19.73767,579.19936 15.44142,559.619705 20.21251,556.736608 C23.52466,554.735121 36.4974,555.493092 38.38195,559.224511 C39.91383,562.257649 38.97571,566.22492 40.7102,568.86906 C43.37748,572.93519 54.94517,574.35868 58.95632,577.57846 C76.42313,591.59919 92.48982,606.06622 107.7207,620.97543 C109.4749,622.69256 113.7367,618.13535 115.0993,619.49944 C117.3359,621.73854 120.8879,627.66987 122.7079,630.54321 C128.236,639.27031 121.7286,661.3882 134.7431,665.9286 C155.4147,673.1405 166.7478,712.0177 200.1224,678.6054 C205.126,673.5962 189.515,671.8994 187.4669,670.4404 C182.8965,667.1847 183.42,653.95322 189.1747,653.95322 C223.2827,653.95322 199.4597,642.76685 209.9059,639.33287 C214.3509,637.87169 218.083,644.51646 221.711,645.63114 C225.5007,646.7955 233.7375,641.61358 237.3187,645.94169 C241.4281,650.90819 232.8532,656.601 237.3954,662.0415 C240.8556,666.1861 253.1787,671.1178 250.985,677.6738 C249.3624,682.5228 236.2795,680.1189 238.793,687.7824 C239.9956,691.4489 253.8015,686.1525 257.5828,686.774 C264.3948,687.8936 269.8419,697.03 275.4421,700.7732" id="Stroke-31"></path>
                        <path d="M321.12892,508.416741 C324.799758,510.496465 325.824106,507.975472 325.491302,509.739209 C325.176685,511.406556 320.879237,515.650986 319.936835,517.51695 C318.09933,521.15523 308.353853,521.01525 311.007215,529.10507 C313.20585,535.80847 326.5276,528.88065 329.17666,531.59297 C332.4775,534.97264 334.07155,547.04792 341.52198,544.19299 C352.57047,539.95931 353.977,526.08153 364.42809,522.57301 C366.94332,521.72863 376.499,508.74521 375.84281,508.41674 C366.76528,503.87286 357.27748,512.79105 348.20002,509.73921 C340.80318,507.25239 343.73533,500.19227 348.51022,497.44974 C353.508,494.57919 384.4358,463.908136 389.04205,468.519586 C391.06029,470.540104 386.77729,475.664842 386.48028,477.773326 C385.81738,482.47918 395.3213,480.29546 394.63265,486.56298 C393.21941,499.42515 370.71733,525.24607 409.46655,527.31503" id="Stroke-32"></path>
                        <path d="M321.41121,508.884312 C312.24213,501.19711 305.45968,515.331151 296.87393,512.851696 C291.96652,511.434499 288.73982,505.355532 283.36448,508.961077 C268.97825,518.61073 279.74653,524.32681 277.46368,532.06053 C275.36969,539.15445 272.79911,544.17742 271.5594,551.73694 C270.57303,557.75163 264.81087,554.19323 262.31958,560.68013 C259.541052,567.91495 267.18062,573.04875 265.73528,579.88897 C263.38474,591.01316 252.33732,585.92206 250.361136,593.57767 C249.498995,596.91755 263.26716,620.747 267.28977,622.3543 C272.09453,624.274 281.18877,621.8829 286.7035,622.5881" id="Stroke-33"></path>
                        <path d="M415.9111,525.839081 C415.8477,528.917955 422.5944,526.779407 423.5198,527.70588 C425.2596,529.447652 422.4607,535.770618 424.4504,537.27017 C426.245,538.6227 429.5884,537.0416 431.6722,537.58072 C434.5166,538.31663 435.2785,543.93259 438.3502,545.35847 C444.9128,548.40476 466.3963,545.75864 468.5548,555.07978 C473.2806,575.48713 454.185,566.26178 444.1743,570.32473 C441.023,571.60374 439.5832,576.50953 436.8759,578.48979 C423.2841,588.43131 401.2479,600.15224 383.53169,594.82341 C378.33979,593.26175 374.36977,579.08187 366.44621,579.73549 C359.58368,580.30158 330.7984,593.33417 326.61495,597.85565 C322.32239,602.49507 320.78088,610.3509 316.44104,614.65684 C311.666589,619.394007 294.122242,623.251175 291.285525,624.161728 C288.448807,625.072281 285.923963,622.082939 285.923963,622.082939" id="Stroke-34"></path>
                        <path d="M321.070446,508.958059 L323.81223,508.958059" id="Stroke-37"></path>
                    </g>
                    <g id="Group-41" transform="translate(151.000000, 207.000000)">
                        <g id="mask-14" transform="translate(4.000000, 0.000000)" fill="#FFFFFF" sketch:type="MSShapeGroup">
                            <path d="M89.8815,310.8466 C86.2469,307.4076 35.64793,315.0338 22.26933,298.3419 C12.23857,285.8269 33.51503,258.1675 27.818,239.0478 C25.44031,231.0681 24.31397,199.852 27.818,184.623 C31.32203,169.394 20.17346,140.0198 15.32013,134.3715 C10.4668,128.7232 13.33535,116.1777 10.13163,111.965 C6.9279,107.7523 9.61395,100.8167 10.13163,99.2488 C12.98187,90.616 18.38619,78.3563 14.43019,71.1943 C12.45622,67.6206 7.70606,65.9819 5.02551,64.6682 C2.33401,63.3492 1.71713,62.3609 2.20683,61.6133 C2.39593,61.3246 1.5609,61.1429 1.45281,60.757 C1.33935,60.3519 0.10931,60.29 -0.1254,59.3702 C-0.5352,57.7642 0.06814,55.1006 0.44927,54.602 C3.79594,50.2239 9.93331,52.7666 14.43019,49.456 C15.93815,48.3459 13.70619,44.354 15.32013,43.3461 C19.43397,40.7771 28.76627,49.0347 33.51503,47.1319 C40.19458,44.4554 42.76587,38.1594 51.09063,35.2244 C54.04989,34.1811 62.32492,37.8392 65.38192,36.282 C66.71907,35.6008 68.0697,33.2986 68.90646,31.34 C69.95241,28.8916 69.13912,24.5853 70.87454,23.5446 C76.63575,20.0896 83.1504,22.3342 88.7003,18.955 C103.1571,10.1528 119.115,-1.1444 131.6383,-0.2638 C144.6015,0.6478 139.3718,13.2585 148.291,23.5446 C160.8772,38.0597 176.9577,40.9295 180.3454,47.1319 C185.4364,56.4527 185.4912,88.2882 190.7437,99.2488 C199.1823,116.8579 236.8543,129.2834 246.0748,140.847 C254.4245,151.3184 240.7045,172.4078 241.2094,184.623 C243.6081,242.6543 165.0409,281.3647 160.399,287.5607 C155.7571,293.7568 153.0207,302.338 153.0207,302.338 C153.0207,302.338 151.2609,308.1196 145.5166,307.9917 C139.7724,307.8638 137.7141,302.2089 131.6383,302.338 C129.8365,302.3763 128.6671,303.7336 127.5805,304.3962 C125.003,305.9679 123.752,307.9081 121.8294,309.8666 C119.0963,312.6508 119.7515,316.7499 119.7515,316.7499 C119.7515,316.7499 133.3497,351.9752 89.8815,310.8466 L89.8815,310.8466 L89.8815,310.8466 Z" id="path-13"></path>
                        </g>
                        <g id="Clip-40" transform="translate(0.000000, 13.000000)"></g>
                        <g id="Fill-39-Clipped" transform="translate(4.000000, 0.000000)">
                            <mask id="mask-14" sketch:name="path-13" fill="white">
                                <use xlink:href="#path-13"></use>
                            </mask>
                            <g id="path-13"></g>
                            <path d="M253.776,-5.3123 L253.776,335.7928 L-5.26249,335.7928 L-5.26249,-5.3123 L253.776,-5.3123 Z" id="Fill-39" fill-opacity="0.5822" fill="#F8E81C" sketch:type="MSShapeGroup" mask="url(#mask-14)"></path>
                        </g>
                    </g>
                </g>
                <g id="Древляни" transform="translate(225.143788, 394.582094) rotate(-28.000000) translate(-225.143788, -394.582094) translate(192.643788, 386.582094)" font-weight="normal" font-family="Arial" fill="#000000" font-size="14.3216783" sketch:type="MSTextLayer" font-style="italic" text-decoration="underline">
                    <text>
                        <tspan x="0" y="13">Древляни</tspan>
                    </text>
                </g>
                <g id="Поляни" transform="translate(269.521681, 426.103130) rotate(-28.000000) translate(-269.521681, -426.103130) translate(244.521681, 418.103130)" font-weight="normal" font-family="Arial" fill="#000000" font-size="14.3216783" sketch:type="MSTextLayer" font-style="italic" text-decoration="underline">
                    <text>
                        <tspan x="0" y="13">Поляни</tspan>
                    </text>
                </g>
                <g id="Волиняни" transform="translate(212.319782, 450.912703) rotate(48.000000) translate(-212.319782, -450.912703) translate(179.819782, 442.912703)" font-weight="normal" font-family="Arial" fill="#000000" font-size="14.3216783" sketch:type="MSTextLayer" font-style="italic" text-decoration="underline">
                    <text>
                        <tspan x="5.68434189e-14" y="13">Волиняни</tspan>
                    </text>
                </g>
                <g id="Хорвати" transform="translate(206.748802, 494.097792) rotate(31.000000) translate(-206.748802, -494.097792) translate(176.248802, 486.097792)" font-weight="normal" font-family="Arial" fill="#000000" font-size="14.3216783" sketch:type="MSTextLayer" font-style="italic" text-decoration="underline">
                    <text>
                        <tspan x="0.1598538" y="13.300414">Хорвати</tspan>
                    </text>
                </g>
                <g id="Тиверці" transform="translate(269.421219, 500.760302) rotate(-18.000000) translate(-269.421219, -500.760302) translate(245.421219, 493.260302)" font-weight="normal" font-family="Arial" fill="#000000" font-size="13.4265734" sketch:type="MSTextLayer" font-style="italic" text-decoration="underline">
                    <text>
                        <tspan x="-0.340146" y="12.300414">Тиверці</tspan>
                    </text>
                </g>
                <g id="Уличі" transform="translate(276.134362, 466.019004) rotate(-7.000000) translate(-276.134362, -466.019004) translate(259.134362, 458.519004)" font-weight="normal" font-family="Arial" fill="#000000" font-size="13.4265734" sketch:type="MSTextLayer" font-style="italic" text-decoration="underline">
                    <text>
                        <tspan x="-0.340146" y="11.6611">Уличі</tspan>
                    </text>
                </g>
                <text id="Сіверяни" fill="#000000" sketch:type="MSTextLayer" font-family="Arial" font-size="14.3216783" font-style="italic" font-weight="normal" text-decoration="underline">
                    <tspan x="268.618977" y="395">Сіверяни</tspan>
                </text>
                <g id="Радимичі" transform="translate(312.214828, 358.231072) rotate(-11.000000) translate(-312.214828, -358.231072) translate(281.214828, 350.231072)" font-weight="normal" font-size="14.3216783" font-family="Arial" fill="#000000" sketch:type="MSTextLayer" font-style="italic">
                    <text>
                        <tspan x="-0.5" y="12.5">Радимичі</tspan>
                    </text>
                </g>
                <g id="В’ятичі" transform="translate(346.913326, 322.368510) rotate(28.000000) translate(-346.913326, -322.368510) translate(321.413326, 314.368510)" font-weight="normal" font-size="14.3216783" font-family="Arial" fill="#000000" sketch:type="MSTextLayer" font-style="italic">
                    <text>
                        <tspan x="-0.5" y="13.018525">В’ятичі</tspan>
                    </text>
                </g>
                <text id="Кривичі" fill="#000000" sketch:type="MSTextLayer" font-family="Arial" font-size="14.3216783" font-style="italic" font-weight="normal">
                    <tspan x="251.237208" y="300.009884">Кривичі</tspan>
                </text>
                <g id="Словени" transform="translate(217.165213, 258.155572) rotate(-27.000000) translate(-217.165213, -258.155572) translate(188.165213, 250.155572)" font-weight="normal" font-size="14.3216783" font-family="Arial" fill="#000000" sketch:type="MSTextLayer" font-style="italic">
                    <text>
                        <tspan x="0.2372077" y="12.651055">Словени</tspan>
                    </text>
                </g>
                <g id="Дреговичі" transform="translate(214.546102, 353.659292) rotate(-8.000000) translate(-214.546102, -353.659292) translate(181.046102, 345.659292)" font-weight="normal" font-size="14.3216783" font-family="Arial" fill="#000000" sketch:type="MSTextLayer" font-style="italic">
                    <text>
                        <tspan x="0.2372077" y="13">Дреговичі</tspan>
                    </text>
                </g>
            </g>
        </g>
    </g>
</svg>