<?xml version="1.0" encoding="UTF-8" standalone="no"?>
<svg
   xmlns:dc="http://purl.org/dc/elements/1.1/"
   xmlns:cc="http://creativecommons.org/ns#"
   xmlns:rdf="http://www.w3.org/1999/02/22-rdf-syntax-ns#"
   xmlns:svg="http://www.w3.org/2000/svg"
   xmlns="http://www.w3.org/2000/svg"
   viewBox="0 0 1072 1353.3333"
   height="1353.3333"
   width="1072"
   xml:space="preserve"
   version="1.1"
   id="svg2"><metadata
     id="metadata8"><rdf:RDF><cc:Work
         rdf:about=""><dc:format>image/svg+xml</dc:format><dc:type
           rdf:resource="http://purl.org/dc/dcmitype/StillImage" /></cc:Work></rdf:RDF></metadata><defs
     id="defs6"><clipPath
       id="clipPath36"
       clipPathUnits="userSpaceOnUse"><path
         style="clip-rule:evenodd"
         id="path38"
         d="m 753.5797,107.0592 -24.0099,-20.30558 22.5869,-4.01402 24.0099,20.3055 -22.5869,4.0141 0,0 z" /></clipPath><clipPath
       id="clipPath42"
       clipPathUnits="userSpaceOnUse"><path
         id="path44"
         d="m 729,82 48,0 0,26 -48,0 0,-26 z" /></clipPath><clipPath
       id="clipPath46"
       clipPathUnits="userSpaceOnUse"><path
         style="clip-rule:evenodd"
         id="path48"
         d="m 724.5794,112.0722 56.5776,0 0,-34.34568 -56.5776,0 0,34.34568 z" /></clipPath><clipPath
       id="clipPath50"
       clipPathUnits="userSpaceOnUse"><path
         id="path52"
         d="m 729,82 48,0 0,26 -48,0 0,-26 z" /></clipPath><clipPath
       id="clipPath72"
       clipPathUnits="userSpaceOnUse"><path
         style="clip-rule:evenodd"
         id="path74"
         d="m 729.5689,86.80098 24.0097,20.30552 0,23.1162 -24.0097,-20.3055 0,-23.11622 0,0 z" /></clipPath><clipPath
       id="clipPath78"
       clipPathUnits="userSpaceOnUse"><path
         id="path80"
         d="m 729,86 25,0 0,45 -25,0 0,-45 z" /></clipPath><clipPath
       id="clipPath82"
       clipPathUnits="userSpaceOnUse"><path
         style="clip-rule:evenodd"
         id="path84"
         d="m 724.5785,135.2358 33.9905,0 0,-53.4479 -33.9905,0 0,53.4479 z" /></clipPath><clipPath
       id="clipPath86"
       clipPathUnits="userSpaceOnUse"><path
         id="path88"
         d="m 729,86 25,0 0,45 -25,0 0,-45 z" /></clipPath><clipPath
       id="clipPath108"
       clipPathUnits="userSpaceOnUse"><path
         style="clip-rule:evenodd"
         id="path110"
         d="m 676.3579,86.18693 c 0,-5.58158 4.2545,-6.19349 6.9326,-6.07351 0,0 10.4768,0.38445 12.8008,0.70283 l 0,4.74424 -11.4471,0 c -1.1896,0 -2.525,-0.04124 -2.5433,2.15006 l 0,4.72158 12.1238,0.39071 0,4.75877 -12.1238,0.43617 0,4.72162 c 0,1.1163 0,2.3153 2.133,2.3153 l 11.8574,0 0,4.7856 c -2.6399,0.3639 -13.2109,0.6615 -13.2109,0.6615 -2.832,0.0559 -6.5225,-1.0326 -6.5225,-6.2845 l 0,-18.03037 0,0 z" /></clipPath><clipPath
       id="clipPath114"
       clipPathUnits="userSpaceOnUse"><path
         id="path116"
         d="m 676,79 21,0 0,32 -21,0 0,-32 z" /></clipPath><clipPath
       id="clipPath118"
       clipPathUnits="userSpaceOnUse"><path
         style="clip-rule:evenodd"
         id="path120"
         d="m 671.3674,115.5168 29.7143,0 0,-40.42945 -29.7143,0 0,40.42945 z" /></clipPath><clipPath
       id="clipPath122"
       clipPathUnits="userSpaceOnUse"><path
         id="path124"
         d="m 676,79 21,0 0,32 -21,0 0,-32 z" /></clipPath><clipPath
       id="clipPath144"
       clipPathUnits="userSpaceOnUse"><path
         style="clip-rule:evenodd"
         id="path146"
         d="m 676.3579,52.00987 c 0,-5.58158 4.2545,-6.19349 6.9326,-6.07351 0,0 10.4768,0.38445 12.8008,0.70283 l 0,4.74423 -11.4471,0 c -1.1896,0 -2.525,-0.04123 -2.5433,2.15007 l 0,4.72158 12.1238,0.39071 0,4.75877 -12.1238,0.43615 0,4.7216 c 0,1.11634 0,2.31533 2.133,2.31533 l 11.8574,0 0,4.78563 c -2.6399,0.36384 -13.2109,0.66144 -13.2109,0.66144 -2.832,0.05593 -6.5225,-1.03254 -6.5225,-6.28442 l 0,-18.03041 0,0 z m 47.0282,-5.94948 6.1694,0 2.166,6.70605 9.8349,0 2.133,-6.70605 6.1142,0 -9.7527,30.26431 -6.5327,0 -10.1321,-30.26431 0,0 z m 9.8266,11.8349 3.6098,10.80135 3.3741,-10.80135 -6.9839,0 0,0 z" /></clipPath><clipPath
       id="clipPath150"
       clipPathUnits="userSpaceOnUse"><path
         id="path152"
         d="m 676,45 74,0 0,32 -74,0 0,-32 z" /></clipPath><clipPath
       id="clipPath154"
       clipPathUnits="userSpaceOnUse"><path
         style="clip-rule:evenodd"
         id="path156"
         d="m 671.3674,81.33978 83.4267,0 0,-40.42949 -83.4267,0 0,40.42949 z" /></clipPath><clipPath
       id="clipPath158"
       clipPathUnits="userSpaceOnUse"><path
         id="path160"
         d="m 676,45 74,0 0,32 -74,0 0,-32 z" /></clipPath><clipPath
       id="clipPath180"
       clipPathUnits="userSpaceOnUse"><path
         style="clip-rule:evenodd"
         id="path182"
         d="m 699.2647,46.06034 5.743,0 0,12.03127 5.0456,-0.57879 4.9636,-11.45248 6.4629,0 -5.6856,11.91771 c 1.6675,0.5291 4.781,1.41799 4.781,8.90967 0,7.2272 -3.4868,9.4371 -8.1734,9.4371 l -13.1371,0 0,-30.26448 0,0 z m 5.7655,16.5793 0,8.53773 6.8076,0 c 1.8049,0 2.9534,-0.85171 2.9534,-4.28965 0,-3.65695 -0.9536,-4.24808 -2.9534,-4.24808 l -6.8076,0 0,0 z" /></clipPath><clipPath
       id="clipPath186"
       clipPathUnits="userSpaceOnUse"><path
         id="path188"
         d="m 699,46 23,0 0,31 -23,0 0,-31 z" /></clipPath><clipPath
       id="clipPath190"
       clipPathUnits="userSpaceOnUse"><path
         style="clip-rule:evenodd"
         id="path192"
         d="m 694.2742,81.3379 32.196,0 0,-40.29063 -32.196,0 0,40.29063 z" /></clipPath><clipPath
       id="clipPath194"
       clipPathUnits="userSpaceOnUse"><path
         id="path196"
         d="m 699,46 23,0 0,31 -23,0 0,-31 z" /></clipPath><clipPath
       id="clipPath216"
       clipPathUnits="userSpaceOnUse"><path
         style="clip-rule:evenodd"
         id="path218"
         d="m 699.2647,80.23741 12.7596,0 c 7.3305,0 10.4175,6.09835 10.4175,15.00819 0,7.4979 -1.7743,15.2563 -10.4175,15.2563 l -12.7596,0 0,-30.26449 0,0 z m 5.743,5.16198 0,19.99631 6.5655,0 c 3.2016,0 5.1256,-2.0114 5.1256,-10.10886 0,-6.07149 -1.403,-9.88745 -5.1256,-9.88745 l -6.5655,0 0,0 z" /></clipPath><clipPath
       id="clipPath222"
       clipPathUnits="userSpaceOnUse"><path
         id="path224"
         d="m 699,80 24,0 0,31 -24,0 0,-31 z" /></clipPath><clipPath
       id="clipPath226"
       clipPathUnits="userSpaceOnUse"><path
         style="clip-rule:evenodd"
         id="path228"
         d="m 694.2742,115.515 33.158,0 0,-40.29066 -33.158,0 0,40.29066 z" /></clipPath><clipPath
       id="clipPath230"
       clipPathUnits="userSpaceOnUse"><path
         id="path232"
         d="m 699,80 24,0 0,31 -24,0 0,-31 z" /></clipPath><clipPath
       id="clipPath314"
       clipPathUnits="userSpaceOnUse"><path
         id="path316"
         d="m 195,249 380,0 0,463 -380,0 0,-463 z" /></clipPath><clipPath
       id="clipPath318"
       clipPathUnits="userSpaceOnUse"><path
         style="clip-rule:evenodd"
         id="path320"
         d="m 350.8985,282.4533 c -8.7554,8.2847 -9.8004,19.8328 -17.6675,25.6339 -13.8145,10.1868 -32.8313,12.5927 -38.2436,19.6351 -8.0044,10.4154 -1.5795,20.6395 -11.4887,36.6167 -5.6544,9.1171 -25.5622,6.1239 -33.0632,24.0543 -5.4653,13.0645 14.5593,34.8219 13.3706,44.1007 -0.6111,4.7709 3.6936,16.7872 1.6488,23.7428 -1.9321,6.5722 -10.226,8.2087 -10.5489,8.8847 -3.572,7.4773 -23.5815,6.0224 -22.8915,17.7976 0.8745,14.9234 11.5974,31.8533 9.0914,41.43 -3.2381,12.3743 -19.8716,2.8609 -23.3691,13.1717 -5.5792,16.4477 -12.6919,27.4688 -16.958,36.2584 -4.1085,8.465 -5.4755,15.0033 -5.4755,15.0033 0,0 6.5301,-6.7984 10.8008,-3.9934 4.5092,2.9618 10.8847,13.2604 15.4404,12.9643 5.8612,-0.3809 -5.2832,-17.4149 0,-22.2748 2.3196,-2.1337 6.0467,-5.7188 8.6512,-8.6525 1.8033,-2.0313 5.6006,-1.9351 7.8481,0 1.8998,1.6358 2.3494,4.7944 3.0621,6.9531 3.9239,11.8856 11.3641,28.7646 5.9179,38.6252 -2.7176,4.9203 -9.2572,7.1764 -12.9476,8.985 -3.7054,1.8161 -4.5547,3.1767 -3.8805,4.206 0.2603,0.3975 -0.8893,0.6477 -1.0381,1.179 -0.1562,0.5578 -1.8496,0.643 -2.1727,1.9094 -0.5642,2.2111 0.2664,5.8783 0.7912,6.5648 4.6074,6.0276 13.0567,2.5269 19.2477,7.0849 2.076,1.5284 -0.9968,7.0244 1.2251,8.412 5.6636,3.537 18.5115,-7.832 25.0492,-5.2122 9.1958,3.6849 12.7357,12.3533 24.1965,16.3941 4.0741,1.4365 15.4664,-3.6001 19.675,-1.456 1.8409,0.9378 3.7003,4.1075 4.8523,6.8041 1.44,3.3709 0.3203,9.2997 2.7095,10.7326 7.9315,4.7568 16.9004,1.6665 24.5409,6.3188 19.9029,12.1189 41.8723,27.6728 59.1133,26.4603 17.8467,-1.255 10.6468,-18.6173 22.926,-32.7791 17.3276,-19.9842 39.4658,-23.9355 44.1297,-32.4748 7.0088,-12.8328 7.0842,-56.6636 14.3154,-71.754 11.6175,-24.2442 63.481,-41.3515 76.1751,-57.2721 11.495,-14.4169 -7.3935,-43.4526 -6.6983,-60.2704 3.3024,-79.897 -104.8621,-133.193 -111.2527,-141.7237 -6.3905,-8.5307 -10.1578,-20.3452 -10.1578,-20.3452 0,0 -2.4227,-7.96 -10.3309,-7.784 -7.9082,0.1761 -10.7418,7.9617 -19.1065,7.784 -2.4806,-0.0527 -4.0905,-1.9214 -5.5864,-2.8337 -3.5485,-2.164 -5.2707,-4.8351 -7.9176,-7.5316 -3.7627,-3.8333 -2.8607,-9.4769 -2.8607,-9.4769 0,0 18.7208,-48.4978 -41.1224,8.1276 z" /></clipPath><clipPath
       id="clipPath322"
       clipPathUnits="userSpaceOnUse"><path
         id="path324"
         d="M 0,0 804,0 804,1015 0,1015 0,0 Z" /></clipPath><clipPath
       id="clipPath344"
       clipPathUnits="userSpaceOnUse"><path
         style="clip-rule:evenodd"
         id="path346"
         d="m 150.7561,277.6701 c -24.0975,-5.6332 -42.2951,0.6468 -49.7026,-10.9214 -2.51327,-3.9249 -14.23673,-5.6412 -16.59736,-11.0121 -3.20724,-7.2972 2.5338,-20.056 -4.46746,-30.0017 -2.23347,-3.1728 -14.5719,-10.4486 -10.18124,-16.3846 5.40137,-7.3024 16.88976,-8.5662 28.1412,-16.8641 6.61046,-4.8753 15.95726,-12.1845 22.21406,-17.6724 17.5489,-15.3925 30.5934,-29.5259 30.5934,-29.5259 0,0 81.3107,-11.1413 125.9694,-5.3929 44.6586,5.7484 80.6073,32.8517 80.6073,32.8517 l 1.29,5.387 16.2648,7.4168 5.3335,10.1537 -6.0746,13.6461 -0.445,9.4619 3.2272,6.9227 10.043,3.0135 0,3.0365 c 0,0 -19.342,9.0064 -32.6057,21.6016 -10.5939,10.0601 -14.4421,24.2836 -22.5095,24.2836 -18.1677,0 -16.4015,-1.3567 -19.6434,0 -36.7333,15.3723 -25.7861,14.8163 -51.1942,13.9099 -4.7894,-0.1709 -18.612,16.461 -25.2053,15.5466 -9.5458,-1.3238 -28.9558,-15.69 -43.2278,-17.2151 -3.8733,-0.4139 -18.6383,8.6377 -22.8952,8.1834 -17.0486,-1.8196 -9.2381,-18.1581 -18.9345,-20.4248 z" /></clipPath><clipPath
       id="clipPath354"
       clipPathUnits="userSpaceOnUse"><path
         style="clip-rule:evenodd"
         id="path356"
         d="m 159.0024,369.2076 c 4.889,2.7414 8.7343,16.0159 16.6411,21.3285 12.7069,8.5377 29.9605,11.884 34.2696,33.3224 0.6874,3.4201 -7.6509,19.5017 -7.5694,37.0989 0.0682,14.7415 8.7407,30.1668 7.5694,43.7672 -2.5696,29.8356 -10.2865,58.7629 -12.0256,58.7629 -0.7652,0 -7.5027,6.6036 -10.0675,-9.4767 -1.6046,-10.061 6.6398,-37.7231 1.8964,-41.9437 -10.6161,-9.446 -15.7609,-26.8984 -30.7139,-26.2516 -8.3722,0.3621 -15.2408,14.0504 -23.7876,13.3957 -10.0812,-0.7722 -18.446,-9.9939 -28.1443,-11.8004 -5.1324,-0.956 -3.9643,-11.7628 -8.91902,-12.9151 -9.01658,-2.0971 -22.31453,3.2958 -29.95069,0 -9.5693,-4.1302 -7.27019,-35.8964 -14.09931,-40.4555 -39.00253,-26.0384 -60.209913,-55.0074 -32.75764,-76.0297 2.57151,-1.9692 13.70853,1.023 16.81047,-3.5227 1.76343,-2.5842 7.95176,-5.972 7.95018,-9.9422 -0.0016,-3.9712 5.38945,-5.4844 7.99698,-6.0852 3.11388,-0.7175 5.05025,6.5289 8.07128,6.0852 3.1738,-0.4662 6.3957,-2.5324 9.44517,-2.8061 1.78479,-0.1603 4.50888,-0.1378 7.06842,2.8061 2.04462,2.3516 5.71041,0.01 7.06439,0 2.42256,-0.0176 10.10189,9.8765 12.40075,9.9422 4.88362,0.1396 14.08312,-10.1158 18.25132,-9.9422 6.7035,0.279 10.1355,12.2898 14.7007,13.4649 15.15,3.8995 16.7387,-1.956 21.6122,0 4.8736,1.956 3.0609,9.3883 6.2866,11.1971 z" /></clipPath><clipPath
       id="clipPath364"
       clipPathUnits="userSpaceOnUse"><path
         id="path366"
         d="m 304.615,447.8785 153.565,0 0,142.6957 -153.565,0 0,-142.6957 z" /></clipPath><clipPath
       id="clipPath412"
       clipPathUnits="userSpaceOnUse"><path
         id="path414"
         d="m 55.375,390.5568 149.545,0 0,142.6957 -149.545,0 0,-142.6957 z" /></clipPath><clipPath
       id="clipPath440"
       clipPathUnits="userSpaceOnUse"><path
         id="path442"
         d="m 143.815,184.3997 226.93,0 0,142.6957 -226.93,0 0,-142.6957 z" /></clipPath></defs><g
     transform="matrix(1.3333333,0,0,-1.3333333,0,1353.3333)"
     id="g10"><g
       id="g12" /><g
       id="g14"><g
         transform="matrix(1,0,0,-1,12.26761,19.8404)"
         id="g16"><path
           id="path18"
           style="fill:none;stroke:#efa731;stroke-width:3;stroke-linecap:square;stroke-linejoin:miter;stroke-miterlimit:10;stroke-dasharray:none;stroke-opacity:1"
           d="M 0,0 776.4337,0" /></g><g
         transform="matrix(1,0,0,-1,10.38028,1002.413)"
         id="g20"><path
           id="path22"
           style="fill:none;stroke:#efa731;stroke-width:3;stroke-linecap:square;stroke-linejoin:miter;stroke-miterlimit:10;stroke-dasharray:none;stroke-opacity:1"
           d="M 0,980.6827 0,0" /></g><g
         transform="matrix(1,0,0,-1,12.26761,1002.413)"
         id="g24"><path
           id="path26"
           style="fill:none;stroke:#efa731;stroke-width:3;stroke-linecap:square;stroke-linejoin:miter;stroke-miterlimit:10;stroke-dasharray:none;stroke-opacity:1"
           d="M 0,0 775.6994,0" /></g><g
         transform="matrix(1,0,0,-1,787.9577,1002.413)"
         id="g28"><path
           id="path30"
           style="fill:none;stroke:#efa731;stroke-width:3;stroke-linecap:square;stroke-linejoin:miter;stroke-miterlimit:10;stroke-dasharray:none;stroke-opacity:1"
           d="M 0,980.6827 0,0" /></g></g><g
       id="g32"><g
         clip-path="url(#clipPath36)"
         id="g34"><g
           id="g40" /><g
           id="g54"><g
             id="g56"
             clip-path="url(#clipPath42)"><g
               id="g58" /><g
               id="g60"><g
                 id="g62"
                 clip-path="url(#clipPath46)"><g
                   id="g64"
                   clip-path="url(#clipPath50)"><path
                     id="path66"
                     style="fill:#efa72d;fill-opacity:1;fill-rule:evenodd;stroke:none"
                     d="m 719.5794,117.0722 66.5776,0 0,-44.34568 -66.5776,0 0,44.34568 z" /></g></g></g></g></g></g></g><g
       id="g68"><g
         clip-path="url(#clipPath72)"
         id="g70"><g
           id="g76" /><g
           id="g90"><g
             id="g92"
             clip-path="url(#clipPath78)"><g
               id="g94" /><g
               id="g96"><g
                 id="g98"
                 clip-path="url(#clipPath82)"><g
                   id="g100"
                   clip-path="url(#clipPath86)"><path
                     id="path102"
                     style="fill:#f7c169;fill-opacity:1;fill-rule:evenodd;stroke:none"
                     d="m 719.5785,140.2358 43.9905,0 0,-63.4479 -43.9905,0 0,63.4479 z" /></g></g></g></g></g></g></g><g
       id="g104"><g
         clip-path="url(#clipPath108)"
         id="g106"><g
           id="g112" /><g
           id="g126"><g
             id="g128"
             clip-path="url(#clipPath114)"><g
               id="g130" /><g
               id="g132"><g
                 id="g134"
                 clip-path="url(#clipPath118)"><g
                   id="g136"
                   clip-path="url(#clipPath122)"><path
                     id="path138"
                     style="fill:#0f5180;fill-opacity:1;fill-rule:evenodd;stroke:none"
                     d="m 666.3674,120.5168 39.7143,0 0,-50.42945 -39.7143,0 0,50.42945 z" /></g></g></g></g></g></g></g><g
       id="g140"><g
         clip-path="url(#clipPath144)"
         id="g142"><g
           id="g148" /><g
           id="g162"><g
             id="g164"
             clip-path="url(#clipPath150)"><g
               id="g166" /><g
               id="g168"><g
                 id="g170"
                 clip-path="url(#clipPath154)"><g
                   id="g172"
                   clip-path="url(#clipPath158)"><path
                     id="path174"
                     style="fill:#efa72d;fill-opacity:1;fill-rule:evenodd;stroke:none"
                     d="m 666.3674,86.33978 93.4267,0 0,-50.42949 -93.4267,0 0,50.42949 z" /></g></g></g></g></g></g></g><g
       id="g176"><g
         clip-path="url(#clipPath180)"
         id="g178"><g
           id="g184" /><g
           id="g198"><g
             id="g200"
             clip-path="url(#clipPath186)"><g
               id="g202" /><g
               id="g204"><g
                 id="g206"
                 clip-path="url(#clipPath190)"><g
                   id="g208"
                   clip-path="url(#clipPath194)"><path
                     id="path210"
                     style="fill:#efa72d;fill-opacity:1;fill-rule:evenodd;stroke:none"
                     d="m 689.2742,86.3379 42.196,0 0,-50.29063 -42.196,0 0,50.29063 z" /></g></g></g></g></g></g></g><g
       id="g212"><g
         clip-path="url(#clipPath216)"
         id="g214"><g
           id="g220" /><g
           id="g234"><g
             id="g236"
             clip-path="url(#clipPath222)"><g
               id="g238" /><g
               id="g240"><g
                 id="g242"
                 clip-path="url(#clipPath226)"><g
                   id="g244"
                   clip-path="url(#clipPath230)"><path
                     id="path246"
                     style="fill:#0f5180;fill-opacity:1;fill-rule:evenodd;stroke:none"
                     d="m 689.2742,120.515 43.158,0 0,-50.29066 -43.158,0 0,50.29066 z" /></g></g></g></g></g></g></g><g
       id="g248"><g
         transform="matrix(1,0,0,-1,360.4789,755.8248)"
         id="g250"><path
           id="path252"
           style="fill:none;stroke:#efa72d;stroke-width:3;stroke-linecap:square;stroke-linejoin:miter;stroke-miterlimit:10;stroke-dasharray:none;stroke-opacity:1"
           d="m 4.71831,2.834343 -3.774648,0" /></g><g
         transform="matrix(1,0,0,-1,575.6338,270.2074)"
         id="g254"><path
           id="path256"
           style="fill:none;stroke:#efa72d;stroke-width:3;stroke-linecap:square;stroke-linejoin:miter;stroke-miterlimit:10;stroke-dasharray:none;stroke-opacity:1"
           d="m 0.943662,2.834343 9.436618,0" /></g><g
         transform="matrix(1,0,0,-1,407.662,136.0485)"
         id="g258"><path
           id="path260"
           style="fill:none;stroke:#efa72d;stroke-width:3;stroke-linecap:square;stroke-linejoin:miter;stroke-miterlimit:10;stroke-dasharray:none;stroke-opacity:1"
           d="M 0.943662,0.944781 4.71831,2.834343" /></g><g
         transform="matrix(1,0,0,-1,190.6197,997.6888)"
         id="g262"><path
           id="path264"
           style="fill:none;stroke:#efa72d;stroke-width:3;stroke-linecap:butt;stroke-linejoin:miter;stroke-miterlimit:10;stroke-dasharray:none;stroke-opacity:1"
           d="M 289.7454,0.3796716 C 261.3944,3.991852 272.9575,64.55541 261.2044,68.47774 c -2.1403,0.7143 -17.2009,2.19888 -18.493,-0.42756 -8.5579,-17.39574 21.2814,-16.96241 11.0123,-32.44207 -2.7683,-4.17292 -34.0342,-12.87065 -44.7931,-1.60937 -5.4295,5.68298 13.1411,10.12108 13.7906,12.10152 2.8,8.5373 1.2984,17.9326 4.4913,26.76843 2.1407,5.92385 11.1913,9.58311 10.0479,17.34759 -2.0428,13.87162 -17.3418,2.5231 -21.3817,5.56795 -3.365,2.53622 -8.8393,20.53747 -11.3291,25.48577 -4.7731,9.4863 11.3261,29.9772 7.4808,32.9801 -9.8928,7.7255 -30.9656,-9.9177 -38.0562,4.2804 -2.1206,4.2462 10.0262,5.8364 11.2235,8.8876 1.4149,3.6059 8.8674,25.6464 -3.8483,22.0556 -45.4858,-12.8445 -27.996,-33.6681 -39.2318,-39.2927 -15.5894,-7.8039 -32.9,-24.1061 -32.2837,-24.3087 20.1316,-6.6182 50.2525,25.463 69.6969,5.9955 7.9817,-7.9912 30.6647,-55.57379 6.4154,-55.57379 -7.2808,0 -19.548,-16.16302 -28.968,-20.87861 -8.5354,-4.27279 -17.8922,-5.76695 -26.7271,-8.67139 -7.0774,-2.3267 -14.8532,3.51697 -22.3414,2.4597 C 104.6635,48.74536 66.95355,37.74034 64.72408,37.85643 62.21547,37.98706 59.43202,44.06448 58.30862,41.81501 54.74204,34.67339 67.1712,24.70742 58.84124,21.36397 51.69931,18.49736 35.91205,9.2182 28.59208,9.906196 22.75191,10.45511 2.797555,38.76891 -0.05920079,17.51108" /></g><g
         transform="matrix(1,0,0,-1,15.09859,973.1245)"
         id="g266"><path
           id="path268"
           style="fill:none;stroke:#efa72d;stroke-width:3;stroke-linecap:butt;stroke-linejoin:miter;stroke-miterlimit:10;stroke-dasharray:none;stroke-opacity:1"
           d="m 171.1865,-0.630149 c -0.306,19.304239 -24.7942,6.7771 -28.1138,11.241589 -1.5575,2.09458 -1.0955,18.27392 -1.713,18.52459 -6.9362,2.81531 -37.2373,10.5944 -40.3019,14.45553 -2.19413,2.76447 -2.10169,9.07575 -5.23503,11.1359 -2.87883,1.89282 -9.84634,-0.62933 -12.18795,1.71506 -4.63015,4.63564 0.55357,17.4307 -5.45099,22.69936 -2.46161,2.15992 -13.88016,2.17162 -14.86066,4.17956 -6.83671,14.00076 22.77316,3.45724 16.14184,15.09447 -5.63192,9.88339 -23.29098,6.57129 -28.11387,19.91779 -3.09853,8.5746 3.93909,18.7977 0.74855,26.2352 -3.93362,9.1697 -9.69426,15.7844 -13.89618,24.1982 -2.63453,5.2753 0.59624,12.8299 -1.71303,17.559 -2.81754,5.77 -9.47076,10.0269 -13.2532,15.2049 -3.01515,4.1277 -0.97252,9.7365 -3.52683,13.7061 -1.52015,2.3625 -12.220429,8.3136 -12.830938,10.1751 -6.7376619,20.5436 -4.866669,48.3958 -0.854116,68.8475 1.686751,8.5973 -8.979873,19.9103 -4.812802,28.1616 1.982411,3.9255 -0.9442233,10.9016 2.994206,12.851 2.436408,1.2059 7.28616,2.298 7.91257,5.4623 1.37257,6.9334 1.40809,14.2259 7.69665,18.6302 1.80239,1.2624 16.59753,66.9981 15.17736,68.42 -10.52854,10.541 -25.454319,20.192 -27.686809,37.5872 -2.098078,16.3479 6.820149,22.5367 22.024689,15.0945 10.21283,-4.9988 0.32996,-25.4706 8.01333,-28.5892 8.32131,-3.3775 13.90612,19.7278 25.0189,11.3521 6.48277,-4.8861 13.27197,-17.6171 17.7445,-24.3087 8.91975,-13.3453 29.38361,-10.362 32.17811,-32.0145 1.7359,-13.4501 -6.0559,-29.0777 -0.2159,-41.8677 7.6765,-16.8122 17.4911,-13.0386 23.517,-39.7251 1.9649,-8.702 -33.5558,-18.6039 -34.3134,-37.0492 -0.9732,-23.6936 18.0286,-31.5169 27.2597,-50.9667 2.531,-5.3327 -1.3623,-14.0285 1.4971,-18.5245 5.0741,-7.9784 22.6287,-21.8371 31.1081,-27.4122 10.2662,-6.75 -18.5422,-33.3166 2.0297,-39.1918 11.6361,-3.3233 43.5828,7.5618 42.0101,22.6993 -0.6971,6.7089 -37.1837,41.8231 -41.4775,48.2956 -11.8511,17.8645 2.0428,30.3951 3.6372,46.5757 0.8463,8.5885 -8.2032,16.2648 -4.3857,25.1639 27.5626,64.2518 40.3443,-3.6878 105.6177,0.1057 11.5378,0.6705 11.0047,-7.5832 20.5276,2.0369 5.0182,5.0695 -27.6981,28.8632 -32.3941,29.4443 -7.9603,0.985 -16.4509,-8.7312 -24.1551,-5.6736 -3.2122,1.2748 0.1634,7.2973 -1.4971,8.8875 -3.1198,2.9877 -18.0893,2.8755 -19.7791,8.0277 -5.6038,17.0865 22.86,15.8402 21.4873,29.771 -1.44,14.6137 -5.2862,23.0372 -9.9423,36.6168 -2.3624,6.8899 -9.9447,-2.3468 -11.0075,-1.2827 -0.167,0.1672 -1.9046,6.5336 -1.286,6.5336 5.1422,0 -3.6821,-9.6925 -4.4865,-14.7774 -1.0214,-6.4563 6.6141,-16.7249 0.7485,-19.5959 -3.9541,-1.9354 -13.6817,9.9215 -16.6792,12.7404 -2.7352,2.5722 -9.9295,-7.2098 -10.6909,-3.531 -1.0228,4.9418 8.9046,19.9912 6.4155,22.4832 -3.4108,3.4149 -7.9136,-0.7257 -11.4394,3.9634 -11.939,15.8781 18.1747,36.5436 -14.2177,66.604" /></g><g
         transform="matrix(1,0,0,-1,13.21127,498.8444)"
         id="g270"><path
           id="path272"
           style="fill:none;stroke:#efa72d;stroke-width:3;stroke-linecap:butt;stroke-linejoin:miter;stroke-miterlimit:10;stroke-dasharray:none;stroke-opacity:1"
           d="M 160.2429,3.51055 C 144.6043,26.80044 135.076,-2.582547 121.3327,-0.7699005 115.9216,-0.05622132 95.31773,9.529903 90.65164,13.25326 86.6508,16.44577 88.08667,22.91831 82.63351,24.71103 67.72803,29.61117 44.7161,16.69851 31.64564,23.21215 27.00079,25.5269 8.179545,45.87162 0.321641,52.33939" /></g><g
         transform="matrix(1,0,0,-1,296.3099,721.8127)"
         id="g274"><path
           id="path276"
           style="fill:none;stroke:#efa72d;stroke-width:3;stroke-linecap:butt;stroke-linejoin:miter;stroke-miterlimit:10;stroke-dasharray:none;stroke-opacity:1"
           d="M 0.511369,19.49917 C 2.841867,17.10385 6.154731,15.21176 7.565027,12.11047 19.20539,-13.48708 22.70827,7.307921 28.19817,9.112713 33.75211,10.93855 39.25011,8.101658 43.1644,13.60935 c 2.33487,3.28532 -0.20208,9.06373 2.13529,12.20721 1.59829,2.1495 10.35941,2.35081 9.72637,5.24607 -2.81613,12.87985 -21.49662,5.76626 -27.89793,12.20721 -3.06693,3.08592 -1.21907,9.15755 -3.3157,11.35208 C 18.07229,60.63009 27.01332,27.08847 6.92204,26.566 L 0.511369,19.49917 Z" /></g><g
         transform="matrix(1,0,0,-1,349.1549,761.4935)"
         id="g278"><path
           id="path280"
           style="fill:none;stroke:#efa72d;stroke-width:3;stroke-linecap:butt;stroke-linejoin:miter;stroke-miterlimit:10;stroke-dasharray:none;stroke-opacity:1"
           d="M 3.78846,2.751053 C 7.085479,4.480117 12.93347,-1.754509 16.29311,-0.03532309 17.97829,0.8270113 15.1003,8.375414 16.50904,9.817879 22.61263,16.06759 52.81453,42.19396 33.07793,47.07845 29.17833,48.04354 25.5263,34.81978 22.17595,32.41155 17.70568,29.19832 -1.201772,23.90776 1.005385,13.2432 1.798816,9.409489 10.79111,8.792133 13.6204,8.640876" /></g><g
         transform="matrix(1,0,0,-1,13.21127,224.8579)"
         id="g282"><path
           id="path284"
           style="fill:none;stroke:#efa72d;stroke-width:3;stroke-linecap:butt;stroke-linejoin:miter;stroke-miterlimit:10;stroke-dasharray:none;stroke-opacity:1"
           d="M 0.3744235,94.50569 C 26.8828,132.9293 32.03671,117.4793 65.69033,130.1617 c 1.47909,0.5574 35.40617,33.5961 36.98607,37.7986 6.831,18.1696 -10.57674,11.0047 -7.16397,24.5201 0.9951,3.9409 22.79327,8.7767 25.55147,6.3174 21.6589,-19.3111 -11.4235,-34.3533 -5.1295,-45.3987 8.8047,-15.4512 53.4662,20.1167 39.1215,-5.8898 -10.3494,-18.7629 -35.403,-13.311 -41.0456,-17.5638 -4.7589,-3.5867 -14.43959,-17.2027 -17.10633,-22.4832 -1.40266,-2.7774 4.24613,-5.4449 0.10556,-8.56566 C 86.65546,91.09275 80.85116,108.0289 73.59811,91.9355 60.38605,62.62001 37.3141,51.57458 30.83951,38.61003 27.72901,32.38166 21.81431,5.424562 28.38272,1.455142 c 4.55989,-2.755629 22.41962,-1.7120622 25.01409,3.425321 2.10896,4.175996 0.81744,9.638097 3.20534,13.278527 3.67208,5.5982 19.59746,7.55806 25.11966,11.99102 24.04679,19.30361 46.16599,39.22168 67.13449,59.74855 2.415,2.36413 8.2824,-3.91019 10.1582,-2.03213 3.0792,3.08277 7.9693,11.24897 10.475,15.20497 7.6104,12.0154 -1.3483,42.4671 16.5689,48.7183 28.4588,9.9293 44.0613,63.455 90.0085,17.4533 6.8884,-6.8966 -14.6033,-9.2328 -17.423,-11.2416 -6.2921,-4.4823 -5.5714,-22.6993 2.3512,-22.6993 46.9569,0 14.1594,-15.4013 28.5409,-20.1292 6.1194,-2.0117 11.2575,7.1367 16.2522,8.6714 5.2173,1.6031 16.557,-5.5313 21.4873,0.4276 5.6574,6.8378 -6.1477,14.6757 0.1055,22.1661 4.7637,5.7062 21.7292,12.4961 18.709,21.5223 -2.2338,6.6761 -20.2452,3.3665 -16.7848,13.9175 1.6556,5.048 20.6624,-2.2441 25.8682,-1.3884 9.378,1.5415 16.8772,14.1204 24.587,19.2741" /></g><g
         transform="matrix(1,0,0,-1,441.6338,347.6794)"
         id="g286"><path
           id="path288"
           style="fill:none;stroke:#efa72d;stroke-width:3;stroke-linecap:butt;stroke-linejoin:miter;stroke-miterlimit:10;stroke-dasharray:none;stroke-opacity:1"
           d="m 17.93978,54.56923 c 4.03387,8.63778 -2.67559,7.67004 -5.34543,12.95665 -2.52972,5.00915 -15.946434,4.81642 -12.293517,15.95441 3.026888,9.22918 21.367107,-0.30898 25.014097,3.42532 4.5443,4.6531 6.73885,21.27829 16.99595,17.34759 C 57.52148,98.42431 59.45786,79.31751 73.84601,74.48702 77.30876,73.32448 90.46418,55.44903 89.56079,54.9968 77.06365,48.74082 64.00167,61.0193 51.50463,56.81755 41.3213,53.39372 45.35803,43.67342 51.93169,39.89752 58.81219,35.94537 101.3909,-6.282247 107.7324,0.06675489 110.5109,2.848586 104.6144,9.904278 104.2055,12.80722 c -0.9126,6.47898 12.1716,3.47244 11.2235,12.10152 -1.9456,17.70851 -32.92452,53.25852 20.422,56.10705" /></g><g
         transform="matrix(1,0,0,-1,358.5915,294.7717)"
         id="g290"><path
           id="path292"
           style="fill:none;stroke:#efa72d;stroke-width:3;stroke-linecap:butt;stroke-linejoin:miter;stroke-miterlimit:10;stroke-dasharray:none;stroke-opacity:1"
           d="M 97.66633,2.732808 C 85.04314,-7.850861 75.70566,11.60876 63.88555,8.195066 57.12946,6.243883 52.68723,-2.125584 45.28693,2.838498 25.48123,16.12405 40.30605,23.9939 37.16322,34.64162 c -2.88282,9.76684 -6.42176,16.68242 -8.1285,27.0903 -1.35795,8.28096 -9.29078,3.38179 -12.72057,12.3129 -3.82523,9.96083 6.69225,17.029 4.70244,26.44658 -3.23602,15.3157 -18.445139,8.3063 -21.1657756,18.8464 -1.1869204,4.5984 17.7678856,37.4066 23.3058556,39.6194 6.61478,2.6431 19.13493,-0.649 26.72713,0.3219" /></g><g
         transform="matrix(1,0,0,-1,411.4366,268.3178)"
         id="g294"><path
           id="path296"
           style="fill:none;stroke:#efa72d;stroke-width:3;stroke-linecap:butt;stroke-linejoin:miter;stroke-miterlimit:10;stroke-dasharray:none;stroke-opacity:1"
           d="m 174.9205,-0.3779549 c -0.0873,4.2389659 9.2008,1.2946326 10.4749,2.5701919 2.3952,2.398055 -1.4581,11.103453 1.2811,13.168033 2.4707,1.86214 7.0735,-0.3147 9.9423,0.42756 3.916,1.01319 4.9649,8.74519 9.1938,10.70833 9.0348,4.19411 38.6113,0.55095 41.583,13.38422 6.506,28.09664 -19.7831,15.39526 -33.5649,20.98909 -4.3384,1.76093 -6.3206,8.51519 -10.0478,11.24159 -18.712,13.68739 -49.0495,29.82464 -73.4396,22.48798 -7.1478,-2.15008 -12.6134,-21.67281 -23.5218,-20.77292 -9.44777,0.77939 -49.07682,18.72254 -54.83622,24.94768 -5.90962,6.3875 -8.03184,17.2033 -14.00655,23.1317 -7.68296,7.6234 -28.119489,4.3104 -37.09168,12.9519" /></g><g
         transform="matrix(1,0,0,-1,169.8592,496.9548)"
         id="g298"><path
           id="path300"
           style="fill:none;stroke:#efa72d;stroke-width:3;stroke-linecap:butt;stroke-linejoin:miter;stroke-miterlimit:10;stroke-dasharray:none;stroke-opacity:1"
           d="M -0.3236924,6.889051 C 0.740983,3.064974 3.950729,1.474408 6.814747,-0.4026732" /></g><g
         transform="matrix(1,0,0,-1,184.9577,980.6827)"
         id="g302"><path
           id="path304"
           style="fill:none;stroke:#efa72d;stroke-width:3;stroke-linecap:butt;stroke-linejoin:miter;stroke-miterlimit:10;stroke-dasharray:none;stroke-opacity:1"
           d="M 5.740401,-0.1907205 C 3.447952,1.788423 1.426752,7.344232 -0.2011522,11.88074" /></g><g
         transform="matrix(1,0,0,-1,454.8451,294.7717)"
         id="g306"><path
           id="path308"
           style="fill:none;stroke:#efa72d;stroke-width:3;stroke-linecap:square;stroke-linejoin:miter;stroke-miterlimit:10;stroke-dasharray:none;stroke-opacity:1"
           d="m 0.943662,2.834343 3.774648,0" /></g></g><g
       id="g310"><g
         id="g312" /><g
         id="g326"><g
           style="opacity:0.39590005"
           id="g328"
           clip-path="url(#clipPath314)"><g
             id="g330" /><g
             id="g332"><g
               id="g334"
               clip-path="url(#clipPath318)"><g
                 id="g336"
                 clip-path="url(#clipPath322)"><path
                   id="path338"
                   style="fill:#0f5180;fill-opacity:1;fill-rule:evenodd;stroke:none"
                   d="m 190.3033,715.854 384.3472,0 0,-465.8625 -384.3472,0 0,465.8625 z" /></g></g></g></g></g></g><g
       id="g340"><g
         clip-path="url(#clipPath344)"
         id="g342"><path
           id="path348"
           style="fill:#efa731;fill-opacity:0.4;fill-rule:evenodd;stroke:none"
           d="m 63.87026,312.163 328.10144,0 0,-178.9154 -328.10144,0 0,178.9154 z" /></g></g><g
       id="g350"><g
         clip-path="url(#clipPath354)"
         id="g352"><path
           id="path358"
           style="fill:#417505;fill-opacity:0.5;fill-rule:evenodd;stroke:none"
           d="m 3.921226,569.8304 211.100674,0 0,-236.42 -211.100674,0 0,236.42 z" /></g></g><g
       id="g360"><g
         clip-path="url(#clipPath364)"
         id="g362"><g
           transform="matrix(1,0,0,-1,324.615,512.8785)"
           id="g368"><text
             id="text370"
             style="font-style:italic;font-variant:normal;font-weight:bold;font-size:27.6956501px;font-family:TimesNewRomanPS;-inkscape-font-specification:TimesNewRomanPS-BoldItalicMT;writing-mode:lr-tb;fill:#000000;fill-opacity:1;fill-rule:nonzero;stroke:none"
             transform="translate(0,25)"><tspan
               id="tspan372"
               y="0"
               x="0 18.472998">C </tspan></text>
<text
             id="text374"
             style="font-style:italic;font-variant:normal;font-weight:bold;font-size:27.6956501px;font-family:TimesNewRomanPS;-inkscape-font-specification:TimesNewRomanPS-BoldItalicMT;writing-mode:lr-tb;fill:#000000;fill-opacity:1;fill-rule:nonzero;stroke:none"
             transform="translate(25.396911,25)"><tspan
               id="tspan376"
               y="0"
               x="0">х</tspan></text>
<text
             id="text378"
             style="font-style:italic;font-variant:normal;font-weight:bold;font-size:27.6956501px;font-family:TimesNewRomanPS;-inkscape-font-specification:TimesNewRomanPS-BoldItalicMT;writing-mode:lr-tb;fill:#000000;fill-opacity:1;fill-rule:nonzero;stroke:none"
             transform="translate(46.168649,25)"><tspan
               id="tspan380"
               y="0"
               x="0">і</tspan></text>
<text
             id="text382"
             style="font-style:italic;font-variant:normal;font-weight:bold;font-size:27.6956501px;font-family:TimesNewRomanPS;-inkscape-font-specification:TimesNewRomanPS-BoldItalicMT;writing-mode:lr-tb;fill:#000000;fill-opacity:1;fill-rule:nonzero;stroke:none"
             transform="translate(60.786413,25)"><tspan
               id="tspan384"
               y="0"
               x="0">д</tspan></text>
<text
             id="text386"
             style="font-style:italic;font-variant:normal;font-weight:bold;font-size:27.6956501px;font-family:TimesNewRomanPS;-inkscape-font-specification:TimesNewRomanPS-BoldItalicMT;writing-mode:lr-tb;fill:#000000;fill-opacity:1;fill-rule:nonzero;stroke:none"
             transform="translate(81.450137,25)"><tspan
               id="tspan388"
               y="0"
               x="0">н</tspan></text>
<text
             id="text390"
             style="font-style:italic;font-variant:normal;font-weight:bold;font-size:27.6956501px;font-family:TimesNewRomanPS;-inkscape-font-specification:TimesNewRomanPS-BoldItalicMT;writing-mode:lr-tb;fill:#000000;fill-opacity:1;fill-rule:nonzero;stroke:none"
             transform="translate(103.75067,25)"><tspan
               id="tspan392"
               y="0"
               x="0">і</tspan></text>
</g><g
           transform="matrix(1,0,0,-1,324.615,512.8785)"
           id="g394"><text
             id="text396"
             style="font-style:italic;font-variant:normal;font-weight:bold;font-size:27.6956501px;font-family:TimesNewRomanPS;-inkscape-font-specification:TimesNewRomanPS-BoldItalicMT;writing-mode:lr-tb;fill:#000000;fill-opacity:1;fill-rule:nonzero;stroke:none"
             transform="translate(0,57)"><tspan
               id="tspan398"
               y="0"
               x="0 12.291329 26.504738 40.352562">слов</tspan></text>
<text
             id="text400"
             style="font-style:italic;font-variant:normal;font-weight:bold;font-size:27.6956501px;font-family:TimesNewRomanPS;-inkscape-font-specification:TimesNewRomanPS-BoldItalicMT;writing-mode:lr-tb;fill:#000000;fill-opacity:1;fill-rule:nonzero;stroke:none"
             transform="translate(52.726978,57)"><tspan
               id="tspan402"
               y="0"
               x="0">’</tspan></text>
<text
             id="text404"
             style="font-style:italic;font-variant:normal;font-weight:bold;font-size:27.6956501px;font-family:TimesNewRomanPS;-inkscape-font-specification:TimesNewRomanPS-BoldItalicMT;writing-mode:lr-tb;fill:#000000;fill-opacity:1;fill-rule:nonzero;stroke:none"
             transform="translate(61.94963,57)"><tspan
               id="tspan406"
               y="0"
               x="0 14.266029 29.642654">яни</tspan></text>
</g></g></g><g
       id="g408"><g
         clip-path="url(#clipPath412)"
         id="g410"><g
           transform="matrix(1,0,0,-1,75.375,455.5568)"
           id="g416"><text
             id="text418"
             style="font-style:italic;font-variant:normal;font-weight:bold;font-size:27.6956501px;font-family:TimesNewRomanPS;-inkscape-font-specification:TimesNewRomanPS-BoldItalicMT;writing-mode:lr-tb;fill:#000000;fill-opacity:1;fill-rule:nonzero;stroke:none"
             transform="translate(0,25)"><tspan
               id="tspan420"
               y="0"
               x="0 14.091547 27.939371 41.787197 49.481049 63.22086 78.597488">Західні</tspan></text>
</g><g
           transform="matrix(1,0,0,-1,75.375,455.5568)"
           id="g422"><text
             id="text424"
             style="font-style:italic;font-variant:normal;font-weight:bold;font-size:27.6956501px;font-family:TimesNewRomanPS;-inkscape-font-specification:TimesNewRomanPS-BoldItalicMT;writing-mode:lr-tb;fill:#000000;fill-opacity:1;fill-rule:nonzero;stroke:none"
             transform="translate(0,57)"><tspan
               id="tspan426"
               y="0"
               x="0 12.291329 26.504738 40.352562">слов</tspan></text>
<text
             id="text428"
             style="font-style:italic;font-variant:normal;font-weight:bold;font-size:27.6956501px;font-family:TimesNewRomanPS;-inkscape-font-specification:TimesNewRomanPS-BoldItalicMT;writing-mode:lr-tb;fill:#000000;fill-opacity:1;fill-rule:nonzero;stroke:none"
             transform="translate(52.726978,57)"><tspan
               id="tspan430"
               y="0"
               x="0">’</tspan></text>
<text
             id="text432"
             style="font-style:italic;font-variant:normal;font-weight:bold;font-size:27.6956501px;font-family:TimesNewRomanPS;-inkscape-font-specification:TimesNewRomanPS-BoldItalicMT;writing-mode:lr-tb;fill:#000000;fill-opacity:1;fill-rule:nonzero;stroke:none"
             transform="translate(61.94963,57)"><tspan
               id="tspan434"
               y="0"
               x="0 14.266029 29.642654">яни</tspan></text>
</g></g></g><g
       id="g436"><g
         clip-path="url(#clipPath440)"
         id="g438"><g
           transform="matrix(1,0,0,-1,163.815,249.3997)"
           id="g444"><text
             id="text446"
             style="font-style:italic;font-variant:normal;font-weight:bold;font-size:27.6956501px;font-family:TimesNewRomanPS;-inkscape-font-specification:TimesNewRomanPS-BoldItalicMT;writing-mode:lr-tb;fill:#000000;fill-opacity:1;fill-rule:nonzero;stroke:none"
             transform="translate(0,25)"><tspan
               id="tspan448"
               y="0"
               x="0 21.541677 29.235529 41.083729 54.815231 67.10656 82.472107 97.837654">Південні</tspan></text>
</g><g
           transform="matrix(1,0,0,-1,163.815,249.3997)"
           id="g450"><text
             id="text452"
             style="font-style:italic;font-variant:normal;font-weight:bold;font-size:27.6956501px;font-family:TimesNewRomanPS;-inkscape-font-specification:TimesNewRomanPS-BoldItalicMT;writing-mode:lr-tb;fill:#000000;fill-opacity:1;fill-rule:nonzero;stroke:none"
             transform="translate(0,57)"><tspan
               id="tspan454"
               y="0"
               x="0 12.291329 26.504738 40.352562">слов</tspan></text>
<text
             id="text456"
             style="font-style:italic;font-variant:normal;font-weight:bold;font-size:27.6956501px;font-family:TimesNewRomanPS;-inkscape-font-specification:TimesNewRomanPS-BoldItalicMT;writing-mode:lr-tb;fill:#000000;fill-opacity:1;fill-rule:nonzero;stroke:none"
             transform="translate(52.726978,57)"><tspan
               id="tspan458"
               y="0"
               x="0">’</tspan></text>
<text
             id="text460"
             style="font-style:italic;font-variant:normal;font-weight:bold;font-size:27.6956501px;font-family:TimesNewRomanPS;-inkscape-font-specification:TimesNewRomanPS-BoldItalicMT;writing-mode:lr-tb;fill:#000000;fill-opacity:1;fill-rule:nonzero;stroke:none"
             transform="translate(61.94963,57)"><tspan
               id="tspan462"
               y="0"
               x="0 14.266029 29.642654">яни</tspan></text>
</g></g></g></g></svg>