<?xml version="1.0" encoding="UTF-8" standalone="no"?>
<svg
   xmlns:dc="http://purl.org/dc/elements/1.1/"
   xmlns:cc="http://creativecommons.org/ns#"
   xmlns:rdf="http://www.w3.org/1999/02/22-rdf-syntax-ns#"
   xmlns:svg="http://www.w3.org/2000/svg"
   xmlns="http://www.w3.org/2000/svg"
   viewBox="0 0 464 956"
   height="956"
   width="464"
   xml:space="preserve"
   version="1.1"
   id="svg2"><metadata
     id="metadata8"><rdf:RDF><cc:Work
         rdf:about=""><dc:format>image/svg+xml</dc:format><dc:type
           rdf:resource="http://purl.org/dc/dcmitype/StillImage" /></cc:Work></rdf:RDF></metadata><defs
     id="defs6"><clipPath
       id="clipPath36"
       clipPathUnits="userSpaceOnUse"><path
         style="clip-rule:evenodd"
         id="path38"
         d="m 315.604,58.2809 -14.4557,-13.07995 13.599,-2.58566 14.4558,13.07994 -13.5991,2.58567 0,0 z" /></clipPath><clipPath
       id="clipPath42"
       clipPathUnits="userSpaceOnUse"><path
         id="path44"
         d="m 301,42 29,0 0,17 -29,0 0,-17 z" /></clipPath><clipPath
       id="clipPath46"
       clipPathUnits="userSpaceOnUse"><path
         style="clip-rule:evenodd"
         id="path48"
         d="m 298.1436,61.51011 34.0641,0 0,-22.12403 -34.0641,0 0,22.12403 z" /></clipPath><clipPath
       id="clipPath50"
       clipPathUnits="userSpaceOnUse"><path
         id="path52"
         d="m 301,42 29,0 0,17 -29,0 0,-17 z" /></clipPath><clipPath
       id="clipPath72"
       clipPathUnits="userSpaceOnUse"><path
         style="clip-rule:evenodd"
         id="path74"
         d="m 301.1477,45.23145 14.4557,13.07995 0,14.89047 -14.4557,-13.07997 0,-14.89045 0,0 z" /></clipPath><clipPath
       id="clipPath78"
       clipPathUnits="userSpaceOnUse"><path
         id="path80"
         d="m 301,45 15,0 0,29 -15,0 0,-29 z" /></clipPath><clipPath
       id="clipPath82"
       clipPathUnits="userSpaceOnUse"><path
         style="clip-rule:evenodd"
         id="path84"
         d="m 298.1431,76.43108 20.4649,0 0,-34.42883 -20.4649,0 0,34.42883 z" /></clipPath><clipPath
       id="clipPath86"
       clipPathUnits="userSpaceOnUse"><path
         id="path88"
         d="m 301,45 15,0 0,29 -15,0 0,-29 z" /></clipPath><clipPath
       id="clipPath108"
       clipPathUnits="userSpaceOnUse"><path
         style="clip-rule:evenodd"
         id="path110"
         d="m 269.1106,44.83591 c 0,-3.59541 2.5616,-3.98958 4.174,-3.91229 0,0 6.3078,0.24765 7.707,0.45273 l 0,3.05604 -6.892,0 c -0.7162,0 -1.5202,-0.02657 -1.5312,1.38497 l 0,3.04144 7.2994,0.25168 0,3.06539 -7.2994,0.28096 0,3.04144 c 0,0.71911 0,1.49144 1.2842,1.49144 l 7.139,0 0,3.0827 c -1.5894,0.23437 -7.9539,0.42606 -7.9539,0.42606 -1.7051,0.03603 -3.9271,-0.66511 -3.9271,-4.04814 l 0,-11.61442 0,0 z" /></clipPath><clipPath
       id="clipPath114"
       clipPathUnits="userSpaceOnUse"><path
         id="path116"
         d="m 269,40 12,0 0,21 -12,0 0,-21 z" /></clipPath><clipPath
       id="clipPath118"
       clipPathUnits="userSpaceOnUse"><path
         style="clip-rule:evenodd"
         id="path120"
         d="m 266.106,63.72897 17.8903,0 0,-26.04293 -17.8903,0 0,26.04293 z" /></clipPath><clipPath
       id="clipPath122"
       clipPathUnits="userSpaceOnUse"><path
         id="path124"
         d="m 269,40 12,0 0,21 -12,0 0,-21 z" /></clipPath><clipPath
       id="clipPath144"
       clipPathUnits="userSpaceOnUse"><path
         style="clip-rule:evenodd"
         id="path146"
         d="m 269.1106,22.82053 c 0,-3.59541 2.5616,-3.98958 4.174,-3.91229 0,0 6.3078,0.24764 7.707,0.45273 l 0,3.05602 -6.892,0 c -0.7162,0 -1.5202,-0.02655 -1.5312,1.38499 l 0,3.04144 7.2994,0.25168 0,3.06539 -7.2994,0.28095 0,3.04145 c 0,0.7191 0,1.49143 1.2842,1.49143 l 7.139,0 0,3.0827 c -1.5894,0.23437 -7.9539,0.42607 -7.9539,0.42607 -1.7051,0.03603 -3.9271,-0.66511 -3.9271,-4.04815 l 0,-11.61441 0,0 z m 28.3146,-3.8324 3.7145,0 1.304,4.31974 5.9214,0 1.2843,-4.31974 3.6812,0 -5.8719,19.49496 -3.9332,0 -6.1003,-19.49496 0,0 z m 5.9164,7.62353 2.1733,6.95776 2.0315,-6.95776 -4.2048,0 0,0 z" /></clipPath><clipPath
       id="clipPath150"
       clipPathUnits="userSpaceOnUse"><path
         id="path152"
         d="m 269,18 45,0 0,21 -45,0 0,-21 z" /></clipPath><clipPath
       id="clipPath154"
       clipPathUnits="userSpaceOnUse"><path
         style="clip-rule:evenodd"
         id="path156"
         d="m 266.106,41.71359 50.2292,0 0,-26.04293 -50.2292,0 0,26.04293 z" /></clipPath><clipPath
       id="clipPath158"
       clipPathUnits="userSpaceOnUse"><path
         id="path160"
         d="m 269,18 45,0 0,21 -45,0 0,-21 z" /></clipPath><clipPath
       id="clipPath180"
       clipPathUnits="userSpaceOnUse"><path
         style="clip-rule:evenodd"
         id="path182"
         d="m 282.9023,18.9881 3.4577,0 0,7.75002 3.0378,-0.37283 2.9885,-7.37719 3.8912,0 -3.4232,7.67687 c 1.004,0.34083 2.8785,0.91341 2.8785,5.73923 0,4.65545 -2.0993,6.07897 -4.921,6.07897 l -7.9095,0 0,-19.49507 0,0 z m 3.4713,10.67967 0,5.49963 4.0986,0 c 1.0867,0 1.7782,-0.54863 1.7782,-2.7632 0,-2.35565 -0.5742,-2.73643 -1.7782,-2.73643 l -4.0986,0 0,0 z" /></clipPath><clipPath
       id="clipPath186"
       clipPathUnits="userSpaceOnUse"><path
         id="path188"
         d="m 282,18 15,0 0,21 -15,0 0,-21 z" /></clipPath><clipPath
       id="clipPath190"
       clipPathUnits="userSpaceOnUse"><path
         style="clip-rule:evenodd"
         id="path192"
         d="m 279.8977,41.71237 19.3844,0 0,-25.95348 -19.3844,0 0,25.95348 z" /></clipPath><clipPath
       id="clipPath194"
       clipPathUnits="userSpaceOnUse"><path
         id="path196"
         d="m 282,18 15,0 0,21 -15,0 0,-21 z" /></clipPath><clipPath
       id="clipPath216"
       clipPathUnits="userSpaceOnUse"><path
         style="clip-rule:evenodd"
         id="path218"
         d="m 282.9023,41.00349 7.6822,0 c 4.4135,0 6.2721,3.92829 6.2721,9.66763 0,4.82984 -1.0682,9.82743 -6.2721,9.82743 l -7.6822,0 0,-19.49506 0,0 z m 3.4577,3.32512 0,12.88074 3.9529,0 c 1.9276,0 3.086,-1.29561 3.086,-6.51167 0,-3.91099 -0.8447,-6.36907 -3.086,-6.36907 l -3.9529,0 0,0 z" /></clipPath><clipPath
       id="clipPath222"
       clipPathUnits="userSpaceOnUse"><path
         id="path224"
         d="m 282,41 15,0 0,20 -15,0 0,-20 z" /></clipPath><clipPath
       id="clipPath226"
       clipPathUnits="userSpaceOnUse"><path
         style="clip-rule:evenodd"
         id="path228"
         d="m 279.8977,63.72776 19.9636,0 0,-25.95348 -19.9636,0 0,25.95348 z" /></clipPath><clipPath
       id="clipPath230"
       clipPathUnits="userSpaceOnUse"><path
         id="path232"
         d="m 282,41 15,0 0,20 -15,0 0,-20 z" /></clipPath><clipPath
       id="clipPath310"
       clipPathUnits="userSpaceOnUse"><path
         id="path312"
         d="m 16,166 255,0 0,338 -255,0 0,-338 z" /></clipPath><clipPath
       id="clipPath314"
       clipPathUnits="userSpaceOnUse"><path
         style="clip-rule:evenodd"
         id="path316"
         d="m 106.8815,191.1534 c -3.6346,3.439 -54.23357,-4.1872 -67.61217,12.5047 -10.03076,12.515 11.2457,40.1744 5.54867,59.2941 -2.37769,7.9797 -3.50403,39.1958 0,54.4248 3.50403,15.229 -7.64454,44.6032 -12.49787,50.2515 -4.85333,5.6483 -1.98478,18.1938 -5.1885,22.4065 -3.20373,4.2127 -0.51768,11.1483 0,12.7162 2.85024,8.6328 8.25456,20.8925 4.29856,28.0545 -1.97397,3.5737 -6.72413,5.2124 -9.40468,6.5261 -2.6915,1.319 -3.30838,2.3073 -2.81868,3.0549 0.1891,0.2887 -0.64593,0.4704 -0.75402,0.8563 -0.11346,0.4051 -1.3435,0.467 -1.57821,1.3868 -0.4098,1.606 0.19354,4.2696 0.57467,4.7682 3.34667,4.3781 9.48404,1.8354 13.98092,5.146 1.50796,1.1101 -0.724,5.102 0.88994,6.1099 4.11384,2.569 13.44614,-5.6886 18.1949,-3.7858 6.67955,2.6765 9.25084,8.9725 17.5756,11.9075 2.95926,1.0433 11.23429,-2.6148 14.29129,-1.0576 1.33715,0.6812 2.68778,2.9834 3.52454,4.942 1.04595,2.4484 0.23266,6.7547 1.96808,7.7954 5.76121,3.455 12.27586,1.2104 17.82576,4.5896 14.4568,8.8022 30.4147,20.0994 42.938,19.2188 12.9632,-0.9116 7.7335,-13.5223 16.6527,-23.8084 12.5862,-14.5151 28.6667,-17.3849 32.0544,-23.5873 5.091,-9.3208 5.1458,-41.1563 10.3983,-52.1169 8.4386,-17.6091 46.1106,-30.0346 55.3311,-41.5982 8.3497,-10.4714 -5.3703,-31.5608 -4.8654,-43.776 2.3987,-58.0313 -76.1685,-96.7417 -80.8104,-102.9377 -4.6419,-6.1961 -7.3783,-14.7773 -7.3783,-14.7773 0,0 -1.7598,-5.7816 -7.5041,-5.6537 -5.7442,0.1279 -7.8025,5.7828 -13.8783,5.6537 -1.8018,-0.0383 -2.9712,-1.3956 -4.0578,-2.0582 -2.5775,-1.5717 -3.8285,-3.5119 -5.7511,-5.4704 -2.7331,-2.7842 -2.0779,-6.8833 -2.0779,-6.8833 0,0 13.5982,-35.2253 -29.87,5.9033 z" /></clipPath><clipPath
       id="clipPath318"
       clipPathUnits="userSpaceOnUse"><path
         id="path320"
         d="M 0,0 348,0 348,717 0,717 0,0 Z" /></clipPath><clipPath
       id="clipPath340"
       clipPathUnits="userSpaceOnUse"><path
         id="path342"
         d="M -0.1800619,494.222 98.87443,549.1288 139.8736,475.1644 40.81911,420.2576 -0.1800619,494.222 Z" /></clipPath><clipPath
       id="clipPath354"
       clipPathUnits="userSpaceOnUse"><path
         id="path356"
         d="m 108.2078,415.8262 110.7795,23.5469 17.5826,-82.7195 -110.7795,-23.5469 -17.5826,82.7195 z" /></clipPath><clipPath
       id="clipPath368"
       clipPathUnits="userSpaceOnUse"><path
         id="path370"
         d="M 13.06483,423.5244 125.217,439.2864 136.9865,355.5418 24.83436,339.7799 13.06483,423.5244 Z" /></clipPath><clipPath
       id="clipPath382"
       clipPathUnits="userSpaceOnUse"><path
         id="path384"
         d="M 56.49339,266.538 285.2938,349.8145 314.2176,270.347 85.4172,187.0705 56.49339,266.538 Z" /></clipPath><clipPath
       id="clipPath408"
       clipPathUnits="userSpaceOnUse"><path
         id="path410"
         d="M 65.33397,304.1143 274.0408,178.7106 230.4852,106.222 21.77845,231.6257 65.33397,304.1143 Z" /></clipPath><clipPath
       id="clipPath430"
       clipPathUnits="userSpaceOnUse"><path
         id="path432"
         d="M 8.533352,358.1412 115.5966,417.4873 156.5957,343.5228 49.53252,284.1767 8.533352,358.1412 Z" /></clipPath><clipPath
       id="clipPath452"
       clipPathUnits="userSpaceOnUse"><path
         id="path454"
         d="m 111.2822,311.578 243.4843,0 0,84.56757 -243.4843,0 0,-84.56757 z" /></clipPath><clipPath
       id="clipPath474"
       clipPathUnits="userSpaceOnUse"><path
         id="path476"
         d="m 208.7172,474.4388 214.9839,-114.309 -48.3556,-90.9436 -214.9839,114.309 48.3556,90.9436 z" /></clipPath><clipPath
       id="clipPath496"
       clipPathUnits="userSpaceOnUse"><path
         id="path498"
         d="m 63.14044,339.9297 227.31216,87.257 30.3063,-78.9506 -227.31215,-87.257 -30.30631,78.9506 z" /></clipPath><clipPath
       id="clipPath514"
       clipPathUnits="userSpaceOnUse"><path
         id="path516"
         d="M 92.69726,313.2354 285.9548,340.3959 297.7243,256.6514 104.4668,229.4908 92.69726,313.2354 Z" /></clipPath><clipPath
       id="clipPath532"
       clipPathUnits="userSpaceOnUse"><path
         id="path534"
         d="M 120.9524,501.3733 352.5197,426.1325 326.3869,345.704 94.81954,420.9448 120.9524,501.3733 Z" /></clipPath><clipPath
       id="clipPath546"
       clipPathUnits="userSpaceOnUse"><path
         id="path548"
         d="m 97.00612,348.5558 74.30158,-85.4741 -63.824,-55.4813 -74.30154,85.4741 63.82396,55.4813 z" /></clipPath><clipPath
       id="clipPath564"
       clipPathUnits="userSpaceOnUse"><path
         style="clip-rule:evenodd"
         id="path566"
         d="m -236,749 0,-466 241,0 0,466 -241,0 z" /></clipPath><clipPath
       id="clipPath574"
       clipPathUnits="userSpaceOnUse"><path
         style="clip-rule:evenodd"
         id="path576"
         d="m -236,413 0,-466 241,0 0,466 -241,0 z" /></clipPath></defs><g
     transform="matrix(1.3333333,0,0,-1.3333333,0,956)"
     id="g10"><g
       id="g12" /><g
       id="g14"><g
         transform="matrix(1,0,0,-1,7.892407,7.606297)"
         id="g16"><path
           id="path18"
           style="fill:none;stroke:#efa731;stroke-width:3;stroke-linecap:square;stroke-linejoin:miter;stroke-miterlimit:10;stroke-dasharray:none;stroke-opacity:1"
           d="M 0,1 331.6143,1" /></g><g
         transform="matrix(1,0,0,-1,6.545383,707.8494)"
         id="g20"><path
           id="path22"
           style="fill:none;stroke:#efa731;stroke-width:3;stroke-linecap:square;stroke-linejoin:miter;stroke-miterlimit:10;stroke-dasharray:none;stroke-opacity:1"
           d="M 0,699.8945 0,0" /></g><g
         transform="matrix(1,0,0,-1,7.892407,708.8494)"
         id="g24"><path
           id="path26"
           style="fill:none;stroke:#efa731;stroke-width:3;stroke-linecap:square;stroke-linejoin:miter;stroke-miterlimit:10;stroke-dasharray:none;stroke-opacity:1"
           d="M 0,1 329.6964,1" /></g><g
         transform="matrix(1,0,0,-1,339.5192,707.8494)"
         id="g28"><path
           id="path30"
           style="fill:none;stroke:#efa731;stroke-width:3;stroke-linecap:square;stroke-linejoin:miter;stroke-miterlimit:10;stroke-dasharray:none;stroke-opacity:1"
           d="M 0,699.8945 0,0" /></g></g><g
       id="g32"><g
         clip-path="url(#clipPath36)"
         id="g34"><g
           id="g40" /><g
           id="g54"><g
             id="g56"
             clip-path="url(#clipPath42)"><g
               id="g58" /><g
               id="g60"><g
                 id="g62"
                 clip-path="url(#clipPath46)"><g
                   id="g64"
                   clip-path="url(#clipPath50)"><path
                     id="path66"
                     style="fill:#efa72d;fill-opacity:1;fill-rule:evenodd;stroke:none"
                     d="m 293.1436,66.51011 44.0641,0 0,-32.12403 -44.0641,0 0,32.12403 z" /></g></g></g></g></g></g></g><g
       id="g68"><g
         clip-path="url(#clipPath72)"
         id="g70"><g
           id="g76" /><g
           id="g90"><g
             id="g92"
             clip-path="url(#clipPath78)"><g
               id="g94" /><g
               id="g96"><g
                 id="g98"
                 clip-path="url(#clipPath82)"><g
                   id="g100"
                   clip-path="url(#clipPath86)"><path
                     id="path102"
                     style="fill:#f7c169;fill-opacity:1;fill-rule:evenodd;stroke:none"
                     d="m 293.1431,81.43108 30.4649,0 0,-44.42883 -30.4649,0 0,44.42883 z" /></g></g></g></g></g></g></g><g
       id="g104"><g
         clip-path="url(#clipPath108)"
         id="g106"><g
           id="g112" /><g
           id="g126"><g
             id="g128"
             clip-path="url(#clipPath114)"><g
               id="g130" /><g
               id="g132"><g
                 id="g134"
                 clip-path="url(#clipPath118)"><g
                   id="g136"
                   clip-path="url(#clipPath122)"><path
                     id="path138"
                     style="fill:#0f5180;fill-opacity:1;fill-rule:evenodd;stroke:none"
                     d="m 261.106,68.72897 27.8903,0 0,-36.04293 -27.8903,0 0,36.04293 z" /></g></g></g></g></g></g></g><g
       id="g140"><g
         clip-path="url(#clipPath144)"
         id="g142"><g
           id="g148" /><g
           id="g162"><g
             id="g164"
             clip-path="url(#clipPath150)"><g
               id="g166" /><g
               id="g168"><g
                 id="g170"
                 clip-path="url(#clipPath154)"><g
                   id="g172"
                   clip-path="url(#clipPath158)"><path
                     id="path174"
                     style="fill:#efa72d;fill-opacity:1;fill-rule:evenodd;stroke:none"
                     d="m 261.106,46.71359 60.2292,0 0,-36.04293 -60.2292,0 0,36.04293 z" /></g></g></g></g></g></g></g><g
       id="g176"><g
         clip-path="url(#clipPath180)"
         id="g178"><g
           id="g184" /><g
           id="g198"><g
             id="g200"
             clip-path="url(#clipPath186)"><g
               id="g202" /><g
               id="g204"><g
                 id="g206"
                 clip-path="url(#clipPath190)"><g
                   id="g208"
                   clip-path="url(#clipPath194)"><path
                     id="path210"
                     style="fill:#efa72d;fill-opacity:1;fill-rule:evenodd;stroke:none"
                     d="m 274.8977,46.71237 29.3844,0 0,-35.95348 -29.3844,0 0,35.95348 z" /></g></g></g></g></g></g></g><g
       id="g212"><g
         clip-path="url(#clipPath216)"
         id="g214"><g
           id="g220" /><g
           id="g234"><g
             id="g236"
             clip-path="url(#clipPath222)"><g
               id="g238" /><g
               id="g240"><g
                 id="g242"
                 clip-path="url(#clipPath226)"><g
                   id="g244"
                   clip-path="url(#clipPath230)"><path
                     id="path246"
                     style="fill:#0f5180;fill-opacity:1;fill-rule:evenodd;stroke:none"
                     d="m 274.8977,68.72776 29.9636,0 0,-35.95348 -29.9636,0 0,35.95348 z" /></g></g></g></g></g></g></g><g
       id="g248"><g
         transform="matrix(1,0,0,-1,113.8404,534.9758)"
         id="g250"><path
           id="path252"
           style="fill:none;stroke:#efa72d;stroke-width:3;stroke-linecap:square;stroke-linejoin:miter;stroke-miterlimit:10;stroke-dasharray:none;stroke-opacity:1"
           d="m 3.42723,2.058659 -2.741784,0" /></g><g
         transform="matrix(1,0,0,-1,270.1221,182.2588)"
         id="g254"><path
           id="path256"
           style="fill:none;stroke:#efa72d;stroke-width:3;stroke-linecap:square;stroke-linejoin:miter;stroke-miterlimit:10;stroke-dasharray:none;stroke-opacity:1"
           d="m 0.685446,2.058659 6.85446,0" /></g><g
         transform="matrix(1,0,0,-1,148.1127,84.81564)"
         id="g258"><path
           id="path260"
           style="fill:none;stroke:#efa72d;stroke-width:3;stroke-linecap:square;stroke-linejoin:miter;stroke-miterlimit:10;stroke-dasharray:none;stroke-opacity:1"
           d="M 0.685446,0.6862197 3.42723,2.058659" /></g><g
         transform="matrix(1,0,0,-1,-9.539906,707.648)"
         id="g262"><path
           id="path264"
           style="fill:none;stroke:#efa72d;stroke-width:3;stroke-linecap:butt;stroke-linejoin:miter;stroke-miterlimit:10;stroke-dasharray:none;stroke-opacity:1"
           d="M 210.4618,0.2757656 C 189.8686,2.899389 198.2676,46.88832 189.7306,49.73722 c -1.5547,0.51881 -12.4943,1.5971 -13.4328,-0.31056 -6.2162,-12.63498 15.4582,-12.32024 7.999,-23.56353 -2.0108,-3.03091 -24.7213,-9.3483 -32.5363,-1.16894 -3.9438,4.12771 9.5453,7.35122 10.0171,8.78966 2.0338,6.20087 0.9431,13.02493 3.2623,19.44263 1.5549,4.30265 8.129,6.96047 7.2985,12.60002 -1.4838,10.07535 -12.5966,1.83259 -15.531,4.04415 -2.4442,1.84212 -6.4206,14.91695 -8.229,18.51097 -3.4671,6.8902 8.2268,21.77328 5.4337,23.95438 -7.1858,5.6112 -22.4924,-7.2035 -27.6428,3.109 -1.5403,3.0841 7.2827,4.239 8.1524,6.4553 1.0277,2.619 6.441,18.6276 -2.7953,16.0195 -33.03944,-9.3293 -20.3353,-24.454 -28.4967,-28.5393 -11.32366,-5.6682 -23.89752,-17.50893 -23.44985,-17.65609 14.62299,-4.807 36.50175,18.49439 50.62555,4.3547 5.7977,-5.8042 22.2739,-40.36473 4.66,-40.36473 -5.2885,0 -14.199,-11.73964 -21.0414,-15.16469 C 107.8241,37.14624 101.0276,36.061 94.61027,33.95142 89.46943,32.26148 83.82134,36.50589 78.3822,35.73797 76.02426,35.40506 48.63293,27.41182 47.01351,27.49614 45.19134,27.59102 43.16953,32.00521 42.35352,30.37136 39.76287,25.18421 48.79102,17.94566 42.7404,15.51722 37.55273,13.43513 26.08537,6.695425 20.76838,7.195135 16.52626,7.593824 2.032055,28.15889 -0.04300157,12.71877" /></g><g
         transform="matrix(1,0,0,-1,-138.0329,691.8063)"
         id="g266"><path
           id="path268"
           style="fill:none;stroke:#efa72d;stroke-width:3;stroke-linecap:butt;stroke-linejoin:miter;stroke-miterlimit:10;stroke-dasharray:none;stroke-opacity:1"
           d="M 124.3445,-0.4576941 C 124.1222,13.56349 106.3347,4.464695 103.9234,7.707371 c -1.1312,1.521349 -0.7957,13.272839 -1.2443,13.454909 -5.03818,2.04483 -27.04789,7.69499 -29.27391,10.49944 -1.59377,2.0079 -1.52663,6.59195 -3.80258,8.0883 -2.09109,1.3748 -7.15207,-0.4571 -8.85294,1.24569 -3.36319,3.36699 0.4021,12.66038 -3.95942,16.48715 -1.78804,1.56881 -10.08211,1.57731 -10.79432,3.03573 -4.96597,10.16913 16.5417,2.51109 11.72492,10.96352 -4.09084,7.17856 -16.91782,4.77291 -20.42101,14.46682 -2.25068,6.228 2.86122,13.65325 0.54372,19.05527 -2.85726,6.6603 -7.04161,11.4647 -10.09375,17.5759 -1.91363,3.8316 0.43309,9.3186 -1.24429,12.7535 -2.04657,4.1909 -6.87925,7.2828 -9.6267,11.0438 -2.19011,2.998 -0.70641,7.0719 -2.56178,9.9551 -1.10419,1.7159 -8.876527,6.0384 -9.319981,7.3904 -4.8940236,14.9214 -3.534994,35.1511 -0.620403,50.0058 1.225202,6.2444 -6.522694,14.4614 -3.495866,20.4545 1.43996,2.8512 -0.6858541,7.9181 2.174896,9.334 1.769729,0.8759 5.292435,1.6691 5.74744,3.9674 0.996988,5.036 1.022792,10.3327 5.590594,13.5317 1.30921,0.9169 12.05592,48.6625 11.02435,49.6952 -7.64759,7.6563 -18.4892,14.6661 -20.11081,27.3007 -1.523977,11.8739 4.95394,16.3689 15.99803,10.9635 7.41828,-3.6308 0.23968,-18.5 5.82063,-20.7651 6.04433,-2.4532 10.10096,14.3288 18.17293,8.2453 4.70888,-3.5489 9.64034,-12.7958 12.88905,-17.6561 6.47901,-9.693 21.34333,-7.5262 23.37315,-23.253 1.26089,-9.7691 -4.39879,-21.1198 -0.15684,-30.4096 5.57595,-12.2111 12.70501,-9.4703 17.08199,-28.8534 1.42726,-6.3204 -24.37387,-13.5125 -24.92416,-26.9098 -0.70688,-17.2093 13.09542,-22.8916 19.80061,-37.0184 1.83844,-3.8734 -0.98954,-10.1893 1.08745,-13.455 3.68564,-5.7948 16.4367,-15.8608 22.5959,-19.9102 7.4571,-4.9027 -13.4684,-24.1987 1.4743,-28.466 8.4521,-2.4138 31.6572,5.4923 30.5148,16.4871 -0.5063,4.8729 -27.009,30.3773 -30.1279,35.0784 -8.6083,12.9755 1.4838,22.0768 2.642,33.8292 0.6147,6.238 -5.9586,11.8135 -3.1857,18.2772 20.0206,46.6678 29.3048,-2.6785 76.7173,0.0767 8.3808,0.4871 7.9935,-5.5078 14.9106,1.4795 3.6451,3.6821 -20.119,20.9642 -23.53,21.3862 -5.7821,0.7155 -11.9494,-6.3417 -17.5455,-4.1209 -2.3332,0.9259 0.1187,5.3003 -1.0875,6.4553 -2.2661,2.17 -13.1394,2.0885 -14.3668,5.8307 -4.0705,12.4104 16.6047,11.5051 15.6076,21.6234 -1.0459,10.6144 -3.8397,16.7326 -7.2217,26.5958 -1.716,5.0043 -7.2235,-1.7045 -7.9956,-0.9316 -0.1213,0.1214 -1.3833,4.7455 -0.9341,4.7455 3.7352,0 -2.6745,-7.0399 -3.2588,-10.7332 -0.7419,-4.6894 4.8043,-12.1478 0.5437,-14.2331 -2.8721,-1.4057 -9.938,7.2063 -12.1153,9.2538 -1.9867,1.8682 -7.2124,-5.2367 -7.7655,-2.5647 -0.7429,3.5894 6.468,14.5201 4.66,16.3301 -2.4775,2.4803 -5.7482,-0.527 -8.3092,2.8787 -8.6721,11.5327 13.2015,26.5426 -10.3273,48.3763" /></g><g
         transform="matrix(1,0,0,-1,67.23005,510.2719)"
         id="g270"><path
           id="path272"
           style="fill:none;stroke:#efa72d;stroke-width:3;stroke-linecap:butt;stroke-linejoin:miter;stroke-miterlimit:10;stroke-dasharray:none;stroke-opacity:1"
           d="M 0.3714422,14.16277 C 2.064241,12.42298 4.470601,11.04871 5.494994,8.796158 13.95019,-9.79603 16.49457,5.307938 20.48226,6.618807 c 4.03419,1.326158 8.02777,-0.734356 10.87099,3.266026 1.69597,2.386217 -0.14679,6.583227 1.55101,8.866427 1.16094,1.56124 7.52474,1.70745 7.06492,3.81036 -2.04555,9.35498 -15.61446,4.18819 -20.26417,8.86642 -2.22772,2.24139 -0.88549,6.65138 -2.40842,8.24532 -4.16945,4.3639 2.32502,-19.99828 -12.268641,-20.37777 L 0.3714422,14.16277 Z" /></g><g
         transform="matrix(1,0,0,-1,105.615,539.0931)"
         id="g274"><path
           id="path276"
           style="fill:none;stroke:#efa72d;stroke-width:3;stroke-linecap:butt;stroke-linejoin:miter;stroke-miterlimit:10;stroke-dasharray:none;stroke-opacity:1"
           d="M 2.751817,1.998163 C 5.146666,3.254029 9.394459,-1.274347 11.83479,-0.02565611 13.05885,0.6006804 10.96837,6.083287 11.99164,7.130988 16.42509,11.67032 38.36279,30.6466 24.02676,34.19434 21.19421,34.89531 18.54149,25.29054 16.10791,23.54137 12.86085,21.20752 -0.8729293,17.36485 0.7302794,9.618891 1.306603,6.834364 7.838318,6.385962 9.893421,6.276099" /></g><g
         transform="matrix(1,0,0,-1,-138.4038,151.3203)"
         id="g278"><path
           id="path280"
           style="fill:none;stroke:#efa72d;stroke-width:3;stroke-linecap:butt;stroke-linejoin:miter;stroke-miterlimit:10;stroke-dasharray:none;stroke-opacity:1"
           d="M 0.2719693,68.64201 C 19.52681,96.55011 23.27045,85.32836 47.71537,94.53992 c 1.07436,0.40485 25.71789,24.40178 26.86553,27.45418 4.96182,13.197 -7.68264,7.993 -5.20371,17.8096 0.72281,2.8623 16.55633,6.3747 18.5598,4.5885 15.73231,-14.0262 -8.29772,-24.9517 -3.7259,-32.9743 6.39543,-11.2226 38.83611,14.6113 28.41651,-4.278 C 105.1102,93.51196 86.91203,97.47184 82.81344,94.3829 79.35677,91.77775 72.32499,81.88813 70.38796,78.05277 69.36911,76.03545 73.47223,74.09798 70.46463,71.83127 62.94377,66.1631 58.72771,78.46428 53.45932,66.77521 43.86251,45.48259 27.10378,37.46 22.40084,28.04349 20.14147,23.51966 15.84522,3.940005 20.61631,1.056908 c 3.31215,-2.0014866 16.28489,-1.243516 18.16944,2.487903 1.53188,3.033138 0.59376,7.000409 2.32825,9.644549 2.66728,4.06613 14.23497,5.48962 18.24612,8.7094 17.46681,14.02073 33.5335,28.48776 48.76438,43.39697 1.7542,1.71713 6.016,-2.84008 7.3786,-1.47599 2.2366,2.2391 5.7886,8.17043 7.6086,11.04377 5.5281,8.7271 -0.9793,30.84499 12.0352,35.38539 20.6716,7.2119 32.0047,46.0891 65.3793,12.6768 5.0036,-5.0092 -10.6074,-6.706 -12.6555,-8.165 -4.5704,-3.2557 -4.0469,-16.48718 1.7078,-16.48718 34.108,0 10.285,-11.18637 20.7312,-14.62035 4.445,-1.46118 8.1771,5.18359 11.8051,6.29827 3.7897,1.16436 12.0265,-4.01756 15.6077,0.31055 4.1094,4.9665 -4.4655,10.65931 0.0767,16.09981 3.4602,4.1446 15.7833,9.0763 13.5896,15.6323 -1.6226,4.849 -14.7055,2.4451 -12.192,10.1086 1.2026,3.6665 15.0085,-1.6299 18.7898,-1.0084 6.812,1.1196 12.2591,10.256 17.8593,13.9992" /></g><g
         transform="matrix(1,0,0,-1,172.7887,238.5289)"
         id="g282"><path
           id="path284"
           style="fill:none;stroke:#efa72d;stroke-width:3;stroke-linecap:butt;stroke-linejoin:miter;stroke-miterlimit:10;stroke-dasharray:none;stroke-opacity:1"
           d="m 13.03088,39.63509 c 2.93008,6.27385 -1.94346,5.57096 -3.882745,9.41076 C 7.31063,52.68413 -2.434847,52.54415 0.2185155,60.63397 2.41715,67.33737 15.7389,60.40955 18.38796,63.12187 21.6888,66.50154 23.28285,78.57682 30.73328,75.72189 41.78177,71.48821 43.1883,57.61043 53.63939,54.10191 56.15462,53.25753 65.7103,40.27411 65.05411,39.94564 55.97658,35.40176 46.48878,44.31995 37.41132,41.26811 30.01448,38.78129 32.94663,31.72117 37.72152,28.97864 42.7193,26.10809 73.6471,-4.562964 78.25335,0.04848586 80.27159,2.069004 75.98859,7.193742 75.69158,9.302226 c -0.6629,4.705854 8.84102,2.522134 8.15237,8.789654 -1.41324,12.86217 -23.91532,38.68309 14.8339,40.75205" /></g><g
         transform="matrix(1,0,0,-1,112.4695,200.1006)"
         id="g286"><path
           id="path288"
           style="fill:none;stroke:#efa72d;stroke-width:3;stroke-linecap:butt;stroke-linejoin:miter;stroke-miterlimit:10;stroke-dasharray:none;stroke-opacity:1"
           d="M 70.94171,1.984912 C 61.77263,-5.70229 54.99018,8.431751 46.40443,5.952296 41.49702,4.535099 38.27032,-1.543868 32.89498,2.061677 18.50875,11.71133 29.27703,17.42741 26.99418,25.16113 c -2.09399,7.09392 -4.66457,12.11689 -5.90428,19.67641 -0.98637,6.01469 -6.74853,2.45629 -9.23982,8.94319 -2.778528,7.23482 4.86104,12.36862 3.4157,19.20884 -2.35054,11.12419 -13.39796,6.03309 -15.3741436,13.6887 -0.8621416,3.33988 12.9060236,27.16933 16.9286336,28.77663 4.80476,1.9197 13.899,-0.4714 19.41373,0.2338" /></g><g
         transform="matrix(1,0,0,-1,150.8545,180.8864)"
         id="g290"><path
           id="path292"
           style="fill:none;stroke:#efa72d;stroke-width:3;stroke-linecap:butt;stroke-linejoin:miter;stroke-miterlimit:10;stroke-dasharray:none;stroke-opacity:1"
           d="m 127.0566,-0.2745187 c -0.0634,3.0788737 6.6833,0.9403262 7.6087,1.8667987 1.7398,1.741772 -1.0591,8.064738 0.9306,9.56429 1.7946,1.35253 5.138,-0.22857 7.2218,0.31055 2.8444,0.73591 3.6063,6.35187 6.678,7.77775 6.5626,3.04629 28.0461,0.40017 30.2046,9.72131 4.7258,20.40735 -14.3698,11.182 -24.3805,15.24495 -3.1513,1.27901 -4.5911,6.1848 -7.2984,8.16506 -13.5918,9.94152 -35.628,21.66245 -53.34421,16.33362 C 89.48529,67.14815 85.51527,52.96827 77.59171,53.62189 70.72918,54.18798 41.9439,67.22057 37.76045,71.74205 33.46789,76.38147 31.92638,84.2373 27.58654,88.54324 22.00588,94.08032 7.161439,91.67395 0.6443249,97.95051" /></g><g
         transform="matrix(1,0,0,-1,-24.61972,346.9516)"
         id="g294"><path
           id="path296"
           style="fill:none;stroke:#efa72d;stroke-width:3;stroke-linecap:butt;stroke-linejoin:miter;stroke-miterlimit:10;stroke-dasharray:none;stroke-opacity:1"
           d="M -0.2351199,5.003702 C 0.5382265,2.226173 2.869684,1.070902 4.950016,-0.2924723" /></g><g
         transform="matrix(1,0,0,-1,-13.65258,695.9236)"
         id="g298"><path
           id="path300"
           style="fill:none;stroke:#efa72d;stroke-width:3;stroke-linecap:butt;stroke-linejoin:miter;stroke-miterlimit:10;stroke-dasharray:none;stroke-opacity:1"
           d="M 4.169645,-0.06926272 C 2.504483,0.6494897 1.036347,2.667156 -0.1461106,4.314648" /></g><g
         transform="matrix(1,0,0,-1,182.385,200.1006)"
         id="g302"><path
           id="path304"
           style="fill:none;stroke:#efa72d;stroke-width:3;stroke-linecap:square;stroke-linejoin:miter;stroke-miterlimit:10;stroke-dasharray:none;stroke-opacity:1"
           d="m 0.685446,2.058659 2.741784,0" /></g></g><g
       id="g306"><g
         id="g308" /><g
         id="g322"><g
           style="opacity:0.58219999"
           id="g324"
           clip-path="url(#clipPath310)"><g
             id="g326" /><g
             id="g328"><g
               id="g330"
               clip-path="url(#clipPath314)"><g
                 id="g332"
                 clip-path="url(#clipPath318)"><path
                   id="path334"
                   style="fill:#f8e71c;fill-opacity:1;fill-rule:evenodd;stroke:none"
                   d="m 11.73751,507.3123 259.03849,0 0,-341.1051 -259.03849,0 0,341.1051 z" /></g></g></g></g></g></g><g
       id="g336"><g
         clip-path="url(#clipPath340)"
         id="g338"><g
           transform="matrix(0.8746197,0.4848096,0.4848096,-0.8746197,49.10012,446.5716)"
           id="g344"><text
             id="text346"
             style="font-style:italic;font-variant:normal;font-size:15.56756973px;font-family:TimesNewRomanPS;-inkscape-font-specification:TimesNewRomanPS-ItalicMT;writing-mode:lr-tb;fill:#000000;fill-opacity:1;fill-rule:nonzero;stroke:none"
             transform="translate(0,14)"><tspan
               id="tspan348"
               y="0"
               x="0 10.383569 17.360954 25.144739 31.90262 38.811508 46.53458">Словени</tspan></text>
</g></g></g><g
       id="g350"><g
         clip-path="url(#clipPath354)"
         id="g352"><g
           transform="matrix(0.9781476,0.2079117,0.2079117,-0.9781476,141.4031,355.8497)"
           id="g358"><text
             id="text360"
             style="font-style:italic;font-variant:normal;font-size:15.56756973px;font-family:TimesNewRomanPS;-inkscape-font-specification:TimesNewRomanPS-ItalicMT;writing-mode:lr-tb;fill:#000000;fill-opacity:1;fill-rule:nonzero;stroke:none"
             transform="translate(0,14)"><tspan
               id="tspan362"
               y="0"
               x="0 8.9171038 16.70089 24.576523 32.36031 42.295532 50.079315 57.506603">Радимичі</tspan></text>
</g></g></g><g
       id="g364"><g
         clip-path="url(#clipPath368)"
         id="g366"><g
           transform="matrix(0.9902681,0.1391731,0.1391731,-0.9902681,41.99543,361.3784)"
           id="g372"><text
             id="text374"
             style="font-style:italic;font-variant:normal;font-size:15.56756973px;font-family:TimesNewRomanPS;-inkscape-font-specification:TimesNewRomanPS-ItalicMT;writing-mode:lr-tb;fill:#000000;fill-opacity:1;fill-rule:nonzero;stroke:none"
             transform="translate(0,14)"><tspan
               id="tspan376"
               y="0"
               x="0 9.904088 17.687874 24.59676 30.66967 38.453453 45.211338 52.995121 60.422409">Дреговичі</tspan></text>
</g></g></g><g
       id="g378"><g
         clip-path="url(#clipPath382)"
         id="g380"><g
           transform="matrix(0.9396926,0.3420201,0.3420201,-0.9396926,97.71267,211.765)"
           id="g386"><path
             id="path388"
             style="fill:none;stroke:#000000;stroke-width:1;stroke-linecap:butt;stroke-linejoin:miter;stroke-miterlimit:10;stroke-dasharray:none;stroke-opacity:1"
             d="m 0,15.5 29.73649,0" /></g><g
           transform="matrix(0.9396926,0.3420201,0.3420201,-0.9396926,97.71267,211.765)"
           id="g390"><path
             id="path392"
             style="fill:none;stroke:#000000;stroke-width:1;stroke-linecap:butt;stroke-linejoin:miter;stroke-miterlimit:10;stroke-dasharray:none;stroke-opacity:1"
             d="m 31.89509,15.5 9.20984,0" /></g><g
           transform="matrix(0.9396926,0.3420201,0.3420201,-0.9396926,97.71267,211.765)"
           id="g394"><path
             id="path396"
             style="fill:none;stroke:#000000;stroke-width:1;stroke-linecap:butt;stroke-linejoin:miter;stroke-miterlimit:10;stroke-dasharray:none;stroke-opacity:1"
             d="m 44.2404,15.5 4.38882,0" /></g><g
           transform="matrix(0.9396926,0.3420201,0.3420201,-0.9396926,97.71267,211.765)"
           id="g398"><text
             id="text400"
             style="font-style:italic;font-variant:normal;font-size:15.56756973px;font-family:TimesNewRomanPS;-inkscape-font-specification:TimesNewRomanPS-ItalicMT;writing-mode:lr-tb;fill:#000000;fill-opacity:1;fill-rule:nonzero;stroke:none"
             transform="translate(0,14)"><tspan
               id="tspan402"
               y="0"
               x="0 8.2850609 16.068846 22.826729 29.735615 37.519402 45.303185">Тиверці</tspan></text>
</g></g></g><g
       id="g404"><g
         clip-path="url(#clipPath408)"
         id="g406"><g
           transform="matrix(0.8571673,-0.5150381,-0.5150381,-0.8571673,48.70752,237.6111)"
           id="g412"><path
             id="path414"
             style="fill:none;stroke:#000000;stroke-width:1;stroke-linecap:butt;stroke-linejoin:miter;stroke-miterlimit:10;stroke-dasharray:none;stroke-opacity:1"
             d="m 0,15.5 16.98142,0" /></g><g
           transform="matrix(0.8571673,-0.5150381,-0.5150381,-0.8571673,48.70752,237.6111)"
           id="g416"><path
             id="path418"
             style="fill:none;stroke:#000000;stroke-width:1;stroke-linecap:butt;stroke-linejoin:miter;stroke-miterlimit:10;stroke-dasharray:none;stroke-opacity:1"
             d="m 19.14002,15.5 38.08634,0" /></g><g
           transform="matrix(0.8571673,-0.5150381,-0.5150381,-0.8571673,48.70752,237.6111)"
           id="g420"><text
             id="text422"
             style="font-style:italic;font-variant:normal;font-size:15.56756973px;font-family:TimesNewRomanPS;-inkscape-font-specification:TimesNewRomanPS-ItalicMT;writing-mode:lr-tb;fill:#000000;fill-opacity:1;fill-rule:nonzero;stroke:none"
             transform="translate(0,14)"><tspan
               id="tspan424"
               y="0"
               x="0 9.19732 16.981106 24.764891 31.415356 39.199142 50.442039">Хорвати</tspan></text>
</g></g></g><g
       id="g426"><g
         clip-path="url(#clipPath430)"
         id="g428"><g
           transform="matrix(0.8746197,0.4848096,0.4848096,-0.8746197,57.81353,310.4907)"
           id="g434"><path
             id="path436"
             style="fill:none;stroke:#000000;stroke-width:1;stroke-linecap:butt;stroke-linejoin:miter;stroke-miterlimit:10;stroke-dasharray:none;stroke-opacity:1"
             d="m 9.215877,15.5 0.688684,0" /></g><g
           transform="matrix(0.8746197,0.4848096,0.4848096,-0.8746197,57.81353,310.4907)"
           id="g438"><path
             id="path440"
             style="fill:none;stroke:#000000;stroke-width:1;stroke-linecap:butt;stroke-linejoin:miter;stroke-miterlimit:10;stroke-dasharray:none;stroke-opacity:1"
             d="m 12.06316,15.5 47.82366,0" /></g><g
           transform="matrix(0.8746197,0.4848096,0.4848096,-0.8746197,57.81353,310.4907)"
           id="g442"><text
             id="text444"
             style="font-style:italic;font-variant:normal;font-size:15.56756973px;font-family:TimesNewRomanPS;-inkscape-font-specification:TimesNewRomanPS-ItalicMT;writing-mode:lr-tb;fill:#000000;fill-opacity:1;fill-rule:nonzero;stroke:none"
             transform="translate(0,14)"><tspan
               id="tspan446"
               y="0"
               x="0 9.904088 17.687874 24.59676 31.354643 38.142105 45.377911 53.100983">Древляни</tspan></text>
</g></g></g><g
       id="g448"><g
         clip-path="url(#clipPath452)"
         id="g450"><g
           transform="matrix(1,0,0,-1,131.2822,330.578)"
           id="g456"><path
             id="path458"
             style="fill:none;stroke:#000000;stroke-width:1;stroke-linecap:butt;stroke-linejoin:miter;stroke-miterlimit:10;stroke-dasharray:none;stroke-opacity:1"
             d="m 0,15.5 28.37584,0" /></g><g
           transform="matrix(1,0,0,-1,131.2822,330.578)"
           id="g460"><path
             id="path462"
             style="fill:none;stroke:#000000;stroke-width:1;stroke-linecap:butt;stroke-linejoin:miter;stroke-miterlimit:10;stroke-dasharray:none;stroke-opacity:1"
             d="m 30.53445,15.5 27.16319,0" /></g><g
           transform="matrix(1,0,0,-1,131.2822,330.578)"
           id="g464"><text
             id="text466"
             style="font-style:italic;font-variant:normal;font-size:15.56756973px;font-family:TimesNewRomanPS;-inkscape-font-specification:TimesNewRomanPS-ItalicMT;writing-mode:lr-tb;fill:#000000;fill-opacity:1;fill-rule:nonzero;stroke:none"
             transform="translate(0,14)"><tspan
               id="tspan468"
               y="0"
               x="0 10.383569 14.708241 21.466122 28.37501 35.953304 43.18911 50.912182">Сіверяни</tspan></text>
</g></g></g><g
       id="g470"><g
         clip-path="url(#clipPath474)"
         id="g472"><g
           transform="matrix(0.8829476,-0.4694716,-0.4694716,-0.8829476,195.391,406.7748)"
           id="g478"><text
             id="text480"
             style="font-style:italic;font-variant:normal;font-size:16px;font-family:TimesNewRomanPS;-inkscape-font-specification:TimesNewRomanPS-ItalicMT;writing-mode:lr-tb;fill:#000000;fill-opacity:1;fill-rule:nonzero;stroke:none"
             transform="translate(0,14)"><tspan
               id="tspan482"
               y="0"
               x="0">В</tspan></text>
<text
             id="text484"
             style="font-style:italic;font-variant:normal;font-size:16px;font-family:TimesNewRomanPS;-inkscape-font-specification:TimesNewRomanPS-ItalicMT;writing-mode:lr-tb;fill:#000000;fill-opacity:1;fill-rule:nonzero;stroke:none"
             transform="translate(9.7728,14)"><tspan
               id="tspan486"
               y="0"
               x="0">'</tspan></text>
<text
             id="text488"
             style="font-style:italic;font-variant:normal;font-size:16px;font-family:TimesNewRomanPS;-inkscape-font-specification:TimesNewRomanPS-ItalicMT;writing-mode:lr-tb;fill:#000000;fill-opacity:1;fill-rule:nonzero;stroke:none"
             transform="translate(13.1952,14)"><tspan
               id="tspan490"
               y="0"
               x="0 7.4368 18.992001 26.992001 34.625599">ятичі</tspan></text>
</g></g></g><g
       id="g492"><g
         clip-path="url(#clipPath496)"
         id="g494"><g
           transform="matrix(0.9335804,0.3583679,0.3583679,-0.9335804,105.3094,285.8845)"
           id="g500"><path
             id="path502"
             style="fill:none;stroke:#000000;stroke-width:1;stroke-linecap:butt;stroke-linejoin:miter;stroke-miterlimit:10;stroke-dasharray:none;stroke-opacity:1"
             d="m 0,15.5 47.16976,0" /></g><g
           transform="matrix(0.9335804,0.3583679,0.3583679,-0.9335804,105.3094,285.8845)"
           id="g504"><text
             id="text506"
             style="font-style:italic;font-variant:normal;font-size:15.56756973px;font-family:TimesNewRomanPS;-inkscape-font-specification:TimesNewRomanPS-ItalicMT;writing-mode:lr-tb;fill:#000000;fill-opacity:1;fill-rule:nonzero;stroke:none"
             transform="translate(0,14)"><tspan
               id="tspan508"
               y="0"
               x="0 11.242899 18.639051 25.426512 32.662319 40.385391">Поляни</tspan></text>
</g></g></g><g
       id="g510"><g
         clip-path="url(#clipPath514)"
         id="g512"><g
           transform="matrix(0.9902681,0.1391731,0.1391731,-0.9902681,121.6279,251.0894)"
           id="g518"><path
             id="path520"
             style="fill:none;stroke:#000000;stroke-width:1;stroke-linecap:butt;stroke-linejoin:miter;stroke-miterlimit:10;stroke-dasharray:none;stroke-opacity:1"
             d="m 0,15.5 35.02281,0" /></g><g
           transform="matrix(0.9902681,0.1391731,0.1391731,-0.9902681,121.6279,251.0894)"
           id="g522"><text
             id="text524"
             style="font-style:italic;font-variant:normal;font-size:15.56756973px;font-family:TimesNewRomanPS;-inkscape-font-specification:TimesNewRomanPS-ItalicMT;writing-mode:lr-tb;fill:#000000;fill-opacity:1;fill-rule:nonzero;stroke:none"
             transform="translate(0,14)"><tspan
               id="tspan526"
               y="0"
               x="0 9.698596 16.486057 24.269842 31.69713">Уличі</tspan></text>
</g></g></g><g
       id="g528"><g
         clip-path="url(#clipPath532)"
         id="g530"><g
           transform="matrix(0.9510565,-0.309017,-0.309017,-0.9510565,119.712,432.8345)"
           id="g536"><text
             id="text538"
             style="font-style:italic;font-variant:normal;font-size:15.56756973px;font-family:TimesNewRomanPS;-inkscape-font-specification:TimesNewRomanPS-ItalicMT;writing-mode:lr-tb;fill:#000000;fill-opacity:1;fill-rule:nonzero;stroke:none"
             transform="translate(0,14)"><tspan
               id="tspan540"
               y="0"
               x="0 10.338423 18.122208 25.905993 32.663876 40.447659 47.874947">Кривичі</tspan></text>
</g></g></g><g
       id="g542"><g
         clip-path="url(#clipPath546)"
         id="g544"><g
           transform="matrix(0.656059,-0.7547096,-0.7547096,-0.656059,60.64283,290.4454)"
           id="g550"><path
             id="path552"
             style="fill:none;stroke:#000000;stroke-width:1;stroke-linecap:butt;stroke-linejoin:miter;stroke-miterlimit:10;stroke-dasharray:none;stroke-opacity:1"
             d="m 0,15.5 60.94341,0" /></g><g
           transform="matrix(0.656059,-0.7547096,-0.7547096,-0.656059,60.64283,290.4454)"
           id="g554"><text
             id="text556"
             style="font-style:italic;font-variant:normal;font-size:15.56756973px;font-family:TimesNewRomanPS;-inkscape-font-specification:TimesNewRomanPS-ItalicMT;writing-mode:lr-tb;fill:#000000;fill-opacity:1;fill-rule:nonzero;stroke:none"
             transform="translate(0,14)"><tspan
               id="tspan558"
               y="0"
               x="0 9.5086718 16.904825 23.692286 31.47607 39.199142 46.434948 54.15802">Волиняни</tspan></text>
</g></g></g><g
       id="g560"><g
         clip-path="url(#clipPath564)"
         id="g562"><path
           id="path568"
           style="fill:#ffffff;fill-opacity:1;fill-rule:evenodd;stroke:none"
           d="m -241,754 251,0 0,-476 -251,0 0,476 z" /></g></g><g
       id="g570"><g
         clip-path="url(#clipPath574)"
         id="g572"><path
           id="path578"
           style="fill:#ffffff;fill-opacity:1;fill-rule:evenodd;stroke:none"
           d="m -241,418 251,0 0,-476 -251,0 0,476 z" /></g></g></g></svg>