<?xml version="1.0" encoding="UTF-8" standalone="no"?>
<svg
   xmlns:dc="http://purl.org/dc/elements/1.1/"
   xmlns:cc="http://creativecommons.org/ns#"
   xmlns:rdf="http://www.w3.org/1999/02/22-rdf-syntax-ns#"
   xmlns:svg="http://www.w3.org/2000/svg"
   xmlns="http://www.w3.org/2000/svg"
   viewBox="0 0 1530.6667 1933.3333"
   height="1933.3333"
   width="1530.6667"
   xml:space="preserve"
   version="1.1"
   id="svg2"><metadata
     id="metadata8"><rdf:RDF><cc:Work
         rdf:about=""><dc:format>image/svg+xml</dc:format><dc:type
           rdf:resource="http://purl.org/dc/dcmitype/StillImage" /></cc:Work></rdf:RDF></metadata><defs
     id="defs6"><clipPath
       id="clipPath36"
       clipPathUnits="userSpaceOnUse"><path
         style="clip-rule:evenodd"
         id="path38"
         d="m 1072.875,141.395 -24.01,-20.3056 22.587,-4.014 24.01,20.3056 -22.587,4.014 0,0 z" /></clipPath><clipPath
       id="clipPath42"
       clipPathUnits="userSpaceOnUse"><path
         id="path44"
         d="m 1048,117 48,0 0,25 -48,0 0,-25 z" /></clipPath><clipPath
       id="clipPath46"
       clipPathUnits="userSpaceOnUse"><path
         style="clip-rule:evenodd"
         id="path48"
         d="m 1043.875,146.4081 56.577,0 0,-34.3458 -56.577,0 0,34.3458 z" /></clipPath><clipPath
       id="clipPath50"
       clipPathUnits="userSpaceOnUse"><path
         id="path52"
         d="m 1048,117 48,0 0,25 -48,0 0,-25 z" /></clipPath><clipPath
       id="clipPath72"
       clipPathUnits="userSpaceOnUse"><path
         style="clip-rule:evenodd"
         id="path74"
         d="m 1048.864,121.1368 24.01,20.3055 0,23.1163 -24.01,-20.3056 0,-23.1162 0,0 z" /></clipPath><clipPath
       id="clipPath78"
       clipPathUnits="userSpaceOnUse"><path
         id="path80"
         d="m 1048,121 25,0 0,44 -25,0 0,-44 z" /></clipPath><clipPath
       id="clipPath82"
       clipPathUnits="userSpaceOnUse"><path
         style="clip-rule:evenodd"
         id="path84"
         d="m 1043.874,169.5716 33.99,0 0,-53.4479 -33.99,0 0,53.4479 z" /></clipPath><clipPath
       id="clipPath86"
       clipPathUnits="userSpaceOnUse"><path
         id="path88"
         d="m 1048,121 25,0 0,44 -25,0 0,-44 z" /></clipPath><clipPath
       id="clipPath108"
       clipPathUnits="userSpaceOnUse"><path
         style="clip-rule:evenodd"
         id="path110"
         d="m 995.6533,120.5228 c 0,-5.5816 4.2545,-6.1935 6.9327,-6.0736 0,0 10.477,0.3845 12.801,0.7029 l 0,4.7442 -11.447,0 c -1.19,0 -2.525,-0.0412 -2.544,2.1501 l 0,4.7216 12.124,0.3907 0,4.7587 -12.124,0.4362 0,4.7216 c 0,1.1163 0,2.3153 2.133,2.3153 l 11.858,0 0,4.7857 c -2.64,0.3638 -13.211,0.6614 -13.211,0.6614 -2.8322,0.0559 -6.5227,-1.0326 -6.5227,-6.2844 l 0,-18.0304 0,0 z" /></clipPath><clipPath
       id="clipPath114"
       clipPathUnits="userSpaceOnUse"><path
         id="path116"
         d="m 995,114 21,0 0,31 -21,0 0,-31 z" /></clipPath><clipPath
       id="clipPath118"
       clipPathUnits="userSpaceOnUse"><path
         style="clip-rule:evenodd"
         id="path120"
         d="m 990.6628,149.8527 29.7142,0 0,-40.4295 -29.7142,0 0,40.4295 z" /></clipPath><clipPath
       id="clipPath122"
       clipPathUnits="userSpaceOnUse"><path
         id="path124"
         d="m 995,114 21,0 0,31 -21,0 0,-31 z" /></clipPath><clipPath
       id="clipPath144"
       clipPathUnits="userSpaceOnUse"><path
         style="clip-rule:evenodd"
         id="path146"
         d="m 995.6533,86.34569 c 0,-5.58158 4.2545,-6.19349 6.9327,-6.07351 0,0 10.477,0.38445 12.801,0.70283 l 0,4.74423 -11.447,0 c -1.19,0 -2.525,-0.04123 -2.544,2.15007 l 0,4.72159 12.124,0.3907 0,4.75877 -12.124,0.43616 0,4.72157 c 0,1.1164 0,2.3154 2.133,2.3154 l 11.858,0 0,4.7856 c -2.64,0.3638 -13.211,0.6614 -13.211,0.6614 -2.8322,0.056 -6.5227,-1.0325 -6.5227,-6.2844 l 0,-18.03041 0,0 z m 47.0277,-5.94947 6.17,0 2.166,6.70604 9.835,0 2.133,-6.70604 6.114,0 -9.753,30.26428 -6.532,0 -10.133,-30.26428 0,0 z m 9.827,11.8349 3.61,10.80138 3.374,-10.80138 -6.984,0 0,0 z" /></clipPath><clipPath
       id="clipPath150"
       clipPathUnits="userSpaceOnUse"><path
         id="path152"
         d="m 995,80 75,0 0,31 -75,0 0,-31 z" /></clipPath><clipPath
       id="clipPath154"
       clipPathUnits="userSpaceOnUse"><path
         style="clip-rule:evenodd"
         id="path156"
         d="m 990.6628,115.6756 83.4262,0 0,-40.42949 -83.4262,0 0,40.42949 z" /></clipPath><clipPath
       id="clipPath158"
       clipPathUnits="userSpaceOnUse"><path
         id="path160"
         d="m 995,80 75,0 0,31 -75,0 0,-31 z" /></clipPath><clipPath
       id="clipPath180"
       clipPathUnits="userSpaceOnUse"><path
         style="clip-rule:evenodd"
         id="path182"
         d="m 1018.56,80.39617 5.743,0 0,12.03126 5.046,-0.57879 4.963,-11.45247 6.463,0 -5.685,11.9177 c 1.667,0.5291 4.781,1.41799 4.781,8.90963 0,7.2272 -3.487,9.4371 -8.174,9.4371 l -13.137,0 0,-30.26443 0,0 z m 5.766,16.57929 0,8.53774 6.807,0 c 1.805,0 2.954,-0.8517 2.954,-4.2897 0,-3.65691 -0.954,-4.24804 -2.954,-4.24804 l -6.807,0 0,0 z" /></clipPath><clipPath
       id="clipPath186"
       clipPathUnits="userSpaceOnUse"><path
         id="path188"
         d="m 1018,80 23,0 0,31 -23,0 0,-31 z" /></clipPath><clipPath
       id="clipPath190"
       clipPathUnits="userSpaceOnUse"><path
         style="clip-rule:evenodd"
         id="path192"
         d="m 1013.57,115.6737 32.196,0 0,-40.29061 -32.196,0 0,40.29061 z" /></clipPath><clipPath
       id="clipPath194"
       clipPathUnits="userSpaceOnUse"><path
         id="path196"
         d="m 1018,80 23,0 0,31 -23,0 0,-31 z" /></clipPath><clipPath
       id="clipPath216"
       clipPathUnits="userSpaceOnUse"><path
         style="clip-rule:evenodd"
         id="path218"
         d="m 1018.56,114.5732 12.76,0 c 7.33,0 10.417,6.0984 10.417,15.0082 0,7.498 -1.774,15.2563 -10.417,15.2563 l -12.76,0 0,-30.2645 0,0 z m 5.743,5.162 0,19.9963 6.566,0 c 3.201,0 5.125,-2.0113 5.125,-10.1088 0,-6.0715 -1.403,-9.8875 -5.125,-9.8875 l -6.566,0 0,0 z" /></clipPath><clipPath
       id="clipPath222"
       clipPathUnits="userSpaceOnUse"><path
         id="path224"
         d="m 1018,114 24,0 0,31 -24,0 0,-31 z" /></clipPath><clipPath
       id="clipPath226"
       clipPathUnits="userSpaceOnUse"><path
         style="clip-rule:evenodd"
         id="path228"
         d="m 1013.57,149.8508 33.158,0 0,-40.2906 -33.158,0 0,40.2906 z" /></clipPath><clipPath
       id="clipPath230"
       clipPathUnits="userSpaceOnUse"><path
         id="path232"
         d="m 1018,114 24,0 0,31 -24,0 0,-31 z" /></clipPath><clipPath
       id="clipPath314"
       clipPathUnits="userSpaceOnUse"><path
         id="path316"
         d="m 278,362 541,0 0,658 -541,0 0,-658 z" /></clipPath><clipPath
       id="clipPath318"
       clipPathUnits="userSpaceOnUse"><path
         style="clip-rule:evenodd"
         id="path320"
         d="m 501.0342,406.2265 c -12.5015,11.8271 -13.9937,28.313 -25.2268,36.5946 -19.7251,14.5425 -46.8785,17.9771 -54.6064,28.0307 -11.4293,14.8689 -2.2554,29.4648 -16.4043,52.2736 -8.0737,13.0153 -36.4994,8.7423 -47.2097,34.3395 -7.8037,18.6507 20.7887,49.7113 19.0914,62.9575 -0.8727,6.8109 5.2739,23.9652 2.3542,33.895 -2.7587,9.3823 -14.6013,11.7186 -15.0624,12.6837 -5.1003,10.6744 -33.671,8.5975 -32.6858,25.4075 1.2487,21.3045 16.5594,45.4733 12.9812,59.145 -4.6235,17.6653 -28.3739,4.0841 -33.3678,18.8037 -7.9662,23.4804 -18.1223,39.214 -24.2137,51.762 -5.8663,12.0845 -7.8182,21.4185 -7.8182,21.4185 0,0 9.3241,-9.7053 15.422,-5.7009 6.4386,4.2281 15.5418,18.9303 22.0468,18.5076 8.369,-0.5437 -7.5437,-24.8612 0,-31.7992 3.3121,-3.0461 8.6338,-8.164 12.3527,-12.3522 2.5749,-2.8998 7.9968,-2.7624 11.206,0 2.7127,2.3352 3.3546,6.8445 4.3722,9.9262 5.6029,16.9676 16.2264,41.0639 8.4499,55.1408 -3.8803,7.0241 -13.218,10.2448 -18.4873,12.8269 -5.2908,2.5925 -6.5034,4.535 -5.5408,6.0044 0.3717,0.5674 -1.2697,0.9246 -1.4822,1.6831 -0.2231,0.7962 -2.641,0.9179 -3.1024,2.7258 -0.8056,3.1565 0.3805,8.3918 1.1297,9.3718 6.5787,8.605 18.6433,3.6074 27.483,10.1143 2.9643,2.182 -1.4232,10.028 1.7494,12.0089 8.0868,5.0494 26.4318,-11.1808 35.7667,-7.4409 13.1304,5.2606 18.1849,17.6355 34.5493,23.4041 5.8172,2.0506 22.0838,-5.1395 28.0931,-2.0787 2.6286,1.3389 5.2836,5.8638 6.9284,9.7135 2.0561,4.8122 0.4574,13.2761 3.8688,15.3217 11.3251,6.7908 24.1314,2.3791 35.041,9.0207 28.4185,17.3007 59.7878,39.5053 84.4056,37.7743 25.4825,-1.792 15.2021,-26.5777 32.7351,-46.795 24.7413,-28.5292 56.3516,-34.1699 63.011,-46.3606 10.0077,-18.3198 10.1153,-80.8921 20.4404,-102.435 16.5882,-34.6106 90.6421,-59.0328 108.7674,-81.7609 16.4134,-20.5814 -10.5568,-62.0323 -9.5642,-86.0411 C 803.2229,540.2575 648.7791,464.1728 639.6542,451.9946 630.5294,439.8163 625.1503,422.95 625.1503,422.95 c 0,0 -3.4594,-11.3636 -14.7512,-11.1123 -11.2918,0.2513 -15.3377,11.366 -27.2813,11.1123 -3.5419,-0.0752 -5.8407,-2.743 -7.9767,-4.0453 -5.0667,-3.0892 -7.5258,-6.9026 -11.3052,-10.752 -5.3725,-5.4724 -4.0847,-13.5291 -4.0847,-13.5291 0,0 26.7307,-69.2349 -58.717,11.6029 z" /></clipPath><clipPath
       id="clipPath322"
       clipPathUnits="userSpaceOnUse"><path
         id="path324"
         d="m 0,0 1148,0 0,1450 L 0,1450 0,0 Z" /></clipPath><clipPath
       id="clipPath344"
       clipPathUnits="userSpaceOnUse"><path
         style="clip-rule:evenodd"
         id="path346"
         d="m 215.2588,399.398 c -34.408,-8.0419 -60.3916,0.9233 -70.9685,-15.5912 -3.5886,-5.6032 -20.3281,-8.0533 -23.6987,-15.7208 -4.5795,-10.4174 3.6179,-28.6316 -6.3789,-42.8299 -3.1891,-4.5295 -20.80665,-14.9164 -14.53739,-23.3905 7.71239,-10.4249 24.11619,-12.229 40.18169,-24.075 9.4389,-6.9599 22.7848,-17.3943 31.7186,-25.2289 25.0573,-21.974 43.6832,-42.1507 43.6832,-42.1507 0,0 116.1003,-15.9051 179.8666,-7.6988 63.7663,8.2063 115.0961,46.8986 115.0961,46.8986 l 1.8419,7.6905 23.2239,10.5881 7.6155,14.4953 -8.6737,19.4809 -0.6354,13.5077 4.608,9.8828 14.3399,4.3019 0,4.335 c 0,0 -27.6175,12.8573 -46.5563,30.8381 -15.1267,14.3616 -20.6213,34.6669 -32.1404,34.6669 -25.941,0 -23.4191,-1.9368 -28.048,0 -52.4502,21.9453 -36.8191,21.1515 -73.0983,19.8576 -6.8385,-0.2439 -26.5754,23.4995 -35.9897,22.1942 -13.6299,-1.8899 -41.3447,-22.399 -61.7232,-24.5762 -5.5306,-0.5908 -26.6129,12.3311 -32.6912,11.6825 -24.3429,-2.5976 -13.1907,-25.9222 -27.0357,-29.1581 z" /></clipPath><clipPath
       id="clipPath354"
       clipPathUnits="userSpaceOnUse"><path
         style="clip-rule:evenodd"
         id="path356"
         d="m 227.0333,530.0757 c 6.9808,3.9136 12.4713,22.8641 23.7612,30.4483 18.1436,12.1883 42.7794,16.9654 48.9322,47.5706 0.9815,4.8824 -10.9244,27.8403 -10.8081,52.9619 0.0974,21.0446 12.4806,43.0656 10.8081,62.4814 -3.6691,42.5929 -14.6877,83.889 -17.171,83.889 -1.0924,0 -10.7128,9.4273 -14.3749,-13.5288 -2.2912,-14.3629 9.4807,-53.8529 2.7077,-59.8782 -15.1583,-13.4849 -22.5042,-38.3998 -43.8551,-37.4764 -11.9543,0.5169 -21.7617,20.0581 -33.9654,19.1235 -14.3946,-1.1023 -26.3383,-14.2671 -40.1861,-16.8461 -7.3284,-1.3648 -5.6605,-16.7923 -12.7351,-18.4374 -12.8744,-2.9938 -31.8621,4.705 -42.76543,0 C 83.71775,674.4873 87.00055,629.1384 77.24951,622.6297 21.55935,585.4577 -8.721849,544.102 30.47617,514.0908 c 3.67177,-2.8112 19.57388,1.4604 24.00301,-5.0289 2.51793,-3.6891 11.35401,-8.5255 11.35175,-14.1934 -0.0023,-5.6692 7.69538,-7.8294 11.41858,-8.6871 4.44618,-1.0243 7.21105,9.3206 11.52466,8.6871 4.53174,-0.6655 9.13217,-3.6151 13.48633,-4.006 2.5485,-0.2287 6.4381,-0.1966 10.0928,4.006 2.9194,3.3571 8.1536,0.014 10.0869,0 3.4591,-0.0251 14.4241,14.0996 17.7066,14.1934 6.9732,0.1993 20.1087,-14.4411 26.0604,-14.1934 9.5715,0.3984 14.472,17.5448 20.9904,19.2223 21.6321,5.567 23.9006,-2.7923 30.8593,0 6.9587,2.7924 4.3705,13.4027 8.9764,15.9849 z" /></clipPath><clipPath
       id="clipPath364"
       clipPathUnits="userSpaceOnUse"><path
         id="path366"
         d="m 443.505,642.1782 202.155,0 0,182.8125 -202.155,0 0,-182.8125 z" /></clipPath><clipPath
       id="clipPath412"
       clipPathUnits="userSpaceOnUse"><path
         id="path414"
         d="m 87.625,560.3465 196.415,0 0,182.8125 -196.415,0 0,-182.8125 z" /></clipPath><clipPath
       id="clipPath440"
       clipPathUnits="userSpaceOnUse"><path
         id="path442"
         d="m 213.905,266.0396 306.91,0 0,182.8125 -306.91,0 0,-182.8125 z" /></clipPath></defs><g
     transform="matrix(1.3333333,0,0,-1.3333333,0,1933.3333)"
     id="g10"><g
       id="g12" /><g
       id="g14"><g
         transform="matrix(1,0,0,-1,17.51643,31.32388)"
         id="g16"><path
           id="path18"
           style="fill:none;stroke:#efa731;stroke-width:3;stroke-linecap:square;stroke-linejoin:miter;stroke-miterlimit:10;stroke-dasharray:none;stroke-opacity:1"
           d="M 0,0 1108.639,0" /></g><g
         transform="matrix(1,0,0,-1,14.8216,1434.031)"
         id="g20"><path
           id="path22"
           style="fill:none;stroke:#efa731;stroke-width:3;stroke-linecap:square;stroke-linejoin:miter;stroke-miterlimit:10;stroke-dasharray:none;stroke-opacity:1"
           d="M 0,1400.009 0,0" /></g><g
         transform="matrix(1,0,0,-1,17.51643,1434.031)"
         id="g24"><path
           id="path26"
           style="fill:none;stroke:#efa731;stroke-width:3;stroke-linecap:square;stroke-linejoin:miter;stroke-miterlimit:10;stroke-dasharray:none;stroke-opacity:1"
           d="M 0,0 1107.591,0" /></g><g
         transform="matrix(1,0,0,-1,1125.094,1434.031)"
         id="g28"><path
           id="path30"
           style="fill:none;stroke:#efa731;stroke-width:3;stroke-linecap:square;stroke-linejoin:miter;stroke-miterlimit:10;stroke-dasharray:none;stroke-opacity:1"
           d="M 0,1400.009 0,0" /></g></g><g
       id="g32"><g
         clip-path="url(#clipPath36)"
         id="g34"><g
           id="g40" /><g
           id="g54"><g
             id="g56"
             clip-path="url(#clipPath42)"><g
               id="g58" /><g
               id="g60"><g
                 id="g62"
                 clip-path="url(#clipPath46)"><g
                   id="g64"
                   clip-path="url(#clipPath50)"><path
                     id="path66"
                     style="fill:#efa72d;fill-opacity:1;fill-rule:evenodd;stroke:none"
                     d="m 1038.875,151.4081 66.577,0 0,-44.3458 -66.577,0 0,44.3458 z" /></g></g></g></g></g></g></g><g
       id="g68"><g
         clip-path="url(#clipPath72)"
         id="g70"><g
           id="g76" /><g
           id="g90"><g
             id="g92"
             clip-path="url(#clipPath78)"><g
               id="g94" /><g
               id="g96"><g
                 id="g98"
                 clip-path="url(#clipPath82)"><g
                   id="g100"
                   clip-path="url(#clipPath86)"><path
                     id="path102"
                     style="fill:#f7c169;fill-opacity:1;fill-rule:evenodd;stroke:none"
                     d="m 1038.874,174.5716 43.99,0 0,-63.4479 -43.99,0 0,63.4479 z" /></g></g></g></g></g></g></g><g
       id="g104"><g
         clip-path="url(#clipPath108)"
         id="g106"><g
           id="g112" /><g
           id="g126"><g
             id="g128"
             clip-path="url(#clipPath114)"><g
               id="g130" /><g
               id="g132"><g
                 id="g134"
                 clip-path="url(#clipPath118)"><g
                   id="g136"
                   clip-path="url(#clipPath122)"><path
                     id="path138"
                     style="fill:#0f5180;fill-opacity:1;fill-rule:evenodd;stroke:none"
                     d="m 985.6628,154.8527 39.7142,0 0,-50.4295 -39.7142,0 0,50.4295 z" /></g></g></g></g></g></g></g><g
       id="g140"><g
         clip-path="url(#clipPath144)"
         id="g142"><g
           id="g148" /><g
           id="g162"><g
             id="g164"
             clip-path="url(#clipPath150)"><g
               id="g166" /><g
               id="g168"><g
                 id="g170"
                 clip-path="url(#clipPath154)"><g
                   id="g172"
                   clip-path="url(#clipPath158)"><path
                     id="path174"
                     style="fill:#efa72d;fill-opacity:1;fill-rule:evenodd;stroke:none"
                     d="m 985.6628,120.6756 93.4262,0 0,-50.42949 -93.4262,0 0,50.42949 z" /></g></g></g></g></g></g></g><g
       id="g176"><g
         clip-path="url(#clipPath180)"
         id="g178"><g
           id="g184" /><g
           id="g198"><g
             id="g200"
             clip-path="url(#clipPath186)"><g
               id="g202" /><g
               id="g204"><g
                 id="g206"
                 clip-path="url(#clipPath190)"><g
                   id="g208"
                   clip-path="url(#clipPath194)"><path
                     id="path210"
                     style="fill:#efa72d;fill-opacity:1;fill-rule:evenodd;stroke:none"
                     d="m 1008.57,120.6737 42.196,0 0,-50.29061 -42.196,0 0,50.29061 z" /></g></g></g></g></g></g></g><g
       id="g212"><g
         clip-path="url(#clipPath216)"
         id="g214"><g
           id="g220" /><g
           id="g234"><g
             id="g236"
             clip-path="url(#clipPath222)"><g
               id="g238" /><g
               id="g240"><g
                 id="g242"
                 clip-path="url(#clipPath226)"><g
                   id="g244"
                   clip-path="url(#clipPath230)"><path
                     id="path246"
                     style="fill:#0f5180;fill-opacity:1;fill-rule:evenodd;stroke:none"
                     d="m 1008.57,154.8508 43.158,0 0,-50.2906 -43.158,0 0,50.2906 z" /></g></g></g></g></g></g></g><g
       id="g248"><g
         transform="matrix(1,0,0,-1,514.7136,1082.005)"
         id="g250"><path
           id="path252"
           style="fill:none;stroke:#efa72d;stroke-width:3;stroke-linecap:square;stroke-linejoin:miter;stroke-miterlimit:10;stroke-dasharray:none;stroke-opacity:1"
           d="m 6.737089,4.046269 -5.389671,0" /></g><g
         transform="matrix(1,0,0,-1,821.9249,388.7443)"
         id="g254"><path
           id="path256"
           style="fill:none;stroke:#efa72d;stroke-width:3;stroke-linecap:square;stroke-linejoin:miter;stroke-miterlimit:10;stroke-dasharray:none;stroke-opacity:1"
           d="m 1.347418,4.046269 13.474182,0" /></g><g
         transform="matrix(1,0,0,-1,582.0845,197.2209)"
         id="g258"><path
           id="path260"
           style="fill:none;stroke:#efa72d;stroke-width:3;stroke-linecap:square;stroke-linejoin:miter;stroke-miterlimit:10;stroke-dasharray:none;stroke-opacity:1"
           d="M 1.347418,1.348756 6.737089,4.046269" /></g><g
         transform="matrix(1,0,0,-1,272.1784,1427.287)"
         id="g262"><path
           id="path264"
           style="fill:none;stroke:#efa72d;stroke-width:3;stroke-linecap:butt;stroke-linejoin:miter;stroke-miterlimit:10;stroke-dasharray:none;stroke-opacity:1"
           d="M 413.716,0.5420139 C 373.2348,5.698713 389.7453,92.15841 372.9635,97.75788 369.9074,98.7776 348.403,100.897 346.558,97.1475 334.3385,72.31358 376.945,72.9322 362.2821,50.83365 358.3294,44.87644 313.686,32.45969 298.3238,48.53613 c -7.7525,8.11295 18.7636,14.44872 19.6911,17.27597 3.9979,12.18773 1.8539,25.60033 6.4129,38.2142 3.0566,8.4568 15.9796,13.6807 14.347,24.7652 -2.9168,19.803 -24.7617,3.602 -30.5301,7.9487 -4.8048,3.6207 -12.6213,29.3191 -16.1763,36.3831 -6.8154,13.5426 16.172,42.7951 10.6814,47.082 -14.1254,11.0288 -44.2144,-14.1583 -54.3389,6.1107 -3.0279,6.0618 14.316,8.3319 16.0256,12.6878 2.0203,5.1477 12.6614,36.6124 -5.4949,31.4863 -64.9474,-18.3367 -39.9742,-48.0642 -56.0175,-56.0938 -22.2595,-11.1408 -46.9766,-34.4135 -46.0966,-34.7028 28.7452,-9.4481 71.7535,36.3506 99.5174,8.5592 11.3968,-11.4081 43.7849,-79.3364 9.1604,-79.3364 -10.3959,0 -27.9118,-23.07413 -41.3622,-29.80603 C 211.9556,73.01048 198.5954,70.87744 185.9805,66.7311 175.8748,63.40954 164.7721,71.75188 154.0801,70.24253 149.4449,69.58821 95.60035,53.87759 92.41698,54.04332 88.83503,54.2298 84.86064,62.90584 83.25658,59.69453 78.164,49.49926 95.91112,35.27197 84.01709,30.4989 73.81941,26.40658 51.27741,13.15978 40.82551,14.14195 32.48655,14.92557 3.994519,55.34596 -0.08453049,24.99858" /></g><g
         transform="matrix(1,0,0,-1,21.55869,1392.219)"
         id="g266"><path
           id="path268"
           style="fill:none;stroke:#efa72d;stroke-width:3;stroke-linecap:butt;stroke-linejoin:miter;stroke-miterlimit:10;stroke-dasharray:none;stroke-opacity:1"
           d="m 244.4305,-0.899592 c -0.4369,27.558472 -35.4027,9.674895 -40.1426,16.048332 -2.2239,2.9902 -1.5642,26.08761 -2.446,26.44546 -9.9039,4.01909 -53.1696,15.12441 -57.5454,20.63651 -3.1329,3.94652 -3.001,12.95641 -7.4749,15.89745 -4.1106,2.70217 -14.0592,-0.89841 -17.4027,2.4484 -6.6112,6.61778 0.7904,24.88384 -7.7833,32.40534 -3.5148,3.0834 -19.81892,3.1001 -21.21894,5.9666 -9.76187,19.9873 32.51694,4.9356 23.04834,21.5487 -8.0416,14.1094 -33.25631,9.3811 -40.14272,28.4344 -4.42428,12.241 5.62446,26.8352 1.06883,37.4529 -5.61667,13.0906 -13.84207,22.5337 -19.84182,34.5451 -3.76174,7.5309 0.85135,18.3157 -2.44597,25.0669 -4.02305,8.2372 -13.52292,14.3143 -18.92372,21.7064 -4.30521,5.8926 -1.38863,13.8997 -5.03582,19.5667 -2.17057,3.3726 -17.44907,11.8683 -18.320795,14.5258 -9.6204428,29.3277 -6.948926,69.0891 -1.219559,98.2857 2.408444,12.2734 -12.822007,28.4237 -6.87201,40.2032 2.830607,5.6038 -1.34822,15.5629 4.275308,18.3458 3.478852,1.7216 10.403626,3.2806 11.298056,7.7979 1.95983,9.898 2.01055,20.3087 10.98973,26.5963 2.57357,1.8021 23.69897,95.6455 21.67116,97.6754 -15.03328,15.0482 -36.34522,28.8259 -39.53291,53.659 -2.995758,23.338 9.73823,32.173 31.44819,21.5487 14.58251,-7.1363 0.47114,-36.3615 11.44193,-40.8135 11.88166,-4.8217 19.85599,28.1631 35.72349,16.206 9.25649,-6.9753 18.95053,-25.1499 25.33673,-34.7028 12.7361,-19.0516 41.9557,-14.7927 45.9458,-45.7034 2.4786,-19.2012 -8.6469,-41.5109 -0.3083,-59.7698 10.9609,-24.0009 24.9749,-18.6137 33.579,-56.711 2.8056,-12.4228 -47.913,-26.5587 -48.9948,-52.8909 -1.3895,-33.8247 25.7424,-44.9931 38.9231,-72.7593 3.614,-7.613 -1.9451,-20.0269 2.1377,-26.4455 7.2451,-11.3897 32.3106,-31.1742 44.418,-39.1332 14.6587,-9.6362 -26.4756,-47.5623 2.8982,-55.9497 16.6147,-4.7442 62.2301,10.7951 59.9845,32.4053 -0.9953,9.5775 -53.0931,59.7061 -59.224,68.9461 -16.9218,25.5031 2.9168,43.3916 5.1934,66.4909 1.2084,12.2607 -11.7132,23.2193 -6.2623,35.9235 39.3557,91.725 57.6062,-5.2646 150.8074,0.1509 16.4744,0.9573 15.7131,-10.8256 29.3106,2.9079 7.1653,7.2371 -39.5491,41.2048 -46.2542,42.0343 -11.3663,1.4062 -23.4896,-12.4645 -34.4902,-8.0996 -4.5866,1.8199 0.2333,10.4176 -2.1377,12.6878 -4.4546,4.2652 -25.8289,4.1049 -28.2417,11.4601 -8.0015,24.3925 32.6409,22.6133 30.6808,42.5007 -2.0561,20.8624 -7.5479,32.8877 -14.1962,52.2737 -3.3732,9.8359 -14.1996,-3.3503 -15.7172,-1.8312 -0.2385,0.2387 -2.7194,9.3272 -1.8362,9.3272 7.3424,0 -5.2575,-13.8368 -6.4061,-21.096 -1.4585,-9.2168 9.444,-23.8762 1.0688,-27.9748 -5.6459,-2.763 -19.5356,14.1638 -23.8157,18.1881 -3.9053,3.672 -14.1779,-10.2927 -15.265,-5.0408 -1.4604,7.0548 12.7144,28.5391 9.1604,32.0966 -4.8702,4.8751 -11.2996,-1.0359 -16.3339,5.6581 -17.0472,22.6673 25.9509,52.1691 -20.3009,95.083" /></g><g
         transform="matrix(1,0,0,-1,18.86385,715.1434)"
         id="g270"><path
           id="path272"
           style="fill:none;stroke:#efa72d;stroke-width:3;stroke-linecap:butt;stroke-linejoin:miter;stroke-miterlimit:10;stroke-dasharray:none;stroke-opacity:1"
           d="m 228.8046,5.011612 c -22.3298,33.248338 -35.9349,-8.69842 -55.5585,-6.110711 -7.7262,1.01883822 -37.1457,14.703859 -43.8082,20.019269 -5.7126,4.55759 -3.6624,13.7977 -11.4488,16.35695 C 96.70619,42.2725 63.84837,23.83856 45.18556,33.13735 38.55336,36.44186 11.67925,65.4857 0.4592585,74.71899" /></g><g
         transform="matrix(1,0,0,-1,423.0892,1033.45)"
         id="g274"><path
           id="path276"
           style="fill:none;stroke:#efa72d;stroke-width:3;stroke-linecap:butt;stroke-linejoin:miter;stroke-miterlimit:10;stroke-dasharray:none;stroke-opacity:1"
           d="M 0.7301638,27.83675 C 4.05779,24.41722 8.788098,21.71609 10.8018,17.28874 c 16.62083,-36.54272 21.62245,-6.85605 29.46126,-4.27956 7.93025,2.60655 15.78063,-1.44336 21.3697,6.41934 3.33386,4.69008 -0.28855,12.93926 3.04889,17.42684 2.28214,3.0686 14.7918,3.35598 13.8879,7.48922 C 74.54851,62.73168 47.87537,52.57642 38.73519,61.77143 34.35604,66.17685 36.99453,74.84462 34.00083,77.9775 25.80471,86.55469 38.57125,38.67112 9.883709,37.92525 L 0.7301638,27.83675 Z" /></g><g
         transform="matrix(1,0,0,-1,498.5446,1090.098)"
         id="g278"><path
           id="path280"
           style="fill:none;stroke:#efa72d;stroke-width:3;stroke-linecap:butt;stroke-linejoin:miter;stroke-miterlimit:10;stroke-dasharray:none;stroke-opacity:1"
           d="M 5.409394,3.927365 C 10.11708,6.395753 18.46719,-2.504712 23.26429,-0.05042676 25.67049,1.18063 21.56112,11.95663 23.5726,14.01587 32.28768,22.93787 75.41179,60.23551 47.23068,67.20855 41.66259,68.5863 36.44801,49.70824 31.66417,46.27028 25.28125,41.68311 -1.715964,34.13039 1.435549,18.90581 2.568459,13.43286 15.4082,12.55153 19.44803,12.33559" /></g><g
         transform="matrix(1,0,0,-1,18.86385,324.004)"
         id="g282"><path
           id="path284"
           style="fill:none;stroke:#efa72d;stroke-width:3;stroke-linecap:butt;stroke-linejoin:miter;stroke-miterlimit:10;stroke-dasharray:none;stroke-opacity:1"
           d="M 0.5346246,134.915 C 38.38489,189.768 45.74396,167.7118 93.79664,185.817 c 2.11194,0.7958 50.55506,47.9614 52.81106,53.9609 9.7537,25.9385 -15.1022,15.7101 -10.2293,35.0045 1.4209,5.6259 32.5457,12.5294 36.484,9.0186 30.9259,-27.5683 -16.3112,-49.0423 -7.3242,-64.8105 12.5719,-22.058 76.3423,28.7183 55.86,-8.4083 -14.7774,-26.7856 -50.5506,-19.0025 -58.6074,-25.0738 -6.795,-5.1204 -20.6177,-24.5583 -24.4254,-32.0966 -2.0028,-3.9651 6.0629,-7.7731 0.1507,-12.2283 -14.7842,-11.1407 -23.0719,13.0371 -33.4283,-9.9376 C 86.22287,89.39547 53.27934,73.62716 44.03452,55.11914 39.59316,46.22761 31.14779,7.744031 40.52657,2.07734 c 6.51089,-3.933897 32.01209,-2.4441158 35.71664,4.889941 3.0113,5.961599 1.16719,13.759209 4.57678,18.956239 5.24322,7.99192 27.98241,10.78979 35.86741,17.11822 34.3354,27.55757 65.9185,55.99233 95.8587,85.29616 3.4483,3.375 11.8261,-5.5821 14.5045,-2.901 4.3966,4.4009 11.3789,16.0589 14.9567,21.7064 10.8668,17.153 -1.9251,60.6254 23.6581,69.5496 40.6353,14.1749 62.9134,90.5875 128.5196,24.9161 9.8358,-9.8455 -20.8514,-13.1807 -24.8776,-16.0483 -8.9842,-6.399 -7.9552,-32.4053 3.3572,-32.4053 67.0479,0 20.2177,-21.9867 40.7525,-28.7361 8.7376,-2.872 16.0741,10.1883 23.2058,12.3791 7.4497,2.2886 23.6411,-7.8964 30.6809,0.6104 8.078,9.7616 -8.778,20.9508 0.1507,31.644 6.8019,8.1461 31.0262,17.8394 26.7138,30.7251 -3.1896,9.5306 -28.9073,4.8059 -23.9664,19.8683 2.364,7.2064 29.5031,-3.2036 36.9362,-1.982 13.3906,2.2006 24.0984,20.158 35.1069,27.5153" /></g><g
         transform="matrix(1,0,0,-1,630.5915,499.3423)"
         id="g286"><path
           id="path288"
           style="fill:none;stroke:#efa72d;stroke-width:3;stroke-linecap:butt;stroke-linejoin:miter;stroke-miterlimit:10;stroke-dasharray:none;stroke-opacity:1"
           d="M 25.6155,77.90228 C 31.37532,90.23345 21.79514,88.85193 17.98298,96.39902 14.3709,103.55 -4.786309,103.2749 0.4295477,119.1753 4.751522,132.3508 30.9388,118.7342 36.14619,124.0652 c 6.48864,6.6427 9.62215,30.3766 24.26785,24.7652 21.71863,-8.3212 24.48351,-35.5978 45.02776,-42.4938 4.9443,-1.6596 23.7284,-27.17834 22.4385,-27.82393 C 110.0362,69.58172 91.38547,87.11031 73.54143,81.11195 59.00106,76.22414 64.76495,62.34757 74.15121,56.95715 83.97561,51.31512 144.772,-8.968449 153.8268,0.09529836 157.7942,4.066602 149.3748,14.13921 148.791,18.28341 c -1.3031,9.24931 17.3792,4.95721 16.0255,17.27596 -2.7781,25.28042 -47.0116,76.03113 29.1598,80.09763" /></g><g
         transform="matrix(1,0,0,-1,512.0188,423.812)"
         id="g290"><path
           id="path292"
           style="fill:none;stroke:#efa72d;stroke-width:3;stroke-linecap:butt;stroke-linejoin:miter;stroke-miterlimit:10;stroke-dasharray:none;stroke-opacity:1"
           d="M 139.4539,3.901319 C 121.4298,-11.20778 108.0971,16.5725 91.21966,11.69916 81.57291,8.913681 75.23002,-3.034454 64.66342,4.052201 36.38365,23.01847 57.55143,34.25336 53.06391,49.4539 c -4.11628,13.943 -9.16939,23.81559 -11.60637,38.67374 -1.93897,11.82179 -13.26595,4.8278 -18.16321,17.57776 -5.4619,14.2199 9.5556,24.3103 6.71443,37.7547 -4.62059,21.8644 -26.337086,11.858 -30.2217762,26.905 -1.6947578,6.5645 25.3700662,53.401 33.2775262,56.5601 9.44498,3.7732 27.322,-0.9266 38.16261,0.4595" /></g><g
         transform="matrix(1,0,0,-1,587.4742,386.0468)"
         id="g294"><path
           id="path296"
           style="fill:none;stroke:#efa72d;stroke-width:3;stroke-linecap:butt;stroke-linejoin:miter;stroke-miterlimit:10;stroke-dasharray:none;stroke-opacity:1"
           d="m 249.762,-0.5395631 c -0.1246,6.0514891 13.1376,1.8481991 14.9568,3.6691701 3.42,3.42343 -2.082,15.851143 1.8293,18.798493 3.5278,2.65837 10.1,-0.44925 14.1962,0.61039 5.5915,1.44641 7.0891,12.48451 13.1274,15.28707 12.9004,5.98744 55.1316,0.78652 59.3747,19.10711 9.2897,40.11038 -28.2475,21.97808 -47.9259,29.96375 -6.1947,2.51388 -9.025,12.15616 -14.347,16.04838 -26.718,19.5399 -70.0357,42.5772 -104.8615,32.1035 -10.206,-3.0694 -18.0101,-30.9398 -33.5858,-29.6551 -13.4901,1.1126 -70.07484,26.728 -78.29846,35.6149 -8.43812,9.1187 -11.46835,24.5593 -19.9994,33.0225 -10.97021,10.8831 -40.15072,6.1534 -52.961756,18.4899" /></g><g
         transform="matrix(1,0,0,-1,242.5352,712.4459)"
         id="g298"><path
           id="path300"
           style="fill:none;stroke:#efa72d;stroke-width:3;stroke-linecap:butt;stroke-linejoin:miter;stroke-miterlimit:10;stroke-dasharray:none;stroke-opacity:1"
           d="M -0.4621877,9.834714 C 1.058021,4.375515 5.641091,2.104845 9.73051,-0.5748506" /></g><g
         transform="matrix(1,0,0,-1,264.0939,1403.009)"
         id="g302"><path
           id="path304"
           style="fill:none;stroke:#efa72d;stroke-width:3;stroke-linecap:butt;stroke-linejoin:miter;stroke-miterlimit:10;stroke-dasharray:none;stroke-opacity:1"
           d="M 8.196493,-0.27227 C 4.923195,2.553128 2.037203,10.48452 -0.2872174,16.96078" /></g><g
         transform="matrix(1,0,0,-1,649.4554,423.812)"
         id="g306"><path
           id="path308"
           style="fill:none;stroke:#efa72d;stroke-width:3;stroke-linecap:square;stroke-linejoin:miter;stroke-miterlimit:10;stroke-dasharray:none;stroke-opacity:1"
           d="m 1.347418,4.046269 5.389671,0" /></g></g><g
       id="g310"><g
         id="g312" /><g
         id="g326"><g
           style="opacity:0.39590005"
           id="g328"
           clip-path="url(#clipPath314)"><g
             id="g330" /><g
             id="g332"><g
               id="g334"
               clip-path="url(#clipPath318)"><g
                 id="g336"
                 clip-path="url(#clipPath322)"><path
                   id="path338"
                   style="fill:#0f5180;fill-opacity:1;fill-rule:evenodd;stroke:none"
                   d="m 273.8659,1022.805 544.5156,0 0,-660.7826 -544.5156,0 0,660.7826 z" /></g></g></g></g></g></g><g
       id="g340"><g
         clip-path="url(#clipPath344)"
         id="g342"><path
           id="path348"
           style="fill:#efa731;fill-opacity:0.4;fill-rule:evenodd;stroke:none"
           d="m 93.33714,446.5017 464.20446,0 0,-251.1413 -464.20446,0 0,251.1413 z" /></g></g><g
       id="g350"><g
         clip-path="url(#clipPath354)"
         id="g352"><path
           id="path358"
           style="fill:#417505;fill-opacity:0.5;fill-rule:evenodd;stroke:none"
           d="m 7.738268,814.344 297.143732,0 0,-333.234 -297.143732,0 0,333.234 z" /></g></g><g
       id="g360"><g
         clip-path="url(#clipPath364)"
         id="g362"><g
           transform="matrix(1,0,0,-1,463.505,735.1782)"
           id="g368"><text
             id="text370"
             style="font-style:italic;font-variant:normal;font-weight:bold;font-size:39.8125px;font-family:TimesNewRomanPS;-inkscape-font-specification:TimesNewRomanPS-BoldItalicMT;writing-mode:lr-tb;fill:#000000;fill-opacity:1;fill-rule:nonzero;stroke:none"
             transform="translate(0,35)"><tspan
               id="tspan372"
               y="0"
               x="0 26.554937">C </tspan></text>
<text
             id="text374"
             style="font-style:italic;font-variant:normal;font-weight:bold;font-size:39.8125px;font-family:TimesNewRomanPS;-inkscape-font-specification:TimesNewRomanPS-BoldItalicMT;writing-mode:lr-tb;fill:#000000;fill-opacity:1;fill-rule:nonzero;stroke:none"
             transform="translate(36.508062,35)"><tspan
               id="tspan376"
               y="0"
               x="0">х</tspan></text>
<text
             id="text378"
             style="font-style:italic;font-variant:normal;font-weight:bold;font-size:39.8125px;font-family:TimesNewRomanPS;-inkscape-font-specification:TimesNewRomanPS-BoldItalicMT;writing-mode:lr-tb;fill:#000000;fill-opacity:1;fill-rule:nonzero;stroke:none"
             transform="translate(66.367437,35)"><tspan
               id="tspan380"
               y="0"
               x="0">і</tspan></text>
<text
             id="text382"
             style="font-style:italic;font-variant:normal;font-weight:bold;font-size:39.8125px;font-family:TimesNewRomanPS;-inkscape-font-specification:TimesNewRomanPS-BoldItalicMT;writing-mode:lr-tb;fill:#000000;fill-opacity:1;fill-rule:nonzero;stroke:none"
             transform="translate(87.380475,35)"><tspan
               id="tspan384"
               y="0"
               x="0">д</tspan></text>
<text
             id="text386"
             style="font-style:italic;font-variant:normal;font-weight:bold;font-size:39.8125px;font-family:TimesNewRomanPS;-inkscape-font-specification:TimesNewRomanPS-BoldItalicMT;writing-mode:lr-tb;fill:#000000;fill-opacity:1;fill-rule:nonzero;stroke:none"
             transform="translate(117.08458,35)"><tspan
               id="tspan388"
               y="0"
               x="0">н</tspan></text>
<text
             id="text390"
             style="font-style:italic;font-variant:normal;font-weight:bold;font-size:39.8125px;font-family:TimesNewRomanPS;-inkscape-font-specification:TimesNewRomanPS-BoldItalicMT;writing-mode:lr-tb;fill:#000000;fill-opacity:1;fill-rule:nonzero;stroke:none"
             transform="translate(149.14161,35)"><tspan
               id="tspan392"
               y="0"
               x="0">і</tspan></text>
</g><g
           transform="matrix(1,0,0,-1,463.505,735.1782)"
           id="g394"><text
             id="text396"
             style="font-style:italic;font-variant:normal;font-weight:bold;font-size:39.8125px;font-family:TimesNewRomanPS;-inkscape-font-specification:TimesNewRomanPS-BoldItalicMT;writing-mode:lr-tb;fill:#000000;fill-opacity:1;fill-rule:nonzero;stroke:none"
             transform="translate(0,81)"><tspan
               id="tspan398"
               y="0"
               x="0 17.668787 38.100563 58.006813">слов</tspan></text>
<text
             id="text400"
             style="font-style:italic;font-variant:normal;font-weight:bold;font-size:39.8125px;font-family:TimesNewRomanPS;-inkscape-font-specification:TimesNewRomanPS-BoldItalicMT;writing-mode:lr-tb;fill:#000000;fill-opacity:1;fill-rule:nonzero;stroke:none"
             transform="translate(75.795037,81)"><tspan
               id="tspan402"
               y="0"
               x="0">’</tspan></text>
<text
             id="text404"
             style="font-style:italic;font-variant:normal;font-weight:bold;font-size:39.8125px;font-family:TimesNewRomanPS;-inkscape-font-specification:TimesNewRomanPS-BoldItalicMT;writing-mode:lr-tb;fill:#000000;fill-opacity:1;fill-rule:nonzero;stroke:none"
             transform="translate(89.0526,81)"><tspan
               id="tspan406"
               y="0"
               x="0 20.50742 42.61132">яни</tspan></text>
</g></g></g><g
       id="g408"><g
         clip-path="url(#clipPath412)"
         id="g410"><g
           transform="matrix(1,0,0,-1,107.625,653.3465)"
           id="g416"><text
             id="text418"
             style="font-style:italic;font-variant:normal;font-weight:bold;font-size:39.8125px;font-family:TimesNewRomanPS;-inkscape-font-specification:TimesNewRomanPS-BoldItalicMT;writing-mode:lr-tb;fill:#000000;fill-opacity:1;fill-rule:nonzero;stroke:none"
             transform="translate(0,35)"><tspan
               id="tspan420"
               y="0"
               x="0 20.256599 40.162849 60.069099 71.129013 90.879997 112.98389">Західні</tspan></text>
</g><g
           transform="matrix(1,0,0,-1,107.625,653.3465)"
           id="g422"><text
             id="text424"
             style="font-style:italic;font-variant:normal;font-weight:bold;font-size:39.8125px;font-family:TimesNewRomanPS;-inkscape-font-specification:TimesNewRomanPS-BoldItalicMT;writing-mode:lr-tb;fill:#000000;fill-opacity:1;fill-rule:nonzero;stroke:none"
             transform="translate(0,81)"><tspan
               id="tspan426"
               y="0"
               x="0 17.668787 38.100563 58.006813">слов</tspan></text>
<text
             id="text428"
             style="font-style:italic;font-variant:normal;font-weight:bold;font-size:39.8125px;font-family:TimesNewRomanPS;-inkscape-font-specification:TimesNewRomanPS-BoldItalicMT;writing-mode:lr-tb;fill:#000000;fill-opacity:1;fill-rule:nonzero;stroke:none"
             transform="translate(75.795037,81)"><tspan
               id="tspan430"
               y="0"
               x="0">’</tspan></text>
<text
             id="text432"
             style="font-style:italic;font-variant:normal;font-weight:bold;font-size:39.8125px;font-family:TimesNewRomanPS;-inkscape-font-specification:TimesNewRomanPS-BoldItalicMT;writing-mode:lr-tb;fill:#000000;fill-opacity:1;fill-rule:nonzero;stroke:none"
             transform="translate(89.0526,81)"><tspan
               id="tspan434"
               y="0"
               x="0 20.50742 42.61132">яни</tspan></text>
</g></g></g><g
       id="g436"><g
         clip-path="url(#clipPath440)"
         id="g438"><g
           transform="matrix(1,0,0,-1,233.905,359.0396)"
           id="g444"><text
             id="text446"
             style="font-style:italic;font-variant:normal;font-weight:bold;font-size:39.8125px;font-family:TimesNewRomanPS;-inkscape-font-specification:TimesNewRomanPS-BoldItalicMT;writing-mode:lr-tb;fill:#000000;fill-opacity:1;fill-rule:nonzero;stroke:none"
             transform="translate(0,35)"><tspan
               id="tspan448"
               y="0"
               x="0 30.966162 42.026073 59.057861 78.796898 96.465691 118.55367 140.64163">Південні</tspan></text>
</g><g
           transform="matrix(1,0,0,-1,233.905,359.0396)"
           id="g450"><text
             id="text452"
             style="font-style:italic;font-variant:normal;font-weight:bold;font-size:39.8125px;font-family:TimesNewRomanPS;-inkscape-font-specification:TimesNewRomanPS-BoldItalicMT;writing-mode:lr-tb;fill:#000000;fill-opacity:1;fill-rule:nonzero;stroke:none"
             transform="translate(0,81)"><tspan
               id="tspan454"
               y="0"
               x="0 17.668787 38.100563 58.006813">слов</tspan></text>
<text
             id="text456"
             style="font-style:italic;font-variant:normal;font-weight:bold;font-size:39.8125px;font-family:TimesNewRomanPS;-inkscape-font-specification:TimesNewRomanPS-BoldItalicMT;writing-mode:lr-tb;fill:#000000;fill-opacity:1;fill-rule:nonzero;stroke:none"
             transform="translate(75.795037,81)"><tspan
               id="tspan458"
               y="0"
               x="0">’</tspan></text>
<text
             id="text460"
             style="font-style:italic;font-variant:normal;font-weight:bold;font-size:39.8125px;font-family:TimesNewRomanPS;-inkscape-font-specification:TimesNewRomanPS-BoldItalicMT;writing-mode:lr-tb;fill:#000000;fill-opacity:1;fill-rule:nonzero;stroke:none"
             transform="translate(89.0526,81)"><tspan
               id="tspan462"
               y="0"
               x="0 20.50742 42.61132">яни</tspan></text>
</g></g></g></g></svg>