<?xml version="1.0" encoding="UTF-8" standalone="no"?>
<svg
   xmlns:dc="http://purl.org/dc/elements/1.1/"
   xmlns:cc="http://creativecommons.org/ns#"
   xmlns:rdf="http://www.w3.org/1999/02/22-rdf-syntax-ns#"
   xmlns:svg="http://www.w3.org/2000/svg"
   xmlns="http://www.w3.org/2000/svg"
   viewBox="0 0 490.66666 102.66667"
   height="102.66667"
   width="490.66666"
   xml:space="preserve"
   version="1.1"
   id="svg2"><metadata
     id="metadata8"><rdf:RDF><cc:Work
         rdf:about=""><dc:format>image/svg+xml</dc:format><dc:type
           rdf:resource="http://purl.org/dc/dcmitype/StillImage" /></cc:Work></rdf:RDF></metadata><defs
     id="defs6"><clipPath
       id="clipPath18"
       clipPathUnits="userSpaceOnUse"><path
         id="path20"
         d="M 8,7.16 8,71 361.52,71 361.52,7.16 8,7.16 Z" /></clipPath><clipPath
       id="clipPath24"
       clipPathUnits="userSpaceOnUse"><path
         id="path26"
         d="M 0,0 368,0 368,77 0,77 0,0 Z" /></clipPath><clipPath
       id="clipPath40"
       clipPathUnits="userSpaceOnUse"><path
         id="path42"
         d="M 8,7.16 8,71 361.52,71 361.52,7.16 8,7.16 Z" /></clipPath><clipPath
       id="clipPath46"
       clipPathUnits="userSpaceOnUse"><path
         id="path48"
         d="m 8,7.16 353.52,0 0,63.84003 -353.52,0 L 8,7.16 Z" /></clipPath><clipPath
       id="clipPath60"
       clipPathUnits="userSpaceOnUse"><path
         id="path62"
         d="M 8,7.16 8,71 361.52,71 361.52,7.16 8,7.16 Z" /></clipPath><clipPath
       id="clipPath66"
       clipPathUnits="userSpaceOnUse"><path
         id="path68"
         d="m 8,7.16 353.52,0 0,63.84003 -353.52,0 L 8,7.16 Z" /></clipPath><clipPath
       id="clipPath80"
       clipPathUnits="userSpaceOnUse"><path
         id="path82"
         d="M 8,7.16 8,71 361.52,71 361.52,7.16 8,7.16 Z" /></clipPath><clipPath
       id="clipPath86"
       clipPathUnits="userSpaceOnUse"><path
         id="path88"
         d="m 8,7.16 353.52,0 0,63.84003 -353.52,0 L 8,7.16 Z" /></clipPath><clipPath
       id="clipPath100"
       clipPathUnits="userSpaceOnUse"><path
         id="path102"
         d="M 8,7.16 8,71 361.52,71 361.52,7.16 8,7.16 Z" /></clipPath><clipPath
       id="clipPath106"
       clipPathUnits="userSpaceOnUse"><path
         id="path108"
         d="m 8,7.16 353.52,0 0,63.84003 -353.52,0 L 8,7.16 Z" /></clipPath><clipPath
       id="clipPath120"
       clipPathUnits="userSpaceOnUse"><path
         id="path122"
         d="m 239.6,25.16 120,0 0,45.35999 -120,0 0,-45.35999 z" /></clipPath><clipPath
       id="clipPath134"
       clipPathUnits="userSpaceOnUse"><path
         id="path136"
         d="m 8.48,25.16 68.16,0 0,45.35999 -68.16,0 0,-45.35999 z" /></clipPath><clipPath
       id="clipPath148"
       clipPathUnits="userSpaceOnUse"><path
         id="path150"
         d="m 77.6,25.16 75.12,0 0,45.35999 -75.12,0 0,-45.35999 z" /></clipPath><clipPath
       id="clipPath162"
       clipPathUnits="userSpaceOnUse"><path
         id="path164"
         d="m 153.68,25.16 84.95999,0 0,45.35999 -84.95999,0 0,-45.35999 z" /></clipPath><clipPath
       id="clipPath176"
       clipPathUnits="userSpaceOnUse"><path
         id="path178"
         d="m 7.04,5.48 356.16,0 0,66.47998 -356.16,0 0,-66.47998 z" /></clipPath></defs><g
     transform="matrix(1.3333333,0,0,-1.3333333,0,102.66667)"
     id="g10"><g
       id="g12" /><g
       id="g14"><g
         clip-path="url(#clipPath18)"
         id="g16"><g
           clip-path="url(#clipPath24)"
           id="g22"><path
             id="path28"
             style="fill:#c0504d;fill-opacity:1;fill-rule:nonzero;stroke:none"
             d="m 8.48,7.88 69.36,0 0,62.64 -69.36,0 0,-62.64 z" /><path
             id="path30"
             style="fill:#f79646;fill-opacity:1;fill-rule:nonzero;stroke:none"
             d="m 77.6,7.88 76.32,0 0,62.64 -76.32,0 0,-62.64 z" /><path
             id="path32"
             style="fill:#4f81bd;fill-opacity:1;fill-rule:nonzero;stroke:none"
             d="m 153.68,7.88 86.16,0 0,62.64 -86.16,0 0,-62.64 z" /><path
             id="path34"
             style="fill:#a6a6a6;fill-opacity:1;fill-rule:nonzero;stroke:none"
             d="m 239.6,7.88 121.2,0 0,62.64 -121.2,0 0,-62.64 z" /></g></g></g><g
       id="g36"><g
         clip-path="url(#clipPath40)"
         id="g38"><g
           clip-path="url(#clipPath46)"
           id="g44"><g
             transform="matrix(0.24,0,0,0.24,-28,-657.88)"
             id="g50"><text
               id="text52"
               style="font-variant:normal;font-weight:normal;font-size:46px;font-family:Calibri;-inkscape-font-specification:Calibri;writing-mode:lr-tb;fill:#000000;fill-opacity:1;fill-rule:nonzero;stroke:none"
               transform="matrix(1,0,0,-1,179,2794)"><tspan
                 id="tspan54"
                 y="0"
                 x="0 11.592 21.992599 39.803799 64.666801 84.120201 95.730598 106.1312 131.8038 156.0596 166.46021 191.0564 202.66679 225.5564">I&quot;тис.&quot;до&quot;н.е.</tspan></text>
</g></g></g></g><g
       id="g56"><g
         clip-path="url(#clipPath60)"
         id="g58"><g
           clip-path="url(#clipPath66)"
           id="g64"><g
             transform="matrix(0.24,0,0,0.24,-28,-657.88)"
             id="g70"><text
               id="text72"
               style="font-variant:normal;font-weight:normal;font-size:46px;font-family:Calibri;-inkscape-font-specification:Calibri;writing-mode:lr-tb;fill:#000000;fill-opacity:1;fill-rule:nonzero;stroke:none"
               transform="matrix(1,0,0,-1,463,2794)"><tspan
                 id="tspan74"
                 y="0"
                 x="0 11.592 23.184 37.269199 48.861198 59.261799 77.072998 101.936 121.3894 132.9998 143.40041 169.073 193.3288 203.7294 228.32561 239.936 262.82559">II+I&quot;тис.&quot;до&quot;н.е.</tspan></text>
</g></g></g></g><g
       id="g76"><g
         clip-path="url(#clipPath80)"
         id="g78"><g
           clip-path="url(#clipPath86)"
           id="g84"><g
             transform="matrix(0.24,0,0,0.24,-28,-657.88)"
             id="g90"><text
               id="text92"
               style="font-variant:normal;font-weight:normal;font-size:46px;font-family:Calibri;-inkscape-font-specification:Calibri;writing-mode:lr-tb;fill:#000000;fill-opacity:1;fill-rule:nonzero;stroke:none"
               transform="matrix(1,0,0,-1,781,2794)"><tspan
                 id="tspan94"
                 y="0"
                 x="0 11.592 37.692402 51.777599 63.369598 74.961601 86.553596 96.954201 114.7654 139.6284 159.0818 170.6922 181.0928 206.7654 231.02119 241.4218 266.01801 277.62839 300.51801">IV+III&quot;тис.&quot;до&quot;н.е.</tspan></text>
</g></g></g></g><g
       id="g96"><g
         clip-path="url(#clipPath100)"
         id="g98"><g
           clip-path="url(#clipPath106)"
           id="g104"><g
             transform="matrix(0.24,0,0,0.24,-28,-657.88)"
             id="g110"><text
               id="text112"
               style="font-variant:normal;font-weight:normal;font-size:46px;font-family:Calibri;-inkscape-font-specification:Calibri;writing-mode:lr-tb;fill:#000000;fill-opacity:1;fill-rule:nonzero;stroke:none"
               transform="matrix(1,0,0,-1,1143,2794)"><tspan
                 id="tspan114"
                 y="0"
                 x="0 23.312799 33.713402 51.524601 76.387604 95.841003 107.4514 121.5366 144.8494 155.25 186.3598 209.8336 234.42979 244.8304 268.99881 293.25461 314.59399 325.151 347.185 357.5856 375.39679 399.65259 430.76239">6&quot;тис.+2&quot;млн&quot;років&quot;тому</tspan></text>
</g></g></g></g><g
       id="g116"><g
         clip-path="url(#clipPath120)"
         id="g118"><g
           transform="matrix(0.24,0,0,0.24,-28,-657.88)"
           id="g124"><text
             id="text126"
             style="font-variant:normal;font-weight:normal;font-size:46px;font-family:Calibri;-inkscape-font-specification:Calibri;writing-mode:lr-tb;fill:#000000;fill-opacity:1;fill-rule:nonzero;stroke:none"
             transform="matrix(1,0,0,-1,1245,2926)"><tspan
               id="tspan128"
               y="0"
               x="0 24.978001 47.012001 78.121803 88.274002 110.0826 134.6788 159.54179 184.4048 194.8054 216.8394 227.39639">Кам'яний&quot;вік</tspan></text>
</g></g></g><g
       id="g130"><g
         clip-path="url(#clipPath134)"
         id="g132"><g
           transform="matrix(0.24,0,0,0.24,-28,-657.88)"
           id="g138"><text
             id="text140"
             style="font-variant:normal;font-weight:normal;font-size:46px;font-family:Calibri;-inkscape-font-specification:Calibri;writing-mode:lr-tb;fill:#000000;fill-opacity:1;fill-rule:nonzero;stroke:none"
             transform="matrix(1,0,0,-1,180,2926)"><tspan
               id="tspan142"
               y="0"
               x="0 21.785601 43.819599 67.293404 77.850403 97.303802 121.9 146.763 171.62601 182.0266 204.06059 214.6176">Залізний&quot;вік</tspan></text>
</g></g></g><g
       id="g144"><g
         clip-path="url(#clipPath148)"
         id="g146"><g
           transform="matrix(0.24,0,0,0.24,-28,-657.88)"
           id="g152"><text
             id="text154"
             style="font-variant:normal;font-weight:normal;font-size:46px;font-family:Calibri;-inkscape-font-specification:Calibri;writing-mode:lr-tb;fill:#000000;fill-opacity:1;fill-rule:nonzero;stroke:none"
             transform="matrix(1,0,0,-1,462,2926)"><tspan
               id="tspan156"
               y="0"
               x="0 24.729601 48.897999 73.153801 97.75 117.2034 141.4592 163.49319 188.3562 213.21919 223.6198 245.65379 256.21078">Бронзовий&quot;вік</tspan></text>
</g></g></g><g
       id="g158"><g
         clip-path="url(#clipPath162)"
         id="g160"><g
           transform="matrix(0.24,0,0,0.24,-28,-657.88)"
           id="g166"><text
             id="text168"
             style="font-variant:normal;font-weight:normal;font-size:46px;font-family:Calibri;-inkscape-font-specification:Calibri;writing-mode:lr-tb;fill:#000000;fill-opacity:1;fill-rule:nonzero;stroke:none"
             transform="matrix(1,0,0,-1,865,2926)"><tspan
               id="tspan170"
               y="0"
               x="0 22.4618 47.0396 69.915398 94.171204 117.645 128.19279">Енеоліт</tspan></text>
</g></g></g><g
       id="g172"><g
         clip-path="url(#clipPath176)"
         id="g174"><path
           id="path180"
           style="fill:#000000;fill-opacity:1;fill-rule:nonzero;stroke:none"
           d="m 7.52,7.16 1.92,0 0,64.32 -1.92,0 0,-64.32 z" /><path
           id="path182"
           style="fill:#000000;fill-opacity:1;fill-rule:nonzero;stroke:none"
           d="m 76.64,7.16 1.92,0 0,62.4 -1.92,0 0,-62.4 z" /><path
           id="path184"
           style="fill:#000000;fill-opacity:1;fill-rule:nonzero;stroke:none"
           d="m 152.72,7.16 1.92,0 0,62.4 -1.92,0 0,-62.4 z" /><path
           id="path186"
           style="fill:#000000;fill-opacity:1;fill-rule:nonzero;stroke:none"
           d="m 238.64,7.16 1.92,0 0,62.4 -1.92,0 0,-62.4 z" /><path
           id="path188"
           style="fill:#000000;fill-opacity:1;fill-rule:nonzero;stroke:none"
           d="m 359.6,7.16 1.92,0 0,62.4 -1.92,0 0,-62.4 z" /><path
           id="path190"
           style="fill:#000000;fill-opacity:1;fill-rule:nonzero;stroke:none"
           d="m 9.44,69.56 352.08,0 0,1.92 -352.08,0 0,-1.92 z" /><path
           id="path192"
           style="fill:#000000;fill-opacity:1;fill-rule:nonzero;stroke:none"
           d="m 9.44,23.24 352.08,0 0,1.92 -352.08,0 0,-1.92 z" /><path
           id="path194"
           style="fill:#000000;fill-opacity:1;fill-rule:nonzero;stroke:none"
           d="m 9.44,7.16 352.08,0 0,1.92 -352.08,0 0,-1.92 z" /></g></g></g></svg>